<svg xmlns="http://www.w3.org/2000/svg" viewBox="0 0 158.02 161.57"><path d="M58.9,86.26a19,19,0,0,0,1.61,7.85,19.57,19.57,0,0,0,10.74,10.36,21,21,0,0,0,15.42,0,20.19,20.19,0,0,0,6.44-4.11,19.65,19.65,0,0,0,4.4-6.25,19.94,19.94,0,0,0,0-15.7,19.65,19.65,0,0,0-4.4-6.25A20.39,20.39,0,0,0,86.67,68a21.09,21.09,0,0,0-15.42,0A19.63,19.63,0,0,0,60.51,78.41a19,19,0,0,0-1.61,7.85" fill="#ce171c"/><path d="M116,102a39.37,39.37,0,0,1-8.8,12.49,41.65,41.65,0,0,1-43.72,8.23,39.32,39.32,0,0,1-12.77-8.23A39.93,39.93,0,0,1,42,102a40,40,0,0,1,0-31.42,39.81,39.81,0,0,1,8.71-12.49,39.32,39.32,0,0,1,12.77-8.23A40.83,40.83,0,0,1,78.91,46.9a43.94,43.94,0,0,1,5.42.34A30.51,30.51,0,0,0,99.41,60a32.32,32.32,0,0,0,11.67,2.32A39.58,39.58,0,0,1,116,70.55,40,40,0,0,1,116,102M98.1,25.76a14.17,14.17,0,0,1,3.14-4.53,13.77,13.77,0,0,1,4.59-2.95,15.37,15.37,0,0,1,5.79-1.08l.28,0a15.27,15.27,0,0,1,5.52,1.06,14.92,14.92,0,0,1,4.77,3,13.25,13.25,0,0,1,1.79,2.1,14.32,14.32,0,0,1,1.32,2.34,13,13,0,0,1,1,5.4,13,13,0,0,1-1,5.42,13.5,13.5,0,0,1-3.1,4.43,14.66,14.66,0,0,1-4.78,3,15.11,15.11,0,0,1-5.79,1.08,15.28,15.28,0,0,1-5.78-1.07,13.86,13.86,0,0,1-4.59-2.94,14.2,14.2,0,0,1-3.15-4.54,13.14,13.14,0,0,1-1-5.42,13.12,13.12,0,0,1,1-5.41m54.05,30.88A74,74,0,0,0,142.32,40a31.4,31.4,0,0,0,1.22-8.83A30.2,30.2,0,0,0,141,18.74a31,31,0,0,0-7-9.9A33,33,0,0,0,99.41,2.32,31.32,31.32,0,0,0,89.29,8.84,32.34,32.34,0,0,0,87,11.28c-2.66-.22-5.36-.34-8.13-.34A85.51,85.51,0,0,0,47,16.71,75.56,75.56,0,0,0,5.87,115.88,73.16,73.16,0,0,0,47,155.8a85.31,85.31,0,0,0,31.88,5.78,85.6,85.6,0,0,0,31.8-5.78,75,75,0,0,0,25.07-16,73.21,73.21,0,0,0,16.37-23.93A74.57,74.57,0,0,0,158,86.26a74.57,74.57,0,0,0-5.87-29.62" fill="#fff"/></svg>