<svg xmlns="http://www.w3.org/2000/svg" viewBox="0 0 481.89 161.58"><polygon points="465.25 133.11 465.25 160.81 481.08 160.81 481.08 154.71 472.45 154.71 472.45 133.11 465.25 133.11" fill="#010101"/><path d="M392.58,141.3l3.23,9.22h-6.47Zm-3.93-8.19-10.55,27.7h7.68l1.65-4.82h10.29l1.65,4.82h7.68l-10.54-27.7Z" fill="#010101"/><polygon points="304.77 133.11 304.77 139.21 310.68 139.21 310.68 160.81 317.88 160.81 317.88 139.21 323.79 139.21 323.79 133.11 304.77 133.11" fill="#010101"/><rect x="83.91" y="133.11" width="7.2" height="27.7" fill="#010101"/><path d="M165.44,145.3h14.29c0,1.47-.06,2.81-.18,4a13.93,13.93,0,0,1-.74,3.34,13.28,13.28,0,0,1-2.09,3.84,12.47,12.47,0,0,1-3.1,2.79A14.53,14.53,0,0,1,169.7,161a16.83,16.83,0,0,1-4.48.59,15.71,15.71,0,0,1-5.89-1.07,13.42,13.42,0,0,1-4.58-3,13.64,13.64,0,0,1-3-4.63,17.23,17.23,0,0,1,0-11.9,13,13,0,0,1,3-4.61,13.37,13.37,0,0,1,4.64-3,16.47,16.47,0,0,1,6.06-1.06,15,15,0,0,1,7.61,1.87,13,13,0,0,1,5.18,5.8l-6.84,2.83a6.87,6.87,0,0,0-2.48-3.27,6.21,6.21,0,0,0-3.47-1,6.91,6.91,0,0,0-2.94.61,6.45,6.45,0,0,0-2.26,1.72,8.32,8.32,0,0,0-1.46,2.7,10.9,10.9,0,0,0-.54,3.53,11.33,11.33,0,0,0,.46,3.27,7.58,7.58,0,0,0,1.38,2.61,6.29,6.29,0,0,0,2.28,1.71,7.75,7.75,0,0,0,3.16.6,8.65,8.65,0,0,0,2-.24,5.29,5.29,0,0,0,1.78-.77,4.23,4.23,0,0,0,1.31-1.38,5.7,5.7,0,0,0,.7-2.05h-5.92Z" fill="#010101"/><rect x="239.33" y="133.11" width="7.2" height="27.7" fill="#010101"/><path d="M7.2,154.71H8.85a9,9,0,0,0,3.35-.59,7.12,7.12,0,0,0,2.48-1.62,7,7,0,0,0,1.54-2.44,8.85,8.85,0,0,0,.53-3.1,8.48,8.48,0,0,0-.55-3.09,7.28,7.28,0,0,0-1.56-2.46,7.26,7.26,0,0,0-2.48-1.62,8.88,8.88,0,0,0-3.31-.58H7.2ZM0,133.11H10.65A12.54,12.54,0,0,1,16,134.25a14.61,14.61,0,0,1,4.34,3,14.14,14.14,0,0,1,2.92,4.41A13.34,13.34,0,0,1,24.28,147a13.46,13.46,0,0,1-1.05,5.23,13.88,13.88,0,0,1-2.9,4.43,14.32,14.32,0,0,1-4.33,3,12.69,12.69,0,0,1-5.35,1.14H0Z" fill="#010101"/><polygon points="444.99 10.61 428.01 36.88 414.27 10.61 381.68 10.61 413.33 58.02 373.6 112.17 405.52 112.17 429.36 79.03 449.7 112.17 481.89 112.17 481.89 112.17 444.04 58.02 477.58 10.61 444.99 10.61" fill="#010101"/><path d="M313.36,61.39A13.6,13.6,0,0,0,314.5,67a14.14,14.14,0,0,0,3.1,4.44,13.84,13.84,0,0,0,4.55,2.93,14.85,14.85,0,0,0,11,0,14.19,14.19,0,0,0,4.58-2.93A13.59,13.59,0,0,0,340.83,67a14.16,14.16,0,0,0,0-11.18,13.59,13.59,0,0,0-3.13-4.44,14.19,14.19,0,0,0-4.58-2.93,14.85,14.85,0,0,0-11,0,13.84,13.84,0,0,0-4.55,2.93,14.14,14.14,0,0,0-3.1,4.44,13.6,13.6,0,0,0-1.14,5.59" fill="#ce171c"/><path d="M354,72.57a27.91,27.91,0,0,1-6.26,8.89,29.62,29.62,0,0,1-31.12,5.86,27.93,27.93,0,0,1-15.28-14.75,28.44,28.44,0,0,1,0-22.36,27.93,27.93,0,0,1,15.28-14.75,29.18,29.18,0,0,1,11-2.09,30.77,30.77,0,0,1,3.86.25A21.81,21.81,0,0,0,335,38.08a22.11,22.11,0,0,0,7.2,4.64,23,23,0,0,0,8.31,1.64,28.6,28.6,0,0,1,3.5,5.85,28.44,28.44,0,0,1,0,22.36M341.26,18.33a10.07,10.07,0,0,1,2.23-3.22,9.93,9.93,0,0,1,3.27-2.1,10.75,10.75,0,0,1,4.12-.77h.2A10.77,10.77,0,0,1,355,13a10.61,10.61,0,0,1,3.4,2.16,10.15,10.15,0,0,1,1.28,1.5,10.73,10.73,0,0,1,.93,1.67,9.2,9.2,0,0,1,.75,3.84,9.3,9.3,0,0,1-.75,3.86,9.73,9.73,0,0,1-2.21,3.15,10.46,10.46,0,0,1-3.4,2.17,11.38,11.38,0,0,1-8.23,0,9.86,9.86,0,0,1-3.27-2.09A10,10,0,0,1,341.26,26a9.14,9.14,0,0,1-.75-3.86,9.12,9.12,0,0,1,.75-3.85m38.47,22a52.93,52.93,0,0,0-7-11.85,22.47,22.47,0,0,0,.87-6.28,21.39,21.39,0,0,0-1.81-8.85,22.12,22.12,0,0,0-5-7,22.81,22.81,0,0,0-7.26-4.64,23.71,23.71,0,0,0-17.38,0A22.11,22.11,0,0,0,335,6.29,20.23,20.23,0,0,0,333.39,8c-1.9-.16-3.82-.25-5.79-.25a60.76,60.76,0,0,0-22.7,4.11,53.77,53.77,0,0,0-29.29,70.58,52.53,52.53,0,0,0,11.58,17,53.18,53.18,0,0,0,17.71,11.38,64.55,64.55,0,0,0,45.33,0,53.66,53.66,0,0,0,17.84-11.38,52.13,52.13,0,0,0,11.66-17,53.12,53.12,0,0,0,4.17-21.08,53.12,53.12,0,0,0-4.17-21.08" fill="#010101"/><path d="M199,89.81h6.06a32.76,32.76,0,0,0,12.26-2.16,26.14,26.14,0,0,0,9.09-5.92,25.36,25.36,0,0,0,5.65-9,32.1,32.1,0,0,0,2-11.38,31.37,31.37,0,0,0-2-11.31,25.35,25.35,0,0,0-14.82-14.95A32.31,32.31,0,0,0,205.06,33H199Zm-26.4-79.2h39.06a46.13,46.13,0,0,1,19.46,4.18A53,53,0,0,1,247,25.9a51.45,51.45,0,0,1,10.71,16.16,49.8,49.8,0,0,1,.07,38.52,51.51,51.51,0,0,1-10.64,16.23A52.44,52.44,0,0,1,231.26,108a46.35,46.35,0,0,1-19.6,4.18H172.6Z" fill="#010101"/><polygon points="153.61 32.97 122.23 32.97 122.23 49.94 151.86 49.94 151.86 72.3 122.23 72.3 122.23 89.81 153.61 89.81 153.61 112.17 95.83 112.17 95.83 10.61 153.61 10.61 153.61 32.97" fill="#010101"/><path d="M26.73,56h5q7.8,0,12-3.23t4.18-9.29c0-4-1.39-7.14-4.18-9.3S36.92,31,31.72,31h-5Zm58.05,56.17H51.92L26.73,73.11v39.06H.33V10.61H41.41A40.36,40.36,0,0,1,56.23,13.1,27.92,27.92,0,0,1,72.86,29.87,34.76,34.76,0,0,1,75,42q0,11.59-5.59,18.79t-16.5,9.77Z" fill="#010101"/></svg>