<svg xmlns="http://www.w3.org/2000/svg" viewBox="0 0 481.56 115"><polygon points="444.65 10.62 427.68 36.88 413.94 10.62 381.35 10.62 413 58.03 373.27 112.17 405.19 112.17 429.03 79.04 449.37 112.17 481.56 112.17 481.56 112.17 443.71 58.03 477.25 10.62 444.65 10.62" fill="#010101"/><path d="M313,61.4A13.6,13.6,0,0,0,314.17,67a14,14,0,0,0,7.64,7.37,14.69,14.69,0,0,0,15.56-2.93A14,14,0,0,0,340.5,67a14.16,14.16,0,0,0,0-11.18,13.9,13.9,0,0,0-3.13-4.45,14.53,14.53,0,0,0-4.58-2.93,15,15,0,0,0-11,0,14.13,14.13,0,0,0-4.54,2.93,14,14,0,0,0-3.1,4.45A13.57,13.57,0,0,0,313,61.4" fill="#ce171c"/><path d="M353.67,72.57a27.67,27.67,0,0,1-6.27,8.89,29.11,29.11,0,0,1-20.13,8,29,29,0,0,1-11-2.09,27.8,27.8,0,0,1-9.09-5.86,28.1,28.1,0,0,1-6.2-8.89,28.41,28.41,0,0,1,0-22.35,28.22,28.22,0,0,1,6.2-8.89,27.8,27.8,0,0,1,9.09-5.86,29.18,29.18,0,0,1,11-2.09,30.49,30.49,0,0,1,3.85.25,21.84,21.84,0,0,0,10.73,9.09,23.09,23.09,0,0,0,8.31,1.65,27.94,27.94,0,0,1,3.51,5.85,28.41,28.41,0,0,1,0,22.35M340.92,18.34a10.23,10.23,0,0,1,2.23-3.23A10,10,0,0,1,346.43,13a10.75,10.75,0,0,1,4.12-.77h.19a10.66,10.66,0,0,1,3.93.76,10.54,10.54,0,0,1,3.4,2.16,9.66,9.66,0,0,1,1.28,1.5,10.63,10.63,0,0,1,.93,1.66,9.28,9.28,0,0,1,.74,3.85,9.36,9.36,0,0,1-.74,3.86,9.89,9.89,0,0,1-2.21,3.15,11.25,11.25,0,0,1-11.64,2.17,10.13,10.13,0,0,1-3.27-2.09,10,10,0,0,1-2.23-3.23,9.2,9.2,0,0,1-.75-3.86,9.28,9.28,0,0,1,.74-3.85m38.47,22a52.56,52.56,0,0,0-7-11.85,22.16,22.16,0,0,0,.88-6.28,21.39,21.39,0,0,0-1.82-8.85,22,22,0,0,0-5-7,22.66,22.66,0,0,0-7.25-4.64,23.6,23.6,0,0,0-17.39,0,22.33,22.33,0,0,0-7.2,4.64c-.56.55-1.09,1.13-1.6,1.73q-2.83-.24-5.78-.24a60.76,60.76,0,0,0-22.7,4.11A52.55,52.55,0,0,0,271.1,61.4a52.33,52.33,0,0,0,33.47,49.49,64.55,64.55,0,0,0,45.33,0,53.34,53.34,0,0,0,17.84-11.38,51.91,51.91,0,0,0,11.65-17,53.16,53.16,0,0,0,4.18-21.08,53.09,53.09,0,0,0-4.18-21.08" fill="#010101"/><path d="M198.67,89.82h6.06A32.67,32.67,0,0,0,217,87.66a26.16,26.16,0,0,0,9.09-5.93,25.34,25.34,0,0,0,5.66-9,32.1,32.1,0,0,0,2-11.38,31.21,31.21,0,0,0-2-11.32,25.89,25.89,0,0,0-5.72-9,26.16,26.16,0,0,0-9.09-5.93A32.55,32.55,0,0,0,204.73,33h-6.06Zm-26.4-79.2h39.06a46.12,46.12,0,0,1,19.46,4.17A53.17,53.17,0,0,1,246.68,25.9a51.84,51.84,0,0,1,10.71,16.17,49.8,49.8,0,0,1,.07,38.52,51.51,51.51,0,0,1-10.64,16.23A52.48,52.48,0,0,1,230.92,108a46.42,46.42,0,0,1-19.59,4.17H172.27Z" fill="#010101"/><polygon points="153.28 32.98 121.89 32.98 121.89 49.95 151.53 49.95 151.53 72.31 121.89 72.31 121.89 89.82 153.28 89.82 153.28 112.17 95.5 112.17 95.5 10.62 153.28 10.62 153.28 32.98" fill="#010101"/><path d="M26.4,56h5q7.82,0,12-3.23t4.18-9.3q0-6.06-4.18-9.29T31.38,31h-5Zm58.05,56.16H51.59L26.4,73.11v39.06H0V10.62H41.08A40.39,40.39,0,0,1,55.9,13.11,27.92,27.92,0,0,1,72.53,29.88,34.76,34.76,0,0,1,74.62,42q0,11.58-5.59,18.79t-16.5,9.76Z" fill="#010101"/></svg>