<svg xmlns="http://www.w3.org/2000/svg" viewBox="0 0 481.56 115"><polygon points="444.65 10.62 427.68 36.88 413.94 10.62 381.35 10.62 413 58.03 373.27 112.18 405.19 112.18 429.03 79.04 449.37 112.18 481.56 112.18 481.56 112.17 443.71 58.03 477.25 10.62 444.65 10.62" fill="#fff"/><path d="M313,61.4A13.44,13.44,0,0,0,314.17,67a14,14,0,0,0,7.64,7.37,14.88,14.88,0,0,0,11,0,14.29,14.29,0,0,0,4.58-2.93A13.85,13.85,0,0,0,340.5,67a14.16,14.16,0,0,0,0-11.18,13.9,13.9,0,0,0-3.13-4.45,14.84,14.84,0,0,0-15.56-2.93,14.13,14.13,0,0,0-4.54,2.93,14,14,0,0,0-3.1,4.45A13.41,13.41,0,0,0,313,61.4" fill="#ce171c"/><path d="M353.67,72.58a27.89,27.89,0,0,1-6.27,8.89,29.66,29.66,0,0,1-31.11,5.86A28,28,0,0,1,301,72.58a28.44,28.44,0,0,1,0-22.36,28,28,0,0,1,15.29-14.75,29.18,29.18,0,0,1,11-2.09,30.49,30.49,0,0,1,3.85.25,21.78,21.78,0,0,0,10.73,9.1,23.08,23.08,0,0,0,8.31,1.64,28.2,28.2,0,0,1,3.51,5.85,28.44,28.44,0,0,1,0,22.36M340.92,18.34a10.23,10.23,0,0,1,2.23-3.23A10,10,0,0,1,346.43,13a10.75,10.75,0,0,1,4.12-.77h.19a10.66,10.66,0,0,1,3.93.76,10.54,10.54,0,0,1,3.4,2.16,10.15,10.15,0,0,1,1.28,1.5,10.29,10.29,0,0,1,.93,1.67,9.2,9.2,0,0,1,.74,3.84,9.36,9.36,0,0,1-.74,3.86,9.76,9.76,0,0,1-2.22,3.15,10.7,10.7,0,0,1-3.39,2.17,11.41,11.41,0,0,1-8.24,0,10.13,10.13,0,0,1-3.27-2.09,10,10,0,0,1-2.23-3.23,9.17,9.17,0,0,1-.75-3.86,9.28,9.28,0,0,1,.74-3.85m38.47,22a52.93,52.93,0,0,0-7-11.85,22.11,22.11,0,0,0,.88-6.28,21.39,21.39,0,0,0-1.82-8.85,22,22,0,0,0-5-7,22.66,22.66,0,0,0-7.25-4.64,23.74,23.74,0,0,0-17.39,0,22.33,22.33,0,0,0-7.2,4.64c-.56.55-1.09,1.13-1.6,1.73-1.89-.15-3.82-.24-5.78-.24a60.76,60.76,0,0,0-22.7,4.11A52.55,52.55,0,0,0,271.1,61.4a53,53,0,0,0,4.18,21.08,52.38,52.38,0,0,0,11.58,17,53,53,0,0,0,17.71,11.39,64.7,64.7,0,0,0,45.33,0,53.52,53.52,0,0,0,17.84-11.39,51.81,51.81,0,0,0,11.65-17,53.13,53.13,0,0,0,4.18-21.08,53.13,53.13,0,0,0-4.18-21.08" fill="#fff"/><path d="M198.66,89.82h6.07A32.71,32.71,0,0,0,217,87.66a26.14,26.14,0,0,0,9.09-5.92,25.38,25.38,0,0,0,5.66-9,32.1,32.1,0,0,0,2-11.38,31.25,31.25,0,0,0-2-11.32,25.89,25.89,0,0,0-5.72-9,26.3,26.3,0,0,0-9.09-5.93A32.59,32.59,0,0,0,204.73,33h-6.07Zm-26.39-79.2h39.06a46,46,0,0,1,19.46,4.18,52.81,52.81,0,0,1,15.89,11.11,51.68,51.68,0,0,1,10.71,16.16,49.92,49.92,0,0,1,.07,38.52,51.51,51.51,0,0,1-10.64,16.23A52.48,52.48,0,0,1,230.92,108a46.42,46.42,0,0,1-19.59,4.18H172.27Z" fill="#fff"/><polygon points="153.28 32.98 121.89 32.98 121.89 49.95 151.53 49.95 151.53 72.31 121.89 72.31 121.89 89.82 153.28 89.82 153.28 112.17 95.5 112.17 95.5 10.62 153.28 10.62 153.28 32.98" fill="#fff"/><path d="M26.4,56h5q7.82,0,12-3.23t4.18-9.3q0-6.06-4.18-9.29T31.38,31h-5Zm58.05,56.17H51.59L26.4,73.12v39.06H0V10.62H41.08A40.39,40.39,0,0,1,55.9,13.11,27.92,27.92,0,0,1,72.53,29.88,34.76,34.76,0,0,1,74.62,42q0,11.6-5.59,18.79t-16.5,9.77Z" fill="#fff"/></svg>