<svg xmlns="http://www.w3.org/2000/svg" viewBox="0 0 158.02 161.57"><path d="M58.9,86.26a19.07,19.07,0,0,0,1.61,7.85,19.57,19.57,0,0,0,10.74,10.36,20.67,20.67,0,0,0,21.86-4.11,19.65,19.65,0,0,0,4.4-6.25,20,20,0,0,0,0-15.71,19.61,19.61,0,0,0-4.4-6.24A20.21,20.21,0,0,0,86.67,68a21.09,21.09,0,0,0-15.42,0A19.66,19.66,0,0,0,60.51,78.4a19.09,19.09,0,0,0-1.61,7.86" fill="#fff"/><path d="M116,102a39,39,0,0,1-8.8,12.49,40.6,40.6,0,0,1-12.87,8.24,42.07,42.07,0,0,1-30.85,0,39.18,39.18,0,0,1-12.77-8.24A39.7,39.7,0,0,1,42,102a40,40,0,0,1,0-31.41,39.81,39.81,0,0,1,8.71-12.49,39.32,39.32,0,0,1,12.77-8.23,40.84,40.84,0,0,1,15.42-2.94,43.93,43.93,0,0,1,5.42.35A30.64,30.64,0,0,0,99.41,60a32.1,32.1,0,0,0,11.67,2.31A39.91,39.91,0,0,1,116,70.55,40,40,0,0,1,116,102M98.1,25.76a14.17,14.17,0,0,1,3.14-4.53,13.87,13.87,0,0,1,4.59-2.95,15.37,15.37,0,0,1,5.79-1.08l.28,0a15.27,15.27,0,0,1,5.52,1.06,15.07,15.07,0,0,1,4.77,3,13.47,13.47,0,0,1,1.8,2.11,15.06,15.06,0,0,1,1.31,2.34,13,13,0,0,1,1,5.4,13,13,0,0,1-1,5.42,13.61,13.61,0,0,1-3.1,4.43,14.83,14.83,0,0,1-4.78,3,15.11,15.11,0,0,1-5.79,1.08,15.28,15.28,0,0,1-5.78-1.07,14,14,0,0,1-7.74-7.48,13.14,13.14,0,0,1-1-5.42,13.06,13.06,0,0,1,1-5.41m54.05,30.88A74,74,0,0,0,142.32,40a31.4,31.4,0,0,0,1.23-8.83A30.12,30.12,0,0,0,141,18.73a31.1,31.1,0,0,0-7-9.89A33,33,0,0,0,99.41,2.32,31.32,31.32,0,0,0,89.29,8.84,30.52,30.52,0,0,0,87,11.28c-2.66-.22-5.36-.34-8.13-.34A85.31,85.31,0,0,0,47,16.71,75.55,75.55,0,0,0,5.87,115.87,73.14,73.14,0,0,0,47,155.8a85.31,85.31,0,0,0,31.88,5.77,85.59,85.59,0,0,0,31.8-5.77,75.12,75.12,0,0,0,25.07-16,73.14,73.14,0,0,0,16.37-23.94A74.52,74.52,0,0,0,158,86.26a74.57,74.57,0,0,0-5.87-29.62" fill="#fff"/></svg>