<?xml version="1.0" encoding="utf-8"?>
<!-- Generator: Adobe Illustrator 25.4.1, SVG Export Plug-In . SVG Version: 6.00 Build 0)  -->
<svg version="1.1" xmlns="http://www.w3.org/2000/svg" xmlns:xlink="http://www.w3.org/1999/xlink" x="0px" y="0px"
	 viewBox="0 0 500 500" style="enable-background:new 0 0 500 500;" xml:space="preserve">
<style type="text/css">
	.st0{display:none;}
	.st1{display:inline;}
	.st2{fill:#474F50;}
	.st3{fill:#A3AAB2;}
	.st4{fill:#006DB0;}
	.st5{fill:#FFFFFF;}
</style>
<g id="Calque_1" class="st0">
	
		<image style="overflow:visible;enable-background:new    ;" width="1600" height="1540" xlink:href="../../../../../../../Downloads/Logo_csud.png"  transform="matrix(0.3038 0 0 0.3038 111.2 44.3053)">
	</image>
	<g class="st1">
		<path class="st2" d="M221.7,342.4c-5.1,0-9.6-1.2-13.3-3.7s-6.6-6-8.6-10.6s-3-10.1-3-16.4s1-11.8,3-16.3s4.9-8,8.6-10.5
			s8.2-3.7,13.3-3.7c3.7,0,7.1,0.6,10.2,1.9c3.1,1.3,5.8,3.1,8.1,5.7l-2.3,5.3c-2.6-2.5-5.1-4.2-7.6-5.3c-2.5-1.1-5.3-1.6-8.2-1.6
			c-5.9,0-10.5,2.1-13.7,6.4c-3.3,4.3-4.9,10.3-4.9,18.1c0,7.9,1.6,14,4.8,18.3s7.8,6.4,13.8,6.4c3,0,5.7-0.5,8.2-1.6
			s5.1-2.8,7.6-5.3l2.3,5.3c-2.3,2.5-5,4.4-8.1,5.7S225.4,342.4,221.7,342.4z"/>
		<path class="st2" d="M272,342.4c-5,0-9.4-1.2-13-3.7c-3.7-2.5-6.5-6-8.5-10.6s-3-10-3-16.3s1-11.8,2.9-16.3
			c2-4.6,4.8-8.1,8.4-10.5c3.7-2.5,8-3.7,13.1-3.7c5,0,9.4,1.2,13.1,3.7c3.7,2.5,6.5,6,8.5,10.5c2,4.6,2.9,10,2.9,16.3
			s-1,11.8-3,16.4s-4.8,8.1-8.5,10.6C281.4,341.2,277.1,342.4,272,342.4z M272,336.5c5.7,0,10.1-2.1,13.3-6.4s4.8-10.4,4.8-18.4
			s-1.6-14-4.8-18.3c-3.2-4.2-7.6-6.3-13.3-6.3c-5.7,0-10.1,2.1-13.3,6.4c-3.2,4.3-4.8,10.3-4.8,18.2c0,7.9,1.6,14,4.8,18.3
			C261.9,334.4,266.3,336.5,272,336.5z"/>
		<path class="st2" d="M307.9,341.7v-59.8h6.2v53.9h27v5.9H307.9z"/>
		<path class="st2" d="M349.1,341.7v-59.8h6.2v53.9h27v5.9H349.1z"/>
		<path class="st2" d="M390.3,341.7v-59.8h34v5.7h-27.9v20.8h26.4v5.8h-26.4V336h27.9v5.7H390.3z"/>
		<path class="st2" d="M458.2,342.4c-5.4,0-10-1.2-13.9-3.7c-3.9-2.4-6.8-5.9-8.8-10.5s-3.1-10.1-3.1-16.5s1-11.9,3.1-16.4
			c2-4.6,5-8,8.8-10.5c3.8-2.4,8.3-3.6,13.5-3.6c3.7,0,7.2,0.6,10.3,1.9c3.1,1.3,5.9,3.1,8.2,5.7l-2.4,5.3c-2.6-2.5-5.2-4.2-7.7-5.3
			c-2.5-1.1-5.3-1.6-8.4-1.6c-6.1,0-10.8,2.1-14,6.3c-3.3,4.2-4.9,10.3-4.9,18.3c0,8.1,1.7,14.3,5,18.5s8.2,6.3,14.5,6.3
			c2.6,0,5.2-0.3,7.7-0.8s4.8-1.2,6.8-2.1l-1.5,3.5V316H458v-5.5h19.1v27.7c-1.4,0.8-3.1,1.6-5.2,2.2s-4.2,1.1-6.6,1.4
			S460.6,342.4,458.2,342.4z"/>
		<path class="st2" d="M489.7,341.7v-59.8h34v5.7h-27.9v20.8h26.4v5.8h-26.4V336h27.9v5.7H489.7z"/>
		<path class="st2" d="M198.7,416.7v-59.8h18.1c5.7,0,10.6,1.2,14.7,3.5c4,2.3,7.1,5.7,9.2,10.2s3.2,9.8,3.2,16.2
			c0,6.4-1.1,11.8-3.2,16.3c-2.1,4.5-5.2,7.9-9.3,10.2c-4,2.4-8.9,3.5-14.6,3.5h-18.1V416.7z M204.9,410.8h11.5c7,0,12.2-2,15.7-6
			s5.3-10.1,5.3-18.1c0-16-7-23.9-20.9-23.9H205L204.9,410.8L204.9,410.8z"/>
		<path class="st2" d="M276.1,417.4c-7,0-12.3-2-16-6.1c-3.6-4.1-5.4-10.1-5.4-18v-36.4h6.1v37c0,5.9,1.3,10.3,3.9,13.2
			c2.6,2.9,6.4,4.4,11.4,4.4c4.9,0,8.7-1.5,11.3-4.5c2.6-3,3.9-7.4,3.9-13.2v-37h6.2v36.4c0,7.9-1.8,13.9-5.4,18
			C288.4,415.4,283.1,417.4,276.1,417.4z"/>
		<path class="st2" d="M347.2,417.4c-2.8,0-5.4-0.3-7.8-0.8c-2.4-0.5-4.7-1.4-6.7-2.5c-2.1-1.1-3.9-2.6-5.6-4.2l2.3-5.3
			c2.7,2.5,5.5,4.3,8.2,5.4s6,1.6,9.6,1.6c4.3,0,7.6-0.9,10-2.8s3.6-4.5,3.6-7.9c0-2.1-0.6-3.7-1.8-5c-1.2-1.3-2.8-2.3-4.8-3
			c-2-0.8-4.3-1.5-6.9-2.1c-2.6-0.6-5-1.3-7.3-2.1c-2.3-0.8-4.4-1.8-6.2-3.1c-1.8-1.2-3.2-2.8-4.2-4.7c-1-1.9-1.5-4.3-1.5-7.1
			c0-3.4,0.8-6.4,2.4-9c1.6-2.6,3.9-4.6,6.8-6.1c2.9-1.5,6.4-2.2,10.4-2.2c2.5,0,4.8,0.3,7.1,0.9s4.4,1.4,6.3,2.6
			c1.9,1.1,3.7,2.5,5.2,4.1l-2.4,5.3c-2.5-2.4-5-4.2-7.6-5.3c-2.6-1.1-5.5-1.7-8.5-1.7c-4.2,0-7.5,1-9.8,2.9c-2.4,2-3.6,4.7-3.6,8.2
			c0,2.2,0.5,3.9,1.6,5.3c1.1,1.3,2.5,2.4,4.5,3.2c1.9,0.8,4.1,1.6,6.6,2.2c2.6,0.7,5.1,1.4,7.6,2.2c2.4,0.8,4.6,1.8,6.5,2.9
			s3.4,2.6,4.5,4.5c1.1,1.8,1.7,4.1,1.7,6.9c0,3.4-0.8,6.4-2.4,8.9s-3.9,4.5-6.9,5.9C354.8,416.7,351.3,417.4,347.2,417.4z"/>
		<path class="st2" d="M398.2,417.4c-7,0-12.3-2-16-6.1c-3.6-4.1-5.4-10.1-5.4-18v-36.4h6.1v37c0,5.9,1.3,10.3,3.9,13.2
			c2.6,2.9,6.4,4.4,11.4,4.4c4.9,0,8.7-1.5,11.3-4.5c2.6-3,3.9-7.4,3.9-13.2v-37h6.2v36.4c0,7.9-1.8,13.9-5.4,18
			C410.5,415.4,405.2,417.4,398.2,417.4z"/>
		<path class="st2" d="M432.5,416.7v-59.8h18.1c5.7,0,10.6,1.2,14.7,3.5c4,2.3,7.1,5.7,9.2,10.2s3.2,9.8,3.2,16.2
			c0,6.4-1.1,11.8-3.2,16.3s-5.2,7.9-9.3,10.2c-4,2.4-8.9,3.5-14.6,3.5h-18.1V416.7z M438.7,410.8h11.5c7,0,12.2-2,15.7-6
			s5.3-10.1,5.3-18.1c0-16-7-23.9-20.9-23.9h-11.5v48H438.7z"/>
		<path class="st3" d="M195.7,463.7v-32.8h11.8c3,0,5.3,0.7,7,2.2s2.5,3.6,2.5,6.3c0,1.9-0.5,3.5-1.4,4.8c-0.9,1.3-2.2,2.2-3.8,2.8
			v-0.4c1.8,0.4,3.3,1.3,4.3,2.7c1,1.4,1.6,3.2,1.6,5.3c0,2.9-0.9,5.1-2.6,6.6c-1.7,1.5-4.1,2.3-7.2,2.3h-12.2V463.7z M199.1,445.5
			h7.9c2.2,0,3.9-0.5,5-1.5s1.7-2.4,1.7-4.3s-0.6-3.3-1.7-4.2c-1.1-0.9-2.8-1.4-5.1-1.4H199L199.1,445.5L199.1,445.5z M199.1,460.6
			h8.6c2.3,0,4-0.5,5.1-1.4c1.1-1,1.6-2.4,1.6-4.5c0-2-0.6-3.5-1.7-4.5s-2.8-1.5-5.1-1.5H199L199.1,460.6L199.1,460.6z"/>
		<path class="st3" d="M244.9,464.1c-3.8,0-6.7-1.1-8.7-3.3s-3-5.5-3-9.9V431h3.4v20.2c0,3.2,0.7,5.6,2.1,7.2
			c1.4,1.6,3.5,2.4,6.3,2.4c2.7,0,4.8-0.8,6.2-2.4s2.1-4,2.1-7.2V431h3.4v19.9c0,4.3-1,7.6-3,9.8C251.6,463,248.7,464.1,244.9,464.1
			z"/>
		<path class="st3" d="M273.2,463.7v-32.8h3.4v29.5h14.8v3.2L273.2,463.7L273.2,463.7z"/>
		<path class="st3" d="M305.3,463.7v-32.8h3.4v29.5h14.8v3.2L305.3,463.7L305.3,463.7z"/>
		<path class="st3" d="M337.4,463.7v-32.8H356v3.1h-15.3v11.4h14.5v3.2h-14.4v11.9h15.3v3.1L337.4,463.7L337.4,463.7z"/>
	</g>
	<g class="st1">
		<path class="st4" d="M240.3,145.6c-246.9,132.3,4.2,127.1,210.5,5.2C261.2,221.8,148.3,223.2,240.3,145.6z"/>
		<path class="st4" d="M471.7,176.1c246.9-132.3-4.2-127.1-210.5-5.2C450.9,99.9,563.7,98.5,471.7,176.1z"/>
	</g>
</g>
<g id="Calque_2">
	<g>
		<path class="st5" d="M96.1,326.5c-5.8,0-11-1.4-15.2-4.2c-4.2-2.9-7.6-6.9-9.9-12.1c-2.3-5.3-3.4-11.6-3.4-18.8s1.1-13.5,3.4-18.7
			c2.3-5.2,5.6-9.2,9.9-12c4.2-2.9,9.4-4.2,15.2-4.2c4.2,0,8.1,0.7,11.7,2.2c3.6,1.5,6.6,3.6,9.3,6.5l-2.6,6.1
			c-3-2.9-5.8-4.8-8.7-6.1c-2.9-1.3-6.1-1.8-9.4-1.8c-6.8,0-12,2.4-15.7,7.3c-3.8,4.9-5.6,11.8-5.6,20.7c0,9.1,1.8,16,5.5,21
			c3.7,4.9,8.9,7.3,15.8,7.3c3.4,0,6.5-0.6,9.4-1.8c2.9-1.3,5.8-3.2,8.7-6.1l2.6,6.1c-2.6,2.9-5.7,5-9.3,6.5
			C104.2,325.8,100.3,326.5,96.1,326.5z"/>
		<path class="st5" d="M153.7,326.5c-5.7,0-10.8-1.4-14.9-4.2c-4.2-2.9-7.4-6.9-9.7-12.1s-3.4-11.5-3.4-18.7s1.1-13.5,3.3-18.7
			c2.3-5.3,5.5-9.3,9.6-12c4.2-2.9,9.2-4.2,15-4.2c5.7,0,10.8,1.4,15,4.2c4.2,2.9,7.4,6.9,9.7,12c2.3,5.3,3.3,11.5,3.3,18.7
			s-1.1,13.5-3.4,18.8s-5.5,9.3-9.7,12.1C164.5,325.1,159.6,326.5,153.7,326.5z M153.7,319.7c6.5,0,11.6-2.4,15.2-7.3
			c3.7-4.9,5.5-11.9,5.5-21.1c0-9.2-1.8-16-5.5-21c-3.7-4.8-8.7-7.2-15.2-7.2c-6.5,0-11.6,2.4-15.2,7.3c-3.7,4.9-5.5,11.8-5.5,20.9
			c0,9.1,1.8,16,5.5,21C142.1,317.3,147.2,319.7,153.7,319.7z"/>
		<path class="st5" d="M194.9,325.7v-68.5h7.1v61.8h30.9v6.8H194.9z"/>
		<path class="st5" d="M242.1,325.7v-68.5h7.1v61.8h30.9v6.8H242.1z"/>
		<path class="st5" d="M289.3,325.7v-68.5h39v6.5h-32v23.8h30.3v6.6h-30.3v25h32v6.5H289.3z"/>
		<path class="st5" d="M367.1,326.5c-6.2,0-11.5-1.4-15.9-4.2c-4.5-2.8-7.8-6.8-10.1-12c-2.3-5.3-3.6-11.6-3.6-18.9
			c0-7.3,1.1-13.6,3.6-18.8c2.3-5.3,5.7-9.2,10.1-12c4.4-2.8,9.5-4.1,15.5-4.1c4.2,0,8.3,0.7,11.8,2.2c3.6,1.5,6.8,3.6,9.4,6.5
			l-2.8,6.1c-3-2.9-6-4.8-8.8-6.1c-2.9-1.3-6.1-1.8-9.6-1.8c-7,0-12.4,2.4-16,7.2c-3.8,4.8-5.6,11.8-5.6,21c0,9.3,1.9,16.4,5.7,21.2
			c3.8,4.8,9.4,7.2,16.6,7.2c3,0,6-0.3,8.8-0.9s5.5-1.4,7.8-2.4l-1.7,4v-24.3h-15.4v-6.3h21.9v31.7c-1.6,0.9-3.6,1.8-6,2.5
			c-2.4,0.7-4.8,1.3-7.6,1.6C372.5,326.2,369.9,326.5,367.1,326.5z"/>
		<path class="st5" d="M403.2,325.7v-68.5h39v6.5h-32v23.8h30.3v6.6h-30.3v25h32v6.5H403.2z"/>
		<path class="st5" d="M69.7,411.7v-68.5h20.7c6.5,0,12.1,1.4,16.8,4c4.6,2.6,8.1,6.5,10.5,11.7s3.7,11.2,3.7,18.6
			s-1.3,13.5-3.7,18.7c-2.4,5.2-6,9.1-10.7,11.7c-4.6,2.8-10.2,4-16.7,4H69.7V411.7z M76.8,404.9H90c8,0,14-2.3,18-6.9
			s6.1-11.6,6.1-20.7c0-18.3-8-27.4-24-27.4H76.9v55H76.8z"/>
		<path class="st5" d="M158.4,412.5c-8,0-14.1-2.3-18.3-7c-4.1-4.7-6.2-11.6-6.2-20.6v-41.7h7v42.4c0,6.8,1.5,11.8,4.5,15.1
			c3,3.3,7.3,5,13.1,5c5.6,0,10-1.7,13-5.2c3-3.4,4.5-8.5,4.5-15.1V343h7.1v41.7c0,9.1-2.1,15.9-6.2,20.6
			C172.5,410.2,166.4,412.5,158.4,412.5z"/>
		<path class="st5" d="M239.9,412.5c-3.2,0-6.2-0.3-8.9-0.9s-5.4-1.6-7.7-2.9c-2.4-1.3-4.5-3-6.4-4.8l2.6-6.1
			c3.1,2.9,6.3,4.9,9.4,6.2s6.9,1.8,11,1.8c4.9,0,8.7-1,11.5-3.2c2.8-2.2,4.1-5.2,4.1-9.1c0-2.4-0.7-4.2-2.1-5.7
			c-1.4-1.5-3.2-2.6-5.5-3.4c-2.3-0.9-4.9-1.7-7.9-2.4c-3-0.7-5.7-1.5-8.4-2.4c-2.6-0.9-5-2.1-7.1-3.6c-2.1-1.4-3.7-3.2-4.8-5.4
			c-1.1-2.2-1.7-4.9-1.7-8.1c0-3.9,0.9-7.3,2.8-10.3c1.8-3,4.5-5.3,7.8-7c3.3-1.7,7.3-2.5,11.9-2.5c2.9,0,5.5,0.3,8.1,1s5,1.6,7.2,3
			c2.2,1.3,4.2,2.9,6,4.7l-2.8,6.1c-2.9-2.8-5.7-4.8-8.7-6.1c-3-1.3-6.3-1.9-9.7-1.9c-4.8,0-8.6,1.1-11.2,3.3
			c-2.8,2.3-4.1,5.4-4.1,9.4c0,2.5,0.6,4.5,1.8,6.1c1.3,1.5,2.9,2.8,5.2,3.7c2.2,0.9,4.7,1.8,7.6,2.5c3,0.8,5.8,1.6,8.7,2.5
			c2.8,0.9,5.3,2.1,7.4,3.3c2.2,1.3,3.9,3,5.2,5.2c1.3,2.1,1.9,4.7,1.9,7.9c0,3.9-0.9,7.3-2.8,10.2c-1.8,2.9-4.5,5.2-7.9,6.8
			C248.6,411.7,244.6,412.5,239.9,412.5z"/>
		<path class="st5" d="M298.4,412.5c-8,0-14.1-2.3-18.3-7c-4.1-4.7-6.2-11.6-6.2-20.6v-41.7h7v42.4c0,6.8,1.5,11.8,4.5,15.1
			c3,3.3,7.3,5,13.1,5c5.6,0,10-1.7,13-5.2c3-3.4,4.5-8.5,4.5-15.1V343h7.1v41.7c0,9.1-2.1,15.9-6.2,20.6
			C312.5,410.2,306.4,412.5,298.4,412.5z"/>
		<path class="st5" d="M337.7,411.7v-68.5h20.7c6.5,0,12.1,1.4,16.8,4c4.6,2.6,8.1,6.5,10.5,11.7s3.7,11.2,3.7,18.6
			s-1.3,13.5-3.7,18.7s-6,9.1-10.7,11.7c-4.6,2.8-10.2,4-16.7,4h-20.7V411.7z M344.8,404.9H358c8,0,14-2.3,18-6.9
			c4-4.6,6.1-11.6,6.1-20.7c0-18.3-8-27.4-24-27.4h-13.2v55H344.8z"/>
		<path class="st5" d="M66.3,465.5v-37.6h13.5c3.4,0,6.1,0.8,8,2.5c1.9,1.7,2.9,4.1,2.9,7.2c0,2.2-0.6,4-1.6,5.5
			c-1,1.5-2.5,2.5-4.4,3.2v-0.5c2.1,0.5,3.8,1.5,4.9,3.1c1.1,1.6,1.8,3.7,1.8,6.1c0,3.3-1,5.8-3,7.6c-1.9,1.7-4.7,2.6-8.3,2.6h-14
			V465.5z M70.2,444.7h9.1c2.5,0,4.5-0.6,5.7-1.7c1.3-1.1,1.9-2.8,1.9-4.9s-0.7-3.8-1.9-4.8c-1.3-1-3.2-1.6-5.8-1.6h-9.1v13.1H70.2z
			 M70.2,462H80c2.6,0,4.6-0.6,5.8-1.6c1.3-1.1,1.8-2.8,1.8-5.2c0-2.3-0.7-4-1.9-5.2c-1.3-1.1-3.2-1.7-5.8-1.7h-9.9V462H70.2z"/>
		<path class="st5" d="M122.7,466c-4.4,0-7.7-1.3-10-3.8s-3.4-6.3-3.4-11.3v-22.8h3.9v23.2c0,3.7,0.8,6.4,2.4,8.3
			c1.6,1.8,4,2.8,7.2,2.8c3.1,0,5.5-0.9,7.1-2.8s2.4-4.6,2.4-8.3v-23.2h3.9v22.8c0,4.9-1.1,8.7-3.4,11.2
			C130.3,464.7,127,466,122.7,466z"/>
		<path class="st5" d="M155.1,465.5v-37.6h3.9v33.8h17v3.7h-20.9V465.5z"/>
		<path class="st5" d="M191.9,465.5v-37.6h3.9v33.8h17v3.7h-20.9V465.5z"/>
		<path class="st5" d="M228.7,465.5v-37.6H250v3.6h-17.5v13.1h16.6v3.7h-16.5v13.6h17.5v3.6h-21.4V465.5z"/>
	</g>
	<g>
		<path class="st5" d="M117.4,100.9c-283,151.6,4.8,145.7,241.3,6C141.3,188.3,11.9,189.9,117.4,100.9z"/>
		<path class="st5" d="M382.6,135.9c283-151.6-4.8-145.7-241.3-6C358.8,48.6,488.1,47,382.6,135.9z"/>
	</g>
</g>
</svg>
