<?xml version="1.0" encoding="utf-8"?>
<!-- Generator: Adobe Illustrator 25.4.1, SVG Export Plug-In . SVG Version: 6.00 Build 0)  -->
<svg version="1.1" id="Calque_1" xmlns="http://www.w3.org/2000/svg" xmlns:xlink="http://www.w3.org/1999/xlink" x="0px" y="0px"
	 viewBox="0 0 1911.5 1442" style="enable-background:new 0 0 1911.5 1442;" xml:space="preserve">
<style type="text/css">
	.st0{fill:#2A2323;}
</style>
<path class="st0" d="M1417.3,1092.5h-335V1195h232.5l0.3,5.4c-31.3,89.2-103.1,140.7-216.4,140.7c-130.8,0-229.5-104.9-229.5-237.5
	c0-137.9,102.7-246.7,239-246.7c104.4,0,178.8,51.2,221,142.8l96.1-44.3c-59.4-128.6-172-199.4-317.1-199.4
	c-193.3,0-344.7,152.7-344.7,347.7c0,189.8,147.3,338.5,335.3,338.5c98.1,0,172.2-39.6,225.7-101.4l9.6,77.2h83.3L1417.3,1092.5
	L1417.3,1092.5z M1417.3,537.6H887.5V368.5h468.8v-98.1H887.5V101.3h529.8V0.6H779.5v637.7h637.8V537.6z M528.9,264.1h-421V0.5H0
	v637.8h107.9V365.8h421v272.5h108.9V0.5H528.9V264.1z M372.9,1316.2V881.7h264.9V780.1H0v101.6h264.9v434.5H0v101.7h637.8v-101.7
	H372.9z M1684.7,0h41l-63.3,173.3h-39.8L1559.1,0h42.5l41.8,121.9L1684.7,0z M1761.6,173.3V0h62.8c52.1,0,87,33.2,87,86.8
	s-34.9,86.5-87.2,86.5H1761.6L1761.6,173.3z M1822.8,136.9c26.6,0,48.4-15.4,48.4-50.1s-21.7-50.3-48.4-50.3h-22.5v100.4H1822.8z"/>
</svg>
