<?xml version="1.0" encoding="utf-8"?>
<!-- Generator: Adobe Illustrator 25.4.1, SVG Export Plug-In . SVG Version: 6.00 Build 0)  -->
<svg version="1.1" id="Calque_1" xmlns="http://www.w3.org/2000/svg" xmlns:xlink="http://www.w3.org/1999/xlink" x="0px" y="0px"
	 viewBox="0 0 194 198.3" style="enable-background:new 0 0 194 198.3;" xml:space="preserve">
<style type="text/css">
	.st0{fill:#FFFFFF;stroke:#FFFFFF;stroke-width:30;stroke-miterlimit:10;}
	.st1{fill:#AE0000;}
	.st2{fill:#010101;}
</style>
<path class="st0" d="M133.8,120.4c-2.1,4.7-5.1,8.9-8.8,12.5c-3.7,3.5-8.1,6.3-12.9,8.2c-9.9,3.9-20.9,3.9-30.8,0
	c-4.8-1.9-9.1-4.7-12.8-8.2c-3.7-3.6-6.6-7.8-8.7-12.5c-4.3-10-4.3-21.4,0-31.4c2.1-4.7,5-8.9,8.7-12.5c3.7-3.5,8-6.3,12.8-8.2
	c4.9-2,10.1-3,15.4-2.9c1.8,0,3.6,0.1,5.4,0.3c3.5,5.8,8.8,10.3,15.1,12.7c3.7,1.5,7.7,2.3,11.7,2.3c2,2.5,3.6,5.3,4.9,8.2
	C138.1,99,138.1,110.3,133.8,120.4 M115.9,44.1c0.7-1.7,1.8-3.2,3.1-4.5c1.3-1.3,2.9-2.3,4.6-3c1.8-0.7,3.8-1.1,5.8-1.1h0.3
	c1.9,0,3.8,0.4,5.5,1.1c1.8,0.7,3.4,1.7,4.8,3c0.7,0.6,1.3,1.3,1.8,2.1c0.5,0.7,0.9,1.5,1.3,2.3c0.7,1.7,1.1,3.5,1,5.4
	c0.1,1.9-0.3,3.7-1,5.4s-1.8,3.2-3.1,4.4c-1.4,1.3-3,2.3-4.8,3s-3.8,1.1-5.8,1.1c-2,0-3.9-0.3-5.8-1.1c-3.5-1.4-6.3-4.1-7.7-7.5
	c-0.7-1.7-1.1-3.6-1-5.4C114.8,47.6,115.2,45.7,115.9,44.1 M169.9,74.9c-2.5-5.9-5.9-11.5-9.8-16.5c0.8-2.9,1.2-5.8,1.2-8.8
	c0-4.3-0.8-8.5-2.6-12.4c-1.7-3.7-4-7.1-7-9.9c-9.3-8.7-22.8-11.2-34.6-6.5c-3.8,1.5-7.2,3.7-10.1,6.5c-0.8,0.8-1.6,1.6-2.3,2.4
	c-2.7-0.2-5.4-0.3-8.1-0.3c-10.9-0.1-21.7,1.8-31.9,5.8C26.1,50.9,7.6,95,23.4,133.6c0.1,0.2,0.2,0.4,0.3,0.7
	c7.7,18.4,22.6,32.8,41.1,39.9c10.2,3.9,21,5.9,31.9,5.8c10.9,0.1,21.7-1.8,31.8-5.8c9.3-3.6,17.9-9,25.1-16
	c7-6.8,12.6-14.9,16.4-23.9c4-9.4,6-19.4,5.9-29.6C175.9,94.5,173.9,84.4,169.9,74.9"/>
<circle class="st0" cx="96.8" cy="104.7" r="35.2"/>
<path class="st1" d="M76.9,104.6c0,2.7,0.5,5.4,1.6,7.8c2.1,4.7,5.9,8.5,10.7,10.4c7.5,3,16,1.4,21.9-4.1c1.9-1.8,3.4-3.9,4.4-6.2
	c2.1-5,2.1-10.7,0-15.7c-1-2.3-2.5-4.5-4.4-6.2c-1.9-1.8-4-3.2-6.4-4.2c-5-1.9-10.5-1.9-15.4,0c-4.8,1.9-8.7,5.7-10.7,10.4
	C77.4,99.3,76.8,101.9,76.9,104.6"/>
<path class="st2" d="M134,120.4c-2.1,4.7-5.1,8.9-8.8,12.5c-3.7,3.5-8.1,6.3-12.9,8.2c-9.9,3.9-20.9,3.9-30.8,0
	c-4.8-1.9-9.1-4.7-12.8-8.2c-3.7-3.6-6.6-7.8-8.7-12.5c-4.3-10-4.3-21.4,0-31.4c2.1-4.7,5-8.9,8.7-12.5c3.7-3.5,8-6.3,12.8-8.2
	c4.9-2,10.1-3,15.4-2.9c1.8,0,3.6,0.1,5.4,0.3c3.5,5.8,8.8,10.3,15.1,12.7c3.7,1.5,7.7,2.3,11.7,2.3c2,2.5,3.6,5.3,4.9,8.2
	C138.3,99,138.3,110.3,134,120.4 M116.1,44.1c0.7-1.7,1.8-3.2,3.1-4.5c1.3-1.3,2.9-2.3,4.6-3c1.8-0.7,3.8-1.1,5.8-1.1h0.3
	c1.9,0,3.8,0.4,5.5,1.1c1.8,0.7,3.4,1.7,4.8,3c0.7,0.6,1.3,1.3,1.8,2.1c0.5,0.7,0.9,1.5,1.3,2.3c0.7,1.7,1.1,3.5,1,5.4
	c0.1,1.9-0.3,3.7-1,5.4s-1.8,3.2-3.1,4.4c-1.4,1.3-3,2.3-4.8,3s-3.8,1.1-5.8,1.1s-3.9-0.3-5.8-1.1c-3.5-1.4-6.3-4.1-7.7-7.5
	c-0.7-1.7-1.1-3.6-1-5.4C115,47.6,115.4,45.7,116.1,44.1 M170.1,74.9c-2.5-5.9-5.9-11.5-9.8-16.5c0.8-2.9,1.2-5.8,1.2-8.8
	c0-4.3-0.8-8.5-2.6-12.4c-1.7-3.7-4-7.1-7-9.9c-9.3-8.7-22.8-11.2-34.6-6.5c-3.8,1.5-7.2,3.7-10.1,6.5c-0.8,0.8-1.6,1.6-2.3,2.4
	c-2.7-0.2-5.4-0.3-8.1-0.3c-10.9-0.1-21.7,1.8-31.9,5.8C26.3,50.9,7.8,95,23.6,133.6c0.1,0.2,0.2,0.4,0.3,0.7
	c7.7,18.4,22.6,32.8,41.1,39.9c10.2,3.9,21,5.9,31.9,5.8c10.9,0.1,21.7-1.8,31.8-5.8c9.3-3.6,17.9-9,25.1-16
	c7-6.8,12.6-14.9,16.4-23.9c4-9.4,6-19.4,5.9-29.6C176.1,94.5,174.1,84.4,170.1,74.9"/>
</svg>
