<svg xmlns="http://www.w3.org/2000/svg" width="481.5563" height="114.9976" viewBox="0 0 481.5563 114.9976"><defs><style>.a{fill:#fff;}</style></defs><polygon class="a" points="444.652 10.618 427.681 36.883 413.942 10.618 381.349 10.618 413 58.029 373.267 112.173 405.189 112.173 429.029 79.04 449.367 112.173 481.556 112.173 481.556 112.173 443.711 58.029 477.248 10.618 444.652 10.618"/><path class="a" d="M313.0248,61.396a13.5142,13.5142,0,0,0,1.1449,5.59,14.1086,14.1086,0,0,0,3.0975,4.4442,13.9629,13.9629,0,0,0,4.5463,2.9292,14.9395,14.9395,0,0,0,10.9764,0,14.3782,14.3782,0,0,0,4.58-2.9292,13.8811,13.8811,0,0,0,3.1309-4.4442,14.2074,14.2074,0,0,0,0-11.18,13.8917,13.8917,0,0,0-3.1309-4.4441,14.4238,14.4238,0,0,0-4.58-2.93,14.9514,14.9514,0,0,0-10.9764,0A13.982,13.982,0,0,0,314.17,55.806a13.515,13.515,0,0,0-1.1449,5.59"/><path class="a" d="M353.6669,72.5749a27.7529,27.7529,0,0,1-6.2637,8.8891,28.7925,28.7925,0,0,1-9.1586,5.8595,29.8949,29.8949,0,0,1-21.9538,0,27.9644,27.9644,0,0,1-15.2875-14.7486,28.4447,28.4447,0,0,1,0-22.3589,27.9588,27.9588,0,0,1,15.2875-14.7477A29.11,29.11,0,0,1,327.2673,33.38a30.58,30.58,0,0,1,3.8567.2475,21.8107,21.8107,0,0,0,10.7307,9.0961,22.97,22.97,0,0,0,8.3087,1.6461,28.2522,28.2522,0,0,1,3.5035,5.8462,28.4344,28.4344,0,0,1,0,22.3589m-12.744-54.2357a10.1482,10.1482,0,0,1,2.2317-3.2279,9.9679,9.9679,0,0,1,3.271-2.0952,10.8509,10.8509,0,0,1,4.1218-.768c.0678,0,.13.0079.1973.0088a10.8141,10.8141,0,0,1,3.9262.7592,10.6292,10.6292,0,0,1,3.3961,2.1648,9.3916,9.3916,0,0,1,1.2788,1.499,10.3312,10.3312,0,0,1,.9353,1.6645,9.2947,9.2947,0,0,1,.7425,3.8462,9.2852,9.2852,0,0,1-.7478,3.8575,9.7343,9.7343,0,0,1-2.2106,3.153,10.5575,10.5575,0,0,1-3.3969,2.1639,11.4375,11.4375,0,0,1-8.2339.0027,9.9285,9.9285,0,0,1-3.271-2.0882,10.1512,10.1512,0,0,1-2.2379-3.2314,9.2654,9.2654,0,0,1-.7469-3.8575,9.2606,9.2606,0,0,1,.7443-3.8514m38.47,21.9775a52.7369,52.7369,0,0,0-7-11.8457,22.2247,22.2247,0,0,0,.8746-6.28,21.443,21.443,0,0,0-1.8134-8.8531,21.9829,21.9829,0,0,0-4.96-7.04,22.8159,22.8159,0,0,0-7.2527-4.64,23.6839,23.6839,0,0,0-17.3863,0,22.18,22.18,0,0,0-7.2,4.6405,21.89,21.89,0,0,0-1.6021,1.7342c-1.8926-.1586-3.82-.2431-5.7854-.2431a60.7694,60.7694,0,0,0-22.6954,4.1086,52.5275,52.5275,0,0,0-33.47,49.4983,52.3319,52.3319,0,0,0,33.47,49.4975,64.554,64.554,0,0,0,45.3238,0,53.5245,53.5245,0,0,0,17.846-11.3807,52.0811,52.0811,0,0,0,11.6511-17.0376,53.0885,53.0885,0,0,0,4.1746-21.0792,53.0948,53.0948,0,0,0-4.1746-21.0792"/><path class="a" d="M198.6654,89.8153h6.06a32.7762,32.7762,0,0,0,12.257-2.1551,26.1623,26.1623,0,0,0,9.0917-5.9264,25.3984,25.3984,0,0,0,5.6569-8.9569,32.0862,32.0862,0,0,0,1.9526-11.3807,31.23,31.23,0,0,0-2.02-11.3138,25.3614,25.3614,0,0,0-14.8155-14.9511,32.444,32.444,0,0,0-12.1223-2.1552h-6.06Zm-26.4-79.1972h39.06a46.0976,46.0976,0,0,1,19.4622,4.1755,53.0757,53.0757,0,0,1,15.8935,11.1112,51.6527,51.6527,0,0,1,10.7079,16.163,49.84,49.84,0,0,1,.0678,38.5211,51.4072,51.4072,0,0,1-10.6409,16.23,52.4374,52.4374,0,0,1-15.8926,11.179,46.3893,46.3893,0,0,1-19.5979,4.1755h-39.06Z"/><polygon class="a" points="153.277 32.976 121.893 32.976 121.893 49.947 151.525 49.947 151.525 72.305 121.893 72.305 121.893 89.816 153.277 89.816 153.277 112.173 95.495 112.173 95.495 10.618 153.277 10.618 153.277 32.976"/><path class="a" d="M26.4,56.008h4.9832q7.8089,0,11.9875-3.2314,4.1733-3.234,4.1755-9.2942,0-6.0626-4.1755-9.2943-4.1774-3.2313-11.9875-3.2314H26.4Zm58.05,56.1654H51.5865L26.4,73.1134v39.06H0V10.6182H41.0813A40.32,40.32,0,0,1,55.8959,13.11,27.8982,27.8982,0,0,1,72.53,29.8787,34.7429,34.7429,0,0,1,74.6183,42.001q0,11.5859-5.5908,18.7893Q63.4393,67.9956,52.53,70.5549Z"/></svg>