<svg xmlns="http://www.w3.org/2000/svg" width="158.0172" height="161.5748" viewBox="0 0 158.0172 161.5748"><defs><style>.a{fill:#ce171c;}.b{fill:#fff;}</style></defs><path class="a" d="M58.9024,86.2591a18.989,18.989,0,0,0,1.6086,7.854,19.8226,19.8226,0,0,0,4.3521,6.2441,19.6161,19.6161,0,0,0,6.3876,4.1157,20.9917,20.9917,0,0,0,15.4222,0,20.1985,20.1985,0,0,0,6.4347-4.1157,19.5013,19.5013,0,0,0,4.3991-6.2441,19.9633,19.9633,0,0,0,0-15.7081,19.5167,19.5167,0,0,0-4.3991-6.2441,20.2673,20.2673,0,0,0-6.4347-4.1169,21.0077,21.0077,0,0,0-15.4222,0,19.6456,19.6456,0,0,0-10.74,10.361,18.99,18.99,0,0,0-1.6086,7.8541"/><path class="b" d="M116.0057,101.9658a38.9958,38.9958,0,0,1-8.8007,12.4894,40.4537,40.4537,0,0,1-12.8681,8.2327,42.0026,42.0026,0,0,1-30.8456,0,39.2912,39.2912,0,0,1-21.4795-20.7221,39.9657,39.9657,0,0,1,0-31.4149A39.2829,39.2829,0,0,1,63.4913,49.83a40.9,40.9,0,0,1,15.4222-2.934,42.9506,42.9506,0,0,1,5.4187.3478,30.6457,30.6457,0,0,0,15.077,12.78,32.2737,32.2737,0,0,0,11.674,2.3128,39.6963,39.6963,0,0,1,4.9225,8.2141,39.952,39.952,0,0,1,0,31.4149M98.1,25.7631a14.2574,14.2574,0,0,1,3.1356-4.5352,14.0031,14.0031,0,0,1,4.5959-2.9439,15.2444,15.2444,0,0,1,5.7912-1.0791c.0953,0,.1831.0112.2772.0124a15.1955,15.1955,0,0,1,5.5165,1.0667,14.9353,14.9353,0,0,1,4.7715,3.0416,13.193,13.193,0,0,1,1.7968,2.1061,14.5249,14.5249,0,0,1,1.3142,2.3388,13.06,13.06,0,0,1,1.0431,5.4039,13.0467,13.0467,0,0,1-1.0506,5.42,13.6773,13.6773,0,0,1-3.1059,4.43,14.8365,14.8365,0,0,1-4.7729,3.04,16.07,16.07,0,0,1-11.5688.0037,13.9494,13.9494,0,0,1-4.5958-2.934,14.2611,14.2611,0,0,1-3.1443-4.54,13.0181,13.0181,0,0,1-1.0494-5.42A13.0109,13.0109,0,0,1,98.1,25.7631m54.0513,30.879a74.0949,74.0949,0,0,0-9.8352-16.6435,31.2293,31.2293,0,0,0,1.2288-8.8242,30.1256,30.1256,0,0,0-2.5479-12.4387,30.8818,30.8818,0,0,0-6.9693-9.8909,32.0554,32.0554,0,0,0-10.19-6.52,33.2758,33.2758,0,0,0-24.4282,0,31.1619,31.1619,0,0,0-10.1161,6.52,30.7581,30.7581,0,0,0-2.2509,2.4365c-2.6592-.2227-5.3667-.3415-8.1287-.3415a85.3829,85.3829,0,0,0-31.8876,5.7726A73.8028,73.8028,0,0,0,0,86.259a73.5279,73.5279,0,0,0,47.0263,69.5452,85.357,85.357,0,0,0,31.8876,5.7727,85.5815,85.5815,0,0,0,31.7935-5.7727,75.1984,75.1984,0,0,0,25.0742-15.99,73.1742,73.1742,0,0,0,16.37-23.9382,74.59,74.59,0,0,0,5.8654-29.6168,74.5993,74.5993,0,0,0-5.8654-29.6169"/></svg>