<svg xmlns="http://www.w3.org/2000/svg" width="481.8889" height="161.5789" viewBox="0 0 481.8889 161.5789"><defs><style>.a{fill:#fff;}</style></defs><polygon class="a" points="465.251 133.108 465.251 160.805 481.083 160.805 481.083 154.707 472.451 154.707 472.451 133.108 465.251 133.108"/><path class="a" d="M392.5761,141.3l3.2322,9.2194h-6.4654Zm-3.9307-8.1916-10.5422,27.6969H385.78l1.6522-4.8123h10.286l1.6531,4.8123h7.6773l-10.5432-27.6969Z"/><polygon class="a" points="304.766 133.108 304.766 139.206 310.681 139.206 310.681 160.805 317.881 160.805 317.881 139.206 323.794 139.206 323.794 133.108 304.766 133.108"/><rect class="a" x="83.9148" y="133.1078" width="7.1999" height="27.697"/><path class="a" d="M165.4428,145.3035h14.29a39.9488,39.9488,0,0,1-.1841,4.0038,14.1961,14.1961,0,0,1-.7345,3.3432,13.3326,13.3326,0,0,1-2.0935,3.8382,12.2436,12.2436,0,0,1-3.1046,2.7919,14.588,14.588,0,0,1-3.9112,1.7086,16.8251,16.8251,0,0,1-4.482.5874,15.769,15.769,0,0,1-5.8965-1.0648,13.31,13.31,0,0,1-4.5727-2.9944,13.5654,13.5654,0,0,1-2.9759-4.6282,17.29,17.29,0,0,1-.0185-11.9021,13.03,13.03,0,0,1,2.9759-4.61,13.5276,13.5276,0,0,1,4.6467-2.9751,16.4755,16.4755,0,0,1,6.0611-1.0656,15.0392,15.0392,0,0,1,7.6042,1.8733,12.9853,12.9853,0,0,1,5.1795,5.8039l-6.8335,2.8289a6.9416,6.9416,0,0,0-2.48-3.2692,6.2156,6.2156,0,0,0-3.47-.9926,6.9641,6.9641,0,0,0-2.9389.6068,6.3721,6.3721,0,0,0-2.2591,1.7262,8.3165,8.3165,0,0,0-1.469,2.7,10.9707,10.9707,0,0,0-.5329,3.5255,11.1446,11.1446,0,0,0,.4589,3.2693,7.36,7.36,0,0,0,1.3774,2.6078,6.1934,6.1934,0,0,0,2.2785,1.7086,7.6788,7.6788,0,0,0,3.1582.6068,8.7365,8.7365,0,0,0,2.0574-.2387,5.4115,5.4115,0,0,0,1.7808-.7724,4.3715,4.3715,0,0,0,1.3053-1.3774,5.5272,5.5272,0,0,0,.6975-2.0565h-5.9141Z"/><rect class="a" x="239.3296" y="133.1078" width="7.1999" height="27.697"/><path class="a" d="M7.2,154.7074H8.8534a8.9378,8.9378,0,0,0,3.3424-.5875,7.1247,7.1247,0,0,0,2.4792-1.617,6.9071,6.9071,0,0,0,1.543-2.4414,8.7693,8.7693,0,0,0,.5329-3.1054A8.5223,8.5223,0,0,0,16.2,143.871a6.9292,6.9292,0,0,0-4.0416-4.0778,8.8552,8.8552,0,0,0-3.3054-.5874H7.2ZM0,133.1085H10.6528a12.5764,12.5764,0,0,1,5.3081,1.1379,14.4837,14.4837,0,0,1,4.3349,3.0315,14.0732,14.0732,0,0,1,2.92,4.4071,13.3812,13.3812,0,0,1,1.0657,5.2711,13.5,13.5,0,0,1-1.0463,5.235,14.0048,14.0048,0,0,1-2.9029,4.4257,14.26,14.26,0,0,1-4.3349,3.049,12.6323,12.6323,0,0,1-5.3442,1.14H0Z"/><polygon class="a" points="444.985 10.612 428.014 36.877 414.275 10.612 381.682 10.612 413.333 58.023 373.6 112.167 405.522 112.167 429.362 79.034 449.7 112.167 481.889 112.167 481.889 112.166 444.044 58.023 477.581 10.612 444.985 10.612"/><path class="a" d="M313.3577,61.39a13.515,13.515,0,0,0,1.145,5.59A14.1093,14.1093,0,0,0,317.6,71.4239a13.9616,13.9616,0,0,0,4.5463,2.9293,14.9408,14.9408,0,0,0,10.9764,0,14.3768,14.3768,0,0,0,4.58-2.9293,13.8818,13.8818,0,0,0,3.1309-4.4441,14.2086,14.2086,0,0,0,0-11.18,13.8906,13.8906,0,0,0-3.1309-4.4441,14.4258,14.4258,0,0,0-4.58-2.93,14.9514,14.9514,0,0,0-10.9764,0A13.9826,13.9826,0,0,0,314.5027,55.8a13.5146,13.5146,0,0,0-1.145,5.59"/><path class="a" d="M354,72.5687a27.7533,27.7533,0,0,1-6.2637,8.8892,28.7922,28.7922,0,0,1-9.1586,5.8594,29.8949,29.8949,0,0,1-21.9538,0,27.9641,27.9641,0,0,1-15.2876-14.7486,28.4456,28.4456,0,0,1,0-22.3588,27.9585,27.9585,0,0,1,15.2876-14.7477A29.1078,29.1078,0,0,1,327.6,33.374a30.5805,30.5805,0,0,1,3.8568.2475,21.8107,21.8107,0,0,0,10.7307,9.0961,22.9721,22.9721,0,0,0,8.3087,1.646A28.2529,28.2529,0,0,1,354,50.21a28.4341,28.4341,0,0,1,0,22.3588M341.2558,18.333a10.1507,10.1507,0,0,1,2.2318-3.2278,9.9666,9.9666,0,0,1,3.271-2.0953,10.8509,10.8509,0,0,1,4.1218-.768c.0678,0,.13.008.1973.0088a10.8162,10.8162,0,0,1,3.9262.7592A10.6309,10.6309,0,0,1,358.4,15.1747a9.4,9.4,0,0,1,1.2788,1.499,10.34,10.34,0,0,1,.9353,1.6646,9.2942,9.2942,0,0,1,.7425,3.8461,9.286,9.286,0,0,1-.7478,3.8576,9.7353,9.7353,0,0,1-2.2106,3.153,10.5592,10.5592,0,0,1-3.3969,2.1639,11.4368,11.4368,0,0,1-8.2339.0026,9.9285,9.9285,0,0,1-3.271-2.0882,10.1508,10.1508,0,0,1-2.2379-3.2313,9.2659,9.2659,0,0,1-.7469-3.8576,9.2622,9.2622,0,0,1,.7442-3.8514m38.47,21.9775a52.7369,52.7369,0,0,0-7-11.8457,22.2236,22.2236,0,0,0,.8746-6.28,21.4422,21.4422,0,0,0-1.8134-8.853,21.9807,21.9807,0,0,0-4.96-7.04,22.8136,22.8136,0,0,0-7.2527-4.64,23.6825,23.6825,0,0,0-17.3863,0,22.1787,22.1787,0,0,0-7.2,4.6405,21.9067,21.9067,0,0,0-1.602,1.7341c-1.8927-.1585-3.82-.2431-5.7855-.2431a60.7693,60.7693,0,0,0-22.6953,4.1086,52.5275,52.5275,0,0,0-33.47,49.4984,52.3319,52.3319,0,0,0,33.47,49.4974,64.5526,64.5526,0,0,0,45.3238,0,53.5239,53.5239,0,0,0,17.846-11.3807A52.0817,52.0817,0,0,0,379.7258,82.469,53.0885,53.0885,0,0,0,383.9,61.39a53.0949,53.0949,0,0,0-4.1746-21.0793"/><path class="a" d="M198.9984,89.8091h6.06a32.7742,32.7742,0,0,0,12.257-2.1551,26.1609,26.1609,0,0,0,9.0917-5.9264,25.3984,25.3984,0,0,0,5.6569-8.9569A32.0858,32.0858,0,0,0,234.0167,61.39a31.23,31.23,0,0,0-2.02-11.3138,25.3614,25.3614,0,0,0-14.8155-14.9511A32.444,32.444,0,0,0,205.0586,32.97h-6.06Zm-26.4-79.1971h39.06a46.0976,46.0976,0,0,1,19.4622,4.1755,53.0739,53.0739,0,0,1,15.8935,11.1112,51.6516,51.6516,0,0,1,10.7079,16.163,49.84,49.84,0,0,1,.0678,38.521,51.4088,51.4088,0,0,1-10.6409,16.23,52.4391,52.4391,0,0,1-15.8926,11.179,46.3908,46.3908,0,0,1-19.5979,4.1755h-39.06Z"/><polygon class="a" points="153.61 32.97 122.226 32.97 122.226 49.941 151.858 49.941 151.858 72.299 122.226 72.299 122.226 89.81 153.61 89.81 153.61 112.167 95.828 112.167 95.828 10.612 153.61 10.612 153.61 32.97"/><path class="a" d="M26.7326,56.0018h4.9832q7.8089,0,11.9875-3.2313,4.1733-3.234,4.1755-9.2943,0-6.0624-4.1755-9.2943-4.1774-3.2313-11.9875-3.2313H26.7326Zm58.05,56.1654H51.92l-25.1869-39.06v39.06H.333V10.6121H41.4143a40.3217,40.3217,0,0,1,14.8146,2.4915,27.898,27.898,0,0,1,16.6342,16.769,34.7424,34.7424,0,0,1,2.0882,12.1222q0,11.586-5.5908,18.7894-5.5882,7.2051-16.4977,9.7645Z"/></svg>