<svg xmlns="http://www.w3.org/2000/svg" width="481.8889" height="161.5789" viewBox="0 0 481.8889 161.5789"><defs><style>.a{fill:#fff;}.b{fill:#ce171c;}</style></defs><polygon class="a" points="465.251 133.11 465.251 160.807 481.082 160.807 481.082 154.709 472.45 154.709 472.45 133.11 465.251 133.11"/><path class="a" d="M392.5756,141.3019l3.2323,9.2194h-6.4654ZM388.645,133.11l-10.5423,27.697H385.78l1.6522-4.8123h10.2859l1.6532,4.8123h7.6772L396.5054,133.11Z"/><polygon class="a" points="304.766 133.11 304.766 139.208 310.681 139.208 310.681 160.807 317.881 160.807 317.881 139.208 323.794 139.208 323.794 133.11 304.766 133.11"/><rect class="a" x="83.9143" y="133.1099" width="7.1999" height="27.697"/><path class="a" d="M165.4424,145.3056h14.29a39.9535,39.9535,0,0,1-.184,4.0038,14.1961,14.1961,0,0,1-.7346,3.3432,13.33,13.33,0,0,1-2.0934,3.8382,12.2453,12.2453,0,0,1-3.1046,2.7919,14.5887,14.5887,0,0,1-3.9113,1.7086,16.8245,16.8245,0,0,1-4.482.5874,15.7685,15.7685,0,0,1-5.8964-1.0648,13.31,13.31,0,0,1-4.5727-2.9944,13.5671,13.5671,0,0,1-2.976-4.6282,17.29,17.29,0,0,1-.0185-11.9021,13.0287,13.0287,0,0,1,2.976-4.61,13.5267,13.5267,0,0,1,4.6467-2.9751,16.4755,16.4755,0,0,1,6.0611-1.0657,15.04,15.04,0,0,1,7.6042,1.8733,12.9856,12.9856,0,0,1,5.1795,5.804l-6.8335,2.8289a6.9419,6.9419,0,0,0-2.48-3.2693,6.2164,6.2164,0,0,0-3.47-.9925,6.9642,6.9642,0,0,0-2.939.6068,6.3686,6.3686,0,0,0-2.259,1.7262,8.3166,8.3166,0,0,0-1.4691,2.7,10.97,10.97,0,0,0-.5328,3.5255,11.1446,11.1446,0,0,0,.4589,3.2693,7.3608,7.3608,0,0,0,1.3774,2.6078,6.193,6.193,0,0,0,2.2784,1.7086,7.681,7.681,0,0,0,3.1583.6068,8.7424,8.7424,0,0,0,2.0574-.2387,5.4145,5.4145,0,0,0,1.7808-.7724,4.3722,4.3722,0,0,0,1.3052-1.3774,5.5272,5.5272,0,0,0,.6976-2.0565h-5.9141Z"/><rect class="a" x="239.3292" y="133.1099" width="7.1999" height="27.697"/><path class="a" d="M7.2,154.7094H8.853a8.9378,8.9378,0,0,0,3.3424-.5874,7.1266,7.1266,0,0,0,2.4792-1.617,6.9085,6.9085,0,0,0,1.543-2.4414,8.7693,8.7693,0,0,0,.5329-3.1054,8.5232,8.5232,0,0,0-.55-3.0852,6.9294,6.9294,0,0,0-4.0416-4.0777,8.8539,8.8539,0,0,0-3.3054-.5875H7.2ZM0,133.1106H10.6523a12.5757,12.5757,0,0,1,5.3081,1.1379,14.4856,14.4856,0,0,1,4.335,3.0314,14.0736,14.0736,0,0,1,2.92,4.4072,13.3808,13.3808,0,0,1,1.0656,5.2711,13.498,13.498,0,0,1-1.0463,5.235,14.0013,14.0013,0,0,1-2.9028,4.4256,14.261,14.261,0,0,1-4.3349,3.0491,12.6331,12.6331,0,0,1-5.3443,1.14H0Z"/><polygon class="a" points="444.985 10.614 428.013 36.879 414.275 10.614 381.681 10.614 413.333 58.025 373.6 112.169 405.522 112.169 429.362 79.036 449.699 112.169 481.889 112.169 481.889 112.169 444.043 58.025 477.58 10.614 444.985 10.614"/><path class="b" d="M313.3573,61.3919a13.5166,13.5166,0,0,0,1.1449,5.59A14.1109,14.1109,0,0,0,317.6,71.426a13.9626,13.9626,0,0,0,4.5463,2.9293,14.9411,14.9411,0,0,0,10.9765,0,14.3764,14.3764,0,0,0,4.58-2.9293,13.8805,13.8805,0,0,0,3.131-4.4441,14.2086,14.2086,0,0,0,0-11.18,13.89,13.89,0,0,0-3.131-4.4442,14.4251,14.4251,0,0,0-4.58-2.93,14.9517,14.9517,0,0,0-10.9765,0,13.9817,13.9817,0,0,0-7.6438,7.3743,13.5158,13.5158,0,0,0-1.1449,5.59"/><path class="a" d="M354,72.5708a27.7564,27.7564,0,0,1-6.2637,8.8892,28.7933,28.7933,0,0,1-9.1586,5.8594,29.8949,29.8949,0,0,1-21.9538,0,27.9641,27.9641,0,0,1-15.2876-14.7486,28.4447,28.4447,0,0,1,0-22.3589,27.9588,27.9588,0,0,1,15.2876-14.7476A29.1078,29.1078,0,0,1,327.6,33.3761a30.5989,30.5989,0,0,1,3.8567.2474A21.8107,21.8107,0,0,0,342.1872,42.72a22.9706,22.9706,0,0,0,8.3088,1.6461A28.2592,28.2592,0,0,1,354,50.2119a28.4344,28.4344,0,0,1,0,22.3589M341.2554,18.3351a10.1506,10.1506,0,0,1,2.2318-3.2279,9.9669,9.9669,0,0,1,3.271-2.0952,10.8505,10.8505,0,0,1,4.1218-.768c.0678,0,.13.0079.1972.0088a10.8142,10.8142,0,0,1,3.9263.7592A10.632,10.632,0,0,1,358.4,15.1768a9.3916,9.3916,0,0,1,1.2788,1.499,10.34,10.34,0,0,1,.9353,1.6646,9.2958,9.2958,0,0,1,.7424,3.8461,9.286,9.286,0,0,1-.7477,3.8576,9.7354,9.7354,0,0,1-2.2106,3.1529,10.5572,10.5572,0,0,1-3.397,2.164,11.4365,11.4365,0,0,1-8.2338.0026,9.9275,9.9275,0,0,1-3.271-2.0882,10.1492,10.1492,0,0,1-2.2379-3.2313,9.2659,9.2659,0,0,1-.7469-3.8576,9.2622,9.2622,0,0,1,.7442-3.8514m38.47,21.9775a52.7406,52.7406,0,0,0-7-11.8457,22.2277,22.2277,0,0,0,.8745-6.28,21.4406,21.4406,0,0,0-1.8134-8.853,21.9789,21.9789,0,0,0-4.96-7.04,22.8156,22.8156,0,0,0-7.2527-4.6406,23.6841,23.6841,0,0,0-17.3864,0,22.18,22.18,0,0,0-7.2,4.6406,21.8892,21.8892,0,0,0-1.602,1.7341c-1.8927-.1585-3.82-.2431-5.7855-.2431a60.7689,60.7689,0,0,0-22.6953,4.1086,52.5274,52.5274,0,0,0-33.47,49.4983,52.3321,52.3321,0,0,0,33.47,49.4975,64.5523,64.5523,0,0,0,45.3237,0,53.5234,53.5234,0,0,0,17.8461-11.3807A52.0826,52.0826,0,0,0,379.7254,82.471,53.0885,53.0885,0,0,0,383.9,61.3918a53.0948,53.0948,0,0,0-4.1746-21.0792"/><path class="a" d="M198.9979,89.8112h6.06a32.7769,32.7769,0,0,0,12.257-2.1551,26.1609,26.1609,0,0,0,9.0917-5.9264,25.3967,25.3967,0,0,0,5.6568-8.9569,32.0836,32.0836,0,0,0,1.9526-11.3807,31.23,31.23,0,0,0-2.02-11.3138A25.3614,25.3614,0,0,0,217.18,35.1272a32.4431,32.4431,0,0,0-12.1222-2.1551h-6.06Zm-26.4-79.1971h39.06A46.0976,46.0976,0,0,1,231.1205,14.79,53.0734,53.0734,0,0,1,247.014,25.9008a51.65,51.65,0,0,1,10.7078,16.163,49.84,49.84,0,0,1,.0678,38.521,51.407,51.407,0,0,1-10.6408,16.23,52.4378,52.4378,0,0,1-15.8927,11.179,46.3889,46.3889,0,0,1-19.5978,4.1755h-39.06Z"/><polygon class="a" points="153.609 32.972 122.226 32.972 122.226 49.943 151.858 49.943 151.858 72.301 122.226 72.301 122.226 89.812 153.609 89.812 153.609 112.169 95.828 112.169 95.828 10.614 153.609 10.614 153.609 32.972"/><path class="a" d="M26.7322,56.0039h4.9831q7.809,0,11.9875-3.2314,4.1733-3.234,4.1755-9.2942,0-6.0624-4.1755-9.2943-4.1772-3.2313-11.9875-3.2313H26.7322Zm58.05,56.1654H51.9191l-25.1869-39.06v39.06H.3326V10.6141H41.4138a40.3221,40.3221,0,0,1,14.8147,2.4916A27.8982,27.8982,0,0,1,72.8627,29.8746a34.7433,34.7433,0,0,1,2.0882,12.1223q0,11.5859-5.5909,18.7893-5.5881,7.2052-16.4976,9.7646Z"/></svg>