<svg xmlns="http://www.w3.org/2000/svg" width="158.0172" height="161.5748" viewBox="0 0 158.0172 161.5748"><defs><style>.a{fill:#fff;}</style></defs><path class="a" d="M58.9028,86.257a18.9875,18.9875,0,0,0,1.6087,7.854,19.8223,19.8223,0,0,0,4.352,6.2441,19.6155,19.6155,0,0,0,6.3877,4.1157,20.99,20.99,0,0,0,15.4222,0,20.2,20.2,0,0,0,6.4347-4.1157,19.5044,19.5044,0,0,0,4.3991-6.2441,19.9631,19.9631,0,0,0,0-15.708,19.5176,19.5176,0,0,0-4.3991-6.2441,20.2669,20.2669,0,0,0-6.4347-4.117,21.0077,21.0077,0,0,0-15.4222,0,19.6454,19.6454,0,0,0-10.74,10.3611,18.9872,18.9872,0,0,0-1.6087,7.854"/><path class="a" d="M116.0061,101.9637a38.9956,38.9956,0,0,1-8.8006,12.4894,40.4536,40.4536,0,0,1-12.8682,8.2327,42.0026,42.0026,0,0,1-30.8456,0,39.2906,39.2906,0,0,1-21.4794-20.7221,39.9657,39.9657,0,0,1,0-31.4149A39.2831,39.2831,0,0,1,63.4917,49.8279,40.9,40.9,0,0,1,78.9139,46.894a42.97,42.97,0,0,1,5.4188.3477A30.6447,30.6447,0,0,0,99.41,60.0219a32.2737,32.2737,0,0,0,11.674,2.3128,39.6963,39.6963,0,0,1,4.9225,8.2141,39.9508,39.9508,0,0,1,0,31.4149M98.1,25.761a14.2629,14.2629,0,0,1,3.1356-4.5352,14.0041,14.0041,0,0,1,4.5959-2.9439,15.2463,15.2463,0,0,1,5.7912-1.079c.0953,0,.1832.0111.2772.0123a15.1955,15.1955,0,0,1,5.5165,1.0667,14.9374,14.9374,0,0,1,4.7716,3.0416,13.2019,13.2019,0,0,1,1.7967,2.1061,14.5216,14.5216,0,0,1,1.3142,2.3388,13.0606,13.0606,0,0,1,1.0431,5.4039,13.0483,13.0483,0,0,1-1.05,5.42,13.6791,13.6791,0,0,1-3.106,4.43,14.8354,14.8354,0,0,1-4.7728,3.04,16.07,16.07,0,0,1-11.5688.0037,13.9509,13.9509,0,0,1-4.5959-2.934,14.2627,14.2627,0,0,1-3.1443-4.54,13.02,13.02,0,0,1-1.0494-5.42A13.0129,13.0129,0,0,1,98.1,25.761M152.1517,56.64a74.0949,74.0949,0,0,0-9.8352-16.6435,31.2293,31.2293,0,0,0,1.2288-8.8242,30.1256,30.1256,0,0,0-2.5479-12.4387,30.8831,30.8831,0,0,0-6.9692-9.8909,32.0576,32.0576,0,0,0-10.19-6.52,33.276,33.276,0,0,0-24.4283,0,31.163,31.163,0,0,0-10.1161,6.52,30.7945,30.7945,0,0,0-2.2509,2.4365c-2.6592-.2227-5.3667-.3415-8.1287-.3415A85.3828,85.3828,0,0,0,47.0264,16.71,73.8025,73.8025,0,0,0,0,86.2569a73.5277,73.5277,0,0,0,47.0264,69.5453,85.3588,85.3588,0,0,0,31.8875,5.7726,85.5835,85.5835,0,0,0,31.7935-5.7726,75.2016,75.2016,0,0,0,25.0742-15.99,73.1757,73.1757,0,0,0,16.37-23.9383,74.59,74.59,0,0,0,5.8655-29.6168A74.6,74.6,0,0,0,152.1517,56.64"/></svg>