<?xml version="1.0" encoding="utf-8"?>
<!-- Generator: Adobe Illustrator 25.4.1, SVG Export Plug-In . SVG Version: 6.00 Build 0)  -->
<svg version="1.1" id="Calque_1" xmlns="http://www.w3.org/2000/svg" xmlns:xlink="http://www.w3.org/1999/xlink" x="0px" y="0px"
	 viewBox="0 0 481.6 115" style="enable-background:new 0 0 481.6 115;" xml:space="preserve">
<style type="text/css">
	.st0{fill:#010101;}
	.st1{fill:#AE0000;}
</style>
<polygon class="st0" points="444.6,10.6 427.7,36.9 413.9,10.6 381.4,10.6 413,58 373.3,112.2 405.2,112.2 429,79 449.4,112.2 
	481.6,112.2 481.6,112.2 443.7,58 477.2,10.6 "/>
<path class="st1" d="M313,61.4c0,1.9,0.4,3.8,1.2,5.6c1.5,3.4,4.2,6,7.6,7.4c5.3,2.1,11.4,1,15.6-2.9c1.3-1.3,2.4-2.8,3.1-4.4
	c1.5-3.6,1.5-7.6,0-11.2c-0.7-1.7-1.8-3.2-3.1-4.5c-1.3-1.3-2.9-2.3-4.6-2.9c-3.5-1.4-7.5-1.4-11,0c-1.7,0.7-3.2,1.7-4.5,2.9
	c-1.3,1.3-2.4,2.8-3.1,4.5C313.4,57.6,313,59.5,313,61.4"/>
<path class="st0" d="M353.7,72.6c-1.5,3.3-3.6,6.4-6.3,8.9c-5.4,5.2-12.6,8-20.1,8c-3.8,0-7.5-0.7-11-2.1c-3.4-1.3-6.5-3.3-9.1-5.9
	c-2.6-2.5-4.7-5.6-6.2-8.9c-3.1-7.1-3.1-15.2,0-22.3c1.5-3.3,3.6-6.4,6.2-8.9c2.6-2.5,5.7-4.5,9.1-5.9c3.5-1.4,7.2-2.1,11-2.1
	c1.3,0,2.6,0.1,3.9,0.2c2.5,4.1,6.2,7.3,10.7,9.1c2.6,1.1,5.5,1.6,8.3,1.7c1.4,1.8,2.6,3.8,3.5,5.8
	C356.7,57.4,356.7,65.5,353.7,72.6 M340.9,18.3c0.5-1.2,1.3-2.3,2.2-3.2c0.9-0.9,2.1-1.6,3.3-2.1c1.3-0.5,2.7-0.8,4.1-0.8h0.2
	c1.3,0,2.7,0.3,3.9,0.8c1.3,0.5,2.4,1.2,3.4,2.2c0.5,0.5,0.9,1,1.3,1.5c0.4,0.5,0.7,1.1,0.9,1.7c0.5,1.2,0.8,2.5,0.7,3.9
	c0,1.3-0.2,2.6-0.7,3.9c-0.5,1.2-1.3,2.3-2.2,3.1c-3.2,2.9-7.7,3.7-11.6,2.2c-1.2-0.5-2.3-1.2-3.3-2.1c-0.9-0.9-1.7-2-2.2-3.2
	c-0.5-1.2-0.8-2.5-0.8-3.9C340.1,20.8,340.4,19.5,340.9,18.3 M379.4,40.3c-1.8-4.2-4.2-8.2-7-11.9c0.6-2,0.9-4.2,0.9-6.3
	c0-3-0.6-6.1-1.8-8.9c-1.2-2.6-2.9-5-5-7c-2.1-2-4.6-3.6-7.2-4.6c-5.6-2.2-11.8-2.2-17.4,0c-2.7,1.1-5.1,2.6-7.2,4.6
	c-0.6,0.6-1.1,1.1-1.6,1.7c-1.9-0.2-3.8-0.2-5.8-0.2c-7.8-0.1-15.5,1.3-22.7,4.1c-20.3,7.9-33.6,27.6-33.4,49.5
	c-0.3,21.9,13.1,41.6,33.5,49.5c14.6,5.5,30.7,5.5,45.3,0c6.6-2.6,12.7-6.4,17.8-11.4c5-4.8,8.9-10.6,11.6-17
	c2.8-6.7,4.2-13.8,4.2-21.1C383.6,54.2,382.2,47,379.4,40.3"/>
<path class="st0" d="M198.7,89.8h6.1c4.2,0.1,8.4-0.7,12.3-2.2c3.4-1.3,6.5-3.3,9.1-5.9c2.5-2.6,4.4-5.6,5.7-9c1.3-3.6,2-7.5,2-11.4
	c0-3.9-0.6-7.7-2-11.3c-1.3-3.4-3.2-6.4-5.7-9c-2.6-2.6-5.7-4.6-9.1-5.9c-3.9-1.5-8-2.2-12.2-2.1h-6.1V89.8z M172.3,10.6h39.1
	c6.7,0,13.4,1.4,19.5,4.2c5.9,2.7,11.3,6.5,15.9,11.1c4.6,4.7,8.2,10.2,10.7,16.2c5.2,12.3,5.2,26.2,0.1,38.5
	c-2.5,6-6.1,11.5-10.6,16.2c-4.6,4.7-10,8.5-15.9,11.2c-6.1,2.8-12.8,4.2-19.6,4.2h-39.1V10.6z"/>
<polygon class="st0" points="153.3,33 121.9,33 121.9,50 151.5,50 151.5,72.3 121.9,72.3 121.9,89.8 153.3,89.8 153.3,112.2 
	95.5,112.2 95.5,10.6 153.3,10.6 "/>
<path class="st0" d="M26.4,56h5c5.2,0,9.2-1.1,12-3.2c2.8-2.2,4.2-5.3,4.2-9.3c0-4-1.4-7.1-4.2-9.3c-2.8-2.2-6.8-3.2-12-3.2h-5
	L26.4,56z M84.4,112.2H51.6L26.4,73.1v39.1H0V10.6h41.1c5.1-0.1,10.1,0.7,14.8,2.5c7.8,2.9,13.8,9,16.6,16.8c1.4,3.9,2.1,8,2.1,12.1
	c0,7.7-1.9,14-5.6,18.8c-3.7,4.8-9.2,8.1-16.5,9.8L84.4,112.2z"/>
</svg>
