<svg xmlns="http://www.w3.org/2000/svg" viewBox="0 0 481.56 115"><polygon points="444.65 10.61 427.68 36.88 413.94 10.61 381.35 10.61 413 58.02 373.27 112.17 405.19 112.17 429.03 79.04 449.37 112.17 481.56 112.17 481.56 112.17 443.71 58.02 477.25 10.61 444.65 10.61" fill="#010101"/><path d="M313,61.39A13.57,13.57,0,0,0,314.17,67a14,14,0,0,0,3.1,4.45,14.13,14.13,0,0,0,4.54,2.93,15,15,0,0,0,11,0,14.53,14.53,0,0,0,4.58-2.93A13.9,13.9,0,0,0,340.5,67a14.16,14.16,0,0,0,0-11.18,13.85,13.85,0,0,0-3.13-4.44,14.19,14.19,0,0,0-4.58-2.93,14.88,14.88,0,0,0-11,0,14,14,0,0,0-7.64,7.37A13.6,13.6,0,0,0,313,61.39" fill="#010101"/><path d="M353.67,72.57a27.78,27.78,0,0,1-6.27,8.89,28.65,28.65,0,0,1-9.16,5.86,29.86,29.86,0,0,1-21.95,0,27.8,27.8,0,0,1-9.09-5.86,28.22,28.22,0,0,1-6.2-8.89,28.44,28.44,0,0,1,0-22.36,28,28,0,0,1,15.29-14.75,29.17,29.17,0,0,1,11-2.08,30.5,30.5,0,0,1,3.85.24,22.16,22.16,0,0,0,3.53,4.46,22.33,22.33,0,0,0,7.2,4.64,23.09,23.09,0,0,0,8.31,1.65,27.86,27.86,0,0,1,3.51,5.84,28.44,28.44,0,0,1,0,22.36M340.92,18.33a10.19,10.19,0,0,1,2.23-3.22,10,10,0,0,1,3.28-2.1,10.94,10.94,0,0,1,4.12-.77h.19a10.87,10.87,0,0,1,3.93.76,10.74,10.74,0,0,1,3.4,2.17,9.22,9.22,0,0,1,1.28,1.5,10.63,10.63,0,0,1,.93,1.66,9.25,9.25,0,0,1,.74,3.85,9.28,9.28,0,0,1-.74,3.85,9.93,9.93,0,0,1-2.21,3.16,11.21,11.21,0,0,1-11.64,2.16,9.94,9.94,0,0,1-3.27-2.08A10.07,10.07,0,0,1,340.93,26a9.12,9.12,0,0,1-.75-3.85,9.3,9.3,0,0,1,.74-3.86m38.47,22a52.49,52.49,0,0,0-7-11.84,22.22,22.22,0,0,0,.88-6.28,21.47,21.47,0,0,0-1.82-8.86,22,22,0,0,0-5-7,22.83,22.83,0,0,0-7.25-4.64,23.74,23.74,0,0,0-17.39,0,22.49,22.49,0,0,0-7.2,4.64c-.56.55-1.09,1.13-1.6,1.74-1.89-.16-3.82-.25-5.78-.25a61,61,0,0,0-22.7,4.11,53.08,53.08,0,0,0-17.71,11.38A52.82,52.82,0,0,0,271.1,61.39a52.33,52.33,0,0,0,33.47,49.5,64.55,64.55,0,0,0,45.33,0,53.5,53.5,0,0,0,17.84-11.38,52,52,0,0,0,11.65-17,53.13,53.13,0,0,0,4.18-21.08,53.13,53.13,0,0,0-4.18-21.08" fill="#010101"/><path d="M198.67,89.81h6.06A32.88,32.88,0,0,0,217,87.66a26.3,26.3,0,0,0,9.09-5.93,25.29,25.29,0,0,0,5.66-9,32.06,32.06,0,0,0,2-11.38,31.16,31.16,0,0,0-2-11.31,25.3,25.3,0,0,0-14.81-14.95A32.35,32.35,0,0,0,204.73,33h-6.06Zm-26.4-79.2h39.06a46.13,46.13,0,0,1,19.46,4.18A53,53,0,0,1,246.68,25.9a51.8,51.8,0,0,1,10.71,16.16,49.8,49.8,0,0,1,.07,38.52,51.29,51.29,0,0,1-10.64,16.23A52.48,52.48,0,0,1,230.92,108a46.27,46.27,0,0,1-19.59,4.18H172.27Z" fill="#010101"/><polygon points="153.28 32.97 121.89 32.97 121.89 49.94 151.53 49.94 151.53 72.3 121.89 72.3 121.89 89.81 153.28 89.81 153.28 112.17 95.5 112.17 95.5 10.61 153.28 10.61 153.28 32.97" fill="#010101"/><path d="M26.4,56h5q7.82,0,12-3.23t4.18-9.29q0-6.06-4.18-9.3T31.38,31h-5Zm58.05,56.17H51.59L26.4,73.11v39.06H0V10.61H41.08a40.18,40.18,0,0,1,14.82,2.5A27.94,27.94,0,0,1,72.53,29.87,34.86,34.86,0,0,1,74.62,42q0,11.58-5.59,18.79t-16.5,9.76Z" fill="#010101"/></svg>