<svg xmlns="http://www.w3.org/2000/svg" width="481.8889" height="161.5789" viewBox="0 0 481.8889 161.5789"><defs><style>.a{fill:#010101;}</style></defs><polygon class="a" points="465.251 133.11 465.251 160.807 481.082 160.807 481.082 154.709 472.45 154.709 472.45 133.11 465.251 133.11"/><path class="a" d="M392.5756,141.3017l3.2323,9.2194h-6.4654ZM388.645,133.11l-10.5423,27.697H385.78l1.6522-4.8123h10.2859l1.6532,4.8123h7.6772L396.5054,133.11Z"/><polygon class="a" points="304.766 133.11 304.766 139.207 310.681 139.207 310.681 160.807 317.881 160.807 317.881 139.207 323.794 139.207 323.794 133.11 304.766 133.11"/><rect class="a" x="83.9143" y="133.1097" width="7.1999" height="27.697"/><path class="a" d="M165.4424,145.3054h14.29a39.9535,39.9535,0,0,1-.184,4.0038,14.1961,14.1961,0,0,1-.7346,3.3432,13.3313,13.3313,0,0,1-2.0934,3.8382,12.2453,12.2453,0,0,1-3.1046,2.7919,14.5918,14.5918,0,0,1-3.9113,1.7086,16.8245,16.8245,0,0,1-4.482.5874,15.7685,15.7685,0,0,1-5.8964-1.0648,13.3084,13.3084,0,0,1-4.5727-2.9945,13.5658,13.5658,0,0,1-2.976-4.6281,17.29,17.29,0,0,1-.0185-11.9021,13.0287,13.0287,0,0,1,2.976-4.61,13.5252,13.5252,0,0,1,4.6467-2.9751,16.4755,16.4755,0,0,1,6.0611-1.0657,15.0392,15.0392,0,0,1,7.6042,1.8733,12.9856,12.9856,0,0,1,5.1795,5.804l-6.8335,2.8289a6.9414,6.9414,0,0,0-2.48-3.2693,6.2164,6.2164,0,0,0-3.47-.9926,6.9643,6.9643,0,0,0-2.939.6069,6.3686,6.3686,0,0,0-2.259,1.7262,8.3166,8.3166,0,0,0-1.4691,2.7,10.97,10.97,0,0,0-.5328,3.5255,11.1434,11.1434,0,0,0,.4589,3.2692,7.3612,7.3612,0,0,0,1.3774,2.6079,6.193,6.193,0,0,0,2.2784,1.7086,7.681,7.681,0,0,0,3.1583.6068,8.7424,8.7424,0,0,0,2.0574-.2387,5.4145,5.4145,0,0,0,1.7808-.7724,4.3722,4.3722,0,0,0,1.3052-1.3774,5.5272,5.5272,0,0,0,.6976-2.0565h-5.9141Z"/><rect class="a" x="239.3292" y="133.1097" width="7.1999" height="27.697"/><path class="a" d="M7.2,154.7092H8.853a8.9378,8.9378,0,0,0,3.3424-.5874,7.128,7.128,0,0,0,2.4792-1.617,6.9094,6.9094,0,0,0,1.543-2.4414,8.7693,8.7693,0,0,0,.5329-3.1054,8.5232,8.5232,0,0,0-.55-3.0852,6.9294,6.9294,0,0,0-4.0416-4.0777,8.8539,8.8539,0,0,0-3.3054-.5875H7.2ZM0,133.11H10.6523a12.5757,12.5757,0,0,1,5.3081,1.1379,14.482,14.482,0,0,1,4.335,3.0314,14.0736,14.0736,0,0,1,2.92,4.4072,13.3808,13.3808,0,0,1,1.0656,5.2711,13.498,13.498,0,0,1-1.0463,5.235,14.0013,14.0013,0,0,1-2.9028,4.4256,14.261,14.261,0,0,1-4.3349,3.0491,12.6345,12.6345,0,0,1-5.3443,1.14H0Z"/><polygon class="a" points="444.985 10.614 428.013 36.879 414.275 10.614 381.681 10.614 413.333 58.025 373.6 112.169 405.522 112.169 429.362 79.036 449.699 112.169 481.889 112.169 481.889 112.168 444.043 58.025 477.58 10.614 444.985 10.614"/><path class="a" d="M313.3573,61.3917a13.5158,13.5158,0,0,0,1.1449,5.59A14.11,14.11,0,0,0,317.6,71.4258a13.9624,13.9624,0,0,0,4.5463,2.9292,14.94,14.94,0,0,0,10.9765,0,14.3761,14.3761,0,0,0,4.58-2.9292,13.88,13.88,0,0,0,3.131-4.4442,14.2086,14.2086,0,0,0,0-11.18,13.89,13.89,0,0,0-3.131-4.4441,14.4234,14.4234,0,0,0-4.58-2.93,14.9517,14.9517,0,0,0-10.9765,0,13.982,13.982,0,0,0-7.6438,7.3742,13.5166,13.5166,0,0,0-1.1449,5.59"/><path class="a" d="M354,72.5706a27.756,27.756,0,0,1-6.2637,8.8891,28.7936,28.7936,0,0,1-9.1586,5.8595,29.8949,29.8949,0,0,1-21.9538,0,27.965,27.965,0,0,1-15.2876-14.7486,28.4447,28.4447,0,0,1,0-22.3589A27.9594,27.9594,0,0,1,316.6234,35.464,29.11,29.11,0,0,1,327.6,33.3758a30.58,30.58,0,0,1,3.8567.2475,21.8107,21.8107,0,0,0,10.7307,9.0961,22.9706,22.9706,0,0,0,8.3088,1.6461A28.2565,28.2565,0,0,1,354,50.2117a28.4344,28.4344,0,0,1,0,22.3589M341.2554,18.3349a10.15,10.15,0,0,1,2.2318-3.2279,9.9669,9.9669,0,0,1,3.271-2.0952,10.8505,10.8505,0,0,1,4.1218-.768c.0678,0,.13.0079.1972.0088a10.8142,10.8142,0,0,1,3.9263.7592A10.632,10.632,0,0,1,358.4,15.1766a9.3916,9.3916,0,0,1,1.2788,1.499,10.3388,10.3388,0,0,1,.9353,1.6645,9.2963,9.2963,0,0,1,.7424,3.8462,9.2852,9.2852,0,0,1-.7477,3.8575,9.7358,9.7358,0,0,1-2.2106,3.153,10.5588,10.5588,0,0,1-3.397,2.164,11.4379,11.4379,0,0,1-8.2338.0026,9.9275,9.9275,0,0,1-3.271-2.0882,10.15,10.15,0,0,1-2.2379-3.2314,9.2654,9.2654,0,0,1-.7469-3.8575,9.2622,9.2622,0,0,1,.7442-3.8514m38.47,21.9775a52.7406,52.7406,0,0,0-7-11.8457,22.2283,22.2283,0,0,0,.8745-6.28,21.4414,21.4414,0,0,0-1.8134-8.8531,21.9811,21.9811,0,0,0-4.96-7.04,22.817,22.817,0,0,0-7.2527-4.64,23.6841,23.6841,0,0,0-17.3864,0,22.1815,22.1815,0,0,0-7.2,4.64,21.908,21.908,0,0,0-1.602,1.7342c-1.8927-.1586-3.82-.2431-5.7855-.2431a60.7689,60.7689,0,0,0-22.6953,4.1086,52.5274,52.5274,0,0,0-33.47,49.4983,52.3321,52.3321,0,0,0,33.47,49.4975,64.5538,64.5538,0,0,0,45.3237,0,53.5234,53.5234,0,0,0,17.8461-11.3807,52.0826,52.0826,0,0,0,11.6511-17.0376A53.0885,53.0885,0,0,0,383.9,61.3916a53.0948,53.0948,0,0,0-4.1746-21.0792"/><path class="a" d="M198.9979,89.811h6.06a32.7769,32.7769,0,0,0,12.257-2.1551,26.1623,26.1623,0,0,0,9.0917-5.9264,25.3967,25.3967,0,0,0,5.6568-8.9569,32.084,32.084,0,0,0,1.9526-11.3807,31.23,31.23,0,0,0-2.02-11.3138A25.3614,25.3614,0,0,0,217.18,35.127a32.4431,32.4431,0,0,0-12.1222-2.1552h-6.06Zm-26.4-79.1972h39.06a46.0976,46.0976,0,0,1,19.4622,4.1755A53.077,53.077,0,0,1,247.014,25.9005a51.6507,51.6507,0,0,1,10.7078,16.163,49.84,49.84,0,0,1,.0678,38.5211,51.407,51.407,0,0,1-10.6408,16.23,52.4378,52.4378,0,0,1-15.8927,11.179,46.3889,46.3889,0,0,1-19.5978,4.1755h-39.06Z"/><polygon class="a" points="153.609 32.972 122.226 32.972 122.226 49.943 151.858 49.943 151.858 72.301 122.226 72.301 122.226 89.812 153.609 89.812 153.609 112.169 95.828 112.169 95.828 10.614 153.609 10.614 153.609 32.972"/><path class="a" d="M26.7322,56.0037h4.9831q7.809,0,11.9875-3.2314,4.1733-3.234,4.1755-9.2942,0-6.0626-4.1755-9.2943-4.1772-3.2313-11.9875-3.2314H26.7322Zm58.05,56.1654H51.9191l-25.1869-39.06v39.06H.3326V10.6139H41.4138a40.32,40.32,0,0,1,14.8147,2.4916A27.8982,27.8982,0,0,1,72.8627,29.8744a34.7429,34.7429,0,0,1,2.0882,12.1223q0,11.5859-5.5909,18.7893-5.5881,7.2053-16.4976,9.7646Z"/></svg>