<svg xmlns="http://www.w3.org/2000/svg" width="481.5563" height="114.9976" viewBox="0 0 481.5563 114.9976"><defs><style>.a{fill:#fff;}.b{fill:#ce171c;}</style></defs><polygon class="a" points="444.652 10.62 427.68 36.885 413.942 10.62 381.348 10.62 413 58.031 373.267 112.176 405.189 112.176 429.029 79.042 449.366 112.176 481.556 112.176 481.556 112.175 443.71 58.031 477.247 10.62 444.652 10.62"/><path class="b" d="M313.0243,61.3981a13.5142,13.5142,0,0,0,1.145,5.59,14.1082,14.1082,0,0,0,3.0975,4.4441,13.9622,13.9622,0,0,0,4.5462,2.9293,14.94,14.94,0,0,0,10.9765,0,14.3764,14.3764,0,0,0,4.58-2.9293A13.8794,13.8794,0,0,0,340.5,66.988a14.2086,14.2086,0,0,0,0-11.18,13.8893,13.8893,0,0,0-3.131-4.4441,14.4254,14.4254,0,0,0-4.58-2.93,14.953,14.953,0,0,0-10.9765,0,13.9829,13.9829,0,0,0-7.6437,7.3743,13.515,13.515,0,0,0-1.145,5.59"/><path class="a" d="M353.6665,72.577a27.756,27.756,0,0,1-6.2637,8.8891,28.7936,28.7936,0,0,1-9.1586,5.8595,29.8949,29.8949,0,0,1-21.9538,0A27.965,27.965,0,0,1,301.0028,72.577a28.4447,28.4447,0,0,1,0-22.3589A27.9594,27.9594,0,0,1,316.29,35.47a29.11,29.11,0,0,1,10.9764-2.0882,30.5777,30.5777,0,0,1,3.8567.2475,21.8107,21.8107,0,0,0,10.7307,9.0961,22.971,22.971,0,0,0,8.3088,1.6461,28.2522,28.2522,0,0,1,3.5035,5.8462,28.4344,28.4344,0,0,1,0,22.3589M340.9224,18.3412a10.1491,10.1491,0,0,1,2.2318-3.2278,9.9653,9.9653,0,0,1,3.271-2.0952,10.849,10.849,0,0,1,4.1218-.768c.0678,0,.13.0079.1972.0088a10.8121,10.8121,0,0,1,3.9263.7592,10.6292,10.6292,0,0,1,3.3961,2.1648,9.3916,9.3916,0,0,1,1.2788,1.499,10.3388,10.3388,0,0,1,.9353,1.6645,9.2958,9.2958,0,0,1,.7424,3.8461,9.286,9.286,0,0,1-.7477,3.8576,9.7358,9.7358,0,0,1-2.2106,3.153,10.5592,10.5592,0,0,1-3.3969,2.1639,11.4375,11.4375,0,0,1-8.2339.0027,9.93,9.93,0,0,1-3.271-2.0882,10.15,10.15,0,0,1-2.2379-3.2314,9.2659,9.2659,0,0,1-.7469-3.8576,9.2622,9.2622,0,0,1,.7442-3.8514m38.47,21.9776a52.7406,52.7406,0,0,0-7-11.8457,22.2285,22.2285,0,0,0,.8746-6.28,21.4429,21.4429,0,0,0-1.8134-8.853,21.9818,21.9818,0,0,0-4.96-7.04,22.817,22.817,0,0,0-7.2527-4.64,23.6841,23.6841,0,0,0-17.3864,0,22.1815,22.1815,0,0,0-7.2,4.64,21.9242,21.9242,0,0,0-1.602,1.7341c-1.8927-.1585-3.82-.243-5.7855-.243A60.7709,60.7709,0,0,0,304.5715,11.9a52.5276,52.5276,0,0,0-33.47,49.4984,52.3321,52.3321,0,0,0,33.47,49.4974,64.5523,64.5523,0,0,0,45.3237,0,53.5218,53.5218,0,0,0,17.8461-11.3807,52.0812,52.0812,0,0,0,11.6511-17.0375A53.0885,53.0885,0,0,0,383.567,61.398a53.0944,53.0944,0,0,0-4.1746-21.0792"/><path class="a" d="M198.6649,89.8174h6.06a32.7769,32.7769,0,0,0,12.257-2.1551,26.1623,26.1623,0,0,0,9.0917-5.9264,25.3988,25.3988,0,0,0,5.6569-8.957,32.0854,32.0854,0,0,0,1.9525-11.3807,31.23,31.23,0,0,0-2.02-11.3137,25.3606,25.3606,0,0,0-14.8155-14.9511,32.4431,32.4431,0,0,0-12.1222-2.1552h-6.06Zm-26.4-79.1972h39.06a46.0976,46.0976,0,0,1,19.4622,4.1755A53.077,53.077,0,0,1,246.681,25.9069,51.65,51.65,0,0,1,257.3888,42.07a49.84,49.84,0,0,1,.0678,38.521,51.4063,51.4063,0,0,1-10.6408,16.23A52.4378,52.4378,0,0,1,230.9231,108a46.39,46.39,0,0,1-19.5978,4.1755h-39.06Z"/><polygon class="a" points="153.276 32.978 121.893 32.978 121.893 49.95 151.525 49.95 151.525 72.308 121.893 72.308 121.893 89.818 153.276 89.818 153.276 112.175 95.495 112.175 95.495 10.62 153.276 10.62 153.276 32.978"/><path class="a" d="M26.3992,56.01h4.9831q7.809,0,11.9875-3.2314,4.1735-3.234,4.1756-9.2943,0-6.0624-4.1756-9.2942-4.1772-3.2314-11.9875-3.2314H26.3992Zm58.05,56.1654H51.5861l-25.1869-39.06v39.06H0V10.62H41.0809a40.32,40.32,0,0,1,14.8146,2.4916A27.8982,27.8982,0,0,1,72.53,29.8808a34.7429,34.7429,0,0,1,2.0882,12.1223q0,11.5858-5.5909,18.7893-5.5881,7.2051-16.4976,9.7646Z"/></svg>