<svg id="Calque_1" data-name="Calque 1" xmlns="http://www.w3.org/2000/svg" viewBox="0 0 48 48"><defs><style>.cls-1{fill:#ce171c;}</style></defs><path class="cls-1" d="M48,37.91a11.08,11.08,0,0,1-.34,2.4,13.83,13.83,0,0,1-.72,2.34c-.47,1.13-1.86,2.34-4.16,3.61a12.61,12.61,0,0,1-8.13,1.62,14.11,14.11,0,0,1-2-.43c-.72-.2-1.26-.36-1.62-.49l-1.89-.7-1.67-.61a31.06,31.06,0,0,1-6-2.83,50.8,50.8,0,0,1-9-7.35,50.8,50.8,0,0,1-7.35-9,31.06,31.06,0,0,1-2.83-6c-.07-.21-.27-.76-.61-1.67s-.58-1.54-.7-1.89S.75,16,.55,15.31a14.11,14.11,0,0,1-.43-2A13.12,13.12,0,0,1,0,11.56,13.19,13.19,0,0,1,1.74,5.22C3,2.92,4.22,1.53,5.35,1.06A13.83,13.83,0,0,1,7.69.34,11.08,11.08,0,0,1,10.09,0a1.9,1.9,0,0,1,.72.1c.41.14,1,1,1.8,2.59l1,1.84c.43.8.83,1.52,1.19,2.17S15.55,8,15.89,8.52l.59.85a9.93,9.93,0,0,1,.74,1.22,2.16,2.16,0,0,1,.23,1,2.81,2.81,0,0,1-1,1.7,16.47,16.47,0,0,1-2.11,1.88,19.57,19.57,0,0,0-2.11,1.8,2.62,2.62,0,0,0-1,1.57,2.4,2.4,0,0,0,.17.77c.12.31.21.54.29.7s.24.43.48.82.37.6.39.64a35.49,35.49,0,0,0,5.94,8,35.49,35.49,0,0,0,8,5.94l.64.39c.39.24.66.4.82.48s.39.17.7.29a2.4,2.4,0,0,0,.77.17,2.62,2.62,0,0,0,1.57-1,19.57,19.57,0,0,0,1.8-2.11,16.47,16.47,0,0,1,1.88-2.11,2.81,2.81,0,0,1,1.7-1,2.3,2.3,0,0,1,1,.23,9.22,9.22,0,0,1,1.21.74l.86.59c.57.34,1.17.7,1.82,1.06l2.17,1.19,1.84,1c1.59.79,2.45,1.39,2.59,1.8A1.9,1.9,0,0,1,48,37.91Z"/></svg>