<svg id="Calque_1" data-name="Calque 1" xmlns="http://www.w3.org/2000/svg" viewBox="0 0 48 48"><defs><style>.cls-1{fill:#cd1719;stroke:#ce171c;stroke-miterlimit:10;stroke-width:1.5px;}</style></defs><path class="cls-1" d="M43,7.83H5a4,4,0,0,0-4,4V36.13a4,4,0,0,0,4,4H43a4,4,0,0,0,4-4V11.87A4,4,0,0,0,43,7.83Zm-.57,2.69c-.83.82-15,15-15.53,15.46a4.06,4.06,0,0,1-5.72,0c-.33-.34-14.39-14.32-15.53-15.46ZM3.7,35.58V12.42L15.34,24Zm1.91,1.9L17.25,25.9l2,2a6.72,6.72,0,0,0,9.52,0l2-2L42.39,37.48Zm38.69-1.9L32.66,24,44.3,12.42Z"/></svg>