<svg id="Calque_1" data-name="Calque 1" xmlns="http://www.w3.org/2000/svg" viewBox="0 0 48 48"><defs><style>.cls-1{fill:#ce171c;}.cls-2{fill:#fff;}</style></defs><circle class="cls-1" cx="24" cy="24" r="24"/><path class="cls-2" d="M18.89,12.5a6.4,6.4,0,0,0-6.39,6.39V29.11a6.4,6.4,0,0,0,6.39,6.39H29.11a6.4,6.4,0,0,0,6.39-6.39V18.89a6.4,6.4,0,0,0-6.39-6.39Zm0,2.56H29.11a3.84,3.84,0,0,1,3.83,3.83V29.11a3.84,3.84,0,0,1-3.83,3.83H18.89a3.84,3.84,0,0,1-3.83-3.83V18.89A3.84,3.84,0,0,1,18.89,15.06Zm11.5,1.27a1.28,1.28,0,1,0,1.28,1.28A1.28,1.28,0,0,0,30.39,16.33ZM24,17.61A6.39,6.39,0,1,0,30.39,24,6.4,6.4,0,0,0,24,17.61Zm0,2.56A3.83,3.83,0,1,1,20.17,24,3.84,3.84,0,0,1,24,20.17Z"/></svg>