<svg xmlns="http://www.w3.org/2000/svg" xmlns:xlink="http://www.w3.org/1999/xlink" viewBox="0 0 1920 1080"><defs><radialGradient id="a" cx="-5337.98" cy="-1093.73" r="1687.75" gradientTransform="matrix(1.01, 0, 0, -1.01, 7285.44, 96.59)" gradientUnits="userSpaceOnUse"><stop offset="0"/><stop offset="0.1" stop-color="#060606"/><stop offset="0.22" stop-color="#151515"/><stop offset="0.36" stop-color="#2f2f2f"/><stop offset="0.51" stop-color="#545454"/><stop offset="0.67" stop-color="#838383"/><stop offset="0.83" stop-color="#bcbcbc"/><stop offset="1" stop-color="#fff"/></radialGradient><mask id="b" x="-60.65" y="-16.76" width="1994.67" height="1251.06" maskUnits="userSpaceOnUse"><rect x="-60.65" y="-16.76" width="1994.67" height="1251.06" transform="translate(1873.38 1217.53) rotate(-180)" fill="url(#a)"/></mask></defs><g style="isolation:isolate"><g mask="url(#b)"><g style="mix-blend-mode:screen"><g opacity="0.3"><path d="M118.82,1077a.42.42,0,0,1-.35,0,.45.45,0,0,1-.26-.57l27.52-80.87a.43.43,0,0,1,.55-.28.45.45,0,0,1,.27.57L119,1076.76A.4.4,0,0,1,118.82,1077Z" fill="#991414"/></g><g opacity="0.29"><path d="M147.41,1106.35a.38.38,0,0,1-.53-.16.42.42,0,0,1,.15-.56l55.77-32.8h0a.39.39,0,0,1,.53.16.41.41,0,0,1-.15.56l-55.77,32.81Z" fill="#991414"/></g><g opacity="0.33"><path d="M147.45,1106.43a.48.48,0,0,1-.42,0,.51.51,0,0,1-.24-.67l33-75.27a.47.47,0,0,1,.64-.25.5.5,0,0,1,.24.66l-33,75.28A.54.54,0,0,1,147.45,1106.43Z" fill="#991414"/></g><g opacity="0.41"><path d="M185.85,1131.81a.64.64,0,0,1-.49,0,.68.68,0,0,1-.42-.83l17.45-58a.63.63,0,0,1,.8-.44.68.68,0,0,1,.42.83l-17.45,58A.65.65,0,0,1,185.85,1131.81Z" fill="#991414"/></g><g opacity="0.3"><path d="M200.12,1165.74a.46.46,0,0,1-.2,0,.38.38,0,0,1-.36-.41l3.06-92.21a.38.38,0,0,1,.39-.38.4.4,0,0,1,.37.41l-3.06,92.21A.41.41,0,0,1,200.12,1165.74Z" fill="#991414"/></g><g opacity="0.33"><path d="M203.22,1073.61a.46.46,0,0,1-.63-.19L179.82,1031a.49.49,0,0,1,.18-.66.42.42,0,0,1,.63.19L203.4,1073a.49.49,0,0,1-.18.66Z" fill="#991414"/></g><g opacity="0.3"><path d="M272.2,1130.59a.38.38,0,0,1-.42,0,.41.41,0,0,1,0-.56l71.34-86.55a.37.37,0,0,1,.53,0,.42.42,0,0,1,.05.56l-71.35,86.54A.52.52,0,0,1,272.2,1130.59Z" fill="#991414"/></g><g opacity="0.27"><path d="M295.21,867.93l-.07,0-83.78,25.49a.36.36,0,0,1-.45-.26.37.37,0,0,1,.24-.46l83.79-25.49a.36.36,0,0,1,.45.25A.38.38,0,0,1,295.21,867.93Z" fill="#991414"/></g><g opacity="0.32"><path d="M230.72,909.39a.43.43,0,0,1-.5,0L211,893.47a.5.5,0,0,1-.07-.68.45.45,0,0,1,.65-.08l19.26,15.88a.49.49,0,0,1,.07.67A.37.37,0,0,1,230.72,909.39Z" fill="#991414"/></g><g opacity="0.34"><path d="M230.74,909.42a.49.49,0,0,1-.66-.18.54.54,0,0,1,.16-.72l64.54-41.36a.46.46,0,0,1,.69.16.55.55,0,0,1-.16.72l-64.54,41.37Z" fill="#991414"/></g><g opacity="0.29"><path d="M385,1016.31a.37.37,0,0,1-.29,0l-85.53-25.9a.39.39,0,0,1-.26-.49.38.38,0,0,1,.47-.27l85.53,25.9a.4.4,0,0,1,.26.49A.41.41,0,0,1,385,1016.31Z" fill="#991414"/></g><g opacity="0.43"><path d="M299.61,990.68a.65.65,0,0,1-.66,0,.72.72,0,0,1-.24-1L325,944.1a.66.66,0,0,1,.92-.24.72.72,0,0,1,.23,1l-26.26,45.6A.81.81,0,0,1,299.61,990.68Z" fill="#991414"/></g><g opacity="0.31"><path d="M343.56,1044.07a.4.4,0,0,1-.51-.1L299,990.34a.45.45,0,0,1,0-.61.41.41,0,0,1,.59,0l44.07,53.63a.45.45,0,0,1,0,.61Z" fill="#991414"/></g><g opacity="0.48"><path d="M343.75,1044.44a.81.81,0,0,1-1.07-.29.87.87,0,0,1,.25-1.17l41.46-27.72a.79.79,0,0,1,1.12.25.86.86,0,0,1-.24,1.16l-41.46,27.73Z" fill="#991414"/></g><g opacity="0.26"><path d="M377,869.42a.34.34,0,0,1-.28,0L311,847.31a.39.39,0,0,1-.23-.48.36.36,0,0,1,.45-.24L377,868.73a.38.38,0,0,1,.23.47A.37.37,0,0,1,377,869.42Z" fill="#991414"/></g><g opacity="0.31"><path d="M393.39,837.52a.44.44,0,0,1-.16.06l-82,9.85a.47.47,0,0,1-.52-.43.48.48,0,0,1,.41-.53l82-9.86a.47.47,0,0,1,.52.43A.49.49,0,0,1,393.39,837.52Z" fill="#991414"/></g><g opacity="0.34"><path d="M295.29,868.09a.52.52,0,0,1-.58-.06.55.55,0,0,1-.08-.78l16.11-20.65a.51.51,0,0,1,.75-.08.56.56,0,0,1,.08.78L295.46,868A.58.58,0,0,1,295.29,868.09Z" fill="#991414"/></g><g opacity="0.33"><path d="M377.09,869.53a.46.46,0,0,1-.23.06L295,868.1a.49.49,0,0,1-.47-.51.48.48,0,0,1,.49-.49l81.82,1.49a.49.49,0,0,1,.48.51A.51.51,0,0,1,377.09,869.53Z" fill="#991414"/></g><g opacity="0.33"><path d="M411,918l-.08,0-85.21,26.91a.44.44,0,0,1-.56-.31.46.46,0,0,1,.3-.58l85.21-26.91a.44.44,0,0,1,.56.31A.47.47,0,0,1,411,918Z" fill="#991414"/></g><g opacity="0.33"><path d="M537.91,1017.21h0l-88,44.24a.42.42,0,0,1-.57-.21.46.46,0,0,1,.2-.6l88-44.24a.43.43,0,0,1,.58.21A.46.46,0,0,1,537.91,1017.21Z" fill="#991414"/></g><g opacity="0.42"><path d="M462.31,1081.43a.58.58,0,0,1-.77-.17.64.64,0,0,1,.12-.88L521,1034.17a.59.59,0,0,1,.85.12.64.64,0,0,1-.12.88l-59.29,46.21Z" fill="#991414"/></g><g opacity="0.35"><path d="M493.41,1175.25a.52.52,0,0,1-.5,0,.55.55,0,0,1-.19-.74l55.3-98.84a.51.51,0,0,1,.71-.2.55.55,0,0,1,.18.74L493.62,1175A.7.7,0,0,1,493.41,1175.25Z" fill="#991414"/></g><g opacity="0.34"><path d="M450.6,828.73a.48.48,0,0,1-.18.06l-57.17,8.87a.54.54,0,0,1-.62-.48.57.57,0,0,1,.46-.65l57.17-8.87a.56.56,0,0,1,.63.48A.59.59,0,0,1,450.6,828.73Z" fill="#991414"/></g><g opacity="0.25"><path d="M377,869.41a.36.36,0,0,1-.47-.49l16.31-32a.32.32,0,0,1,.46-.15.36.36,0,0,1,.15.48l-16.31,32A.4.4,0,0,1,377,869.41Z" fill="#991414"/></g><g opacity="0.28"><path d="M411,917.9a.38.38,0,0,1-.49-.11l-33.9-48.47a.4.4,0,0,1,.08-.55.35.35,0,0,1,.53.09l33.91,48.46a.41.41,0,0,1-.09.55Z" fill="#991414"/></g><g opacity="0.3"><path d="M597.45,952.09l-.08,0-101,27.55a.39.39,0,0,1-.48-.29.4.4,0,0,1,.28-.5l101-27.55a.4.4,0,0,1,.49.29A.42.42,0,0,1,597.45,952.09Z" fill="#991414"/></g><g opacity="0.32"><path d="M521.51,1035.05a.41.41,0,0,1-.48-.07.44.44,0,0,1,0-.61l16.38-17.85a.41.41,0,0,1,.59,0,.44.44,0,0,1,0,.61L521.62,1035A.44.44,0,0,1,521.51,1035.05Z" fill="#991414"/></g><g opacity="0.46"><path d="M588.83,991h0L538,1017.49a.72.72,0,0,1-1-.34.76.76,0,0,1,.3-1h0l50.78-26.48a.73.73,0,0,1,1,.34A.78.78,0,0,1,588.83,991Z" fill="#991414"/></g><g opacity="0.37"><path d="M657.6,1057.18a.49.49,0,0,1-.17.06l-108.87,19.27a.58.58,0,0,1-.66-.49.59.59,0,0,1,.47-.68l108.86-19.27a.58.58,0,0,1,.66.49A.6.6,0,0,1,657.6,1057.18Z" fill="#991414"/></g><g opacity="0.28"><path d="M523.74,789.63h0l-73.22,39a.38.38,0,0,1-.53-.17.43.43,0,0,1,.16-.56h0l73.22-39a.38.38,0,0,1,.53.17A.42.42,0,0,1,523.74,789.63Z" fill="#991414"/></g><g opacity="0.3"><path d="M488.75,843.84a.45.45,0,0,1-.39,0l-38.19-15.19a.49.49,0,0,1-.26-.63.46.46,0,0,1,.6-.28L488.7,843a.48.48,0,0,1,.27.62A.5.5,0,0,1,488.75,843.84Z" fill="#991414"/></g><g opacity="0.31"><path d="M564.61,827.81l-.12.05-75.87,16a.46.46,0,0,1-.55-.38.48.48,0,0,1,.37-.57l75.86-16a.47.47,0,0,1,.55.38A.49.49,0,0,1,564.61,827.81Z" fill="#991414"/></g><g opacity="0.35"><path d="M643.6,897.14l-.11.05-69.71,18.47a.52.52,0,0,1-.63-.39.56.56,0,0,1,.37-.66l69.71-18.46a.51.51,0,0,1,.63.38A.54.54,0,0,1,643.6,897.14Z" fill="#991414"/></g><g opacity="0.28"><path d="M597.44,952.07a.37.37,0,0,1-.49-.13l-23.61-36.59a.4.4,0,0,1,.1-.54.36.36,0,0,1,.53.11l23.61,36.58a.41.41,0,0,1-.1.55Z" fill="#991414"/></g><g opacity="0.31"><path d="M680.05,911h0l-82.58,41.09a.43.43,0,0,1-.57-.21.47.47,0,0,1,.2-.6l82.58-41.08a.42.42,0,0,1,.58.21A.47.47,0,0,1,680.05,911Z" fill="#991414"/></g><g opacity="0.28"><path d="M597.44,952.06a.36.36,0,0,1-.41,0,.39.39,0,0,1,0-.53l46.09-55.06a.38.38,0,0,1,.52,0,.4.4,0,0,1,0,.54L597.54,952A.81.81,0,0,1,597.44,952.06Z" fill="#991414"/></g><g opacity="0.31"><path d="M697.36,978.15l-.14,0L588.53,990.75a.41.41,0,0,1-.44-.37.41.41,0,0,1,.35-.45l108.69-12.56a.41.41,0,0,1,.44.37A.44.44,0,0,1,697.36,978.15Z" fill="#991414"/></g><g opacity="0.35"><path d="M649.34,1011.69a.44.44,0,0,1-.51-.06l-59-53.17a.48.48,0,0,1-.05-.66.44.44,0,0,1,.64,0l59,53.18a.47.47,0,0,1,.05.65A.45.45,0,0,1,649.34,1011.69Z" fill="#991414"/></g><g opacity="0.4"><path d="M590.42,958.63a.57.57,0,0,1-.61,0l-7.39-5.74a.61.61,0,0,1-.11-.83.54.54,0,0,1,.79-.12l7.39,5.74a.6.6,0,0,1-.07,1Z" fill="#991414"/></g><g opacity="0.4"><path d="M698.8,1070.3a.59.59,0,0,1-.47,0l-41.18-13.07a.64.64,0,0,1-.41-.8.61.61,0,0,1,.77-.43l41.18,13.07a.66.66,0,0,1,.11,1.19Z" fill="#991414"/></g><g opacity="0.36"><path d="M705.07,1123a.54.54,0,0,1-.73-.22.58.58,0,0,1,.19-.78l96.55-58.72,0,0a.56.56,0,0,1,.74.22.6.6,0,0,1-.2.79L705.09,1123Z" fill="#991414"/></g><g opacity="0.39"><path d="M733.19,1106.48a.62.62,0,0,1-.59,0,.68.68,0,0,1-.28-.89l45.58-93.67a.64.64,0,0,1,.86-.29.68.68,0,0,1,.28.89l-45.58,93.66A.64.64,0,0,1,733.19,1106.48Z" fill="#991414"/></g><g opacity="0.36"><path d="M733.16,1106.42a.56.56,0,0,1-.76-.22.6.6,0,0,1,.2-.81l68.47-42.1a.56.56,0,0,1,.78.21.61.61,0,0,1-.2.81l-68.47,42.09Z" fill="#991414"/></g><g opacity="0.27"><path d="M564.57,827.73a.37.37,0,0,1-.34,0,.41.41,0,0,1-.18-.53l44.12-92.46a.37.37,0,0,1,.51-.18.4.4,0,0,1,.17.53l-44.11,92.46A.46.46,0,0,1,564.57,827.73Z" fill="#991414"/></g><g opacity="0.27"><path d="M643.54,897a.51.51,0,0,1-.24,0,.4.4,0,0,1-.32-.45l15.37-105.43a.38.38,0,0,1,.43-.33.4.4,0,0,1,.32.45L643.73,896.73A.4.4,0,0,1,643.54,897Z" fill="#991414"/></g><g opacity="0.32"><path d="M680.07,911.07a.46.46,0,0,1-.38,0l-36.49-14a.48.48,0,0,1-.28-.62.47.47,0,0,1,.6-.29l36.49,14a.48.48,0,0,1,.27.62A.54.54,0,0,1,680.07,911.07Z" fill="#991414"/></g><g opacity="0.28"><path d="M680,911a.35.35,0,0,1-.33,0,.38.38,0,0,1-.17-.5l46.27-99.39a.35.35,0,0,1,.48-.17.38.38,0,0,1,.17.5L680.17,910.8A.32.32,0,0,1,680,911Z" fill="#991414"/></g><g opacity="0.3"><path d="M795.3,930.59h0l-98,47.54a.38.38,0,0,1-.5-.19.43.43,0,0,1,.18-.53l98-47.54a.39.39,0,0,1,.51.19A.4.4,0,0,1,795.3,930.59Z" fill="#991414"/></g><g opacity="0.4"><path d="M812,1082.83a.55.55,0,0,1-.64-.09.59.59,0,0,1,0-.81l52.33-57.45a.53.53,0,0,1,.78,0,.59.59,0,0,1,0,.81l-52.33,57.44A.53.53,0,0,1,812,1082.83Z" fill="#991414"/></g><g opacity="0.39"><path d="M848.82,1090.52a.56.56,0,0,1-.52,0l-39.4-19.07a.62.62,0,0,1-.29-.81.58.58,0,0,1,.78-.29l39.4,19.06a.63.63,0,0,1,.29.81A.59.59,0,0,1,848.82,1090.52Z" fill="#991414"/></g><g opacity="0.46"><path d="M801.75,1064.56l0,0a.81.81,0,0,1-1.1-.42l-22.89-51.57a.94.94,0,0,1,.4-1.14.81.81,0,0,1,1.1.42l22.89,51.57A.87.87,0,0,1,801.75,1064.56Z" fill="#991414"/></g><g opacity="0.36"><path d="M625.66,731.79a.61.61,0,0,1-.67-.07.64.64,0,0,1-.09-.88l34-43.39a.59.59,0,0,1,.85-.1.65.65,0,0,1,.09.89l-34,43.39A.69.69,0,0,1,625.66,731.79Z" fill="#991414"/></g><g opacity="0.26"><path d="M625.55,731.58l-.1,0-16.86,3.69a.38.38,0,0,1-.45-.31.4.4,0,0,1,.29-.46l16.86-3.69a.37.37,0,0,1,.45.3A.38.38,0,0,1,625.55,731.58Z" fill="#991414"/></g><g opacity="0.27"><path d="M608.69,735.27a.38.38,0,0,1-.33,0,.4.4,0,0,1-.2-.51l38.36-91.7a.37.37,0,0,1,.5-.2.39.39,0,0,1,.2.52l-38.36,91.69A.45.45,0,0,1,608.69,735.27Z" fill="#991414"/></g><g opacity="0.27"><path d="M658.9,791.59a.38.38,0,0,1-.46-.08l-50.21-56.32a.42.42,0,0,1,0-.56.37.37,0,0,1,.54,0L659,791a.42.42,0,0,1,0,.56Z" fill="#991414"/></g><g opacity="0.36"><path d="M726.36,811.75a.5.5,0,0,1-.5,0,.55.55,0,0,1-.21-.75l34.44-65.07a.53.53,0,0,1,.73-.22.56.56,0,0,1,.21.75l-34.45,65.08A.58.58,0,0,1,726.36,811.75Z" fill="#991414"/></g><g opacity="0.39"><path d="M1046,1130a.57.57,0,0,1-.58,0,.62.62,0,0,1-.2-.84l47.7-81.52a.59.59,0,0,1,.81-.21.62.62,0,0,1,.2.84l-47.71,81.53A.58.58,0,0,1,1046,1130Z" fill="#991414"/></g><g opacity="0.39"><path d="M990.31,1088.35a.59.59,0,0,1-.72-.11.66.66,0,0,1,0-.91l69.4-73.21a.6.6,0,0,1,.87,0,.66.66,0,0,1,0,.91l-69.4,73.21A.44.44,0,0,1,990.31,1088.35Z" fill="#991414"/></g><g opacity="0.27"><path d="M659.56,688.21l-.08,0A.39.39,0,0,1,659,688l-12.5-44.61a.43.43,0,0,1,.27-.52.41.41,0,0,1,.5.29l12.49,44.61A.41.41,0,0,1,659.56,688.21Z" fill="#991414"/></g><g opacity="0.32"><path d="M716.81,609.72l0,0-69.72,33.93a.46.46,0,0,1-.62-.23.46.46,0,0,1,.23-.65l69.71-33.93a.46.46,0,0,1,.62.23A.48.48,0,0,1,716.81,609.72Z" fill="#991414"/></g><g opacity="0.36"><path d="M812.22,769.56a.49.49,0,0,1-.44,0l-51.42-22.9a.54.54,0,0,1-.28-.7.52.52,0,0,1,.68-.29l51.43,22.9a.54.54,0,0,1,0,1Z" fill="#991414"/></g><g opacity="0.35"><path d="M812.22,769.54a.47.47,0,0,1-.5,0,.54.54,0,0,1-.17-.71l41.22-71.66a.49.49,0,0,1,.69-.18.52.52,0,0,1,.17.71l-41.22,71.66A.44.44,0,0,1,812.22,769.54Z" fill="#991414"/></g><g opacity="0.29"><path d="M1021,1042a.48.48,0,0,1-.17,0,.38.38,0,0,1-.39-.38l-4.66-109.72a.38.38,0,0,1,.36-.41.38.38,0,0,1,.4.37l4.66,109.73A.42.42,0,0,1,1021,1042Z" fill="#991414"/></g><g opacity="0.3"><path d="M1021,1042h0a.39.39,0,0,1-.52-.21l-33.12-75.19a.43.43,0,0,1,.17-.54h0a.39.39,0,0,1,.52.21l33.12,75.19A.42.42,0,0,1,1021,1042Z" fill="#991414"/></g><g opacity="0.46"><path d="M988,967.09a.69.69,0,0,1-.79-.1.75.75,0,0,1-.08-1l28.46-34.53a.69.69,0,0,1,1-.08.75.75,0,0,1,.08,1l-28.46,34.53A.72.72,0,0,1,988,967.09Z" fill="#991414"/></g><g opacity="0.32"><path d="M1043.17,1023.67a.41.41,0,0,1-.49-.07l-55.32-56.86a.44.44,0,0,1,0-.61.4.4,0,0,1,.58,0l55.33,56.85a.45.45,0,0,1,0,.61A.39.39,0,0,1,1043.17,1023.67Z" fill="#991414"/></g><g opacity="0.33"><path d="M1093.66,1048.34a.46.46,0,0,1-.58-.11.5.5,0,0,1,.06-.69l91.69-79.8a.44.44,0,0,1,.65.06.5.5,0,0,1,0,.68l-91.69,79.8Z" fill="#991414"/></g><g opacity="0.37"><path d="M1093.7,1048.42a.53.53,0,0,1-.64-.09L1059,1015a.59.59,0,0,1,0-.81.54.54,0,0,1,.78,0l34,33.34a.59.59,0,0,1,0,.81A.67.67,0,0,1,1093.7,1048.42Z" fill="#991414"/></g><g opacity="0.25"><path d="M785.39,665.61a.34.34,0,0,1-.37,0l-68.64-56a.36.36,0,0,1-.06-.5.32.32,0,0,1,.48-.06l68.64,56a.36.36,0,0,1,.06.5A.52.52,0,0,1,785.39,665.61Z" fill="#991414"/></g><g opacity="0.31"><path d="M797.72,633.19l-.1,0a.43.43,0,0,1-.52-.33l-4-16.37a.43.43,0,1,1,.84-.22l4,16.38A.46.46,0,0,1,797.72,633.19Z" fill="#991414"/></g><g opacity="0.29"><path d="M853.38,697.77a.37.37,0,0,1-.46-.09l-55.69-64.62a.42.42,0,0,1,0-.56.38.38,0,0,1,.54,0l55.69,64.63a.42.42,0,0,1,0,.56Z" fill="#991414"/></g><g opacity="0.3"><path d="M1016.3,932.27a.41.41,0,0,1-.18.05.42.42,0,0,1-.41-.4l-.39-26.64a.4.4,0,0,1,.39-.42.39.39,0,0,1,.4.4l.4,26.64A.43.43,0,0,1,1016.3,932.27Z" fill="#991414"/></g><g opacity="0.32"><path d="M1185.34,968.52a.43.43,0,0,1-.59-.16.48.48,0,0,1,.14-.64l95-63a.42.42,0,0,1,.62.14.48.48,0,0,1-.14.64l-95,63Z" fill="#991414"/></g><g opacity="0.32"><path d="M1306.9,985.55a.49.49,0,0,1-.27.05l-121.56-17a.46.46,0,0,1-.39-.52.47.47,0,0,1,.51-.4l121.56,17a.46.46,0,0,1,.39.52A.47.47,0,0,1,1306.9,985.55Z" fill="#991414"/></g><g opacity="0.33"><path d="M1237,993.92a.45.45,0,0,1-.42,0l-51.69-25.38a.49.49,0,0,1-.22-.64.45.45,0,0,1,.62-.23L1237,993.06a.49.49,0,0,1,.22.64A.48.48,0,0,1,1237,993.92Z" fill="#991414"/></g><g opacity="0.38"><path d="M1237.1,994.05a.6.6,0,0,1-.58,0,.65.65,0,0,1-.23-.86l45.94-83.49a.59.59,0,0,1,.82-.24.65.65,0,0,1,.23.86l-45.93,83.5A.72.72,0,0,1,1237.1,994.05Z" fill="#991414"/></g><g opacity="0.37"><path d="M1237.09,994a.58.58,0,0,1-.53,0,.6.6,0,0,1-.25-.79l43.3-88.35a.57.57,0,0,1,.77-.26.61.61,0,0,1,.25.8l-43.3,88.34A.61.61,0,0,1,1237.09,994Z" fill="#991414"/></g><g opacity="0.26"><path d="M971.89,781.6a.38.38,0,0,1-.5-.12l-47.83-65.2a.41.41,0,0,1,.07-.57.37.37,0,0,1,.56.08L972,781a.41.41,0,0,1-.08.57A.1.1,0,0,1,971.89,781.6Z" fill="#991414"/></g><g opacity="0.27"><path d="M924.06,716.4a.38.38,0,0,1-.37,0,.42.42,0,0,1-.17-.55l15.68-31.57a.4.4,0,0,1,.54-.18.43.43,0,0,1,.17.56l-15.68,31.56A.42.42,0,0,1,924.06,716.4Z" fill="#991414"/></g><g opacity="0.33"><path d="M1052.36,700.44a.39.39,0,0,1-.3,0L970,679.59a.45.45,0,0,1-.31-.54.42.42,0,0,1,.52-.33l82,20.88a.47.47,0,0,1,.32.55A.5.5,0,0,1,1052.36,700.44Z" fill="#991414"/></g><g opacity="0.33"><path d="M1040.78,667.85l-.14,0-70.46,11.71a.45.45,0,0,1-.52-.38.46.46,0,0,1,.38-.54L1040.5,667a.45.45,0,0,1,.52.38A.47.47,0,0,1,1040.78,667.85Z" fill="#991414"/></g><g opacity="0.34"><path d="M968.46,738.64a.5.5,0,0,1-.24.06.49.49,0,0,1-.47-.52l1.87-59a.49.49,0,1,1,1,0l-1.87,59A.51.51,0,0,1,968.46,738.64Z" fill="#991414"/></g><g opacity="0.3"><path d="M968.41,738.54a.32.32,0,0,1-.33,0,.39.39,0,0,1-.19-.52l21.38-49.12a.37.37,0,0,1,.5-.2.4.4,0,0,1,.19.52l-21.38,49.13A.42.42,0,0,1,968.41,738.54Z" fill="#991414"/></g><g opacity="0.31"><path d="M968.43,738.58a.43.43,0,0,1-.5-.09.44.44,0,0,1,0-.61l72.34-70.76a.4.4,0,0,1,.58,0,.45.45,0,0,1,0,.61l-72.34,70.76Z" fill="#991414"/></g><g opacity="0.34"><path d="M1297.61,1015.18l-.12,0-44.91,8.66a.42.42,0,0,1-.5-.35.44.44,0,0,1,.35-.52l44.9-8.67a.44.44,0,0,1,.5.36A.45.45,0,0,1,1297.61,1015.18Z" fill="#991414"/></g><g opacity="0.35"><path d="M1400.73,1040.76a.47.47,0,0,1-.31,0l-103.12-25.57a.47.47,0,0,1-.33-.56.45.45,0,0,1,.54-.35l103.12,25.57a.46.46,0,0,1,.33.56A.45.45,0,0,1,1400.73,1040.76Z" fill="#991414"/></g><g opacity="0.37"><path d="M1306.94,985.61l-.14,0-42,9.44a.52.52,0,0,1-.61-.41.54.54,0,0,1,.39-.64l42-9.44a.52.52,0,0,1,.62.41A.55.55,0,0,1,1306.94,985.61Z" fill="#991414"/></g><g opacity="0.32"><path d="M1306.9,985.55l-.06,0a.45.45,0,0,1-.57-.29l-26.57-80a.45.45,0,0,1,.27-.59.44.44,0,0,1,.57.29l26.58,80A.48.48,0,0,1,1306.9,985.55Z" fill="#991414"/></g><g opacity="0.4"><path d="M1283.05,910.58a.63.63,0,0,1-.86-.26l-2.63-4.84a.68.68,0,0,1,.25-.91.61.61,0,0,1,.87.25l2.63,4.85a.7.7,0,0,1-.24.91Z" fill="#991414"/></g><g opacity="0.39"><path d="M1377.79,914.65a.48.48,0,0,1-.33.07l-97.39-9a.63.63,0,0,1,.1-1.25l97.39,9a.63.63,0,0,1,.55.68A.61.61,0,0,1,1377.79,914.65Z" fill="#991414"/></g><g opacity="0.37"><path d="M1380.86,864.26l0,0L1283,910.55a.57.57,0,0,1-.78-.3.6.6,0,0,1,.29-.81l97.83-46.27a.58.58,0,0,1,.78.3A.62.62,0,0,1,1380.86,864.26Z" fill="#991414"/></g><g opacity="0.4"><path d="M1348.05,933a.63.63,0,0,1-.8-.14.69.69,0,0,1,0-1l72-70.47a.66.66,0,0,1,1,0,.73.73,0,0,1,0,1l-72,70.46A.53.53,0,0,1,1348.05,933Z" fill="#991414"/></g><g opacity="0.41"><path d="M1393.12,961.34a.68.68,0,0,1-.7,0L1347.37,933a.75.75,0,0,1-.24-1,.68.68,0,0,1,1-.25l45.05,28.31a.75.75,0,0,1,.24,1A.7.7,0,0,1,1393.12,961.34Z" fill="#991414"/></g><g opacity="0.32"><path d="M1393,961.13a.44.44,0,0,1-.36,0,.51.51,0,0,1-.33-.62l26.9-98.78a.48.48,0,0,1,.6-.34.49.49,0,0,1,.33.62l-26.9,98.78A.52.52,0,0,1,1393,961.13Z" fill="#991414"/></g><g opacity="0.35"><path d="M1082.31,803.87a.65.65,0,0,1-.81-.14.73.73,0,0,1,0-1l29.61-28.07a.66.66,0,0,1,.95.05.72.72,0,0,1,0,1l-29.61,28.06A.45.45,0,0,1,1082.31,803.87Z" fill="#991414"/></g><g opacity="0.27"><path d="M1092.56,818.06a.44.44,0,0,1-.57-.13l-10.35-14.4a.47.47,0,0,1,.09-.65.43.43,0,0,1,.63.1l10.35,14.39a.47.47,0,0,1-.09.65Z" fill="#991414"/></g><g opacity="0.3"><path d="M1145.73,795.21l0,0-53.14,22.92a.52.52,0,0,1-.68-.3.54.54,0,0,1,.28-.7l53.14-22.91a.52.52,0,0,1,.68.29A.54.54,0,0,1,1145.73,795.21Z" fill="#991414"/></g><g opacity="0.23"><path d="M1092.5,818a.33.33,0,0,1-.29,0,.35.35,0,0,1-.16-.46L1111.31,775a.33.33,0,0,1,.44-.16.34.34,0,0,1,.15.45l-19.25,42.46A.39.39,0,0,1,1092.5,818Z" fill="#991414"/></g><g opacity="0.25"><path d="M1092.53,818a.39.39,0,0,1-.52-.53l15.71-32.86a.36.36,0,0,1,.51-.17.39.39,0,0,1,.17.52l-15.71,32.86A.47.47,0,0,1,1092.53,818Z" fill="#991414"/></g><g opacity="0.4"><path d="M1150.38,781.15a.83.83,0,0,1-.28.08l-42,4.34a.76.76,0,0,1-.83-.7.79.79,0,0,1,.68-.87l42-4.33a.76.76,0,0,1,.83.7A.82.82,0,0,1,1150.38,781.15Z" fill="#991414"/></g><g opacity="0.3"><path d="M1145.7,795.15a.45.45,0,0,1-.32,0l-37.43-10a.48.48,0,0,1-.33-.57.45.45,0,0,1,.55-.33l37.43,9.95a.45.45,0,0,1,.32.56A.43.43,0,0,1,1145.7,795.15Z" fill="#991414"/></g><g opacity="0.28"><path d="M1150.78,717.87a.37.37,0,0,1-.18,0l-91,1.32a.42.42,0,0,1-.41-.4.41.41,0,0,1,.4-.42l91-1.32a.4.4,0,0,1,.4.4A.42.42,0,0,1,1150.78,717.87Z" fill="#991414"/></g><g opacity="0.43"><path d="M1060,719.53l-.07,0a.77.77,0,0,1-1-.44l-7.44-18.77a.86.86,0,0,1,.42-1.06.78.78,0,0,1,1,.44l7.44,18.78A.82.82,0,0,1,1060,719.53Z" fill="#991414"/></g><g opacity="0.29"><path d="M1150.78,717.87a.42.42,0,0,1-.25,0l-98.44-17.46a.41.41,0,0,1-.32-.48.4.4,0,0,1,.46-.34l98.43,17.46a.42.42,0,0,1,.33.48A.48.48,0,0,1,1150.78,717.87Z" fill="#991414"/></g><g opacity="0.29"><path d="M1052.34,700.4l0,0a.4.4,0,0,1-.5-.25l-11.59-32.6a.4.4,0,0,1,.24-.53.39.39,0,0,1,.51.25l11.58,32.6A.4.4,0,0,1,1052.34,700.4Z" fill="#991414"/></g><g opacity="0.3"><path d="M1147.59,687.72a.38.38,0,0,1-.24,0l-106.84-19.94a.38.38,0,0,1-.31-.45.37.37,0,0,1,.44-.32L1147.48,687a.4.4,0,0,1,.31.46A.41.41,0,0,1,1147.59,687.72Z" fill="#991414"/></g><g opacity="0.38"><path d="M1480.72,1011l-.07,0-80,29.84a.51.51,0,0,1-.66-.33.53.53,0,0,1,.31-.68l80-29.84a.51.51,0,0,1,.66.32A.55.55,0,0,1,1480.72,1011Z" fill="#991414"/></g><g opacity="0.44"><path d="M1352.67,900.53a.66.66,0,0,1-.69,0,.74.74,0,0,1-.24-1l35.13-60.27a.69.69,0,0,1,1-.25.76.76,0,0,1,.24,1L1353,900.26A.72.72,0,0,1,1352.67,900.53Z" fill="#991414"/></g><g opacity="0.53"><path d="M1352.8,900.77a1,1,0,0,1-1.18-.22,1,1,0,0,1,.07-1.41l22.6-21.19a.93.93,0,0,1,1.37.07,1,1,0,0,1-.07,1.42L1353,900.62A1.25,1.25,0,0,1,1352.8,900.77Z" fill="#991414"/></g><g opacity="0.34"><path d="M1375.16,879.12a.43.43,0,0,1-.45,0,.49.49,0,0,1-.17-.66L1434,771.28a.45.45,0,0,1,.63-.17.5.5,0,0,1,.18.66l-59.42,107.17A.47.47,0,0,1,1375.16,879.12Z" fill="#991414"/></g><g opacity="0.42"><path d="M1375.24,879.28a.62.62,0,0,1-.5,0,.66.66,0,0,1-.41-.83l12.54-39.09a.64.64,0,0,1,.81-.42.67.67,0,0,1,.4.84l-12.53,39.08A.7.7,0,0,1,1375.24,879.28Z" fill="#991414"/></g><g opacity="0.34"><path d="M1377.74,914.54a.48.48,0,0,1-.26.06.49.49,0,0,1-.45-.53l3.07-50.38a.48.48,0,1,1,1,.06L1378,914.13A.5.5,0,0,1,1377.74,914.54Z" fill="#991414"/></g><g opacity="0.36"><path d="M1377.76,914.59a.52.52,0,0,1-.67-.15.57.57,0,0,1,.09-.78l86.33-71.19a.51.51,0,0,1,.75.09.57.57,0,0,1-.09.78l-86.33,71.19A.24.24,0,0,1,1377.76,914.59Z" fill="#991414"/></g><g opacity="0.36"><path d="M1420,862.43a.55.55,0,0,1-.25.07l-39.1,1.81a.59.59,0,0,1,0-1.18l39.1-1.81a.59.59,0,0,1,.6.56A.6.6,0,0,1,1420,862.43Z" fill="#991414"/></g><g opacity="0.23"><path d="M1111.78,775.52a.36.36,0,0,1-.4,0,.39.39,0,0,1-.06-.53l52.23-69.67a.36.36,0,0,1,.51-.06.38.38,0,0,1,.06.52l-52.23,69.67A.35.35,0,0,1,1111.78,775.52Z" fill="#991414"/></g><g opacity="0.31"><path d="M1145.74,795.23a.55.55,0,0,1-.42,0,.56.56,0,0,1-.34-.7l4.54-14.28a.53.53,0,0,1,.67-.36.56.56,0,0,1,.34.7L1146,794.91A.59.59,0,0,1,1145.74,795.23Z" fill="#991414"/></g><g opacity="0.24"><path d="M1237,734.1h0l-86.8,46.67a.33.33,0,0,1-.46-.16.36.36,0,0,1,.14-.48h0l86.8-46.67a.34.34,0,0,1,.47.16A.36.36,0,0,1,1237,734.1Z" fill="#991414"/></g><g opacity="0.26"><path d="M1150.2,780.8a.33.33,0,0,1-.29,0,.4.4,0,0,1-.25-.49l10.2-32.22a.37.37,0,0,1,.48-.25.38.38,0,0,1,.24.49l-10.2,32.22A.38.38,0,0,1,1150.2,780.8Z" fill="#991414"/></g><g opacity="0.26"><path d="M1248.86,728.31l-.1,0L1160.3,748.6a.37.37,0,0,1-.43-.29.38.38,0,0,1,.27-.45l88.47-20.25a.38.38,0,0,1,.25.7Z" fill="#991414"/></g><g opacity="0.33"><path d="M1160.47,748.7l-.09,0a.51.51,0,0,1-.65-.34l-9.63-30.73a.55.55,0,0,1,.33-.68.52.52,0,0,1,.66.34l9.63,30.73A.56.56,0,0,1,1160.47,748.7Z" fill="#991414"/></g><g opacity="0.28"><path d="M1245.76,699l-.1,0-95,18.9a.38.38,0,0,1-.44-.31.41.41,0,0,1,.3-.47l95-18.89a.37.37,0,0,1,.44.31A.4.4,0,0,1,1245.76,699Z" fill="#991414"/></g><g opacity="0.29"><path d="M1150.79,717.88a.44.44,0,0,1-.15,0,.43.43,0,0,1-.46-.38L1147,687.42a.44.44,0,0,1,.37-.48.43.43,0,0,1,.46.38l3.18,30.14A.46.46,0,0,1,1150.79,717.88Z" fill="#991414"/></g><g opacity="0.33"><path d="M1387.68,840a.43.43,0,0,1-.55-.13.47.47,0,0,1,.08-.63l83.53-65a.42.42,0,0,1,.6.09.46.46,0,0,1-.08.63l-83.53,65Z" fill="#991414"/></g><g opacity="0.37"><path d="M1387.72,840.09a.52.52,0,0,1-.55,0,.56.56,0,0,1-.12-.75l46.89-68.09a.51.51,0,0,1,.72-.12.54.54,0,0,1,.12.75l-46.88,68.08A.72.72,0,0,1,1387.72,840.09Z" fill="#991414"/></g><g opacity="0.36"><path d="M1530,725.72h0L1434.58,772a.51.51,0,0,1-.69-.26.57.57,0,0,1,.25-.71l95.37-46.28a.5.5,0,0,1,.69.26A.54.54,0,0,1,1530,725.72Z" fill="#991414"/></g><g opacity="0.34"><path d="M1464.07,843.35a.48.48,0,0,1-.64-.18.52.52,0,0,1,.15-.69l97.18-62.89a.47.47,0,0,1,.67.16.52.52,0,0,1-.15.69l-97.18,62.89Z" fill="#991414"/></g><g opacity="0.48"><path d="M1647.79,881.26l-.12.06-62,22.84a.88.88,0,0,1-1.13-.55.94.94,0,0,1,.54-1.17l62-22.85a.87.87,0,0,1,1.12.56A.92.92,0,0,1,1647.79,881.26Z" fill="#991414"/></g><g opacity="0.44"><path d="M1628.6,934.7a.74.74,0,0,1-.78-.05L1584.93,904a.81.81,0,0,1-.19-1.1.74.74,0,0,1,1-.2l42.89,30.7a.81.81,0,0,1,.19,1.1A.72.72,0,0,1,1628.6,934.7Z" fill="#991414"/></g><g opacity="0.32"><path d="M1760.11,925.45a.47.47,0,0,1-.2.06l-131.63,9a.49.49,0,0,1-.52-.46.51.51,0,0,1,.45-.54l131.64-9a.48.48,0,0,1,.51.47A.49.49,0,0,1,1760.11,925.45Z" fill="#991414"/></g><g opacity="0.41"><path d="M1628.56,934.62a.66.66,0,0,1-.55,0,.71.71,0,0,1-.39-.9l19.12-53.55a.67.67,0,0,1,.87-.41.72.72,0,0,1,.4.9l-19.13,53.54A.71.71,0,0,1,1628.56,934.62Z" fill="#991414"/></g><g opacity="0.32"><path d="M1777.48,1094.35a.5.5,0,0,1-.67-.19.54.54,0,0,1,.18-.72l122.87-75.17a.48.48,0,0,1,.68.18.52.52,0,0,1-.17.71l-122.87,75.18Z" fill="#991414"/></g><g opacity="0.32"><path d="M1229.9,725.35a.59.59,0,0,1-.52,0,.6.6,0,0,1-.26-.79l21.39-46.11a.56.56,0,0,1,.76-.27.59.59,0,0,1,.27.79l-21.39,46.1A.66.66,0,0,1,1229.9,725.35Z" fill="#991414"/></g><g opacity="0.26"><path d="M1237,734.15a.38.38,0,0,1-.49-.11l-7.19-8.95a.42.42,0,0,1,.05-.58.39.39,0,0,1,.56,0l7.19,9a.42.42,0,0,1-.05.58Z" fill="#991414"/></g><g opacity="0.28"><path d="M1237,734.16a.4.4,0,0,1-.49-.08.43.43,0,0,1,0-.6l56.32-57.89a.4.4,0,0,1,.59,0,.45.45,0,0,1,0,.61l-56.33,57.89Z" fill="#991414"/></g><g opacity="0.33"><path d="M1249,728.5h0l-11.86,5.81a.56.56,0,0,1-.76-.29.57.57,0,0,1,.27-.78l11.86-5.81a.56.56,0,0,1,.76.29A.6.6,0,0,1,1249,728.5Z" fill="#991414"/></g><g opacity="0.25"><path d="M1248.85,728.3a.35.35,0,0,1-.39,0,.37.37,0,0,1,0-.5l66.53-82a.34.34,0,0,1,.48,0,.36.36,0,0,1,0,.5l-66.53,82A.43.43,0,0,1,1248.85,728.3Z" fill="#991414"/></g><g opacity="0.28"><path d="M1248.87,728.34a.4.4,0,0,1-.45-.05.42.42,0,0,1,0-.58l44.46-52.09a.39.39,0,0,1,.56,0,.42.42,0,0,1,0,.58L1249,728.25A.31.31,0,0,1,1248.87,728.34Z" fill="#991414"/></g><g opacity="0.28"><path d="M1271.36,687.69l0,0L1245.74,699a.39.39,0,0,1-.52-.22.43.43,0,0,1,.21-.54L1271,687a.39.39,0,0,1,.52.22A.41.41,0,0,1,1271.36,687.69Z" fill="#991414"/></g><g opacity="0.31"><path d="M1245.79,699a.43.43,0,0,1-.53-.1.47.47,0,0,1,0-.64L1310,640.32a.43.43,0,0,1,.61,0,.46.46,0,0,1,0,.63l-64.67,57.94Z" fill="#991414"/></g><g opacity="0.42"><path d="M1309.51,683.25a.73.73,0,0,1-.25.08l-38,4.71a.69.69,0,0,1-.77-.63.71.71,0,0,1,.6-.79l38-4.71a.7.7,0,0,1,.77.62A.74.74,0,0,1,1309.51,683.25Z" fill="#991414"/></g><g opacity="0.39"><path d="M1309.45,683.14a.56.56,0,0,1-.73-.18.6.6,0,0,1,.13-.82l56.66-42.06a.56.56,0,0,1,.79.14.61.61,0,0,1-.13.82l-56.66,42.06Z" fill="#991414"/></g><g opacity="0.31"><path d="M1309.37,683a.39.39,0,0,1-.38,0,.42.42,0,0,1-.15-.57l42.24-77.48a.39.39,0,0,1,.54-.16.42.42,0,0,1,.15.56l-42.24,77.49A.41.41,0,0,1,1309.37,683Z" fill="#991414"/></g><g opacity="0.48"><path d="M1503.19,809.68a.76.76,0,0,1-.69,0,.82.82,0,0,1-.38-1.07L1528,750.32a.76.76,0,0,1,1-.39.81.81,0,0,1,.38,1.06l-25.91,58.32A.87.87,0,0,1,1503.19,809.68Z" fill="#991414"/></g><g opacity="0.39"><path d="M1503.07,809.46a.51.51,0,0,1-.63-.11L1470.61,775a.57.57,0,0,1,0-.78.52.52,0,0,1,.76,0l31.82,34.31a.57.57,0,0,1,0,.79A.27.27,0,0,1,1503.07,809.46Z" fill="#991414"/></g><g opacity="0.36"><path d="M1529,751.1l0,0-57.74,24a.47.47,0,0,1-.63-.27.52.52,0,0,1,.27-.66l57.73-24a.48.48,0,0,1,.63.28A.5.5,0,0,1,1529,751.1Z" fill="#991414"/></g><g opacity="0.32"><path d="M1633.32,714.58a.49.49,0,0,1-.17.06l-103.37,11.07a.45.45,0,0,1-.49-.42.46.46,0,0,1,.4-.51l103.37-11.07a.44.44,0,0,1,.49.42A.46.46,0,0,1,1633.32,714.58Z" fill="#991414"/></g><g opacity="0.35"><path d="M1530,725.72a.51.51,0,0,1-.65-.14.55.55,0,0,1,.08-.75l83.83-70.22a.51.51,0,0,1,.73.07.56.56,0,0,1-.08.76l-83.83,70.22Z" fill="#991414"/></g><g opacity="0.33"><path d="M1561.24,780.44a.46.46,0,0,1-.62-.18l-31.29-54.77a.49.49,0,0,1,.17-.66.47.47,0,0,1,.64.17l31.28,54.77a.5.5,0,0,1-.16.66Z" fill="#991414"/></g><g opacity="0.38"><path d="M1561.29,780.53a.56.56,0,0,1-.7-.13.61.61,0,0,1,.05-.83l72.09-65.84a.55.55,0,0,1,.8,0,.61.61,0,0,1,0,.84l-72.08,65.83A.38.38,0,0,1,1561.29,780.53Z" fill="#991414"/></g><g opacity="0.34"><path d="M1647.61,880.91a.49.49,0,0,1-.6-.09.54.54,0,0,1,0-.74l87.8-87.7a.49.49,0,0,1,.71,0,.53.53,0,0,1,0,.73l-87.81,87.71Z" fill="#991414"/></g><g opacity="0.42"><path d="M1760.21,925.66a.67.67,0,0,1-.63,0,.74.74,0,0,1-.34-1l38.53-83.1a.7.7,0,0,1,1-.34.75.75,0,0,1,.33,1l-38.53,83.1A.76.76,0,0,1,1760.21,925.66Z" fill="#991414"/></g><g opacity="0.41"><path d="M1844.3,988.12a.68.68,0,0,1-.87-.19.73.73,0,0,1,.12-1L1907,935.1a.67.67,0,0,1,1,.12.73.73,0,0,1-.12,1l-63.42,51.83Z" fill="#991414"/></g><g opacity="0.38"><path d="M1900.4,1019.28a.57.57,0,0,1-.58,0l-56.14-31.22a.66.66,0,0,1-.25-.88.61.61,0,0,1,.84-.26l56.14,31.23a.66.66,0,0,1,.25.87A.55.55,0,0,1,1900.4,1019.28Z" fill="#991414"/></g><g opacity="0.39"><path d="M1934,1067.18l-33.37-48.86a.64.64,0,0,0-.92-.16.7.7,0,0,0-.15,1l34.44,50.42Z" fill="#991414"/></g><g opacity="0.27"><path d="M1222.76,619.48a.45.45,0,0,1-.45,0,.47.47,0,0,1-.15-.63l32.18-55.22a.44.44,0,0,1,.62-.16.48.48,0,0,1,.15.64l-32.18,55.22A.46.46,0,0,1,1222.76,619.48Z" fill="#991414"/></g><g opacity="0.25"><path d="M1293.31,676.22a.34.34,0,0,1-.34,0,.37.37,0,0,1-.14-.51l46-84.64a.36.36,0,0,1,.5-.14.39.39,0,0,1,.14.51l-46,84.64A.34.34,0,0,1,1293.31,676.22Z" fill="#991414"/></g><g opacity="0.32"><path d="M1293.39,676.37a.52.52,0,0,1-.56,0,.56.56,0,0,1-.1-.76l22.07-29.89a.51.51,0,0,1,.73-.1.55.55,0,0,1,.09.75l-22.06,29.9A.8.8,0,0,1,1293.39,676.37Z" fill="#991414"/></g><g opacity="0.28"><path d="M1315.4,646.36a.41.41,0,0,1-.36,0,.43.43,0,0,1-.19-.55l31.83-70.8a.38.38,0,0,1,.52-.2.41.41,0,0,1,.2.54l-31.83,70.81A.45.45,0,0,1,1315.4,646.36Z" fill="#991414"/></g><g opacity="0.25"><path d="M1315.37,646.31a.32.32,0,0,1-.3,0,.37.37,0,0,1-.17-.48l23.9-54.73a.33.33,0,0,1,.45-.18.36.36,0,0,1,.17.48l-23.89,54.73A.38.38,0,0,1,1315.37,646.31Z" fill="#991414"/></g><g opacity="0.29"><path d="M1310.46,641a.4.4,0,0,1-.52-.1.45.45,0,0,1,.06-.61l41.16-35.53a.4.4,0,0,1,.58.06.44.44,0,0,1,0,.6L1310.53,641Z" fill="#991414"/></g><g opacity="0.38"><path d="M1366.1,641.08l0,0a.57.57,0,0,1-.75-.32l-14.41-35.43a.59.59,0,0,1,.3-.77.56.56,0,0,1,.75.31l14.41,35.43A.59.59,0,0,1,1366.1,641.08Z" fill="#991414"/></g><g opacity="0.38"><path d="M1529,751.15a.5.5,0,0,1-.49,0,.55.55,0,0,1-.23-.74L1566,673.35a.52.52,0,0,1,.72-.25.58.58,0,0,1,.24.75l-37.7,77.06A.49.49,0,0,1,1529,751.15Z" fill="#991414"/></g><g opacity="0.39"><path d="M1566.7,674.12a.56.56,0,0,1-.63-.06.61.61,0,0,1-.08-.83l58.16-74.45a.56.56,0,0,1,.8-.08.61.61,0,0,1,.09.83L1566.87,674A.47.47,0,0,1,1566.7,674.12Z" fill="#991414"/></g><g opacity="0.34"><path d="M1613.78,655.45a.41.41,0,0,1-.39,0,.49.49,0,0,1-.25-.63l32.77-81a.45.45,0,0,1,.61-.26.49.49,0,0,1,.25.63l-32.77,81A.47.47,0,0,1,1613.78,655.45Z" fill="#991414"/></g><g opacity="0.36"><path d="M1633.35,714.65l-.08,0a.5.5,0,0,1-.65-.33l-19.54-59.15a.55.55,0,0,1,.32-.68.51.51,0,0,1,.66.33L1633.6,714A.56.56,0,0,1,1633.35,714.65Z" fill="#991414"/></g><path d="M1798.68,842.44a.57.57,0,0,1-.61-.05l-63.23-49.17a.61.61,0,0,1-.11-.83.54.54,0,0,1,.79-.11l63.23,49.16a.61.61,0,0,1,.12.83A.75.75,0,0,1,1798.68,842.44Z" fill="#991414"/><g opacity="0.39"><path d="M1907.69,936.25a.64.64,0,0,1-.39.07.67.67,0,0,1-.54-.75l11.63-86.88a.63.63,0,0,1,.72-.56.66.66,0,0,1,.54.75L1908,935.75A.67.67,0,0,1,1907.69,936.25Z" fill="#991414"/></g><g opacity="0.28"><path d="M1315.13,568.09a.47.47,0,0,1-.37,0,.5.5,0,0,1-.29-.62l20-60.34a.47.47,0,0,1,.59-.3.49.49,0,0,1,.29.62l-20,60.34A.49.49,0,0,1,1315.13,568.09Z" fill="#991414"/></g><g opacity="0.4"><path d="M1339.48,592a.76.76,0,0,1-.73,0,.84.84,0,0,1-.35-1.11l7.93-16.07a.78.78,0,0,1,1.07-.35.83.83,0,0,1,.34,1.1l-7.92,16.07A.85.85,0,0,1,1339.48,592Z" fill="#991414"/></g><g opacity="0.25"><path d="M1347.2,575.51a.36.36,0,0,1-.49-.45l14.83-39.86a.34.34,0,0,1,.44-.21.37.37,0,0,1,.2.47l-14.82,39.86A.38.38,0,0,1,1347.2,575.51Z" fill="#991414"/></g><g opacity="0.28"><path d="M1362,535.67a.36.36,0,0,1-.27,0,.39.39,0,0,1-.28-.48l22.84-95.91a.38.38,0,0,1,.46-.29.41.41,0,0,1,.28.48l-22.84,95.91A.41.41,0,0,1,1362,535.67Z" fill="#991414"/></g><g opacity="0.34"><path d="M1362.1,535.8a.5.5,0,0,1-.5,0,.56.56,0,0,1-.19-.74L1380,502.37a.52.52,0,0,1,.71-.19.56.56,0,0,1,.19.74l-18.57,32.68A.5.5,0,0,1,1362.1,535.8Z" fill="#991414"/></g><g opacity="0.28"><path d="M1380.61,503a.37.37,0,0,1-.51-.15L1369.29,483a.4.4,0,0,1,.15-.54h0a.37.37,0,0,1,.51.15l10.81,19.8a.41.41,0,0,1-.14.54Z" fill="#991414"/></g><g opacity="0.28"><path d="M1668,840.86a.34.34,0,0,1-.26,0L1606.68,826a.4.4,0,0,1-.29-.48.38.38,0,0,1,.46-.29l61.08,14.88a.4.4,0,0,1,.29.48A.39.39,0,0,1,1668,840.86Z" fill="#991414"/></g><g opacity="0.34"><path d="M1668.06,840.93a.54.54,0,0,1-.28.05.47.47,0,0,1-.38-.54l11.66-77.33a.45.45,0,0,1,.52-.39.47.47,0,0,1,.37.54l-11.66,77.33A.46.46,0,0,1,1668.06,840.93Z" fill="#991414"/></g><g opacity="0.37"><path d="M1771.07,764.35a.41.41,0,0,1-.23.06l-91.34-.73a.5.5,0,0,1,0-1l91.34.72a.51.51,0,0,1,.22,1Z" fill="#991414"/></g><g opacity="0.41"><path d="M1624.88,599.73a.6.6,0,0,1-.74-.13.67.67,0,0,1,0-.91l59-58.9a.59.59,0,0,1,.87,0,.67.67,0,0,1,0,.91l-59,58.9Z" fill="#991414"/></g><g opacity="0.51"><path d="M1625,600a.87.87,0,0,1-1-.13,1,1,0,0,1-.06-1.32l21.75-25.1a.88.88,0,0,1,1.26-.07,1,1,0,0,1,.07,1.32l-21.75,25.1A1,1,0,0,1,1625,600Z" fill="#991414"/></g><g opacity="0.37"><path d="M1646.59,574.54a.51.51,0,0,1-.69-.18.56.56,0,0,1,.15-.77l83.63-57.68a.51.51,0,0,1,.74.16.57.57,0,0,1-.15.77l-83.63,57.68Z" fill="#991414"/></g><g opacity="0.41"><path d="M1646.63,574.61a.6.6,0,0,1-.74-.14.65.65,0,0,1,0-.89l37.29-33.8a.59.59,0,0,1,.85.06.64.64,0,0,1-.06.89l-37.28,33.8Z" fill="#991414"/></g><g opacity="0.33"><path d="M1697.85,545.1a.44.44,0,0,1-.48,0,.49.49,0,0,1-.11-.67L1770.4,437a.46.46,0,0,1,.65-.12.5.5,0,0,1,.11.68L1698,545A.61.61,0,0,1,1697.85,545.1Z" fill="#991414"/></g><g opacity="0.53"><path d="M1698.11,545.6a1,1,0,0,1-.95,0,1.07,1.07,0,0,1-.43-1.42l22.93-45.36a1,1,0,0,1,1.38-.44,1.07,1.07,0,0,1,.43,1.42l-22.93,45.36A1.07,1.07,0,0,1,1698.11,545.6Z" fill="#991414"/></g><g opacity="0.44"><path d="M1856.58,686.12a.75.75,0,0,1-.79,0,.8.8,0,0,1-.19-1.1l23.53-34.85a.74.74,0,0,1,1.06-.19.81.81,0,0,1,.19,1.1l-23.54,34.85A.85.85,0,0,1,1856.58,686.12Z" fill="#991414"/></g><g opacity="0.33"><path d="M1899.4,593.09a.49.49,0,0,1-.27.06.56.56,0,0,1-.54-.59l4.61-154.74a.56.56,0,1,1,1.11,0L1899.7,592.6A.6.6,0,0,1,1899.4,593.09Z" fill="#991414"/></g><g opacity="0.35"><path d="M1934,367l-30.83,70.59a.67.67,0,0,0,.31.86.62.62,0,0,0,.55,0,.66.66,0,0,0,.27-.3l29.7-68Z" fill="#991414"/></g><g opacity="0.28"><path d="M1325.78,486.21a.43.43,0,0,1-.4,0,.5.5,0,0,1-.25-.64l23-55.18a.45.45,0,0,1,.61-.25.49.49,0,0,1,.25.63L1326,486A.47.47,0,0,1,1325.78,486.21Z" fill="#991414"/></g><g opacity="0.36"><path d="M1335.28,508l0,0a.68.68,0,0,1-.93-.37l-9.39-21.53a.71.71,0,0,1,.35-1,.69.69,0,0,1,.94.36l9.38,21.54A.74.74,0,0,1,1335.28,508Z" fill="#991414"/></g><g opacity="0.28"><path d="M1372.78,471.88a.44.44,0,0,1-.34,0,.43.43,0,0,1-.24-.56l21.13-57.28a.43.43,0,0,1,.54-.25.45.45,0,0,1,.24.56L1373,471.65A.48.48,0,0,1,1372.78,471.88Z" fill="#991414"/></g><g opacity="0.28"><path d="M1372.78,471.88a.4.4,0,0,1-.41,0,.42.42,0,0,1-.14-.58l9.93-17.26a.41.41,0,0,1,.57-.15.45.45,0,0,1,.14.59l-9.93,17.26A.49.49,0,0,1,1372.78,471.88Z" fill="#991414"/></g><g opacity="0.45"><path d="M1382.93,455.05a.87.87,0,0,1-.55.1.92.92,0,0,1-.74-1l2.19-14.83a.88.88,0,0,1,1-.77.92.92,0,0,1,.74,1l-2.19,14.83A.91.91,0,0,1,1382.93,455.05Z" fill="#991414"/></g><g opacity="0.34"><path d="M1399.44,351a.44.44,0,0,1-.54-.08l-9.6-9.62a.5.5,0,0,1,0-.68.45.45,0,0,1,.66,0l9.61,9.63a.5.5,0,0,1,0,.68Z" fill="#991414"/></g><g opacity="0.4"><path d="M1730.25,516.91h0l-46.35,23.88a.58.58,0,0,1-.79-.27.67.67,0,0,1,.26-.82l46.35-23.88a.58.58,0,0,1,.79.27A.62.62,0,0,1,1730.25,516.91Z" fill="#991414"/></g><g opacity="0.35"><path d="M1730.2,516.82a.52.52,0,0,1-.35,0,.5.5,0,0,1-.34-.61l24.82-98.2a.48.48,0,0,1,.59-.35.49.49,0,0,1,.34.61l-24.82,98.19A.47.47,0,0,1,1730.2,516.82Z" fill="#991414"/></g><g opacity="0.38"><path d="M1730.23,516.88a.54.54,0,0,1-.74-.22l-9.4-17.06a.58.58,0,0,1,.2-.78h0a.54.54,0,0,1,.74.22l9.41,17.06a.59.59,0,0,1-.21.78Z" fill="#991414"/></g><g opacity="0.36"><path d="M1720.82,499.81a.53.53,0,0,1-.6-.07.56.56,0,0,1-.06-.78l50.21-62a.53.53,0,0,1,.76-.07.57.57,0,0,1,.06.78l-50.22,62A.5.5,0,0,1,1720.82,499.81Z" fill="#991414"/></g><g opacity="0.32"><path d="M1720.78,499.74a.46.46,0,0,1-.38,0,.5.5,0,0,1-.27-.63l46.94-127.08a.46.46,0,0,1,.6-.28.48.48,0,0,1,.27.62L1721,499.49A.45.45,0,0,1,1720.78,499.74Z" fill="#991414"/></g><g opacity="0.35"><path d="M1934,451.92l-27.92,62.53a.58.58,0,0,0,.27.76.53.53,0,0,0,.49,0,.58.58,0,0,0,.24-.27L1934,454.64Z" fill="#991414"/></g><g opacity="0.34"><path d="M1906.84,515.16a.31.31,0,0,1-.13.06.52.52,0,0,1-.62-.42L1883.85,401a.54.54,0,0,1,.41-.63.52.52,0,0,1,.61.42l22.24,113.76A.53.53,0,0,1,1906.84,515.16Z" fill="#991414"/></g><g opacity="0.43"><path d="M1884.73,401.65a.74.74,0,0,1-.6.06.82.82,0,0,1-.53-1l21.54-74.24a.79.79,0,0,1,1-.55.82.82,0,0,1,.53,1l-21.54,74.24A.81.81,0,0,1,1884.73,401.65Z" fill="#991414"/></g><g opacity="0.36"><path d="M1884.64,401.48a.58.58,0,0,1-.5,0,.64.64,0,0,1-.35-.81l28.42-75.39a.59.59,0,0,1,.78-.35.63.63,0,0,1,.34.81l-28.41,75.38A.61.61,0,0,1,1884.64,401.48Z" fill="#991414"/></g><g opacity="0.33"><path d="M1934,292.63l-21.71,32.59a.58.58,0,0,0,.14.79.53.53,0,0,0,.58,0,.54.54,0,0,0,.19-.18l20.8-31.22Z" fill="#991414"/></g><g opacity="0.41"><path d="M1934,277.71l-21.94,47.49a.8.8,0,0,0,.36,1.05.74.74,0,0,0,.68,0,.77.77,0,0,0,.33-.36L1934,281.36Z" fill="#991414"/></g><g opacity="0.35"><path d="M1934,314.68,1912.52,325a.64.64,0,0,0-.3.84.59.59,0,0,0,.8.3l21-10.05Z" fill="#991414"/></g><g opacity="0.22"><path d="M1389.61,413.84h0l-40.92,17.07a.33.33,0,0,1-.43-.19.35.35,0,0,1,.19-.44l40.91-17.07a.32.32,0,0,1,.43.19A.35.35,0,0,1,1389.61,413.84Z" fill="#991414"/></g><g opacity="0.3"><path d="M1389.68,414a.47.47,0,0,1-.52-.05.51.51,0,0,1-.09-.7l31.19-42.72a.46.46,0,0,1,.67-.1.51.51,0,0,1,.1.7l-31.19,42.73A.54.54,0,0,1,1389.68,414Z" fill="#991414"/></g><g opacity="0.38"><path d="M1394.06,414.88a.76.76,0,0,1-.45.08l-4.27-.68a.76.76,0,0,1-.6-.86.73.73,0,0,1,.82-.63l4.27.68a.76.76,0,0,1,.61.86A.76.76,0,0,1,1394.06,414.88Z" fill="#991414"/></g><g opacity="0.32"><path d="M1418.79,344a.47.47,0,0,1-.46,0,.5.5,0,0,1-.19-.68l36.46-67.46a.48.48,0,0,1,.66-.19.52.52,0,0,1,.18.69L1419,343.83A.46.46,0,0,1,1418.79,344Z" fill="#991414"/></g><g opacity="0.26"><path d="M1418.73,343.92a.34.34,0,0,1-.18,0,.37.37,0,0,1-.35-.39l1.89-75.55a.35.35,0,0,1,.37-.36.37.37,0,0,1,.36.38l-1.89,75.55A.43.43,0,0,1,1418.73,343.92Z" fill="#991414"/></g><g opacity="0.39"><path d="M1420.75,268.6a.64.64,0,0,1-.49,0,.66.66,0,0,1-.4-.81l20.58-66.06a.62.62,0,0,1,.78-.42.66.66,0,0,1,.4.82l-20.57,66.05A.66.66,0,0,1,1420.75,268.6Z" fill="#991414"/></g><g opacity="0.36"><path d="M1420.71,268.54a.49.49,0,0,1-.17.06.55.55,0,0,1-.63-.47l-5.71-36a.57.57,0,0,1,.45-.66.56.56,0,0,1,.64.47l5.71,36A.57.57,0,0,1,1420.71,268.54Z" fill="#991414"/></g><g opacity="0.3"><path d="M1414.92,232.39a.37.37,0,0,1-.31,0,.41.41,0,0,1-.22-.51l42-115.78a.38.38,0,0,1,.49-.23.4.4,0,0,1,.23.51l-42,115.78A.35.35,0,0,1,1414.92,232.39Z" fill="#991414"/></g><g opacity="0.32"><path d="M1415,232.45a.42.42,0,0,1-.49,0,.48.48,0,0,1-.08-.66l29.24-37.82a.44.44,0,0,1,.63-.07.47.47,0,0,1,.07.65l-29.23,37.82A.53.53,0,0,1,1415,232.45Z" fill="#991414"/></g><g opacity="0.34"><path d="M1415,232.47a.46.46,0,0,1-.53-.07.5.5,0,0,1,0-.68l26.28-30.07a.46.46,0,0,1,.66,0,.49.49,0,0,1,0,.68l-26.28,30.07Z" fill="#991414"/></g><g opacity="0.34"><path d="M1444.19,194.63a.43.43,0,0,1-.4,0,.46.46,0,0,1-.21-.62l40.11-88a.45.45,0,0,1,.6-.22.46.46,0,0,1,.21.61l-40.11,88A.58.58,0,0,1,1444.19,194.63Z" fill="#991414"/></g><g opacity="0.43"><path d="M1702.77,476.21a.61.61,0,0,1-.46.06.67.67,0,0,1-.46-.81l11.34-43.69a.64.64,0,0,1,.78-.47.67.67,0,0,1,.45.82l-11.33,43.68A.64.64,0,0,1,1702.77,476.21Z" fill="#991414"/></g><g opacity="0.36"><path d="M1755,418.62l-.08,0-41,13.76a.47.47,0,0,1-.6-.32.5.5,0,0,1,.31-.63l41-13.77a.49.49,0,0,1,.61.33A.5.5,0,0,1,1755,418.62Z" fill="#991414"/></g><g opacity="0.32"><path d="M1755,418.58a.44.44,0,0,1-.32,0,.46.46,0,0,1-.3-.55l12.71-46a.44.44,0,0,1,.54-.3.45.45,0,0,1,.29.55l-12.71,46A.44.44,0,0,1,1755,418.58Z" fill="#991414"/></g><g opacity="0.37"><path d="M1849.87,339.58l-.06,0-82.1,33.17a.57.57,0,0,1-.74-.34.61.61,0,0,1,.33-.76l82.09-33.17a.56.56,0,0,1,.74.34A.59.59,0,0,1,1849.87,339.58Z" fill="#991414"/></g><g opacity="0.32"><path d="M1883.18,309.74h0l-115.47,62.9a.43.43,0,0,1-.6-.2.46.46,0,0,1,.19-.62h0l115.46-62.91a.45.45,0,0,1,.61.2A.48.48,0,0,1,1883.18,309.74Z" fill="#991414"/></g><g opacity="0.33"><path d="M1934,318.42l-84.53,20.15a.5.5,0,0,0,.22,1l84.31-20.1Z" fill="#991414"/></g><g opacity="0.37"><path d="M1934,275.06l-84.76,63.51a.62.62,0,0,0-.13.85.57.57,0,0,0,.75.18l.07-.05,84.07-63Z" fill="#991414"/></g><g opacity="0.39"><path d="M1849.89,339.63a.6.6,0,0,1-.76-.15.67.67,0,0,1,.07-.91l33.36-29.73a.61.61,0,0,1,.88.07.66.66,0,0,1-.07.91L1850,339.55Z" fill="#991414"/></g><g opacity="0.34"><path d="M1934,374l-27.66-47.63a.56.56,0,0,0-.74-.19.57.57,0,0,0-.18.76L1934,376.18Z" fill="#991414"/></g><g opacity="0.23"><path d="M1419.25,350.79a.35.35,0,0,1-.47-.15.37.37,0,0,1,.14-.49l70.46-38.8a.34.34,0,0,1,.47.15.37.37,0,0,1-.15.48Z" fill="#991414"/></g><g opacity="0.24"><path d="M1419.25,350.8a.35.35,0,0,1-.43-.07.39.39,0,0,1,0-.53l55.49-54.72a.35.35,0,0,1,.51,0,.39.39,0,0,1,0,.53l-55.49,54.72A.16.16,0,0,1,1419.25,350.8Z" fill="#991414"/></g><g opacity="0.29"><path d="M1420.87,371.25a.42.42,0,0,1-.19.06.48.48,0,0,1-.52-.46l-1.56-20.34a.49.49,0,1,1,1-.08l1.55,20.34A.49.49,0,0,1,1420.87,371.25Z" fill="#991414"/></g><g opacity="0.24"><path d="M1420.81,371.14a.36.36,0,0,1-.45-.09.39.39,0,0,1,.05-.53l68.9-59.14a.35.35,0,0,1,.51.05.38.38,0,0,1,0,.53l-68.9,59.14Z" fill="#991414"/></g><g opacity="0.27"><path d="M1469.21,309.92a.39.39,0,0,1-.54-.17.42.42,0,0,1,.17-.56l66-37.15h0a.39.39,0,0,1,.53.17.42.42,0,0,1-.16.56l-66,37.15Z" fill="#991414"/></g><g opacity="0.24"><path d="M1489.69,312a.37.37,0,0,1-.18,0L1469,309.89a.34.34,0,0,1,.07-.67l20.51,2.11a.34.34,0,0,1,.3.37A.33.33,0,0,1,1489.69,312Z" fill="#991414"/></g><g opacity="0.3"><path d="M1469.24,310l0,0a.45.45,0,0,1-.61-.25l-14-33.43a.51.51,0,0,1,.24-.63.46.46,0,0,1,.62.25l14,33.42A.49.49,0,0,1,1469.24,310Z" fill="#991414"/></g><g opacity="0.26"><path d="M1455.19,276.46a.35.35,0,0,1-.46-.11.38.38,0,0,1,.07-.52L1537,213.05a.36.36,0,0,1,.51.08.39.39,0,0,1-.08.53l-82.17,62.77Z" fill="#991414"/></g><g opacity="0.31"><path d="M1441.22,202.36a.41.41,0,0,1-.27,0,.42.42,0,0,1-.33-.5l15.75-85.72a.43.43,0,0,1,.49-.34.43.43,0,0,1,.33.5l-15.75,85.72A.46.46,0,0,1,1441.22,202.36Z" fill="#991414"/></g><g opacity="0.34"><path d="M1441.25,202.42a.46.46,0,0,1-.64-.19.51.51,0,0,1,.17-.68l59.58-36.49h0a.46.46,0,0,1,.64.19.5.5,0,0,1-.17.68l-59.58,36.49Z" fill="#991414"/></g><g opacity="0.44"><path d="M1484.41,106.88l-.09,0-27.32,10a.67.67,0,0,1-.86-.43.72.72,0,0,1,.42-.89l27.31-10a.66.66,0,0,1,.86.42A.7.7,0,0,1,1484.41,106.88Z" fill="#991414"/></g><g opacity="0.38"><path d="M1514.67,97.52l-.09,0L1457,116.81a.56.56,0,0,1-.7-.37.6.6,0,0,1,.36-.73l57.63-19.24a.56.56,0,0,1,.7.37A.58.58,0,0,1,1514.67,97.52Z" fill="#991414"/></g><g opacity="0.35"><path d="M1570.11,76l-.06,0-85.8,30.73a.45.45,0,0,1-.59-.3.48.48,0,0,1,.29-.61l85.79-30.74a.46.46,0,0,1,.59.3A.49.49,0,0,1,1570.11,76Z" fill="#991414"/></g><g opacity="0.33"><path d="M1514.6,97.4l-.07,0-30.31,9.25a.42.42,0,0,1-.52-.29.43.43,0,0,1,.28-.54l30.31-9.24a.42.42,0,0,1,.52.29A.44.44,0,0,1,1514.6,97.4Z" fill="#991414"/></g><g opacity="0.35"><path d="M1626.82,192.51l-.12.05-69.93,15a.45.45,0,0,1-.53-.36.48.48,0,0,1,.34-.56l69.94-15a.44.44,0,0,1,.53.36A.46.46,0,0,1,1626.82,192.51Z" fill="#991414"/></g><g opacity="0.35"><path d="M1626.83,192.53a.45.45,0,0,1-.42,0,.49.49,0,0,1-.22-.64l44.9-98a.47.47,0,0,1,.62-.23.5.5,0,0,1,.22.65l-44.9,98A.48.48,0,0,1,1626.83,192.53Z" fill="#991414"/></g><g opacity="0.33"><path d="M1626.81,192.5a.42.42,0,0,1-.52-.1.45.45,0,0,1,0-.63L1711,113.21a.42.42,0,0,1,.61,0,.45.45,0,0,1,0,.63l-84.64,78.56Z" fill="#991414"/></g><g opacity="0.4"><path d="M1661.17,155.39a.59.59,0,0,1-.37.06.61.61,0,0,1-.48-.71L1670.93,94a.6.6,0,0,1,.69-.49.61.61,0,0,1,.47.71L1661.48,155A.63.63,0,0,1,1661.17,155.39Z" fill="#991414"/></g><g opacity="0.41"><path d="M1811.85,285.63a.56.56,0,0,1-.23.07l-59,6.24a.65.65,0,0,1-.12-1.29l59-6.23a.63.63,0,0,1,.68.57A.65.65,0,0,1,1811.85,285.63Z" fill="#991414"/></g><g opacity="0.32"><path d="M1811.77,285.47a.44.44,0,0,1-.56-.12.49.49,0,0,1,.07-.66L1910,204.22a.43.43,0,0,1,.63.07.48.48,0,0,1-.08.66l-98.72,80.47Z" fill="#991414"/></g><g opacity="0.4"><path d="M1811.85,285.63a.63.63,0,0,1-.62,0,.67.67,0,0,1-.2-.89l50.65-84.34a.62.62,0,0,1,.86-.21.67.67,0,0,1,.2.89l-50.65,84.34A.59.59,0,0,1,1811.85,285.63Z" fill="#991414"/></g><g opacity="0.4"><path d="M1934,274.66l-51.4,34.11a.68.68,0,0,0-.19.91.62.62,0,0,0,.84.23l0,0L1934,276.24Z" fill="#991414"/></g><g opacity="0.34"><path d="M1883.2,309.79a.49.49,0,0,1-.36,0,.52.52,0,0,1-.35-.64l27.31-104.74a.51.51,0,0,1,.62-.37.53.53,0,0,1,.35.64l-27.32,104.74A.5.5,0,0,1,1883.2,309.79Z" fill="#991414"/></g><g opacity="0.24"><path d="M1549.69,269.09l0,0-74.94,27a.39.39,0,0,1-.49-.24.4.4,0,0,1,.23-.5l75-27a.39.39,0,0,1,.49.24A.4.4,0,0,1,1549.69,269.09Z" fill="#991414"/></g><g opacity="0.32"><path d="M1474.84,296.27a.57.57,0,0,1-.76-.21.62.62,0,0,1,.19-.82l42.09-26.79a.56.56,0,0,1,.79.19.6.6,0,0,1-.19.81l-42.09,26.8Z" fill="#991414"/></g><g opacity="0.23"><path d="M1489.7,312a.34.34,0,0,1-.41-.06l-15-15.92a.37.37,0,0,1,0-.51.34.34,0,0,1,.49,0l15,15.92a.36.36,0,0,1,0,.5A.16.16,0,0,1,1489.7,312Z" fill="#991414"/></g><g opacity="0.27"><path d="M1489.73,312.05a.41.41,0,0,1-.51-.11.44.44,0,0,1,.06-.6l45.48-39.27a.41.41,0,0,1,.58.06.45.45,0,0,1,0,.61L1489.81,312Z" fill="#991414"/></g><g opacity="0.29"><path d="M1605,252.71l-.09,0-69.79,20.1a.44.44,0,0,1-.55-.32.47.47,0,0,1,.31-.57l69.79-20.11a.44.44,0,0,1,.55.32A.47.47,0,0,1,1605,252.71Z" fill="#991414"/></g><g opacity="0.34"><path d="M1537.45,213.84a.51.51,0,0,1-.68-.16.55.55,0,0,1,.11-.77l52.6-40.23a.53.53,0,0,1,.75.12.58.58,0,0,1-.12.78l-52.59,40.22Z" fill="#991414"/></g><g opacity="0.29"><path d="M1612.68,215.07a.46.46,0,0,1-.2.05l-75.29-1.34a.42.42,0,0,1-.41-.43.44.44,0,0,1,.43-.43l75.28,1.34a.43.43,0,0,1,.19.81Z" fill="#991414"/></g><g opacity="0.28"><path d="M1537.39,213.72a.39.39,0,0,1-.5-.11l-36.6-47.86a.42.42,0,0,1,.07-.58.4.4,0,0,1,.56.06l36.59,47.87a.42.42,0,0,1-.06.58Z" fill="#991414"/></g><g opacity="0.28"><path d="M1590,173.46a.33.33,0,0,1-.2,0l-89.19-7.64a.37.37,0,0,1,.06-.74l89.19,7.64a.37.37,0,0,1,.34.4A.38.38,0,0,1,1590,173.46Z" fill="#991414"/></g><g opacity="0.33"><path d="M1500.82,165.92a.41.41,0,0,1-.31,0,.47.47,0,0,1-.36-.57L1514,96.92a.47.47,0,0,1,.56-.38.5.5,0,0,1,.36.58l-13.81,68.47A.49.49,0,0,1,1500.82,165.92Z" fill="#991414"/></g><g opacity="0.33"><path d="M1570.1,75.94l0,0-55.48,21.49a.45.45,0,0,1-.58-.27.47.47,0,0,1,.26-.6l55.49-21.49a.44.44,0,0,1,.57.28A.47.47,0,0,1,1570.1,75.94Z" fill="#991414"/></g><g opacity="0.35"><path d="M1660.82,88.66a.46.46,0,0,1-.28.06L1569.83,76a.49.49,0,0,1-.4-.55.48.48,0,0,1,.53-.41l90.7,12.71a.48.48,0,0,1,.4.54A.49.49,0,0,1,1660.82,88.66Z" fill="#991414"/></g><g opacity="0.35"><path d="M1629.82,90.56a.47.47,0,0,1-.33,0L1569.79,76a.48.48,0,0,1-.35-.58.45.45,0,0,1,.56-.36l59.71,14.6a.48.48,0,0,1,.34.58A.51.51,0,0,1,1629.82,90.56Z" fill="#991414"/></g><g opacity="0.38"><path d="M1712.84,95.75a.42.42,0,0,1-.27.06l-83-5.14a.54.54,0,0,1-.49-.57.53.53,0,0,1,.55-.51l83,5.15a.54.54,0,0,1,.49.57A.52.52,0,0,1,1712.84,95.75Z" fill="#991414"/></g><g opacity="0.37"><path d="M1660.82,88.68a.6.6,0,0,1-.19.06l-31,1.89a.48.48,0,0,1-.51-.47.49.49,0,0,1,.45-.53l31-1.89a.48.48,0,0,1,.51.47A.5.5,0,0,1,1660.82,88.68Z" fill="#991414"/></g><g opacity="0.34"><path d="M1812.26,67h0l-100.79,47a.44.44,0,0,1-.59-.23.49.49,0,0,1,.22-.62l100.79-46.95a.45.45,0,0,1,.6.24A.48.48,0,0,1,1812.26,67Z" fill="#991414"/></g><g opacity="0.4"><path d="M1782.52,104.14a.66.66,0,0,1-.2.06l-71,9.93a.57.57,0,0,1-.64-.5.6.6,0,0,1,.49-.67l71-9.93a.57.57,0,0,1,.64.51A.59.59,0,0,1,1782.52,104.14Z" fill="#991414"/></g><g opacity="0.33"><path d="M1711.46,113.94a.39.39,0,0,1-.24,0,.43.43,0,0,1-.39-.48l1.34-18.27a.44.44,0,0,1,.46-.41.44.44,0,0,1,.4.48l-1.34,18.27A.48.48,0,0,1,1711.46,113.94Z" fill="#991414"/></g><g opacity="0.41"><path d="M1711.54,114.1a.57.57,0,0,1-.54,0l-39.75-19.43a.63.63,0,0,1-.28-.84.6.6,0,0,1,.8-.3L1711.51,113a.63.63,0,0,1,.29.83A.62.62,0,0,1,1711.54,114.1Z" fill="#991414"/></g><g opacity="0.37"><path d="M1850.9,82.93a.51.51,0,0,1-.3.06l-88.77-7.87a.55.55,0,0,1-.49-.6.54.54,0,0,1,.58-.5l88.77,7.87a.54.54,0,0,1,.49.6A.57.57,0,0,1,1850.9,82.93Z" fill="#991414"/></g><g opacity="0.42"><path d="M1910.59,205.18a.64.64,0,0,1-.36.08l-48.07-3.86a.67.67,0,0,1-.6-.73.66.66,0,0,1,.7-.63l48.07,3.86a.69.69,0,0,1,.26,1.28Z" fill="#991414"/></g><g opacity="0.24"><path d="M1516.84,269.3a.38.38,0,0,1-.5-.14.41.41,0,0,1,.12-.55l58-37.45,0,0a.39.39,0,0,1,.5.14.42.42,0,0,1-.12.55l-58,37.45Z" fill="#991414"/></g><g opacity="0.32"><path d="M1549.79,269.28a.5.5,0,0,1-.27.07l-32.86.21a.6.6,0,0,1-.59-.61.62.62,0,0,1,.59-.61l32.85-.21a.6.6,0,0,1,.59.61A.61.61,0,0,1,1549.79,269.28Z" fill="#991414"/></g><g opacity="0.24"><path d="M1628,250.49a.19.19,0,0,1-.09,0l-78.32,18.59a.37.37,0,0,1-.44-.28.38.38,0,0,1,.28-.45l78.32-18.59a.37.37,0,0,1,.44.28A.39.39,0,0,1,1628,250.49Z" fill="#991414"/></g><g opacity="0.23"><path d="M1549.67,269a.3.3,0,0,1-.34,0,.34.34,0,0,1-.08-.47l25.14-37.25a.32.32,0,0,1,.46-.09.35.35,0,0,1,.08.48l-25.14,37.25A.38.38,0,0,1,1549.67,269Z" fill="#991414"/></g><g opacity="0.24"><path d="M1692.55,226.88l-.07,0-87.58,25.74a.33.33,0,0,1-.42-.24.36.36,0,0,1,.24-.45l87.58-25.74a.34.34,0,0,1,.42.25A.37.37,0,0,1,1692.55,226.88Z" fill="#991414"/></g><g opacity="0.28"><path d="M1659.57,255a.36.36,0,0,1-.21,0l-54.57-2.28a.42.42,0,0,1-.39-.45.41.41,0,0,1,.43-.41l54.56,2.28a.43.43,0,0,1,.4.45A.41.41,0,0,1,1659.57,255Z" fill="#991414"/></g><g opacity="0.29"><path d="M1605,252.71a.39.39,0,0,1-.3,0,.46.46,0,0,1-.35-.55l7.68-37.61a.45.45,0,0,1,.53-.36.48.48,0,0,1,.35.56l-7.68,37.61A.46.46,0,0,1,1605,252.71Z" fill="#991414"/></g><g opacity="0.28"><path d="M1692.58,226.92a.43.43,0,0,1-.25.05l-79.9-11.87a.42.42,0,0,1-.34-.47.41.41,0,0,1,.45-.35l79.91,11.87a.41.41,0,0,1,.33.47A.43.43,0,0,1,1692.58,226.92Z" fill="#991414"/></g><g opacity="0.31"><path d="M1612.71,215.11a.45.45,0,0,1-.63-.18l-22.69-41.56a.49.49,0,0,1,.17-.66h0a.46.46,0,0,1,.62.19l22.69,41.56a.49.49,0,0,1-.17.66Z" fill="#991414"/></g><g opacity="0.3"><path d="M1658.75,123a.54.54,0,0,1-.22,0,.43.43,0,0,1-.39-.46l2-34.35a.43.43,0,0,1,.44-.4.42.42,0,0,1,.39.45l-2,34.35A.45.45,0,0,1,1658.75,123Z" fill="#991414"/></g><g opacity="0.39"><path d="M1788.31,90.21a.48.48,0,0,1-.21.07l-75.46,5.53a.53.53,0,0,1-.56-.49.54.54,0,0,1,.48-.58L1788,89.2a.53.53,0,0,1,.55.5A.51.51,0,0,1,1788.31,90.21Z" fill="#991414"/></g><g opacity="0.35"><path d="M1782.47,104a.45.45,0,0,1-.28.06l-69.64-8.34a.48.48,0,0,1-.41-.54.45.45,0,0,1,.51-.42l69.65,8.34a.47.47,0,0,1,.41.53A.47.47,0,0,1,1782.47,104Z" fill="#991414"/></g><g opacity="0.35"><path d="M1782.47,104a.44.44,0,0,1-.55-.09.5.5,0,0,1,0-.68l68.72-69.56a.45.45,0,0,1,.66,0,.51.51,0,0,1,0,.69L1782.57,104A.25.25,0,0,1,1782.47,104Z" fill="#991414"/></g><g opacity="0.34"><path d="M1782.45,104a.44.44,0,0,1-.37,0,.46.46,0,0,1-.23-.59l5.82-13.88a.42.42,0,0,1,.57-.23.45.45,0,0,1,.22.59l-5.82,13.87A.42.42,0,0,1,1782.45,104Z" fill="#991414"/></g><g opacity="0.47"><path d="M1782.59,104.28a.7.7,0,0,1-.81-.09.78.78,0,0,1-.09-1.06l29.8-37a.7.7,0,0,1,1-.1.78.78,0,0,1,.1,1.06l-29.8,37A.73.73,0,0,1,1782.59,104.28Z" fill="#991414"/></g><g opacity="0.36"><path d="M1812.28,67.06a.5.5,0,0,1-.65-.17.53.53,0,0,1,.14-.72l84-58.19a.5.5,0,0,1,.7.14.53.53,0,0,1-.14.72l-84,58.19Z" fill="#991414"/></g><g opacity="0.34"><path d="M1812.26,67a.44.44,0,0,1-.56-.12.46.46,0,0,1,.07-.65l38.92-32.55a.43.43,0,0,1,.63.07.48.48,0,0,1-.07.65L1812.33,67Z" fill="#991414"/></g><g opacity="0.35"><path d="M1934,23.47,1850.37,82a.53.53,0,0,0-.14.72.5.5,0,0,0,.65.17l0,0L1934,24.72Z" fill="#991414"/></g><g opacity="0.32"><path d="M1934,91.24,1850.69,82a.42.42,0,0,0-.47.39.44.44,0,0,0,.38.5L1934,92.15Z" fill="#991414"/></g><g opacity="0.22"><path d="M1658.73,211.51a.11.11,0,0,1-.08,0l-83.91,20.3a.33.33,0,0,1-.41-.27.35.35,0,0,1,.25-.43l83.91-20.29a.34.34,0,0,1,.42.26A.36.36,0,0,1,1658.73,211.51Z" fill="#991414"/></g><g opacity="0.25"><path d="M1628,250.52a.37.37,0,0,1-.31,0l-53.18-18.67a.41.41,0,0,1-.25-.52.4.4,0,0,1,.5-.26L1628,249.77a.41.41,0,0,1,.25.52A.39.39,0,0,1,1628,250.52Z" fill="#991414"/></g><g opacity="0.23"><path d="M1708.48,228.72l-.08,0-80.47,21.75a.34.34,0,0,1-.42-.25.36.36,0,0,1,.25-.44l80.47-21.75a.34.34,0,0,1,.42.25A.36.36,0,0,1,1708.48,228.72Z" fill="#991414"/></g><g opacity="0.25"><path d="M1628,250.51a.37.37,0,0,1-.42,0,.4.4,0,0,1,0-.55l30.73-39a.37.37,0,0,1,.53-.05.42.42,0,0,1,.06.56l-30.73,39A.58.58,0,0,1,1628,250.51Z" fill="#991414"/></g><g opacity="0.23"><path d="M1659.55,254.91a.34.34,0,0,1-.22.05l-31.53-4.43a.38.38,0,0,1,.09-.75l31.54,4.43a.39.39,0,0,1,.31.42A.36.36,0,0,1,1659.55,254.91Z" fill="#991414"/></g><g opacity="0.24"><path d="M1744.44,243a.29.29,0,0,1-.13.05L1659.43,255a.37.37,0,0,1-.41-.33.37.37,0,0,1,.31-.42l84.89-11.91a.37.37,0,0,1,.41.32A.38.38,0,0,1,1744.44,243Z" fill="#991414"/></g><g opacity="0.23"><path d="M1659.54,254.9a.34.34,0,0,1-.43-.09.37.37,0,0,1,.05-.51l33-28a.34.34,0,0,1,.49.05.37.37,0,0,1-.05.51l-33,28Z" fill="#991414"/></g><g opacity="0.26"><path d="M1692.57,226.91a.37.37,0,0,1-.31,0,.4.4,0,0,1-.23-.51l16.46-46.74a.37.37,0,0,1,.49-.23.39.39,0,0,1,.23.5l-16.46,46.74A.44.44,0,0,1,1692.57,226.91Z" fill="#991414"/></g><g opacity="0.32"><path d="M1760.67,154.93h0l-51.6,25.33a.47.47,0,0,1-.64-.24.51.51,0,0,1,.21-.66h0l51.6-25.33a.48.48,0,0,1,.64.24A.51.51,0,0,1,1760.67,154.93Z" fill="#991414"/></g><g opacity="0.32"><path d="M1760.66,154.9a.43.43,0,0,1-.37,0,.47.47,0,0,1-.26-.6l13.16-36.64a.46.46,0,0,1,.58-.27.47.47,0,0,1,.26.6l-13.16,36.64A.48.48,0,0,1,1760.66,154.9Z" fill="#991414"/></g><g opacity="0.36"><path d="M1819.47,170.75a.51.51,0,0,1-.4.05L1760.31,155a.58.58,0,0,1-.4-.7.56.56,0,0,1,.68-.41l58.76,15.76a.57.57,0,0,1,.39.7A.56.56,0,0,1,1819.47,170.75Z" fill="#991414"/></g><g opacity="0.31"><path d="M1871.26,115.43a.35.35,0,0,1-.18,0l-97.46,2.8a.42.42,0,0,1-.42-.42.41.41,0,0,1,.4-.44l97.46-2.8a.41.41,0,0,1,.42.42A.43.43,0,0,1,1871.26,115.43Z" fill="#991414"/></g><g opacity="0.32"><path d="M1870.59,95.91a.35.35,0,0,1-.2,0L1788,90.13a.38.38,0,0,1-.35-.42.37.37,0,0,1,.4-.36l82.35,5.82a.39.39,0,0,1,.35.42A.4.4,0,0,1,1870.59,95.91Z" fill="#991414"/></g><g opacity="0.35"><path d="M1788.29,90.17a.47.47,0,0,1-.58-.12.51.51,0,0,1,0-.68l62.91-55.69a.45.45,0,0,1,.65.06.49.49,0,0,1,0,.68l-62.9,55.69Z" fill="#991414"/></g><g opacity="0.5"><path d="M1896.1,16.5l-.09,0-44.74,18.29a.8.8,0,0,1-1.06-.47.84.84,0,0,1,.46-1.09L1895.42,15a.8.8,0,0,1,1,.48A.87.87,0,0,1,1896.1,16.5Z" fill="#991414"/></g><g opacity="0.38"><path d="M1851.21,34.53a.5.5,0,0,1-.69-.22.54.54,0,0,1,.2-.73l45.06-25.64h0a.52.52,0,0,1,.7.22.56.56,0,0,1-.21.73l-45.06,25.64Z" fill="#991414"/></g><g opacity="0.44"><path d="M1934-10.54,1895.75,7.77a.76.76,0,0,0-.33.93.66.66,0,0,0,.89.34L1934-9Z" fill="#991414"/></g><g opacity="0.33"><path d="M1934,19,1896.15,8a.42.42,0,0,0-.53.31.45.45,0,0,0,.3.55L1934,19.91Z" fill="#991414"/></g><g opacity="0.35"><path d="M1895.92,16.16a.41.41,0,0,1-.23.06.46.46,0,0,1-.42-.49l.31-7.34a.45.45,0,1,1,.9,0l-.32,7.34A.43.43,0,0,1,1895.92,16.16Z" fill="#991414"/></g><g opacity="0.27"><path d="M1711.7,192.17l-.06,0-52.92,19.44a.44.44,0,0,1-.57-.28.45.45,0,0,1,.27-.59l52.92-19.44a.44.44,0,0,1,.57.28A.48.48,0,0,1,1711.7,192.17Z" fill="#991414"/></g><g opacity="0.27"><path d="M1708.53,228.83a.41.41,0,0,1-.36,0l-49.75-17.21a.49.49,0,0,1-.29-.61.46.46,0,0,1,.59-.3L1708.46,228a.48.48,0,0,1,.3.61A.47.47,0,0,1,1708.53,228.83Z" fill="#991414"/></g><g opacity="0.26"><path d="M1780.11,225.45a.35.35,0,0,1-.18.05l-71.6,3.33a.42.42,0,0,1-.43-.41.44.44,0,0,1,.4-.45l71.6-3.33a.42.42,0,0,1,.43.41A.41.41,0,0,1,1780.11,225.45Z" fill="#991414"/></g><g opacity="0.25"><path d="M1708.49,228.75a.36.36,0,0,1-.21.05.39.39,0,0,1-.34-.43l3.17-36.65a.38.38,0,0,1,.41-.36.39.39,0,0,1,.35.43l-3.18,36.65A.38.38,0,0,1,1708.49,228.75Z" fill="#991414"/></g><g opacity="0.23"><path d="M1780.08,225.39h0L1744.41,243a.35.35,0,0,1-.46-.17.38.38,0,0,1,.17-.48l35.65-17.6a.34.34,0,0,1,.46.17A.37.37,0,0,1,1780.08,225.39Z" fill="#991414"/></g><g opacity="0.31"><path d="M1839.3,229.42a.42.42,0,0,1-.29.05l-38.79-5.38a.5.5,0,0,1-.41-.56.49.49,0,0,1,.54-.43l38.79,5.38a.51.51,0,0,1,.16.94Z" fill="#991414"/></g><g opacity="0.32"><path d="M1800.54,224.09a.5.5,0,0,1-.61-.09.56.56,0,0,1,0-.78l17.91-20.13a.52.52,0,0,1,.76,0,.57.57,0,0,1,0,.79L1800.68,224A.53.53,0,0,1,1800.54,224.09Z" fill="#991414"/></g><g opacity="0.31"><path d="M1818.43,203.91a.39.39,0,0,1-.24.06.49.49,0,0,1-.47-.51l1-33.23a.48.48,0,1,1,1,0l-1,33.23A.51.51,0,0,1,1818.43,203.91Z" fill="#991414"/></g><g opacity="0.27"><path d="M1916.77,147.65l-.09,0-97.39,22.92a.37.37,0,0,1-.44-.28.38.38,0,0,1,.28-.45L1916.52,147a.37.37,0,0,1,.44.29A.4.4,0,0,1,1916.77,147.65Z" fill="#991414"/></g><g opacity="0.39"><path d="M1871.35,115.6a.58.58,0,0,1-.57,0,.64.64,0,0,1-.24-.85l30.28-57.29a.59.59,0,0,1,.82-.25.64.64,0,0,1,.24.85l-30.28,57.29A.67.67,0,0,1,1871.35,115.6Z" fill="#991414"/></g><g opacity="0.38"><path d="M1871.34,115.58a.43.43,0,0,1-.25.07.59.59,0,0,1-.61-.58l-.65-19.48a.59.59,0,1,1,1.17,0l.66,19.49A.6.6,0,0,1,1871.34,115.58Z" fill="#991414"/></g><g opacity="0.3"><path d="M1934,88.8l-63.64,6.37a.4.4,0,0,0,.07.79L1934,89.59Z" fill="#991414"/></g><g opacity="0.36"><path d="M1934-7.86l-38.55,23.18a.51.51,0,0,0-.17.69.48.48,0,0,0,.64.19h0L1934-6.7Z" fill="#991414"/></g><g opacity="0.22"><path d="M1777.12,171.79l-.06,0-65.47,20.29a.34.34,0,0,1-.43-.24.35.35,0,0,1,.23-.45l65.47-20.28a.34.34,0,0,1,.43.24A.36.36,0,0,1,1777.12,171.79Z" fill="#991414"/></g><g opacity="0.23"><path d="M1851,232.22a.45.45,0,0,1-.2,0l-70.95-6.83a.36.36,0,0,1,.07-.71l71,6.82a.36.36,0,0,1,.31.39A.36.36,0,0,1,1851,232.22Z" fill="#991414"/></g><g opacity="0.25"><path d="M1917.52,214.38a.16.16,0,0,1-.09,0L1851,232.3a.4.4,0,0,1-.48-.3.42.42,0,0,1,.28-.5l66.47-17.88a.4.4,0,0,1,.49.29A.43.43,0,0,1,1917.52,214.38Z" fill="#991414"/></g><g opacity="0.28"><path d="M1889.39,217.07l-.05,0L1851,232.33a.43.43,0,0,1-.58-.26.44.44,0,0,1,.25-.6L1889,216.23a.44.44,0,0,1,.58.26A.47.47,0,0,1,1889.39,217.07Z" fill="#991414"/></g><g opacity="0.22"><path d="M1851,232.2a.32.32,0,0,1-.38,0,.35.35,0,0,1,0-.48l23.1-25.93a.33.33,0,0,1,.47,0,.34.34,0,0,1,0,.48l-23.09,25.92Z" fill="#991414"/></g><g opacity="0.28"><path d="M1851.08,232.33a.44.44,0,0,1-.32,0L1839,229.45a.49.49,0,0,1-.35-.59.45.45,0,0,1,.56-.35l11.79,2.92a.48.48,0,0,1,.35.58A.49.49,0,0,1,1851.08,232.33Z" fill="#991414"/></g><g opacity="0.26"><path d="M1917.52,214.38l-.12,0-78.25,15a.4.4,0,0,1-.47-.33.42.42,0,0,1,.32-.48l78.26-15a.4.4,0,0,1,.46.33A.4.4,0,0,1,1917.52,214.38Z" fill="#991414"/></g><g opacity="0.25"><path d="M1917.49,214.33a.32.32,0,0,1-.4-.06.36.36,0,0,1,0-.5l11.15-11.87a.35.35,0,0,1,.49,0,.37.37,0,0,1,0,.51l-11.15,11.87S1917.53,214.32,1917.49,214.33Z" fill="#991414"/></g><g opacity="0.27"><path d="M1928.67,202.52l-.1,0a.4.4,0,0,1-.48-.31l-11.88-54.83a.42.42,0,0,1,.3-.49.4.4,0,0,1,.48.31l11.88,54.83A.43.43,0,0,1,1928.67,202.52Z" fill="#991414"/></g><g opacity="0.28"><path d="M1934,149.32l-17.37-2.41a.39.39,0,0,0-.44.35.41.41,0,0,0,.34.47l17.47,2.42Z" fill="#991414"/></g><g opacity="0.28"><path d="M1934,69.14l-32.55-11.75a.38.38,0,0,0-.48.24.4.4,0,0,0,.23.5L1934,70Z" fill="#991414"/></g><g opacity="0.22"><path d="M1843,157.51a.19.19,0,0,1-.09,0L1777,171.82a.34.34,0,0,1-.41-.28.35.35,0,0,1,.27-.42l65.85-14.28a.34.34,0,0,1,.41.28A.36.36,0,0,1,1843,157.51Z" fill="#991414"/></g><g opacity="0.22"><path d="M1934,170.62l-60.22,35.06a.34.34,0,0,0-.12.46.33.33,0,0,0,.44.14h0l59.9-34.86Z" fill="#991414"/></g><g opacity="0.35"><path d="M1889.52,217.32a.7.7,0,0,1-.75,0l-15.22-10.68a.78.78,0,0,1-.19-1,.72.72,0,0,1,1-.2L1889.59,216a.76.76,0,0,1,.19,1A.66.66,0,0,1,1889.52,217.32Z" fill="#991414"/></g><path d="M116.9,1073.25a3.6,3.6,0,0,1,5,1.58,3.89,3.89,0,0,1-1.53,5.14,3.6,3.6,0,0,1-5-1.58A3.87,3.87,0,0,1,116.9,1073.25Z" fill="#991414" opacity="0.81"/><path d="M144.42,992.38a3.6,3.6,0,0,1,5,1.57,3.87,3.87,0,0,1-1.52,5.14,3.6,3.6,0,0,1-5-1.57A3.87,3.87,0,0,1,144.42,992.38Z" fill="#991414" opacity="0.81"/><path d="M178.44,1027.23a3.73,3.73,0,0,1,5.14,1.64,4,4,0,0,1-1.58,5.33,3.74,3.74,0,0,1-5.14-1.64A4,4,0,0,1,178.44,1027.23Z" fill="#991414" opacity="0.87"/><path d="M201.22,1069.7a3.73,3.73,0,0,1,5.14,1.64,4,4,0,0,1-1.58,5.33,3.74,3.74,0,0,1-5.14-1.64A4,4,0,0,1,201.22,1069.7Z" fill="#991414" opacity="0.9"/><path d="M209.54,889.73a3.59,3.59,0,0,1,5,1.58,3.87,3.87,0,0,1-1.52,5.14,3.61,3.61,0,0,1-5-1.58A3.88,3.88,0,0,1,209.54,889.73Z" fill="#991414" opacity="0.83"/><path d="M228.76,905.54a3.67,3.67,0,0,1,5.05,1.61,4,4,0,0,1-1.56,5.24,3.66,3.66,0,0,1-5-1.61A4,4,0,0,1,228.76,905.54Z" fill="#991414" opacity="0.86"/><path d="M297.48,986.51a3.8,3.8,0,0,1,5.23,1.67,4.08,4.08,0,0,1-1.61,5.42,3.8,3.8,0,0,1-5.23-1.66A4.09,4.09,0,0,1,297.48,986.51Z" fill="#991414" opacity="0.9"/><path d="M341.56,1040.14a3.81,3.81,0,0,1,5.23,1.67,4.09,4.09,0,0,1-1.61,5.43,3.8,3.8,0,0,1-5.23-1.67A4.09,4.09,0,0,1,341.56,1040.14Z" fill="#991414" opacity="0.93"/><path d="M309.44,843.59a3.59,3.59,0,0,1,4.95,1.58,3.87,3.87,0,0,1-1.52,5.14,3.61,3.61,0,0,1-5-1.58A3.88,3.88,0,0,1,309.44,843.59Z" fill="#991414" opacity="0.82"/><path d="M293.29,864.18a3.66,3.66,0,0,1,5,1.6,4,4,0,0,1-1.55,5.24,3.67,3.67,0,0,1-5.05-1.61A4,4,0,0,1,293.29,864.18Z" fill="#991414" opacity="0.85"/><path d="M323.78,941a3.72,3.72,0,0,1,5.13,1.64,4,4,0,0,1-1.57,5.33,3.74,3.74,0,0,1-5.14-1.64A4,4,0,0,1,323.78,941Z" fill="#991414" opacity="0.89"/><path d="M383,1012.42a3.8,3.8,0,0,1,5.23,1.66,4.09,4.09,0,0,1-1.61,5.43,3.8,3.8,0,0,1-5.23-1.67A4.08,4.08,0,0,1,383,1012.42Z" fill="#991414" opacity="0.92"/><path d="M447.82,1057.45a3.87,3.87,0,0,1,5.33,1.69,4.17,4.17,0,0,1-1.64,5.52,3.86,3.86,0,0,1-5.32-1.69A4.15,4.15,0,0,1,447.82,1057.45Z" fill="#991414" opacity="0.95"/><path d="M460.12,1077.15a4,4,0,0,1,5.5,1.75,4.29,4.29,0,0,1-1.69,5.71,4,4,0,0,1-5.51-1.75A4.31,4.31,0,0,1,460.12,1077.15Z" fill="#991414"/><path d="M391.49,833.8a3.53,3.53,0,0,1,4.86,1.55,3.8,3.8,0,0,1-1.49,5,3.54,3.54,0,0,1-4.87-1.55A3.79,3.79,0,0,1,391.49,833.8Z" fill="#991414" opacity="0.79"/><path d="M375.12,865.67a3.65,3.65,0,0,1,5,1.6,4,4,0,0,1-1.55,5.24,3.67,3.67,0,0,1-5.05-1.61A3.94,3.94,0,0,1,375.12,865.67Z" fill="#991414" opacity="0.84"/><path d="M409,914.13a3.67,3.67,0,0,1,5.05,1.61,4,4,0,0,1-1.55,5.24,3.67,3.67,0,0,1-5-1.61A4,4,0,0,1,409,914.13Z" fill="#991414" opacity="0.87"/><path d="M494.46,975.79a3.73,3.73,0,0,1,5.14,1.64,4,4,0,0,1-1.58,5.33,3.73,3.73,0,0,1-5.14-1.64A4,4,0,0,1,494.46,975.79Z" fill="#991414" opacity="0.9"/><path d="M535.86,1013.2a3.87,3.87,0,0,1,5.32,1.7,4.16,4.16,0,0,1-1.63,5.52,3.87,3.87,0,0,1-5.33-1.69A4.18,4.18,0,0,1,535.86,1013.2Z" fill="#991414" opacity="0.95"/><path d="M519.41,1030.93a4,4,0,0,1,5.51,1.76,4.31,4.31,0,0,1-1.7,5.71,4,4,0,0,1-5.5-1.76A4.3,4.3,0,0,1,519.41,1030.93Z" fill="#991414"/><path d="M546.24,1071.57a4.68,4.68,0,0,1,6.43,2,5,5,0,0,1-2,6.66,4.66,4.66,0,0,1-6.42-2A5,5,0,0,1,546.24,1071.57Z" fill="#991414"/><path d="M448.66,824.93a3.53,3.53,0,0,1,4.86,1.55,3.8,3.8,0,0,1-1.49,5,3.53,3.53,0,0,1-4.87-1.55A3.79,3.79,0,0,1,448.66,824.93Z" fill="#991414" opacity="0.8"/><path d="M486.81,840.06a3.6,3.6,0,0,1,5,1.58,3.88,3.88,0,0,1-1.52,5.14,3.61,3.61,0,0,1-5-1.58A3.87,3.87,0,0,1,486.81,840.06Z" fill="#991414" opacity="0.82"/><path d="M571.9,911.71a3.67,3.67,0,0,1,5.05,1.61,4,4,0,0,1-1.55,5.24,3.67,3.67,0,0,1-5-1.61A4,4,0,0,1,571.9,911.71Z" fill="#991414" opacity="0.85"/><path d="M595.48,948.24a3.73,3.73,0,0,1,5.14,1.64,4,4,0,0,1-1.58,5.33,3.73,3.73,0,0,1-5.13-1.64A4,4,0,0,1,595.48,948.24Z" fill="#991414" opacity="0.89"/><path d="M586.64,986.73a3.87,3.87,0,0,1,5.33,1.69,4.18,4.18,0,0,1-1.64,5.53,3.87,3.87,0,0,1-5.32-1.7A4.16,4.16,0,0,1,586.64,986.73Z" fill="#991414" opacity="0.95"/><path d="M647.25,1007.61a3.93,3.93,0,0,1,5.42,1.72A4.24,4.24,0,0,1,651,1015a3.93,3.93,0,0,1-5.41-1.73A4.23,4.23,0,0,1,647.25,1007.61Z" fill="#991414" opacity="0.99"/><path d="M588.21,954.31a4.07,4.07,0,0,1,5.6,1.78,4.38,4.38,0,0,1-1.72,5.81,4.07,4.07,0,0,1-5.6-1.79A4.37,4.37,0,0,1,588.21,954.31Z" fill="#991414"/><path d="M580.76,948.44a4.2,4.2,0,0,1,5.78,1.85,4.51,4.51,0,0,1-1.77,6,4.2,4.2,0,0,1-5.79-1.84A4.53,4.53,0,0,1,580.76,948.44Z" fill="#991414"/><path d="M696.41,1065.62a4.4,4.4,0,0,1,6.06,1.93,4.74,4.74,0,0,1-1.86,6.28,4.4,4.4,0,0,1-6.06-1.93A4.73,4.73,0,0,1,696.41,1065.62Z" fill="#991414"/><path d="M655.14,1052.36a4.61,4.61,0,0,1,6.33,2,5,5,0,0,1-2,6.57,4.6,4.6,0,0,1-6.33-2A5,5,0,0,1,655.14,1052.36Z" fill="#991414"/><path d="M521.9,786a3.47,3.47,0,0,1,4.78,1.52,3.74,3.74,0,0,1-1.47,5,3.48,3.48,0,0,1-4.77-1.52A3.72,3.72,0,0,1,521.9,786Z" fill="#991414" opacity="0.77"/><path d="M562.68,824a3.6,3.6,0,0,1,5,1.58,3.87,3.87,0,0,1-1.52,5.14,3.6,3.6,0,0,1-5-1.58A3.89,3.89,0,0,1,562.68,824Z" fill="#991414" opacity="0.82"/><path d="M641.61,893.24a3.67,3.67,0,0,1,5,1.61,4,4,0,0,1-1.55,5.24,3.67,3.67,0,0,1-5.05-1.61A4,4,0,0,1,641.61,893.24Z" fill="#991414" opacity="0.84"/><path d="M678.07,907.16a3.74,3.74,0,0,1,5.14,1.63,4,4,0,0,1-1.58,5.33,3.73,3.73,0,0,1-5.14-1.63A4,4,0,0,1,678.07,907.16Z" fill="#991414" opacity="0.87"/><path d="M695.36,974.23a3.81,3.81,0,0,1,5.23,1.67,4.09,4.09,0,0,1-1.61,5.43,3.8,3.8,0,0,1-5.23-1.67A4.09,4.09,0,0,1,695.36,974.23Z" fill="#991414" opacity="0.92"/><path d="M809.87,1078.65a3.93,3.93,0,0,1,5.41,1.73,4.23,4.23,0,0,1-1.66,5.61,3.94,3.94,0,0,1-5.42-1.72A4.24,4.24,0,0,1,809.87,1078.65Z" fill="#991414"/><path d="M807,1066.75a4.47,4.47,0,0,1,6.15,2,4.81,4.81,0,0,1-1.89,6.38,4.46,4.46,0,0,1-6.14-2A4.81,4.81,0,0,1,807,1066.75Z" fill="#991414"/><path d="M799.1,1059.38a4.74,4.74,0,0,1,6.52,2.08,5.1,5.1,0,0,1-2,6.76,4.74,4.74,0,0,1-6.52-2.08A5.1,5.1,0,0,1,799.1,1059.38Z" fill="#991414"/><path d="M776.15,1007.69a4.87,4.87,0,0,1,6.7,2.14,5.23,5.23,0,0,1-2.06,6.94,4.86,4.86,0,0,1-6.7-2.13A5.24,5.24,0,0,1,776.15,1007.69Z" fill="#991414"/><path d="M623.72,728a3.46,3.46,0,0,1,4.77,1.52,3.74,3.74,0,0,1-1.46,5,3.49,3.49,0,0,1-4.78-1.52A3.73,3.73,0,0,1,623.72,728Z" fill="#991414" opacity="0.78"/><path d="M606.79,731.56a3.61,3.61,0,0,1,5,1.58,3.87,3.87,0,0,1-1.52,5.14,3.61,3.61,0,0,1-5-1.58A3.87,3.87,0,0,1,606.79,731.56Z" fill="#991414" opacity="0.83"/><path d="M657,787.82a3.67,3.67,0,0,1,5,1.61,3.94,3.94,0,0,1-1.55,5.23,3.67,3.67,0,0,1-5.05-1.61A4,4,0,0,1,657,787.82Z" fill="#991414" opacity="0.85"/><path d="M724.33,807.77a3.74,3.74,0,0,1,5.14,1.64,4,4,0,0,1-1.58,5.33,3.73,3.73,0,0,1-5.14-1.64A4,4,0,0,1,724.33,807.77Z" fill="#991414" opacity="0.88"/><path d="M793.31,926.69a3.82,3.82,0,0,1,5.24,1.67,4.09,4.09,0,0,1-1.61,5.43,3.81,3.81,0,0,1-5.23-1.67A4.1,4.1,0,0,1,793.31,926.69Z" fill="#991414" opacity="0.91"/><path d="M862.19,1021.2a3.94,3.94,0,0,1,5.42,1.73,4.24,4.24,0,0,1-1.67,5.62,3.93,3.93,0,0,1-5.41-1.73A4.24,4.24,0,0,1,862.19,1021.2Z" fill="#991414" opacity="0.99"/><path d="M657.72,684.61a3.46,3.46,0,0,1,4.77,1.52,3.73,3.73,0,0,1-1.47,5,3.48,3.48,0,0,1-4.77-1.52A3.73,3.73,0,0,1,657.72,684.61Z" fill="#991414" opacity="0.77"/><path d="M645.16,639.87a3.59,3.59,0,0,1,5,1.58,3.87,3.87,0,0,1-1.52,5.14,3.61,3.61,0,0,1-5-1.58A3.88,3.88,0,0,1,645.16,639.87Z" fill="#991414" opacity="0.82"/><path d="M758.78,742.7a3.74,3.74,0,0,1,5.14,1.64,4,4,0,0,1-1.58,5.33A3.73,3.73,0,0,1,757.2,748,4,4,0,0,1,758.78,742.7Z" fill="#991414" opacity="0.89"/><path d="M810.17,765.54a3.8,3.8,0,0,1,5.23,1.67,4.09,4.09,0,0,1-1.61,5.42,3.8,3.8,0,0,1-5.23-1.67A4.09,4.09,0,0,1,810.17,765.54Z" fill="#991414" opacity="0.91"/><path d="M1019,1038.15a3.73,3.73,0,0,1,5.14,1.64,4,4,0,0,1-1.58,5.33,3.74,3.74,0,0,1-5.14-1.64A4,4,0,0,1,1019,1038.15Z" fill="#991414" opacity="0.9"/><path d="M985.77,962.77a3.93,3.93,0,0,1,5.42,1.72,4.24,4.24,0,0,1-1.66,5.62,3.94,3.94,0,0,1-5.42-1.73A4.23,4.23,0,0,1,985.77,962.77Z" fill="#991414" opacity="0.97"/><path d="M1041.1,1019.62a3.94,3.94,0,0,1,5.42,1.73,4.23,4.23,0,0,1-1.67,5.61,3.93,3.93,0,0,1-5.41-1.72A4.23,4.23,0,0,1,1041.1,1019.62Z" fill="#991414"/><path d="M1091.27,1043.68a4.56,4.56,0,0,1,6.25,2,4.89,4.89,0,0,1-1.92,6.48,4.54,4.54,0,0,1-6.24-2A4.88,4.88,0,0,1,1091.27,1043.68Z" fill="#991414"/><path d="M1057.16,1010.15a4.74,4.74,0,0,1,6.52,2.08,5.09,5.09,0,0,1-2,6.76,4.74,4.74,0,0,1-6.52-2.08A5.1,5.1,0,0,1,1057.16,1010.15Z" fill="#991414"/><path d="M783.58,662.05a3.48,3.48,0,0,1,4.77,1.52,3.73,3.73,0,0,1-1.47,4.95,3.46,3.46,0,0,1-4.77-1.52A3.73,3.73,0,0,1,783.58,662.05Z" fill="#991414" opacity="0.76"/><path d="M714.87,605.94a3.6,3.6,0,0,1,5,1.58,3.87,3.87,0,0,1-1.52,5.14,3.61,3.61,0,0,1-5-1.58A3.87,3.87,0,0,1,714.87,605.94Z" fill="#991414" opacity="0.82"/><path d="M791.78,613a3.67,3.67,0,0,1,5.05,1.61,4,4,0,0,1-1.55,5.23,3.67,3.67,0,0,1-5-1.61A3.94,3.94,0,0,1,791.78,613Z" fill="#991414" opacity="0.85"/><path d="M795.74,629.31a3.73,3.73,0,0,1,5.14,1.64,4,4,0,0,1-1.58,5.33,3.73,3.73,0,0,1-5.14-1.64A4,4,0,0,1,795.74,629.31Z" fill="#991414" opacity="0.89"/><path d="M851.39,693.87a3.81,3.81,0,0,1,5.23,1.67A4.09,4.09,0,0,1,855,701a3.8,3.8,0,0,1-5.23-1.67A4.09,4.09,0,0,1,851.39,693.87Z" fill="#991414" opacity="0.91"/><path d="M1013.94,901.79a3.73,3.73,0,0,1,5.13,1.63,4,4,0,0,1-1.57,5.33,3.73,3.73,0,0,1-5.14-1.63A4,4,0,0,1,1013.94,901.79Z" fill="#991414" opacity="0.89"/><path d="M1014.27,928.3a3.86,3.86,0,0,1,5.32,1.7,4.15,4.15,0,0,1-1.64,5.52,3.87,3.87,0,0,1-5.32-1.7A4.15,4.15,0,0,1,1014.27,928.3Z" fill="#991414" opacity="0.95"/><path d="M1183,963.88a4.55,4.55,0,0,1,6.24,2,4.89,4.89,0,0,1-1.92,6.48,4.55,4.55,0,0,1-6.24-2A4.87,4.87,0,0,1,1183,963.88Z" fill="#991414"/><path d="M1234.6,989.14a4.67,4.67,0,0,1,6.42,2.05,5,5,0,0,1-2,6.66,4.68,4.68,0,0,1-6.43-2.05A5,5,0,0,1,1234.6,989.14Z" fill="#991414"/><path d="M970.12,778.12a3.33,3.33,0,0,1,4.58,1.46,3.58,3.58,0,0,1-1.41,4.76,3.32,3.32,0,0,1-4.58-1.46A3.58,3.58,0,0,1,970.12,778.12Z" fill="#991414" opacity="0.72"/><path d="M922.22,712.8a3.47,3.47,0,0,1,4.77,1.52,3.72,3.72,0,0,1-1.46,4.95,3.47,3.47,0,0,1-4.78-1.52A3.74,3.74,0,0,1,922.22,712.8Z" fill="#991414" opacity="0.76"/><path d="M937.87,681.17a3.53,3.53,0,0,1,4.86,1.55,3.81,3.81,0,0,1-1.49,5,3.55,3.55,0,0,1-4.87-1.55A3.81,3.81,0,0,1,937.87,681.17Z" fill="#991414" opacity="0.8"/><path d="M968.29,675.6a3.82,3.82,0,0,1,5.24,1.67,4.09,4.09,0,0,1-1.61,5.43,3.8,3.8,0,0,1-5.23-1.67A4.1,4.1,0,0,1,968.29,675.6Z" fill="#991414" opacity="0.9"/><path d="M966.42,734.65a3.8,3.8,0,0,1,5.23,1.67,4.09,4.09,0,0,1-1.6,5.42,3.81,3.81,0,0,1-5.24-1.67A4.09,4.09,0,0,1,966.42,734.65Z" fill="#991414" opacity="0.93"/><path d="M987.74,685.4a3.93,3.93,0,0,1,5.42,1.72,4.24,4.24,0,0,1-1.67,5.62,3.93,3.93,0,0,1-5.41-1.73A4.23,4.23,0,0,1,987.74,685.4Z" fill="#991414"/><path d="M1250.6,1019.71a4,4,0,0,1,5.51,1.76,4.31,4.31,0,0,1-1.7,5.71,4,4,0,0,1-5.5-1.76A4.29,4.29,0,0,1,1250.6,1019.71Z" fill="#991414"/><path d="M1295.47,1011a4.07,4.07,0,0,1,5.6,1.78,4.38,4.38,0,0,1-1.72,5.81,4.07,4.07,0,0,1-5.6-1.79A4.37,4.37,0,0,1,1295.47,1011Z" fill="#991414"/><path d="M1262.69,990.59a4.27,4.27,0,0,1,5.87,1.87,4.59,4.59,0,0,1-1.8,6.1,4.27,4.27,0,0,1-5.87-1.88A4.59,4.59,0,0,1,1262.69,990.59Z" fill="#991414"/><path d="M1304.6,981a4.39,4.39,0,0,1,6.05,1.93,4.73,4.73,0,0,1-1.86,6.28,4.39,4.39,0,0,1-6-1.93A4.73,4.73,0,0,1,1304.6,981Z" fill="#991414"/><path d="M1277.93,900.86a4.6,4.6,0,0,1,6.33,2,5,5,0,0,1-2,6.57,4.6,4.6,0,0,1-6.33-2A4.94,4.94,0,0,1,1277.93,900.86Z" fill="#991414"/><path d="M1280.49,905.58a4.74,4.74,0,0,1,6.52,2.08,5.1,5.1,0,0,1-2,6.76,4.74,4.74,0,0,1-6.52-2.08A5.09,5.09,0,0,1,1280.49,905.58Z" fill="#991414"/><path d="M1345.39,927.77a4.93,4.93,0,0,1,6.79,2.17,5.31,5.31,0,0,1-2.09,7,4.93,4.93,0,0,1-6.79-2.16A5.31,5.31,0,0,1,1345.39,927.77Z" fill="#991414"/><path d="M1390.37,956a5.06,5.06,0,0,1,7,2.23,5.44,5.44,0,0,1-2.14,7.23,5.06,5.06,0,0,1-7-2.22A5.45,5.45,0,0,1,1390.37,956Z" fill="#991414"/><path d="M1080.44,800.21a3.27,3.27,0,0,1,4.5,1.43,3.51,3.51,0,0,1-1.39,4.66,3.26,3.26,0,0,1-4.49-1.43A3.51,3.51,0,0,1,1080.44,800.21Z" fill="#991414" opacity="0.69"/><path d="M1090.76,814.54a3.34,3.34,0,0,1,4.59,1.46,3.6,3.6,0,0,1-1.41,4.76,3.33,3.33,0,0,1-4.59-1.46A3.58,3.58,0,0,1,1090.76,814.54Z" fill="#991414" opacity="0.71"/><path d="M1106.41,781.55a3.48,3.48,0,0,1,4.77,1.52,3.73,3.73,0,0,1-1.47,4.95,3.46,3.46,0,0,1-4.77-1.52A3.73,3.73,0,0,1,1106.41,781.55Z" fill="#991414" opacity="0.75"/><path d="M1057.89,715.46a3.59,3.59,0,0,1,4.95,1.58,3.87,3.87,0,0,1-1.52,5.14,3.61,3.61,0,0,1-5-1.58A3.87,3.87,0,0,1,1057.89,715.46Z" fill="#991414" opacity="0.84"/><path d="M1050.41,696.62a3.67,3.67,0,0,1,5,1.61,4,4,0,0,1-1.55,5.23,3.67,3.67,0,0,1-5.05-1.61A3.94,3.94,0,0,1,1050.41,696.62Z" fill="#991414" opacity="0.86"/><path d="M1038.76,663.89a3.8,3.8,0,0,1,5.23,1.67,4.09,4.09,0,0,1-1.6,5.42,3.81,3.81,0,0,1-5.24-1.66A4.09,4.09,0,0,1,1038.76,663.89Z" fill="#991414" opacity="0.93"/><path d="M1398.58,1036.56a4.06,4.06,0,0,1,5.6,1.78,4.38,4.38,0,0,1-1.72,5.81,4.07,4.07,0,0,1-5.6-1.79A4.37,4.37,0,0,1,1398.58,1036.56Z" fill="#991414"/><path d="M1350.28,895.84a4.32,4.32,0,0,1,6,1.9,4.66,4.66,0,0,1-1.83,6.18,4.33,4.33,0,0,1-6-1.9A4.65,4.65,0,0,1,1350.28,895.84Z" fill="#991414"/><path d="M1372.84,874.59a4.4,4.4,0,0,1,6.06,1.93,4.73,4.73,0,0,1-1.86,6.28,4.4,4.4,0,0,1-6.06-1.93A4.74,4.74,0,0,1,1372.84,874.59Z" fill="#991414"/><path d="M1375.35,909.87a4.53,4.53,0,0,1,6.24,2,4.88,4.88,0,0,1-1.92,6.47,4.53,4.53,0,0,1-6.24-2A4.88,4.88,0,0,1,1375.35,909.87Z" fill="#991414"/><path d="M1378.29,859.24a4.8,4.8,0,0,1,6.61,2.11,5.15,5.15,0,0,1-2,6.85,4.8,4.8,0,0,1-6.61-2.11A5.17,5.17,0,0,1,1378.29,859.24Z" fill="#991414"/><path d="M1417.34,857.31a4.93,4.93,0,0,1,6.79,2.16,5.3,5.3,0,0,1-2.09,7,4.93,4.93,0,0,1-6.79-2.16A5.3,5.3,0,0,1,1417.34,857.31Z" fill="#991414"/><path d="M1703.16,1077.47a5.14,5.14,0,0,1,7.07,2.25,5.52,5.52,0,0,1-2.17,7.33,5.14,5.14,0,0,1-7.07-2.25A5.52,5.52,0,0,1,1703.16,1077.47Z" fill="#991414"/><path d="M1110.05,772.14a3.28,3.28,0,0,1,4.5,1.43,3.52,3.52,0,0,1-1.39,4.67,3.26,3.26,0,0,1-4.49-1.44A3.51,3.51,0,0,1,1110.05,772.14Z" fill="#991414" opacity="0.68"/><path d="M1143.9,791.63a3.33,3.33,0,0,1,4.59,1.46,3.58,3.58,0,0,1-1.41,4.76,3.34,3.34,0,0,1-4.59-1.46A3.58,3.58,0,0,1,1143.9,791.63Z" fill="#991414" opacity="0.72"/><path d="M1148.37,777.22a3.46,3.46,0,0,1,4.77,1.52,3.73,3.73,0,0,1-1.46,5,3.49,3.49,0,0,1-4.78-1.52A3.73,3.73,0,0,1,1148.37,777.22Z" fill="#991414" opacity="0.75"/><path d="M1158.54,744.93a3.54,3.54,0,0,1,4.86,1.55,3.81,3.81,0,0,1-1.49,5A3.55,3.55,0,0,1,1157,750,3.81,3.81,0,0,1,1158.54,744.93Z" fill="#991414" opacity="0.8"/><path d="M1148.84,714.08a3.67,3.67,0,0,1,5.05,1.61,3.94,3.94,0,0,1-1.55,5.23,3.67,3.67,0,0,1-5-1.61A4,4,0,0,1,1148.84,714.08Z" fill="#991414" opacity="0.84"/><path d="M1145.64,683.89a3.74,3.74,0,0,1,5.14,1.63,4,4,0,0,1-1.58,5.34,3.74,3.74,0,0,1-5.14-1.64A4,4,0,0,1,1145.64,683.89Z" fill="#991414" opacity="0.9"/><path d="M1478.54,1006.72a4.07,4.07,0,0,1,5.6,1.78,4.38,4.38,0,0,1-1.72,5.81,4.07,4.07,0,0,1-5.6-1.78A4.38,4.38,0,0,1,1478.54,1006.72Z" fill="#991414"/><path d="M1385.44,835.63a4.26,4.26,0,0,1,5.87,1.87,4.58,4.58,0,0,1-1.8,6.09,4.27,4.27,0,0,1-5.88-1.87A4.59,4.59,0,0,1,1385.44,835.63Z" fill="#991414"/><path d="M1432.26,767.42a4.4,4.4,0,0,1,6.06,1.93,4.73,4.73,0,0,1-1.86,6.28,4.4,4.4,0,0,1-6.06-1.93A4.74,4.74,0,0,1,1432.26,767.42Z" fill="#991414"/><path d="M1461.65,838.61a4.6,4.6,0,0,1,6.33,2,5,5,0,0,1-2,6.57,4.61,4.61,0,0,1-6.33-2A5,5,0,0,1,1461.65,838.61Z" fill="#991414"/><path d="M1583.14,899a4.66,4.66,0,0,1,6.42,2,5,5,0,0,1-2,6.67,4.68,4.68,0,0,1-6.43-2A5,5,0,0,1,1583.14,899Z" fill="#991414"/><path d="M1626,929.58a4.74,4.74,0,0,1,6.52,2.08,5.1,5.1,0,0,1-2,6.76,4.73,4.73,0,0,1-6.51-2.08A5.1,5.1,0,0,1,1626,929.58Z" fill="#991414"/><path d="M1162.28,702.47a3.26,3.26,0,0,1,4.49,1.44,3.5,3.5,0,0,1-1.38,4.66,3.26,3.26,0,0,1-4.49-1.43A3.52,3.52,0,0,1,1162.28,702.47Z" fill="#991414" opacity="0.68"/><path d="M1228,721.71a3.34,3.34,0,0,1,4.59,1.47,3.57,3.57,0,0,1-1.41,4.75,3.33,3.33,0,0,1-4.59-1.46A3.6,3.6,0,0,1,1228,721.71Z" fill="#991414" opacity="0.71"/><path d="M1235.2,730.61a3.4,3.4,0,0,1,4.68,1.49,3.66,3.66,0,0,1-1.44,4.86,3.41,3.41,0,0,1-4.68-1.5A3.66,3.66,0,0,1,1235.2,730.61Z" fill="#991414" opacity="0.75"/><path d="M1247,724.74a3.49,3.49,0,0,1,4.78,1.52,3.73,3.73,0,0,1-1.47,5,3.46,3.46,0,0,1-4.77-1.52A3.73,3.73,0,0,1,1247,724.74Z" fill="#991414" opacity="0.77"/><path d="M1243.84,695.18a3.67,3.67,0,0,1,5.05,1.61,4,4,0,0,1-1.55,5.24,3.67,3.67,0,0,1-5-1.61A4,4,0,0,1,1243.84,695.18Z" fill="#991414" opacity="0.84"/><path d="M1269.39,683.84a3.74,3.74,0,0,1,5.14,1.64,4,4,0,0,1-1.57,5.33,3.73,3.73,0,0,1-5.14-1.63A4,4,0,0,1,1269.39,683.84Z" fill="#991414" opacity="0.89"/><path d="M1307.37,679.07a3.8,3.8,0,0,1,5.23,1.67,4.09,4.09,0,0,1-1.6,5.42,3.81,3.81,0,0,1-5.24-1.66A4.09,4.09,0,0,1,1307.37,679.07Z" fill="#991414" opacity="0.91"/><path d="M1500.88,805.17a4.07,4.07,0,0,1,5.6,1.79,4.37,4.37,0,0,1-1.72,5.8,4.07,4.07,0,0,1-5.6-1.78A4.38,4.38,0,0,1,1500.88,805.17Z" fill="#991414"/><path d="M1469,770.74a4.2,4.2,0,0,1,5.78,1.84,4.52,4.52,0,0,1-1.78,6,4.2,4.2,0,0,1-5.78-1.84A4.53,4.53,0,0,1,1469,770.74Z" fill="#991414"/><path d="M1527.64,721.14a4.4,4.4,0,0,1,6,1.93,4.73,4.73,0,0,1-1.86,6.28,4.41,4.41,0,0,1-6.06-1.93A4.74,4.74,0,0,1,1527.64,721.14Z" fill="#991414"/><path d="M1558.86,775.78a4.53,4.53,0,0,1,6.24,2,4.88,4.88,0,0,1-1.92,6.47,4.53,4.53,0,0,1-6.24-2A4.88,4.88,0,0,1,1558.86,775.78Z" fill="#991414"/><path d="M1645.15,876.1a4.66,4.66,0,0,1,6.42,2,5,5,0,0,1-2,6.66,4.65,4.65,0,0,1-6.42-2A5,5,0,0,1,1645.15,876.1Z" fill="#991414"/><path d="M1757.62,920.59a4.74,4.74,0,0,1,6.52,2.08,5.1,5.1,0,0,1-2,6.76,4.74,4.74,0,0,1-6.52-2.08A5.1,5.1,0,0,1,1757.62,920.59Z" fill="#991414"/><path d="M1841.65,983a4.86,4.86,0,0,1,6.7,2.13,5.24,5.24,0,0,1-2,6.95,4.87,4.87,0,0,1-6.7-2.13A5.24,5.24,0,0,1,1841.65,983Z" fill="#991414"/><path d="M1897.73,1014.05a5,5,0,0,1,6.88,2.19,5.38,5.38,0,0,1-2.11,7.14,5,5,0,0,1-6.89-2.19A5.38,5.38,0,0,1,1897.73,1014.05Z" fill="#991414"/><path d="M1221,616a3.26,3.26,0,0,1,4.49,1.43,3.5,3.5,0,0,1-1.38,4.66,3.26,3.26,0,0,1-4.49-1.43A3.49,3.49,0,0,1,1221,616Z" fill="#991414" opacity="0.68"/><path d="M1249.44,675.61a3.32,3.32,0,0,1,4.58,1.46,3.59,3.59,0,0,1-1.4,4.76,3.33,3.33,0,0,1-4.59-1.46A3.58,3.58,0,0,1,1249.44,675.61Z" fill="#991414" opacity="0.71"/><path d="M1291.49,672.66a3.47,3.47,0,0,1,4.78,1.52,3.74,3.74,0,0,1-1.47,5,3.48,3.48,0,0,1-4.77-1.52A3.72,3.72,0,0,1,1291.49,672.66Z" fill="#991414" opacity="0.75"/><path d="M1313.53,642.69a3.54,3.54,0,0,1,4.86,1.55,3.81,3.81,0,0,1-1.49,5,3.54,3.54,0,0,1-4.87-1.55A3.81,3.81,0,0,1,1313.53,642.69Z" fill="#991414" opacity="0.79"/><path d="M1308.51,637.24a3.67,3.67,0,0,1,5,1.61,4,4,0,0,1-1.55,5.24,3.67,3.67,0,0,1-5-1.61A4,4,0,0,1,1308.51,637.24Z" fill="#991414" opacity="0.85"/><path d="M1349.64,601.65a3.73,3.73,0,0,1,5.14,1.64,4,4,0,0,1-1.58,5.33,3.74,3.74,0,0,1-5.14-1.64A4,4,0,0,1,1349.64,601.65Z" fill="#991414" opacity="0.9"/><path d="M1364,637a3.8,3.8,0,0,1,5.23,1.66,4.09,4.09,0,0,1-1.61,5.43,3.8,3.8,0,0,1-5.23-1.67A4.08,4.08,0,0,1,1364,637Z" fill="#991414" opacity="0.92"/><path d="M1526.76,746.8a4.13,4.13,0,0,1,5.69,1.81,4.46,4.46,0,0,1-1.74,5.91,4.14,4.14,0,0,1-5.69-1.82A4.45,4.45,0,0,1,1526.76,746.8Z" fill="#991414"/><path d="M1564.43,669.68a4.2,4.2,0,0,1,5.78,1.84,4.53,4.53,0,0,1-1.78,6,4.2,4.2,0,0,1-5.78-1.84A4.52,4.52,0,0,1,1564.43,669.68Z" fill="#991414"/><path d="M1611.47,650.92a4.41,4.41,0,0,1,6.06,1.93,4.74,4.74,0,0,1-1.87,6.28,4.4,4.4,0,0,1-6.05-1.93A4.73,4.73,0,0,1,1611.47,650.92Z" fill="#991414"/><path d="M1630.94,709.94a4.54,4.54,0,0,1,6.25,2,4.88,4.88,0,0,1-1.92,6.47,4.53,4.53,0,0,1-6.24-2A4.88,4.88,0,0,1,1630.94,709.94Z" fill="#991414"/><path d="M1733,788.39a4.67,4.67,0,0,1,6.42,2.05,5,5,0,0,1-2,6.67,4.68,4.68,0,0,1-6.43-2.05A5,5,0,0,1,1733,788.39Z" fill="#991414"/><path d="M1796.15,837.5a4.73,4.73,0,0,1,6.52,2.07,5.09,5.09,0,0,1-2,6.76,4.74,4.74,0,0,1-6.52-2.08A5.08,5.08,0,0,1,1796.15,837.5Z" fill="#991414"/><path d="M1905.1,931.18a4.8,4.8,0,0,1,6.61,2.11,5.16,5.16,0,0,1-2,6.85,4.8,4.8,0,0,1-6.61-2.11A5.17,5.17,0,0,1,1905.1,931.18Z" fill="#991414"/><path d="M1916.63,844.12a5,5,0,0,1,6.89,2.19,5.39,5.39,0,0,1-2.12,7.14,5,5,0,0,1-6.88-2.19A5.38,5.38,0,0,1,1916.63,844.12Z" fill="#991414"/><path d="M1253.17,560.8a3.26,3.26,0,0,1,4.49,1.43,3.51,3.51,0,0,1-1.38,4.66,3.27,3.27,0,0,1-4.5-1.43A3.51,3.51,0,0,1,1253.17,560.8Z" fill="#991414" opacity="0.68"/><path d="M1313.32,564.55a3.33,3.33,0,0,1,4.59,1.46,3.58,3.58,0,0,1-1.41,4.76,3.34,3.34,0,0,1-4.59-1.46A3.6,3.6,0,0,1,1313.32,564.55Z" fill="#991414" opacity="0.71"/><path d="M1337.46,588a3.48,3.48,0,0,1,4.77,1.52,3.73,3.73,0,0,1-1.47,5A3.46,3.46,0,0,1,1336,593,3.74,3.74,0,0,1,1337.46,588Z" fill="#991414" opacity="0.75"/><path d="M1345.38,572a3.49,3.49,0,0,1,4.78,1.52,3.73,3.73,0,0,1-1.47,4.95,3.46,3.46,0,0,1-4.77-1.52A3.73,3.73,0,0,1,1345.38,572Z" fill="#991414" opacity="0.78"/><path d="M1360.14,532a3.6,3.6,0,0,1,5,1.57,3.88,3.88,0,0,1-1.52,5.14,3.6,3.6,0,0,1-5-1.57A3.87,3.87,0,0,1,1360.14,532Z" fill="#991414" opacity="0.83"/><path d="M1378.65,499.16a3.74,3.74,0,0,1,5.14,1.64,4,4,0,0,1-1.58,5.33,3.73,3.73,0,0,1-5.14-1.64A4,4,0,0,1,1378.65,499.16Z" fill="#991414" opacity="0.87"/><path d="M1367.78,479.24a3.86,3.86,0,0,1,5.32,1.69,4.15,4.15,0,0,1-1.63,5.52,3.87,3.87,0,0,1-5.33-1.69A4.16,4.16,0,0,1,1367.78,479.24Z" fill="#991414" opacity="0.94"/><path d="M1605,822.15a3.73,3.73,0,0,1,5.14,1.64,4,4,0,0,1-1.57,5.33,3.73,3.73,0,0,1-5.14-1.64A4,4,0,0,1,1605,822.15Z" fill="#991414" opacity="0.9"/><path d="M1666,836.91a3.87,3.87,0,0,1,5.33,1.69,4.17,4.17,0,0,1-1.64,5.52,3.86,3.86,0,0,1-5.32-1.69A4.16,4.16,0,0,1,1666,836.91Z" fill="#991414" opacity="0.95"/><path d="M1677.6,759.45a4,4,0,0,1,5.51,1.75,4.32,4.32,0,0,1-1.7,5.72,4,4,0,0,1-5.5-1.76A4.29,4.29,0,0,1,1677.6,759.45Z" fill="#991414"/><path d="M1622.56,595.18a4.26,4.26,0,0,1,5.87,1.87,4.58,4.58,0,0,1-1.8,6.09,4.28,4.28,0,0,1-5.88-1.87A4.59,4.59,0,0,1,1622.56,595.18Z" fill="#991414"/><path d="M1644.28,570a4.33,4.33,0,0,1,6,1.9,4.67,4.67,0,0,1-1.83,6.19,4.35,4.35,0,0,1-6-1.9A4.66,4.66,0,0,1,1644.28,570Z" fill="#991414"/><path d="M1695.48,540.44a4.53,4.53,0,0,1,6.24,2,4.88,4.88,0,0,1-1.92,6.47,4.53,4.53,0,0,1-6.24-2A4.86,4.86,0,0,1,1695.48,540.44Z" fill="#991414"/><path d="M1854,681a4.72,4.72,0,0,1,6.51,2.07,5.09,5.09,0,0,1-2,6.76,4.74,4.74,0,0,1-6.52-2.08A5.09,5.09,0,0,1,1854,681Z" fill="#991414"/><path d="M1877.43,646a4.87,4.87,0,0,1,6.7,2.14,5.24,5.24,0,0,1-2.05,7,4.87,4.87,0,0,1-6.7-2.14A5.24,5.24,0,0,1,1877.43,646Z" fill="#991414"/><path d="M1896.63,587.67a5.26,5.26,0,0,1,7.25,2.31,5.67,5.67,0,0,1-2.22,7.52,5.27,5.27,0,0,1-7.25-2.31A5.67,5.67,0,0,1,1896.63,587.67Z" fill="#991414"/><path d="M1901.15,432.74a5.47,5.47,0,0,1,7.53,2.39,5.89,5.89,0,0,1-2.32,7.81,5.47,5.47,0,0,1-7.52-2.4A5.87,5.87,0,0,1,1901.15,432.74Z" fill="#991414"/><path d="M1324,482.67a3.34,3.34,0,0,1,4.59,1.47,3.58,3.58,0,0,1-1.41,4.76,3.34,3.34,0,0,1-4.59-1.47A3.58,3.58,0,0,1,1324,482.67Z" fill="#991414" opacity="0.69"/><path d="M1333.36,504.21a3.33,3.33,0,0,1,4.59,1.46,3.58,3.58,0,0,1-1.41,4.76A3.33,3.33,0,0,1,1332,509,3.58,3.58,0,0,1,1333.36,504.21Z" fill="#991414" opacity="0.71"/><path d="M1370.93,468.26a3.46,3.46,0,0,1,4.77,1.52,3.73,3.73,0,0,1-1.46,5,3.47,3.47,0,0,1-4.78-1.52A3.74,3.74,0,0,1,1370.93,468.26Z" fill="#991414" opacity="0.77"/><path d="M1380.8,450.88a3.6,3.6,0,0,1,5,1.58,3.87,3.87,0,0,1-1.52,5.14,3.58,3.58,0,0,1-5-1.58A3.87,3.87,0,0,1,1380.8,450.88Z" fill="#991414" opacity="0.81"/><path d="M1383,436.06a3.6,3.6,0,0,1,5,1.58,3.88,3.88,0,0,1-1.53,5.14,3.61,3.61,0,0,1-5-1.58A3.87,3.87,0,0,1,1383,436.06Z" fill="#991414" opacity="0.83"/><path d="M1397.41,347a3.8,3.8,0,0,1,5.23,1.67,4.09,4.09,0,0,1-1.6,5.42,3.82,3.82,0,0,1-5.24-1.66A4.09,4.09,0,0,1,1397.41,347Z" fill="#991414" opacity="0.91"/><path d="M1387.78,337.31a3.87,3.87,0,0,1,5.32,1.7,4.15,4.15,0,0,1-1.64,5.52,3.86,3.86,0,0,1-5.32-1.69A4.16,4.16,0,0,1,1387.78,337.31Z" fill="#991414" opacity="0.96"/><path d="M1768.94,760.17a4,4,0,0,1,5.51,1.76,4.31,4.31,0,0,1-1.7,5.71,4,4,0,0,1-5.5-1.76A4.29,4.29,0,0,1,1768.94,760.17Z" fill="#991414"/><path d="M1681.59,536.27a4.29,4.29,0,0,1,5.88,1.87,4.61,4.61,0,0,1-1.81,6.1,4.27,4.27,0,0,1-5.87-1.88A4.59,4.59,0,0,1,1681.59,536.27Z" fill="#991414"/><path d="M1727.88,512.27a4.39,4.39,0,0,1,6,1.93,4.73,4.73,0,0,1-1.86,6.28,4.39,4.39,0,0,1-6-1.93A4.73,4.73,0,0,1,1727.88,512.27Z" fill="#991414"/><path d="M1718.4,495.08a4.53,4.53,0,0,1,6.24,2,4.87,4.87,0,0,1-1.91,6.47,4.53,4.53,0,0,1-6.24-2A4.88,4.88,0,0,1,1718.4,495.08Z" fill="#991414"/><path d="M1768.56,432.93A4.66,4.66,0,0,1,1775,435a5,5,0,0,1-2,6.66,4.67,4.67,0,0,1-6.43-2A5,5,0,0,1,1768.56,432.93Z" fill="#991414"/><path d="M1904.31,510.21a4.8,4.8,0,0,1,6.61,2.11,5.15,5.15,0,0,1-2,6.85,4.8,4.8,0,0,1-6.61-2.11A5.17,5.17,0,0,1,1904.31,510.21Z" fill="#991414"/><path d="M1881.94,396.2a5.07,5.07,0,0,1,7,2.22,5.45,5.45,0,0,1-2.15,7.23,5.06,5.06,0,0,1-7-2.22A5.45,5.45,0,0,1,1881.94,396.2Z" fill="#991414"/><path d="M1910.26,320.63a5.27,5.27,0,0,1,7.25,2.31,5.67,5.67,0,0,1-2.23,7.52,5.27,5.27,0,0,1-7.25-2.31A5.66,5.66,0,0,1,1910.26,320.63Z" fill="#991414"/><path d="M1347,427.55a3.27,3.27,0,0,1,4.5,1.44,3.51,3.51,0,0,1-1.38,4.66,3.27,3.27,0,0,1-4.5-1.43A3.52,3.52,0,0,1,1347,427.55Z" fill="#991414" opacity="0.69"/><path d="M1387.83,410.36a3.4,3.4,0,0,1,4.68,1.49,3.66,3.66,0,0,1-1.44,4.86,3.41,3.41,0,0,1-4.68-1.5A3.66,3.66,0,0,1,1387.83,410.36Z" fill="#991414" opacity="0.73"/><path d="M1392.1,411a3.4,3.4,0,0,1,4.68,1.49,3.66,3.66,0,0,1-1.44,4.86,3.4,3.4,0,0,1-4.68-1.49A3.67,3.67,0,0,1,1392.1,411Z" fill="#991414" opacity="0.75"/><path d="M1416.88,340.29a3.52,3.52,0,0,1,4.86,1.55,3.8,3.8,0,0,1-1.49,5,3.54,3.54,0,0,1-4.87-1.55A3.79,3.79,0,0,1,1416.88,340.29Z" fill="#991414" opacity="0.81"/><path d="M1418.71,264.61a3.66,3.66,0,0,1,5,1.61,3.93,3.93,0,0,1-1.55,5.23,3.65,3.65,0,0,1-5-1.6A3.94,3.94,0,0,1,1418.71,264.61Z" fill="#991414" opacity="0.87"/><path d="M1412.93,228.5a3.8,3.8,0,0,1,5.23,1.66,4.08,4.08,0,0,1-1.6,5.43,3.8,3.8,0,0,1-5.23-1.67A4.07,4.07,0,0,1,1412.93,228.5Z" fill="#991414" opacity="0.91"/><path d="M1442.1,190.55a3.94,3.94,0,0,1,5.42,1.72,4.23,4.23,0,0,1-1.66,5.62,3.94,3.94,0,0,1-5.42-1.72A4.23,4.23,0,0,1,1442.1,190.55Z" fill="#991414" opacity="0.97"/><ellipse cx="1702.47" cy="475.63" rx="4.14" ry="4.3" fill="#991414"/><path d="M1711.8,428a4.22,4.22,0,0,1,5.79,1.85,4.51,4.51,0,0,1-1.78,6A4.19,4.19,0,0,1,1710,434,4.53,4.53,0,0,1,1711.8,428Z" fill="#991414"/><path d="M1752.73,414.14a4.34,4.34,0,0,1,6,1.9,4.67,4.67,0,0,1-1.84,6.19,4.33,4.33,0,0,1-6-1.91A4.66,4.66,0,0,1,1752.73,414.14Z" fill="#991414"/><path d="M1765.35,368a4.53,4.53,0,0,1,6.24,2,4.88,4.88,0,0,1-1.92,6.47,4.53,4.53,0,0,1-6.24-2A4.86,4.86,0,0,1,1765.35,368Z" fill="#991414"/><path d="M1847.38,334.71a4.66,4.66,0,0,1,6.42,2,5,5,0,0,1-2,6.67,4.68,4.68,0,0,1-6.43-2.05A5,5,0,0,1,1847.38,334.71Z" fill="#991414"/><path d="M1903.52,322a5,5,0,0,1,6.88,2.19,5.37,5.37,0,0,1-2.12,7.14,5,5,0,0,1-6.88-2.19A5.38,5.38,0,0,1,1903.52,322Z" fill="#991414"/><path d="M1417.5,347.36a3.32,3.32,0,0,1,4.58,1.46,3.58,3.58,0,0,1-1.41,4.76,3.34,3.34,0,0,1-4.59-1.46A3.59,3.59,0,0,1,1417.5,347.36Z" fill="#991414" opacity="0.69"/><path d="M1419.05,367.7a3.33,3.33,0,0,1,4.59,1.46,3.58,3.58,0,0,1-1.41,4.76,3.33,3.33,0,0,1-4.59-1.46A3.59,3.59,0,0,1,1419.05,367.7Z" fill="#991414" opacity="0.72"/><path d="M1467.37,306.32a3.46,3.46,0,0,1,4.77,1.52,3.72,3.72,0,0,1-1.46,5,3.47,3.47,0,0,1-4.78-1.52A3.74,3.74,0,0,1,1467.37,306.32Z" fill="#991414" opacity="0.76"/><path d="M1453.33,272.83a3.55,3.55,0,0,1,4.87,1.55,3.81,3.81,0,0,1-1.5,5.05,3.54,3.54,0,0,1-4.86-1.55A3.81,3.81,0,0,1,1453.33,272.83Z" fill="#991414" opacity="0.81"/><path d="M1439.25,198.49a3.74,3.74,0,0,1,5.14,1.64,4,4,0,0,1-1.58,5.33,3.73,3.73,0,0,1-5.14-1.64A4,4,0,0,1,1439.25,198.49Z" fill="#991414" opacity="0.88"/><path d="M1454.94,112.65a3.87,3.87,0,0,1,5.32,1.7,4.15,4.15,0,0,1-1.64,5.52,3.87,3.87,0,0,1-5.32-1.7A4.16,4.16,0,0,1,1454.94,112.65Z" fill="#991414" opacity="0.94"/><path d="M1482.22,102.6a3.93,3.93,0,0,1,5.42,1.72,4.24,4.24,0,0,1-1.67,5.62,3.93,3.93,0,0,1-5.41-1.73A4.22,4.22,0,0,1,1482.22,102.6Z" fill="#991414" opacity="0.97"/><path d="M1554.77,203.38a4,4,0,0,1,5.5,1.75,4.29,4.29,0,0,1-1.69,5.71,4,4,0,0,1-5.5-1.75A4.29,4.29,0,0,1,1554.77,203.38Z" fill="#991414"/><path d="M1624.67,188.31a4.07,4.07,0,0,1,5.6,1.78,4.38,4.38,0,0,1-1.72,5.81,4.07,4.07,0,0,1-5.6-1.79A4.37,4.37,0,0,1,1624.67,188.31Z" fill="#991414"/><path d="M1658.87,150.87a4.26,4.26,0,0,1,5.87,1.87,4.59,4.59,0,0,1-1.8,6.09,4.27,4.27,0,0,1-5.88-1.87A4.59,4.59,0,0,1,1658.87,150.87Z" fill="#991414"/><path d="M1750.44,287.25a4.34,4.34,0,0,1,6,1.9,4.67,4.67,0,0,1-1.83,6.19,4.34,4.34,0,0,1-6-1.9A4.67,4.67,0,0,1,1750.44,287.25Z" fill="#991414"/><path d="M1809.46,281a4.4,4.4,0,0,1,6.06,1.93,4.74,4.74,0,0,1-1.86,6.29,4.41,4.41,0,0,1-6.06-1.94A4.74,4.74,0,0,1,1809.46,281Z" fill="#991414"/><path d="M1880.81,305.1a4.54,4.54,0,0,1,6.24,2,4.89,4.89,0,0,1-1.92,6.48,4.53,4.53,0,0,1-6.24-2A4.87,4.87,0,0,1,1880.81,305.1Z" fill="#991414"/><path d="M1473,292.7a3.27,3.27,0,0,1,4.5,1.43,3.53,3.53,0,0,1-1.38,4.67,3.27,3.27,0,0,1-4.5-1.44A3.51,3.51,0,0,1,1473,292.7Z" fill="#991414" opacity="0.68"/><path d="M1488,308.56a3.33,3.33,0,0,1,4.59,1.46,3.58,3.58,0,0,1-1.41,4.76,3.34,3.34,0,0,1-4.59-1.47A3.57,3.57,0,0,1,1488,308.56Z" fill="#991414" opacity="0.72"/><path d="M1533.37,269.17a3.46,3.46,0,0,1,4.77,1.52,3.73,3.73,0,0,1-1.47,4.95,3.46,3.46,0,0,1-4.77-1.52A3.74,3.74,0,0,1,1533.37,269.17Z" fill="#991414" opacity="0.75"/><path d="M1535.48,210a3.61,3.61,0,0,1,5,1.58,3.88,3.88,0,0,1-1.52,5.14,3.6,3.6,0,0,1-5-1.58A3.87,3.87,0,0,1,1535.48,210Z" fill="#991414" opacity="0.81"/><path d="M1498.86,162.07a3.66,3.66,0,0,1,5,1.61,3.94,3.94,0,0,1-1.55,5.23,3.67,3.67,0,0,1-5-1.61A3.94,3.94,0,0,1,1498.86,162.07Z" fill="#991414" opacity="0.86"/><path d="M1512.6,93.47a3.8,3.8,0,0,1,5.23,1.67,4.08,4.08,0,0,1-1.61,5.42A3.79,3.79,0,0,1,1511,98.9,4.09,4.09,0,0,1,1512.6,93.47Z" fill="#991414" opacity="0.92"/><path d="M1568.05,71.92a3.86,3.86,0,0,1,5.32,1.7,4.16,4.16,0,0,1-1.63,5.52,3.89,3.89,0,0,1-5.33-1.7A4.17,4.17,0,0,1,1568.05,71.92Z" fill="#991414" opacity="0.96"/><path d="M1627.73,86.46a3.93,3.93,0,0,1,5.41,1.72,4.23,4.23,0,0,1-1.66,5.62,3.94,3.94,0,0,1-5.42-1.73A4.23,4.23,0,0,1,1627.73,86.46Z" fill="#991414"/><ellipse cx="1711.26" cy="113.55" rx="4.14" ry="4.3" fill="#991414"/><path d="M1669.51,90.19a4.2,4.2,0,0,1,5.78,1.84,4.52,4.52,0,0,1-1.77,6,4.21,4.21,0,0,1-5.79-1.84A4.53,4.53,0,0,1,1669.51,90.19Z" fill="#991414"/><path d="M1759.81,70.53a4.32,4.32,0,0,1,6,1.9,4.64,4.64,0,0,1-1.83,6.18,4.32,4.32,0,0,1-6-1.9A4.65,4.65,0,0,1,1759.81,70.53Z" fill="#991414"/><path d="M1860.11,196.61a4.41,4.41,0,0,1,6.06,1.94,4.74,4.74,0,0,1-1.86,6.28,4.4,4.4,0,0,1-6.06-1.93A4.75,4.75,0,0,1,1860.11,196.61Z" fill="#991414"/><path d="M1908.12,200.35a4.53,4.53,0,0,1,6.24,2,4.87,4.87,0,0,1-1.91,6.47,4.54,4.54,0,0,1-6.25-2A4.88,4.88,0,0,1,1908.12,200.35Z" fill="#991414"/><path d="M1515.1,265.9a3.27,3.27,0,0,1,4.5,1.43,3.52,3.52,0,0,1-1.38,4.67,3.27,3.27,0,0,1-4.5-1.43A3.52,3.52,0,0,1,1515.1,265.9Z" fill="#991414" opacity="0.68"/><path d="M1547.93,265.63a3.34,3.34,0,0,1,4.59,1.46,3.6,3.6,0,0,1-1.41,4.76,3.33,3.33,0,0,1-4.59-1.46A3.58,3.58,0,0,1,1547.93,265.63Z" fill="#991414" opacity="0.7"/><path d="M1603.19,249.12a3.41,3.41,0,0,1,4.68,1.5,3.65,3.65,0,0,1-1.44,4.85,3.4,3.4,0,0,1-4.68-1.49A3.67,3.67,0,0,1,1603.19,249.12Z" fill="#991414" opacity="0.75"/><path d="M1610.8,211.39a3.55,3.55,0,0,1,4.87,1.55,3.81,3.81,0,0,1-1.5,5.05,3.54,3.54,0,0,1-4.86-1.55A3.81,3.81,0,0,1,1610.8,211.39Z" fill="#991414" opacity="0.79"/><path d="M1588.08,169.77a3.59,3.59,0,0,1,5,1.58,3.87,3.87,0,0,1-1.52,5.14,3.59,3.59,0,0,1-5-1.58A3.87,3.87,0,0,1,1588.08,169.77Z" fill="#991414" opacity="0.83"/><path d="M1656.78,119.1a3.74,3.74,0,0,1,5.14,1.64,4,4,0,0,1-1.58,5.33,3.73,3.73,0,0,1-5.14-1.64A4,4,0,0,1,1656.78,119.1Z" fill="#991414" opacity="0.88"/><path d="M1658.75,84.63a3.87,3.87,0,0,1,5.33,1.69,4.17,4.17,0,0,1-1.64,5.52,3.86,3.86,0,0,1-5.32-1.69A4.16,4.16,0,0,1,1658.75,84.63Z" fill="#991414" opacity="0.95"/><path d="M1710.69,91.54a4,4,0,0,1,5.51,1.76,4.3,4.3,0,0,1-1.69,5.71,4,4,0,0,1-5.51-1.76A4.31,4.31,0,0,1,1710.69,91.54Z" fill="#991414"/><ellipse cx="1782.25" cy="103.62" rx="4.14" ry="4.3" fill="#991414"/><path d="M1810.08,62.74a4.13,4.13,0,0,1,5.69,1.81,4.46,4.46,0,0,1-1.75,5.91,4.14,4.14,0,0,1-5.69-1.82A4.44,4.44,0,0,1,1810.08,62.74Z" fill="#991414"/><path d="M1848.61,78.46a4.27,4.27,0,0,1,5.88,1.87,4.59,4.59,0,0,1-1.81,6.09,4.26,4.26,0,0,1-5.87-1.87A4.58,4.58,0,0,1,1848.61,78.46Z" fill="#991414"/><path d="M1573.11,228.44a3.26,3.26,0,0,1,4.49,1.44,3.5,3.5,0,0,1-1.38,4.66,3.28,3.28,0,0,1-4.5-1.43A3.52,3.52,0,0,1,1573.11,228.44Z" fill="#991414" opacity="0.67"/><path d="M1626.29,247.11a3.26,3.26,0,0,1,4.49,1.43,3.53,3.53,0,0,1-1.38,4.67,3.27,3.27,0,0,1-4.5-1.44A3.51,3.51,0,0,1,1626.29,247.11Z" fill="#991414" opacity="0.69"/><path d="M1657.79,251.47a3.34,3.34,0,0,1,4.59,1.46,3.59,3.59,0,0,1-1.41,4.76,3.33,3.33,0,0,1-4.59-1.46A3.58,3.58,0,0,1,1657.79,251.47Z" fill="#991414" opacity="0.72"/><path d="M1690.74,223.32a3.48,3.48,0,0,1,4.77,1.52,3.73,3.73,0,0,1-1.47,4.95,3.46,3.46,0,0,1-4.77-1.52A3.73,3.73,0,0,1,1690.74,223.32Z" fill="#991414" opacity="0.77"/><path d="M1707.13,176.46a3.61,3.61,0,0,1,5,1.58,3.88,3.88,0,0,1-1.53,5.14,3.61,3.61,0,0,1-5-1.58A3.87,3.87,0,0,1,1707.13,176.46Z" fill="#991414" opacity="0.82"/><path d="M1758.7,151.07a3.66,3.66,0,0,1,5,1.6,4,4,0,0,1-1.55,5.24,3.67,3.67,0,0,1-5-1.61A3.94,3.94,0,0,1,1758.7,151.07Z" fill="#991414" opacity="0.85"/><path d="M1771.8,114.3A3.8,3.8,0,0,1,1777,116a4.08,4.08,0,0,1-1.61,5.42,3.8,3.8,0,0,1-5.23-1.67A4.09,4.09,0,0,1,1771.8,114.3Z" fill="#991414" opacity="0.9"/><path d="M1786.19,86.07a3.94,3.94,0,0,1,5.42,1.72,4.24,4.24,0,0,1-1.67,5.62,3.93,3.93,0,0,1-5.41-1.72A4.23,4.23,0,0,1,1786.19,86.07Z" fill="#991414" opacity="0.98"/><ellipse cx="1850.97" cy="34.05" rx="4.14" ry="4.3" fill="#991414"/><path d="M1894.06,4.55a4.13,4.13,0,0,1,5.69,1.81,4.44,4.44,0,0,1-1.75,5.9,4.13,4.13,0,0,1-5.69-1.81A4.45,4.45,0,0,1,1894.06,4.55Z" fill="#991414"/><ellipse cx="1658.57" cy="211.2" rx="3.33" ry="3.45" fill="#991414" opacity="0.67"/><path d="M1706.76,225.35a3.27,3.27,0,0,1,4.5,1.44,3.51,3.51,0,0,1-1.39,4.66,3.26,3.26,0,0,1-4.49-1.43A3.52,3.52,0,0,1,1706.76,225.35Z" fill="#991414" opacity="0.68"/><path d="M1742.68,239.56a3.33,3.33,0,0,1,4.58,1.46,3.59,3.59,0,0,1-1.4,4.76,3.33,3.33,0,0,1-4.59-1.46A3.58,3.58,0,0,1,1742.68,239.56Z" fill="#991414" opacity="0.71"/><path d="M1798.64,220.36a3.47,3.47,0,0,1,4.77,1.52,3.73,3.73,0,0,1-1.47,5,3.46,3.46,0,0,1-4.77-1.52A3.73,3.73,0,0,1,1798.64,220.36Z" fill="#991414" opacity="0.76"/><path d="M1816.52,200.17a3.53,3.53,0,0,1,4.86,1.55,3.8,3.8,0,0,1-1.49,5.05,3.53,3.53,0,0,1-4.86-1.55A3.8,3.8,0,0,1,1816.52,200.17Z" fill="#991414" opacity="0.79"/><path d="M1817.49,166.89a3.6,3.6,0,0,1,5,1.57,3.88,3.88,0,0,1-1.52,5.14,3.6,3.6,0,0,1-5-1.57A3.87,3.87,0,0,1,1817.49,166.89Z" fill="#991414" opacity="0.83"/><path d="M1869.29,111.56a3.74,3.74,0,0,1,5.14,1.64,4,4,0,0,1-1.58,5.33,3.73,3.73,0,0,1-5.14-1.64A4,4,0,0,1,1869.29,111.56Z" fill="#991414" opacity="0.9"/><path d="M1868.57,92a3.86,3.86,0,0,1,5.32,1.69,4.16,4.16,0,0,1-1.63,5.52,3.87,3.87,0,0,1-5.33-1.69A4.16,4.16,0,0,1,1868.57,92Z" fill="#991414" opacity="0.94"/><path d="M1893.81,12a4,4,0,0,1,5.5,1.76,4.3,4.3,0,0,1-1.69,5.71,4,4,0,0,1-5.51-1.76A4.31,4.31,0,0,1,1893.81,12Z" fill="#991414"/><path d="M1710,188.77a3.2,3.2,0,0,1,4.41,1.4,3.44,3.44,0,0,1-1.36,4.57,3.19,3.19,0,0,1-4.4-1.4A3.44,3.44,0,0,1,1710,188.77Z" fill="#991414" opacity="0.66"/><path d="M1778.36,222a3.26,3.26,0,0,1,4.49,1.44,3.5,3.5,0,0,1-1.38,4.66,3.28,3.28,0,0,1-4.5-1.43A3.52,3.52,0,0,1,1778.36,222Z" fill="#991414" opacity="0.68"/><path d="M1849.27,228.79a3.33,3.33,0,0,1,4.59,1.46,3.58,3.58,0,0,1-1.41,4.76,3.34,3.34,0,0,1-4.59-1.46A3.6,3.6,0,0,1,1849.27,228.79Z" fill="#991414" opacity="0.7"/><path d="M1837.45,225.8a3.4,3.4,0,0,1,4.68,1.5,3.65,3.65,0,0,1-1.43,4.85,3.41,3.41,0,0,1-4.69-1.49A3.67,3.67,0,0,1,1837.45,225.8Z" fill="#991414" opacity="0.73"/><path d="M1914.89,144a3.6,3.6,0,0,1,4.95,1.58,3.87,3.87,0,0,1-1.52,5.14,3.61,3.61,0,0,1-5-1.58A3.87,3.87,0,0,1,1914.89,144Z" fill="#991414" opacity="0.83"/><path d="M1899.57,54.28a3.73,3.73,0,0,1,5.14,1.64,4,4,0,0,1-1.58,5.33,3.74,3.74,0,0,1-5.14-1.64A4,4,0,0,1,1899.57,54.28Z" fill="#991414" opacity="0.9"/><path d="M1775.44,168.48a3.2,3.2,0,0,1,4.4,1.41,3.45,3.45,0,0,1-1.35,4.57,3.21,3.21,0,0,1-4.41-1.41A3.45,3.45,0,0,1,1775.44,168.48Z" fill="#991414" opacity="0.64"/><path d="M1872.4,202.93a3.27,3.27,0,0,1,4.5,1.43,3.53,3.53,0,0,1-1.38,4.67,3.27,3.27,0,0,1-4.5-1.44A3.51,3.51,0,0,1,1872.4,202.93Z" fill="#991414" opacity="0.67"/><path d="M1887.62,213.61a3.28,3.28,0,0,1,4.5,1.43,3.52,3.52,0,0,1-1.38,4.67,3.27,3.27,0,0,1-4.5-1.43A3.52,3.52,0,0,1,1887.62,213.61Z" fill="#991414" opacity="0.68"/><path d="M1915.71,210.84a3.4,3.4,0,0,1,4.68,1.5,3.65,3.65,0,0,1-1.44,4.85,3.4,3.4,0,0,1-4.68-1.49A3.67,3.67,0,0,1,1915.71,210.84Z" fill="#991414" opacity="0.72"/><path d="M1841.32,154.27a3.13,3.13,0,0,1,4.31,1.37,3.38,3.38,0,0,1-1.32,4.48,3.15,3.15,0,0,1-4.32-1.38A3.37,3.37,0,0,1,1841.32,154.27Z" fill="#991414" opacity="0.63"/></g></g></g></svg>