<svg xmlns="http://www.w3.org/2000/svg" xmlns:xlink="http://www.w3.org/1999/xlink" viewBox="0 0 1920 1080"><defs><radialGradient id="a" cx="-5337.98" cy="-1093.73" r="1687.75" gradientTransform="matrix(1.01, 0, 0, -1.01, 7285.44, 96.59)" gradientUnits="userSpaceOnUse"><stop offset="0"/><stop offset="0.1" stop-color="#060606"/><stop offset="0.22" stop-color="#151515"/><stop offset="0.36" stop-color="#2f2f2f"/><stop offset="0.51" stop-color="#545454"/><stop offset="0.67" stop-color="#838383"/><stop offset="0.83" stop-color="#bcbcbc"/><stop offset="1" stop-color="#fff"/></radialGradient><mask id="b" x="-60.65" y="-16.76" width="1994.67" height="1251.06" maskUnits="userSpaceOnUse"><rect x="-60.65" y="-16.76" width="1994.67" height="1251.06" transform="translate(1873.38 1217.53) rotate(-180)" fill="url(#a)"/></mask></defs><g mask="url(#b)"><g opacity="0.28"><path d="M659.66,1113.57a.36.36,0,0,1-.27,0,.39.39,0,0,1-.28-.47L682,1017.22a.38.38,0,0,1,.46-.29.38.38,0,0,1,.28.47l-22.84,95.92A.41.41,0,0,1,659.66,1113.57Z" fill="red"/></g><g opacity="0.28"><path d="M678.23,1080.89a.37.37,0,0,1-.51-.16l-10.8-19.8a.39.39,0,0,1,.14-.53h0a.37.37,0,0,1,.51.16l10.8,19.8a.39.39,0,0,1-.14.53Z" fill="red"/></g><g opacity="0.33"><path d="M995.48,1123a.46.46,0,0,1-.49,0,.5.5,0,0,1-.11-.68L1068,1014.9a.47.47,0,0,1,.66-.11.49.49,0,0,1,.11.67l-73.15,107.38A.38.38,0,0,1,995.48,1123Z" fill="red"/></g><g opacity="0.53"><path d="M995.74,1123.5a1,1,0,0,1-1,0,1.08,1.08,0,0,1-.43-1.43l22.93-45.35a1,1,0,0,1,1.37-.45,1.08,1.08,0,0,1,.43,1.43l-22.93,45.35A1.08,1.08,0,0,1,995.74,1123.5Z" fill="red"/></g><g opacity="0.33"><path d="M1197,1171a.53.53,0,0,1-.28.07.57.57,0,0,1-.53-.59l4.61-154.74a.55.55,0,1,1,1.1,0l-4.61,154.74A.57.57,0,0,1,1197,1171Z" fill="red"/></g><g opacity="0.35"><path d="M1201.67,1016.3a.59.59,0,0,1-.55,0,.66.66,0,0,1-.31-.85l59.64-136.54a.62.62,0,0,1,.82-.32.67.67,0,0,1,.31.86L1202,1016A.59.59,0,0,1,1201.67,1016.3Z" fill="red"/></g><g opacity="0.36"><path d="M1370.51,1090.2a.66.66,0,0,1-.61,0,.73.73,0,0,1-.32-.93l65-141.93a.67.67,0,0,1,.9-.33.72.72,0,0,1,.32.93l-65,141.93A.63.63,0,0,1,1370.51,1090.2Z" fill="red"/></g><g opacity="0.36"><path d="M1370.52,1090.22a.73.73,0,0,1-.46.07.71.71,0,0,1-.54-.84L1394.26,961a.69.69,0,0,1,.81-.56.72.72,0,0,1,.54.85l-24.74,128.43A.72.72,0,0,1,1370.52,1090.22Z" fill="red"/></g><g opacity="0.4"><path d="M1395.33,961.93a.8.8,0,0,1-.59.08.88.88,0,0,1-.63-1l31.52-141.48a.84.84,0,0,1,1-.66.88.88,0,0,1,.64,1l-31.52,141.48A.87.87,0,0,1,1395.33,961.93Z" fill="red"/></g><g opacity="0.34"><path d="M1435.45,948.26l-.11,0-40.2,13.49a.65.65,0,0,1-.83-.44.67.67,0,0,1,.42-.85L1434.94,947a.64.64,0,0,1,.82.43A.69.69,0,0,1,1435.45,948.26Z" fill="red"/></g><g opacity="0.34"><path d="M1565,907.09a.78.78,0,0,1-.35.08l-153.85-4.86a.72.72,0,0,1-.68-.76.73.73,0,0,1,.73-.71l153.84,4.86a.73.73,0,0,1,.69.76A.75.75,0,0,1,1565,907.09Z" fill="red"/></g><g opacity="0.43"><path d="M1565.18,907.43a1.06,1.06,0,0,1-1.32-.24,1.15,1.15,0,0,1,.09-1.59l97.78-90.89a1.07,1.07,0,0,1,1.54.09,1.17,1.17,0,0,1-.08,1.6l-97.79,90.88A1.07,1.07,0,0,1,1565.18,907.43Z" fill="red"/></g><g opacity="0.28"><path d="M623.4,1064.11a.47.47,0,0,1-.4,0,.47.47,0,0,1-.24-.63l23-55.19a.47.47,0,0,1,.62-.25.5.5,0,0,1,.24.64l-23,55.18A.45.45,0,0,1,623.4,1064.11Z" fill="red"/></g><g opacity="0.36"><path d="M632.9,1085.87h0a.69.69,0,0,1-.94-.36L622.54,1064a.72.72,0,0,1,.35-1,.7.7,0,0,1,.94.37l9.39,21.53A.76.76,0,0,1,632.9,1085.87Z" fill="red"/></g><g opacity="0.28"><path d="M670.4,1049.77a.37.37,0,0,1-.34,0,.42.42,0,0,1-.24-.55L691,992a.4.4,0,0,1,.53-.25.43.43,0,0,1,.24.55l-21.14,57.28A.37.37,0,0,1,670.4,1049.77Z" fill="red"/></g><g opacity="0.28"><path d="M670.4,1049.77a.4.4,0,0,1-.41,0,.44.44,0,0,1-.14-.59l9.93-17.25a.41.41,0,0,1,.57-.15.43.43,0,0,1,.14.59l-9.93,17.25A.35.35,0,0,1,670.4,1049.77Z" fill="red"/></g><g opacity="0.45"><path d="M680.55,1033a.89.89,0,0,1-1.28-1l2.18-14.83a.88.88,0,0,1,1-.76.89.89,0,0,1,.74,1L681,1032.28A.93.93,0,0,1,680.55,1033Z" fill="red"/></g><g opacity="0.34"><path d="M697.07,928.87a.47.47,0,0,1-.55-.08l-9.6-9.62a.5.5,0,0,1,0-.69.45.45,0,0,1,.66,0l9.6,9.62a.5.5,0,0,1,0,.69A.31.31,0,0,1,697.07,928.87Z" fill="red"/></g><g opacity="0.35"><path d="M1027.83,1094.71a.48.48,0,0,1-.35,0,.51.51,0,0,1-.35-.62L1052,996a.48.48,0,0,1,.59-.36.5.5,0,0,1,.35.61l-24.82,98.2A.51.51,0,0,1,1027.83,1094.71Z" fill="red"/></g><g opacity="0.38"><path d="M1027.86,1094.78a.56.56,0,0,1-.74-.22l-9.41-17.07a.59.59,0,0,1,.2-.78h0a.55.55,0,0,1,.74.22l9.41,17.06a.59.59,0,0,1-.21.79Z" fill="red"/></g><g opacity="0.36"><path d="M1018.44,1077.7a.53.53,0,0,1-.6-.07.57.57,0,0,1-.06-.78l50.22-62a.51.51,0,0,1,.75-.07.56.56,0,0,1,.07.78l-50.22,62A.65.65,0,0,1,1018.44,1077.7Z" fill="red"/></g><g opacity="0.32"><path d="M1018.41,1077.64a.48.48,0,0,1-.66-.6L1064.69,950a.48.48,0,0,1,.61-.28.5.5,0,0,1,.27.63l-46.95,127.08A.5.5,0,0,1,1018.41,1077.64Z" fill="red"/></g><g opacity="0.35"><path d="M1204.49,1093.09a.55.55,0,0,1-.5,0,.59.59,0,0,1-.27-.76l47.16-105.6a.54.54,0,0,1,.74-.28.58.58,0,0,1,.26.76l-47.15,105.61A.61.61,0,0,1,1204.49,1093.09Z" fill="red"/></g><g opacity="0.34"><path d="M1204.47,1093.06l-.14,0a.52.52,0,0,1-.61-.42l-22.25-113.76a.56.56,0,0,1,.41-.64.52.52,0,0,1,.61.42l22.24,113.77A.53.53,0,0,1,1204.47,1093.06Z" fill="red"/></g><g opacity="0.43"><path d="M1182.35,979.55a.78.78,0,0,1-.6.06.83.83,0,0,1-.53-1l21.54-74.24a.8.8,0,0,1,1-.55.83.83,0,0,1,.53,1l-21.54,74.24A.81.81,0,0,1,1182.35,979.55Z" fill="red"/></g><g opacity="0.36"><path d="M1182.26,979.37a.55.55,0,0,1-.5,0,.63.63,0,0,1-.34-.81l28.41-75.38a.6.6,0,0,1,.78-.36.65.65,0,0,1,.35.82l-28.41,75.38A.61.61,0,0,1,1182.26,979.37Z" fill="red"/></g><g opacity="0.33"><path d="M1210.65,903.94a.54.54,0,0,1-.57,0,.58.58,0,0,1-.14-.8L1298.65,770a.54.54,0,0,1,.77-.14.58.58,0,0,1,.14.79l-88.71,133.15A.49.49,0,0,1,1210.65,903.94Z" fill="red"/></g><g opacity="0.41"><path d="M1210.75,904.13a.73.73,0,0,1-.69,0,.81.81,0,0,1-.35-1l49.84-107.88a.74.74,0,0,1,1-.37.8.8,0,0,1,.36,1l-49.84,107.88A.75.75,0,0,1,1210.75,904.13Z" fill="red"/></g><g opacity="0.35"><path d="M1261.3,879.75l0,0L1210.65,904a.6.6,0,0,1-.81-.31.62.62,0,0,1,.3-.83l50.62-24.24a.6.6,0,0,1,.8.31A.62.62,0,0,1,1261.3,879.75Z" fill="red"/></g><g opacity="0.36"><path d="M1261.32,879.8a.61.61,0,0,1-.53,0,.68.68,0,0,1-.39-.87l38.09-108.92a.65.65,0,0,1,.84-.4.68.68,0,0,1,.39.87l-38.09,108.91A.64.64,0,0,1,1261.32,879.8Z" fill="red"/></g><g opacity="0.32"><path d="M1261.26,879.69a.48.48,0,0,1-.24.07.55.55,0,0,1-.54-.55l-.78-83.65a.55.55,0,0,1,.53-.56.56.56,0,0,1,.54.55l.78,83.65A.54.54,0,0,1,1261.26,879.69Z" fill="red"/></g><g opacity="0.34"><path d="M1435.42,948.22l-.05,0-62.85,27.37a.59.59,0,0,1-.79-.33.64.64,0,0,1,.33-.82l62.85-27.37a.59.59,0,0,1,.79.33A.64.64,0,0,1,1435.42,948.22Z" fill="red"/></g><g opacity="0.35"><path d="M1435.45,948.26a.61.61,0,0,1-.26.08.67.67,0,0,1-.71-.63l-8.68-128a.69.69,0,0,1,.61-.73.68.68,0,0,1,.7.64l8.69,128A.7.7,0,0,1,1435.45,948.26Z" fill="red"/></g><g opacity="0.32"><path d="M1426.74,820.24a.59.59,0,0,1-.71-.09.67.67,0,0,1,0-.91l111.3-127a.61.61,0,0,1,.88,0,.67.67,0,0,1,0,.91l-111.3,127A.7.7,0,0,1,1426.74,820.24Z" fill="red"/></g><g opacity="0.36"><path d="M1538.11,693.38a.75.75,0,0,1-1-.23.8.8,0,0,1,.16-1.1l125.56-96.67a.75.75,0,0,1,1.07.16.81.81,0,0,1-.16,1.11L1538.2,693.31Z" fill="red"/></g><g opacity="0.38"><path d="M1538.13,693.42a.77.77,0,0,1-.52.09.84.84,0,0,1-.66-1l11-65.75a.81.81,0,0,1,.93-.69.84.84,0,0,1,.66,1l-11,65.75A.84.84,0,0,1,1538.13,693.42Z" fill="red"/></g><g opacity="0.36"><path d="M1662.84,816.3a.8.8,0,0,1-1-.17.87.87,0,0,1,0-1.19l120.45-117.2a.78.78,0,0,1,1.15,0,.87.87,0,0,1,0,1.19L1663,816.17Z" fill="red"/></g><g opacity="0.32"><path d="M1934,912.86l-29.42,10.8a.74.74,0,0,0-.44,1,.71.71,0,0,0,.92.45L1934,914.45Z" fill="red"/></g><g opacity="0.39"><path d="M1934,778.94a.9.9,0,0,0-.7.67l-29.41,144.55a1,1,0,0,0,.73,1.17.88.88,0,0,0,.64-.1,1,1,0,0,0,.49-.66L1934,785.7Z" fill="red"/></g><g opacity="0.35"><path d="M1934,981.48,1905.54,924a.77.77,0,0,0-1.06-.36h0a.83.83,0,0,0-.34,1.1L1934,985.09Z" fill="red"/></g><g opacity="0.22"><path d="M687.23,991.73h0l-40.92,17.07a.31.31,0,0,1-.42-.19.35.35,0,0,1,.18-.44L687,991.11a.33.33,0,0,1,.43.19A.35.35,0,0,1,687.23,991.73Z" fill="red"/></g><g opacity="0.3"><path d="M687.3,991.87a.45.45,0,0,1-.51,0,.51.51,0,0,1-.1-.7l31.19-42.73a.48.48,0,0,1,.68-.09.51.51,0,0,1,.09.7l-31.19,42.72A.36.36,0,0,1,687.3,991.87Z" fill="red"/></g><g opacity="0.38"><path d="M691.68,992.78a.69.69,0,0,1-.45.07l-4.26-.68a.74.74,0,0,1-.61-.86.73.73,0,0,1,.83-.62l4.26.68a.74.74,0,0,1,.61.86A.74.74,0,0,1,691.68,992.78Z" fill="red"/></g><g opacity="0.32"><path d="M716.41,921.92a.47.47,0,0,1-.46,0,.51.51,0,0,1-.18-.69l36.45-67.45a.47.47,0,0,1,.66-.19.51.51,0,0,1,.18.68l-36.45,67.45A.48.48,0,0,1,716.41,921.92Z" fill="red"/></g><g opacity="0.26"><path d="M716.36,921.81a.3.3,0,0,1-.18,0,.37.37,0,0,1-.36-.38l1.9-75.55a.36.36,0,0,1,.37-.37.37.37,0,0,1,.35.39l-1.89,75.55A.37.37,0,0,1,716.36,921.81Z" fill="red"/></g><g opacity="0.39"><path d="M718.37,846.5a.57.57,0,0,1-.48,0,.64.64,0,0,1-.4-.81l20.57-66.05a.61.61,0,0,1,.78-.42.64.64,0,0,1,.4.81l-20.57,66.06A.65.65,0,0,1,718.37,846.5Z" fill="red"/></g><g opacity="0.36"><path d="M718.34,846.43a.58.58,0,0,1-.17.06.55.55,0,0,1-.64-.47l-5.71-36a.58.58,0,0,1,.46-.66.55.55,0,0,1,.63.47l5.71,36A.58.58,0,0,1,718.34,846.43Z" fill="red"/></g><g opacity="0.3"><path d="M712.55,810.29a.4.4,0,0,1-.32,0,.41.41,0,0,1-.22-.51l42-115.78a.37.37,0,0,1,.49-.23.4.4,0,0,1,.22.5l-42,115.79A.39.39,0,0,1,712.55,810.29Z" fill="red"/></g><g opacity="0.32"><path d="M712.58,810.35a.44.44,0,0,1-.49-.05.46.46,0,0,1-.07-.65l29.23-37.83a.44.44,0,0,1,.63-.07.46.46,0,0,1,.07.65l-29.23,37.83A.53.53,0,0,1,712.58,810.35Z" fill="red"/></g><g opacity="0.34"><path d="M712.59,810.37a.46.46,0,0,1-.53-.07.5.5,0,0,1,0-.69l26.29-30.06a.45.45,0,0,1,.65,0,.49.49,0,0,1,0,.68l-26.29,30.06A.63.63,0,0,1,712.59,810.37Z" fill="red"/></g><g opacity="0.34"><path d="M741.81,772.53a.43.43,0,0,1-.4,0,.46.46,0,0,1-.21-.61l40.12-88a.43.43,0,0,1,.59-.22.48.48,0,0,1,.22.62L742,772.31A.43.43,0,0,1,741.81,772.53Z" fill="red"/></g><g opacity="0.43"><path d="M1000.39,1054.11a.56.56,0,0,1-.46.05.66.66,0,0,1-.45-.81l11.33-43.68a.65.65,0,0,1,.79-.47.66.66,0,0,1,.45.81l-11.34,43.69A.67.67,0,0,1,1000.39,1054.11Z" fill="red"/></g><g opacity="0.36"><path d="M1052.65,996.52l-.08,0-41,13.77a.48.48,0,0,1-.61-.33.5.5,0,0,1,.31-.63l41-13.76a.48.48,0,0,1,.61.32A.52.52,0,0,1,1052.65,996.52Z" fill="red"/></g><g opacity="0.32"><path d="M1052.62,996.47a.44.44,0,0,1-.32,0,.45.45,0,0,1-.29-.56l12.7-46a.44.44,0,0,1,.54-.31.45.45,0,0,1,.29.56l-12.71,46A.42.42,0,0,1,1052.62,996.47Z" fill="red"/></g><g opacity="0.37"><path d="M1147.49,917.48l-.06,0-82.09,33.16a.56.56,0,0,1-.74-.33.6.6,0,0,1,.32-.77L1147,916.4a.58.58,0,0,1,.74.34A.61.61,0,0,1,1147.49,917.48Z" fill="red"/></g><g opacity="0.32"><path d="M1180.8,887.63h0l-115.46,62.9a.43.43,0,0,1-.61-.19.48.48,0,0,1,.19-.63h0l115.46-62.9a.44.44,0,0,1,.61.2A.46.46,0,0,1,1180.8,887.63Z" fill="red"/></g><g opacity="0.33"><path d="M1256.29,891.45l-.12,0-108.84,25.94a.47.47,0,0,1-.58-.37.49.49,0,0,1,.37-.6l108.83-26a.49.49,0,0,1,.58.38A.51.51,0,0,1,1256.29,891.45Z" fill="red"/></g><g opacity="0.37"><path d="M1147.5,917.49a.57.57,0,0,1-.75-.18.63.63,0,0,1,.13-.85l88.63-66.4a.58.58,0,0,1,.82.14.63.63,0,0,1-.13.85l-88.63,66.4Z" fill="red"/></g><g opacity="0.39"><path d="M1147.52,917.53a.63.63,0,0,1-.77-.15.67.67,0,0,1,.07-.91l33.37-29.74a.61.61,0,0,1,.88.07.67.67,0,0,1-.07.91l-33.37,29.74Z" fill="red"/></g><g opacity="0.39"><path d="M1251.68,987.56a.54.54,0,0,1-.33.08.65.65,0,0,1-.6-.7l4.67-96a.64.64,0,0,1,.67-.63.66.66,0,0,1,.61.69L1252,987A.66.66,0,0,1,1251.68,987.56Z" fill="red"/></g><g opacity="0.34"><path d="M1251.63,987.47a.53.53,0,0,1-.71-.21l-47.86-82.39a.57.57,0,0,1,.19-.76.54.54,0,0,1,.73.19l47.86,82.39a.56.56,0,0,1-.18.76Z" fill="red"/></g><g opacity="0.37"><path d="M1260.54,796.16a.64.64,0,0,1-.6,0,.7.7,0,0,1-.3-.91l51.77-110a.64.64,0,0,1,.87-.32.69.69,0,0,1,.31.91l-51.77,110A.68.68,0,0,1,1260.54,796.16Z" fill="red"/></g><g opacity="0.51"><path d="M1260.76,796.59a1.11,1.11,0,0,1-1.48-.41,1.19,1.19,0,0,1,.36-1.61l38.87-25.27a1.13,1.13,0,0,1,1.55.37,1.18,1.18,0,0,1-.36,1.6l-38.87,25.28Z" fill="red"/></g><g opacity="0.34"><path d="M1299.39,770.84a.57.57,0,0,1-.54,0,.63.63,0,0,1-.29-.83l68.81-152.25a.6.6,0,0,1,.8-.31.64.64,0,0,1,.3.84l-68.82,152.25A.57.57,0,0,1,1299.39,770.84Z" fill="red"/></g><g opacity="0.34"><path d="M1299.38,770.82a.58.58,0,0,1-.37.07.6.6,0,0,1-.48-.7l12.89-84.7a.59.59,0,0,1,.67-.51.62.62,0,0,1,.49.7l-12.89,84.7A.58.58,0,0,1,1299.38,770.82Z" fill="red"/></g><g opacity="0.35"><path d="M1299.39,770.84a.6.6,0,0,1-.64,0,.66.66,0,0,1-.14-.88l60-86.86a.59.59,0,0,1,.84-.15.63.63,0,0,1,.14.88l-60,86.86A.63.63,0,0,1,1299.39,770.84Z" fill="red"/></g><g opacity="0.34"><path d="M1359.43,684a.58.58,0,0,1-.35.07.64.64,0,0,1-.56-.7l16.69-181.94a.62.62,0,1,1,1.24.12l-16.69,181.94A.64.64,0,0,1,1359.43,684Z" fill="red"/></g><g opacity="0.33"><path d="M1359.42,684a.56.56,0,0,1-.36.06.6.6,0,0,1-.5-.68l8.78-65.39a.58.58,0,0,1,.66-.52.61.61,0,0,1,.5.69l-8.78,65.38A.58.58,0,0,1,1359.42,684Z" fill="red"/></g><g opacity="0.37"><path d="M1418.6,659.64l-.07,0-59.12,24.45a.72.72,0,0,1-.94-.42.78.78,0,0,1,.4-1L1418,658.28a.72.72,0,0,1,1,.42A.76.76,0,0,1,1418.6,659.64Z" fill="red"/></g><g opacity="0.33"><path d="M1418.56,659.55a.61.61,0,0,1-.56,0,.65.65,0,0,1-.3-.85l83.5-188.62a.61.61,0,0,1,.83-.32.66.66,0,0,1,.3.86l-83.5,188.62A.72.72,0,0,1,1418.56,659.55Z" fill="red"/></g><g opacity="0.38"><path d="M1549.19,627.7a.84.84,0,0,1-.91-.08.91.91,0,0,1-.16-1.23l79-106.87a.84.84,0,0,1,1.19-.16.89.89,0,0,1,.15,1.23l-79,106.86A.83.83,0,0,1,1549.19,627.7Z" fill="red"/></g><g opacity="0.41"><path d="M1663.75,596.85a.84.84,0,0,1-.2.08L1549,627.84a.92.92,0,0,1-1.12-.68,1,1,0,0,1,.65-1.16l114.53-30.9a.9.9,0,0,1,1.11.68A1,1,0,0,1,1663.75,596.85Z" fill="red"/></g><g opacity="0.36"><path d="M1663.68,596.73a.76.76,0,0,1-.87-.1.85.85,0,0,1-.09-1.14l88.63-107.91a.75.75,0,0,1,1.09-.09.81.81,0,0,1,.09,1.13l-88.62,107.92A.83.83,0,0,1,1663.68,596.73Z" fill="red"/></g><g opacity="0.35"><path d="M1663.66,596.69l0,0a.74.74,0,0,1-1-.36l-35.51-76a.74.74,0,0,1,.35-1,.74.74,0,0,1,1,.36l35.5,76A.76.76,0,0,1,1663.66,596.69Z" fill="red"/></g><g opacity="0.34"><path d="M1783.27,699.05a.75.75,0,0,1-.94-.19.81.81,0,0,1,.09-1.11l118.36-103.86a.74.74,0,0,1,1.07.1.81.81,0,0,1-.09,1.11L1783.4,699Z" fill="red"/></g><g opacity="0.34"><path d="M1934,778.81l-150.76-81.16a.74.74,0,0,0-1,.34.79.79,0,0,0,.32,1.06l151.34,81.47s.08,0,.12,0Z" fill="red"/></g><g opacity="0.23"><path d="M716.87,928.68a.34.34,0,0,1-.47-.15.36.36,0,0,1,.15-.48L787,889.25a.34.34,0,0,1,.47.14.38.38,0,0,1-.14.49Z" fill="red"/></g><g opacity="0.24"><path d="M716.88,928.7a.35.35,0,0,1-.43-.08.38.38,0,0,1,0-.53l55.48-54.72a.36.36,0,0,1,.52,0,.4.4,0,0,1,0,.54L717,928.64Z" fill="red"/></g><g opacity="0.29"><path d="M718.49,949.15a.53.53,0,0,1-.19.06.5.5,0,0,1-.52-.47l-1.55-20.34a.49.49,0,0,1,.44-.54.49.49,0,0,1,.52.47l1.56,20.34A.51.51,0,0,1,718.49,949.15Z" fill="red"/></g><g opacity="0.24"><path d="M718.44,949A.36.36,0,0,1,718,949a.39.39,0,0,1,0-.53l68.9-59.15a.35.35,0,0,1,.51.05.39.39,0,0,1,0,.53L718.5,949Z" fill="red"/></g><g opacity="0.27"><path d="M766.83,887.82a.39.39,0,0,1-.53-.17.42.42,0,0,1,.16-.56l66-37.15h0a.39.39,0,0,1,.54.16.42.42,0,0,1-.17.56l-66,37.15Z" fill="red"/></g><g opacity="0.24"><path d="M787.32,889.86a.31.31,0,0,1-.19,0l-20.52-2.11a.34.34,0,0,1,.07-.68l20.52,2.11a.35.35,0,0,1,.12.64Z" fill="red"/></g><g opacity="0.3"><path d="M766.87,887.88h0a.45.45,0,0,1-.61-.25l-14-33.42a.51.51,0,0,1,.25-.64.46.46,0,0,1,.61.25l14,33.43A.51.51,0,0,1,766.87,887.88Z" fill="red"/></g><g opacity="0.26"><path d="M752.81,854.36a.36.36,0,0,1-.46-.11.39.39,0,0,1,.08-.53L834.61,791a.34.34,0,0,1,.5.08.38.38,0,0,1-.07.52l-82.18,62.78Z" fill="red"/></g><g opacity="0.31"><path d="M738.85,780.25a.45.45,0,0,1-.28,0,.44.44,0,0,1-.33-.51L754,694.07a.42.42,0,0,1,.48-.34.43.43,0,0,1,.33.51L739.06,780A.45.45,0,0,1,738.85,780.25Z" fill="red"/></g><g opacity="0.34"><path d="M738.88,780.32a.48.48,0,0,1-.64-.19.51.51,0,0,1,.17-.69L798,743h0a.48.48,0,0,1,.64.19.51.51,0,0,1-.17.69L738.9,780.3S738.88,780.31,738.88,780.32Z" fill="red"/></g><g opacity="0.44"><path d="M782,684.78l-.09,0-27.32,10a.67.67,0,0,1-.86-.42.7.7,0,0,1,.41-.89l27.32-10a.67.67,0,0,1,.86.43A.71.71,0,0,1,782,684.78Z" fill="red"/></g><g opacity="0.38"><path d="M812.29,675.42l-.09,0L754.57,694.7a.54.54,0,0,1-.69-.37.57.57,0,0,1,.35-.72l57.63-19.24a.55.55,0,0,1,.7.37A.59.59,0,0,1,812.29,675.42Z" fill="red"/></g><g opacity="0.35"><path d="M867.74,653.85l-.07,0-85.8,30.74a.46.46,0,0,1-.59-.3.5.5,0,0,1,.29-.62L867.37,653a.46.46,0,0,1,.59.3A.49.49,0,0,1,867.74,653.85Z" fill="red"/></g><g opacity="0.33"><path d="M812.23,675.29l-.08,0-30.31,9.24a.42.42,0,0,1-.52-.29.43.43,0,0,1,.28-.53l30.32-9.25a.4.4,0,0,1,.51.29A.43.43,0,0,1,812.23,675.29Z" fill="red"/></g><g opacity="0.35"><path d="M924.44,770.41a.21.21,0,0,1-.11,0l-69.94,15a.44.44,0,0,1-.53-.36.47.47,0,0,1,.35-.55l69.93-15a.45.45,0,0,1,.53.36A.46.46,0,0,1,924.44,770.41Z" fill="red"/></g><g opacity="0.35"><path d="M924.45,770.43a.48.48,0,0,1-.42,0,.5.5,0,0,1-.22-.65l44.9-98a.46.46,0,0,1,.63-.23.49.49,0,0,1,.22.64l-44.91,98A.47.47,0,0,1,924.45,770.43Z" fill="red"/></g><g opacity="0.33"><path d="M924.44,770.39a.43.43,0,0,1-.53-.09.45.45,0,0,1,0-.63l84.64-78.56a.42.42,0,0,1,.61,0,.48.48,0,0,1,0,.64l-84.65,78.55A.16.16,0,0,1,924.44,770.39Z" fill="red"/></g><g opacity="0.4"><path d="M958.8,733.28a.56.56,0,0,1-.38.06.6.6,0,0,1-.47-.7l10.61-60.74a.58.58,0,0,1,.68-.49.6.6,0,0,1,.47.7L959.1,732.85A.6.6,0,0,1,958.8,733.28Z" fill="red"/></g><g opacity="0.41"><path d="M1109.48,863.52a.63.63,0,0,1-.23.08l-59,6.23a.64.64,0,0,1-.69-.57.64.64,0,0,1,.56-.71l59-6.24a.63.63,0,0,1,.68.58A.64.64,0,0,1,1109.48,863.52Z" fill="red"/></g><g opacity="0.32"><path d="M1109.39,863.36a.43.43,0,0,1-.56-.12.47.47,0,0,1,.08-.65l98.72-80.48a.43.43,0,0,1,.63.08.48.48,0,0,1-.07.65l-98.73,80.48Z" fill="red"/></g><g opacity="0.4"><path d="M1109.48,863.52a.58.58,0,0,1-.62,0,.65.65,0,0,1-.2-.89l50.65-84.33a.6.6,0,0,1,.85-.21.66.66,0,0,1,.2.89l-50.65,84.34A.69.69,0,0,1,1109.48,863.52Z" fill="red"/></g><g opacity="0.4"><path d="M1180.89,887.81a.64.64,0,0,1-.84-.23.68.68,0,0,1,.2-.92L1235.51,850a.63.63,0,0,1,.88.2.68.68,0,0,1-.19.91l-55.26,36.67Z" fill="red"/></g><g opacity="0.34"><path d="M1180.83,887.68a.47.47,0,0,1-.37,0,.51.51,0,0,1-.35-.63l27.31-104.75a.5.5,0,0,1,.62-.36.51.51,0,0,1,.35.63l-27.31,104.75A.51.51,0,0,1,1180.83,887.68Z" fill="red"/></g><g opacity="0.35"><path d="M1236.09,851a.5.5,0,0,1-.6-.08.57.57,0,0,1,0-.77l80.7-87.46a.52.52,0,0,1,.74,0,.56.56,0,0,1,0,.76l-80.7,87.47A.71.71,0,0,1,1236.09,851Z" fill="red"/></g><g opacity="0.4"><path d="M1256.37,891.61h0a.63.63,0,0,1-.88-.29l-20.21-40.45a.68.68,0,0,1,.28-.91h0a.64.64,0,0,1,.88.29l20.21,40.46A.69.69,0,0,1,1256.37,891.61Z" fill="red"/></g><g opacity="0.36"><path d="M1260.6,626.35a.62.62,0,0,1-.59,0,.66.66,0,0,1-.25-.87l60.1-116.23a.61.61,0,0,1,.84-.26.65.65,0,0,1,.25.87l-60.1,116.23A.6.6,0,0,1,1260.6,626.35Z" fill="red"/></g><g opacity="0.38"><path d="M1312.32,686.22a.67.67,0,0,1-.77-.09.73.73,0,0,1-.08-1l55.92-67.55a.67.67,0,0,1,1-.08.73.73,0,0,1,.07,1l-55.92,67.55A.79.79,0,0,1,1312.32,686.22Z" fill="red"/></g><g opacity="0.33"><path d="M1368.19,618.57a.61.61,0,0,1-.44,0,.62.62,0,0,1-.4-.76l43.79-153.41a.59.59,0,0,1,.73-.41.62.62,0,0,1,.4.76l-43.79,153.41A.59.59,0,0,1,1368.19,618.57Z" fill="red"/></g><g opacity="0.37"><path d="M1368.23,618.65a.64.64,0,0,1-.36.08.69.69,0,0,1-.62-.75l7.91-116.55a.68.68,0,0,1,.72-.65.69.69,0,0,1,.62.75l-7.91,116.55A.71.71,0,0,1,1368.23,618.65Z" fill="red"/></g><g opacity="0.32"><path d="M1376.1,502a.57.57,0,0,1-.48,0,.62.62,0,0,1-.34-.78l68-188.93a.57.57,0,0,1,.75-.36.61.61,0,0,1,.34.78l-68,188.93A.57.57,0,0,1,1376.1,502Z" fill="red"/></g><g opacity="0.4"><path d="M1752.36,488.92a.66.66,0,0,1-.21.08L1628,521a.89.89,0,0,1-1.09-.68.94.94,0,0,1,.66-1.13l124.12-32a.9.9,0,0,1,1.09.68A1,1,0,0,1,1752.36,488.92Z" fill="red"/></g><g opacity="0.44"><path d="M1752.42,489.05a1,1,0,0,1-1.33-.33,1.1,1.1,0,0,1,.25-1.5l76.39-55.77a1,1,0,0,1,1.44.26,1.1,1.1,0,0,1-.25,1.5L1752.53,489Z" fill="red"/></g><g opacity="0.42"><path d="M1934,573.87l-33.25,19.72a1.06,1.06,0,0,0-.37,1.42,1,1,0,0,0,1.33.4h0L1934,576.26Z" fill="red"/></g><g opacity="0.33"><path d="M1934,602.28l-32.58-8.5a.7.7,0,0,0-.86.54.73.73,0,0,0,.51.89l32.93,8.58Z" fill="red"/></g><g opacity="0.24"><path d="M847.32,847l-.05,0-74.95,27a.38.38,0,0,1-.49-.25.41.41,0,0,1,.24-.5l74.94-27a.37.37,0,0,1,.49.24A.41.41,0,0,1,847.32,847Z" fill="red"/></g><g opacity="0.32"><path d="M772.46,874.17a.56.56,0,0,1-.75-.22.59.59,0,0,1,.19-.81L814,846.34a.55.55,0,0,1,.78.2.61.61,0,0,1-.19.81l-42.09,26.8Z" fill="red"/></g><g opacity="0.23"><path d="M787.33,889.88a.34.34,0,0,1-.41-.07l-15-15.92a.36.36,0,0,1,0-.5.34.34,0,0,1,.49,0l15,15.92a.38.38,0,0,1,0,.51Z" fill="red"/></g><g opacity="0.27"><path d="M787.36,889.94a.4.4,0,0,1-.52-.1.45.45,0,0,1,.06-.61L832.38,850a.4.4,0,0,1,.58.06.43.43,0,0,1-.05.6l-45.48,39.26Z" fill="red"/></g><g opacity="0.29"><path d="M902.64,830.61l-.09,0-69.78,20.11a.46.46,0,0,1-.56-.32.49.49,0,0,1,.31-.58l69.79-20.1a.45.45,0,0,1,.56.32A.48.48,0,0,1,902.64,830.61Z" fill="red"/></g><g opacity="0.34"><path d="M835.07,791.74a.52.52,0,0,1-.68-.16.59.59,0,0,1,.11-.78l52.6-40.22a.51.51,0,0,1,.75.12.57.57,0,0,1-.11.77l-52.6,40.23Z" fill="red"/></g><g opacity="0.29"><path d="M910.31,793a.36.36,0,0,1-.21,0l-75.29-1.33a.42.42,0,0,1-.4-.44.42.42,0,0,1,.42-.42l75.29,1.33a.43.43,0,0,1,.41.44A.47.47,0,0,1,910.31,793Z" fill="red"/></g><g opacity="0.28"><path d="M835,791.61a.39.39,0,0,1-.5-.1l-36.6-47.87a.43.43,0,0,1,.07-.58.4.4,0,0,1,.56.07L835.13,791a.42.42,0,0,1-.06.58Z" fill="red"/></g><g opacity="0.28"><path d="M887.59,751.36a.34.34,0,0,1-.2,0l-89.19-7.64a.37.37,0,0,1-.33-.41.36.36,0,0,1,.39-.34l89.19,7.64a.37.37,0,0,1,.33.41A.39.39,0,0,1,887.59,751.36Z" fill="red"/></g><g opacity="0.33"><path d="M798.44,743.81a.47.47,0,0,1-.31.05.49.49,0,0,1-.36-.57l13.81-68.48a.46.46,0,0,1,.55-.37.48.48,0,0,1,.36.57l-13.81,68.47A.46.46,0,0,1,798.44,743.81Z" fill="red"/></g><g opacity="0.33"><path d="M867.73,653.84l-.05,0-55.49,21.49a.45.45,0,0,1-.58-.27.47.47,0,0,1,.27-.6L867.36,653a.45.45,0,0,1,.58.27A.49.49,0,0,1,867.73,653.84Z" fill="red"/></g><g opacity="0.35"><path d="M958.44,666.56a.39.39,0,0,1-.28.05L867.45,653.9a.48.48,0,0,1,.13-1l90.7,12.71a.48.48,0,0,1,.4.55A.47.47,0,0,1,958.44,666.56Z" fill="red"/></g><g opacity="0.35"><path d="M927.44,668.45a.44.44,0,0,1-.32,0l-59.71-14.61a.48.48,0,0,1-.35-.58.47.47,0,0,1,.56-.36l59.71,14.61a.48.48,0,0,1,.35.58A.45.45,0,0,1,927.44,668.45Z" fill="red"/></g><g opacity="0.38"><path d="M1010.47,673.65a.67.67,0,0,1-.28.06l-83-5.15a.53.53,0,0,1-.48-.57.52.52,0,0,1,.55-.5l83,5.15a.52.52,0,0,1,.49.56A.55.55,0,0,1,1010.47,673.65Z" fill="red"/></g><g opacity="0.37"><path d="M958.45,666.58a.46.46,0,0,1-.2,0l-31,1.9a.5.5,0,0,1-.51-.47.52.52,0,0,1,.46-.54l31-1.89a.48.48,0,0,1,.51.47A.49.49,0,0,1,958.45,666.58Z" fill="red"/></g><g opacity="0.34"><path d="M1109.88,644.91h0l-100.8,47a.44.44,0,0,1-.59-.24.49.49,0,0,1,.22-.61l100.8-46.95a.44.44,0,0,1,.59.23A.48.48,0,0,1,1109.88,644.91Z" fill="red"/></g><g opacity="0.4"><path d="M1080.14,682a.44.44,0,0,1-.19.07L1009,692a.59.59,0,0,1-.15-1.17l71-9.93a.57.57,0,0,1,.64.5A.61.61,0,0,1,1080.14,682Z" fill="red"/></g><g opacity="0.33"><path d="M1009.08,691.84a.46.46,0,0,1-.23,0,.45.45,0,0,1-.4-.48l1.34-18.27a.43.43,0,1,1,.86.07l-1.34,18.27A.45.45,0,0,1,1009.08,691.84Z" fill="red"/></g><g opacity="0.41"><path d="M1009.16,692a.6.6,0,0,1-.54,0l-39.74-19.44a.63.63,0,0,1-.29-.83.59.59,0,0,1,.8-.3l39.75,19.43a.65.65,0,0,1,.29.84A.69.69,0,0,1,1009.16,692Z" fill="red"/></g><g opacity="0.37"><path d="M1148.52,660.83a.6.6,0,0,1-.3.06L1059.45,653a.55.55,0,0,1-.48-.6.54.54,0,0,1,.57-.51l88.78,7.87a.55.55,0,0,1,.48.6A.56.56,0,0,1,1148.52,660.83Z" fill="red"/></g><g opacity="0.42"><path d="M1208.22,783.08a.64.64,0,0,1-.36.08l-48.08-3.86a.68.68,0,0,1-.6-.74.67.67,0,0,1,.7-.62L1208,781.8a.67.67,0,0,1,.6.73A.69.69,0,0,1,1208.22,783.08Z" fill="red"/></g><g opacity="0.37"><path d="M1316.82,763.61a.55.55,0,0,1-.62-.06.61.61,0,0,1-.09-.83l25.82-33.08a.56.56,0,0,1,.81-.09.61.61,0,0,1,.08.83L1317,763.46A.65.65,0,0,1,1316.82,763.61Z" fill="red"/></g><g opacity="0.36"><path d="M1320.69,510.1a.58.58,0,0,1-.72-.12.65.65,0,0,1,0-.89l101.19-99.84a.59.59,0,0,1,.86,0,.65.65,0,0,1,0,.89L1320.82,510A.57.57,0,0,1,1320.69,510.1Z" fill="red"/></g><g opacity="0.47"><path d="M1369.86,489.34l-.08,0-49,21a.89.89,0,0,1-1.19-.51,1,1,0,0,1,.49-1.24l49-21.05a.89.89,0,0,1,1.19.52A1,1,0,0,1,1369.86,489.34Z" fill="red"/></g><g opacity="0.36"><path d="M1398.73,497.28a.7.7,0,0,1-.19.06l-78,12.84a.62.62,0,0,1-.71-.53.66.66,0,0,1,.52-.74l78-12.84a.62.62,0,0,1,.71.53A.67.67,0,0,1,1398.73,497.28Z" fill="red"/></g><g opacity="0.41"><path d="M1398.8,497.42a.75.75,0,0,1-.57.06.81.81,0,0,1-.54-1l23.16-87a.78.78,0,0,1,1-.56.81.81,0,0,1,.54,1l-23.16,87A.83.83,0,0,1,1398.8,497.42Z" fill="red"/></g><g opacity="0.36"><path d="M1398.74,497.29a.59.59,0,0,1-.55,0,.67.67,0,0,1-.34-.87l13.27-32.07a.63.63,0,0,1,.84-.35.67.67,0,0,1,.33.87L1399,497A.68.68,0,0,1,1398.74,497.29Z" fill="red"/></g><g opacity="0.32"><path d="M1412,465.13a.51.51,0,0,1-.38.06.58.58,0,0,1-.42-.69l32.1-152.07a.54.54,0,0,1,.65-.44.57.57,0,0,1,.42.68l-32.09,152.08A.59.59,0,0,1,1412,465.13Z" fill="red"/></g><g opacity="0.34"><path d="M1561,284.36a.47.47,0,0,1-.15.06L1444,313.21a.65.65,0,0,1-.79-.5.68.68,0,0,1,.48-.82l116.91-28.79a.65.65,0,0,1,.79.5A.69.69,0,0,1,1561,284.36Z" fill="red"/></g><g opacity="0.38"><path d="M1681.16,275a.69.69,0,0,1-.31.09l-120.08,9.5a.78.78,0,0,1-.83-.74.8.8,0,0,1,.71-.86l120.08-9.5a.79.79,0,0,1,.84.74A.82.82,0,0,1,1681.16,275Z" fill="red"/></g><g opacity="0.32"><path d="M1903.2,338.27a.62.62,0,0,1-.24.08l-178.83,14.21a.63.63,0,0,1-.67-.59.64.64,0,0,1,.57-.7l178.84-14.21a.62.62,0,0,1,.66.59A.63.63,0,0,1,1903.2,338.27Z" fill="red"/></g><g opacity="0.35"><path d="M1724.4,352.53a.66.66,0,0,1-.9-.26l-43.29-77.66a.7.7,0,0,1,.25-.95.67.67,0,0,1,.92.25l43.28,77.66a.7.7,0,0,1-.24.95Z" fill="red"/></g><g opacity="0.33"><path d="M1934,388.45l-105.94,43.23a.71.71,0,0,0-.38.91.66.66,0,0,0,.87.39L1934,390Z" fill="red"/></g><g opacity="0.24"><path d="M814.46,847.19a.37.37,0,0,1-.5-.14.4.4,0,0,1,.12-.54l58-37.46h0a.37.37,0,0,1,.5.14.4.4,0,0,1-.12.54l-58,37.46Z" fill="red"/></g><g opacity="0.32"><path d="M847.42,847.18a.68.68,0,0,1-.28.07l-32.85.2a.59.59,0,0,1-.59-.6.62.62,0,0,1,.58-.62l32.86-.2a.6.6,0,0,1,.59.6A.64.64,0,0,1,847.42,847.18Z" fill="red"/></g><g opacity="0.24"><path d="M925.64,828.38l-.09,0L847.22,847a.37.37,0,0,1-.43-.29.38.38,0,0,1,.27-.45l78.33-18.58a.36.36,0,0,1,.43.28A.36.36,0,0,1,925.64,828.38Z" fill="red"/></g><g opacity="0.23"><path d="M847.29,846.94a.32.32,0,0,1-.34,0,.36.36,0,0,1-.08-.48L872,809.19a.31.31,0,0,1,.45-.08.35.35,0,0,1,.09.47l-25.15,37.25A.32.32,0,0,1,847.29,846.94Z" fill="red"/></g><g opacity="0.24"><path d="M990.17,804.77l-.06,0-87.58,25.74a.35.35,0,0,1-.43-.25.36.36,0,0,1,.24-.44l87.58-25.74a.34.34,0,0,1,.43.25A.36.36,0,0,1,990.17,804.77Z" fill="red"/></g><g opacity="0.28"><path d="M957.19,832.86a.46.46,0,0,1-.21,0l-54.56-2.29a.42.42,0,0,1-.4-.44.42.42,0,0,1,.43-.42L957,832.05a.43.43,0,0,1,.17.81Z" fill="red"/></g><g opacity="0.29"><path d="M902.64,830.61a.5.5,0,0,1-.3,0,.45.45,0,0,1-.34-.55l7.67-37.61a.44.44,0,0,1,.53-.36.46.46,0,0,1,.35.55l-7.68,37.61A.45.45,0,0,1,902.64,830.61Z" fill="red"/></g><g opacity="0.28"><path d="M990.2,804.82a.4.4,0,0,1-.24,0L910.05,793a.41.41,0,0,1-.33-.47.39.39,0,0,1,.45-.34l79.9,11.87a.41.41,0,0,1,.34.46A.41.41,0,0,1,990.2,804.82Z" fill="red"/></g><g opacity="0.31"><path d="M910.33,793a.45.45,0,0,1-.62-.19L887,751.26a.49.49,0,0,1,.18-.66h0a.45.45,0,0,1,.62.19l22.7,41.55a.5.5,0,0,1-.18.66Z" fill="red"/></g><g opacity="0.3"><path d="M956.37,700.86a.33.33,0,0,1-.22,0,.42.42,0,0,1-.38-.45l2-34.35a.42.42,0,0,1,.44-.41.44.44,0,0,1,.39.46l-2,34.35A.41.41,0,0,1,956.37,700.86Z" fill="red"/></g><g opacity="0.39"><path d="M1085.93,668.11a.47.47,0,0,1-.2.06l-75.47,5.54a.54.54,0,0,1-.07-1.07l75.46-5.54a.53.53,0,0,1,.56.5A.54.54,0,0,1,1085.93,668.11Z" fill="red"/></g><g opacity="0.35"><path d="M1080.09,681.94a.49.49,0,0,1-.27,0l-69.65-8.34a.48.48,0,0,1,.11-1l69.65,8.34a.49.49,0,0,1,.16.91Z" fill="red"/></g><g opacity="0.35"><path d="M1080.09,681.94a.44.44,0,0,1-.55-.09.49.49,0,0,1,0-.68l68.72-69.57a.45.45,0,0,1,.66,0,.5.5,0,0,1,0,.68l-68.72,69.57Z" fill="red"/></g><g opacity="0.34"><path d="M1080.07,681.91a.4.4,0,0,1-.37,0,.45.45,0,0,1-.22-.59l5.81-13.87a.44.44,0,0,1,.57-.24.46.46,0,0,1,.23.59l-5.82,13.88A.43.43,0,0,1,1080.07,681.91Z" fill="red"/></g><g opacity="0.47"><path d="M1080.21,682.18a.72.72,0,0,1-.8-.09.78.78,0,0,1-.1-1.06l29.8-37a.71.71,0,0,1,1-.09.78.78,0,0,1,.09,1.06l-29.8,37A.79.79,0,0,1,1080.21,682.18Z" fill="red"/></g><g opacity="0.36"><path d="M1109.91,645a.48.48,0,0,1-.65-.17.52.52,0,0,1,.13-.72l84-58.19a.5.5,0,0,1,.69.14.52.52,0,0,1-.14.72l-84,58.2Z" fill="red"/></g><g opacity="0.34"><path d="M1109.88,644.91a.45.45,0,0,1-.56-.12.49.49,0,0,1,.07-.66l38.92-32.55a.44.44,0,0,1,.63.07.48.48,0,0,1-.06.66L1110,644.86Z" fill="red"/></g><g opacity="0.35"><path d="M1148.5,660.8a.48.48,0,0,1-.64-.17.52.52,0,0,1,.13-.72l88.07-61.64a.51.51,0,0,1,.69.14.52.52,0,0,1-.13.72l-88.07,61.64Z" fill="red"/></g><g opacity="0.32"><path d="M1243.77,671.31a.4.4,0,0,1-.24.05l-95.31-10.58a.45.45,0,0,1-.38-.49.43.43,0,0,1,.48-.4l95.3,10.58a.45.45,0,0,1,.38.49A.42.42,0,0,1,1243.77,671.31Z" fill="red"/></g><g opacity="0.49"><path d="M1244,671.69a.82.82,0,0,1-1-.21.9.9,0,0,1,.09-1.24l49.22-43.38a.83.83,0,0,1,1.19.1.9.9,0,0,1-.1,1.24l-49.21,43.38Z" fill="red"/></g><g opacity="0.32"><path d="M1243.77,671.31a.38.38,0,0,1-.16.05.45.45,0,0,1-.47-.4l-7.23-72.21a.43.43,0,0,1,.38-.49.44.44,0,0,1,.48.4l7.23,72.21A.45.45,0,0,1,1243.77,671.31Z" fill="red"/></g><g opacity="0.32"><path d="M1243.77,671.31a.42.42,0,0,1-.52-.1.46.46,0,0,1,0-.63l49.11-45.4a.42.42,0,0,1,.61,0,.45.45,0,0,1,0,.63l-49.1,45.4Z" fill="red"/></g><g opacity="0.46"><path d="M1293.05,626.24a.76.76,0,0,1-.89-.1.84.84,0,0,1-.08-1.16l37.75-45.22a.78.78,0,0,1,1.12-.08.84.84,0,0,1,.08,1.16l-37.75,45.21A.67.67,0,0,1,1293.05,626.24Z" fill="red"/></g><g opacity="0.37"><path d="M1330.7,580.84a.61.61,0,0,1-.24.07.6.6,0,0,1-.62-.57l-6.93-124.41a.59.59,0,1,1,1.17-.07L1331,580.27A.62.62,0,0,1,1330.7,580.84Z" fill="red"/></g><g opacity="0.42"><path d="M1395.85,523.36a.7.7,0,0,1-.91-.19L1368.86,489a.78.78,0,0,1,.12-1.06.69.69,0,0,1,1,.12l26.08,34.2a.79.79,0,0,1-.12,1.06Z" fill="red"/></g><g opacity="0.38"><path d="M1369.74,489.12a.64.64,0,0,1-.69,0,.71.71,0,0,1-.18-1l52.18-78.8a.65.65,0,0,1,.93-.18.71.71,0,0,1,.18,1L1370,488.9A.64.64,0,0,1,1369.74,489.12Z" fill="red"/></g><g opacity="0.33"><path d="M1653.36,248.83a.55.55,0,0,1-.4.06l-152.6-33.84a.62.62,0,0,1-.45-.72.6.6,0,0,1,.7-.47L1653.2,247.7a.61.61,0,0,1,.46.72A.64.64,0,0,1,1653.36,248.83Z" fill="red"/></g><g opacity="0.39"><path d="M1600,246.12a.72.72,0,0,1-.56.06l-99.2-31a.77.77,0,0,1-.49-1,.72.72,0,0,1,.92-.51l99.2,31a.78.78,0,0,1,.5,1A.76.76,0,0,1,1600,246.12Z" fill="red"/></g><g opacity="0.53"><path d="M1653.68,249.47a1.38,1.38,0,0,1-.67.15l-53.39-2.85a1.31,1.31,0,0,1-1.21-1.4,1.29,1.29,0,0,1,1.34-1.25l53.4,2.85a1.32,1.32,0,0,1,1.21,1.39A1.38,1.38,0,0,1,1653.68,249.47Z" fill="red"/></g><g opacity="0.32"><path d="M1661.41,221.43l-.06,0L1599.89,246a.57.57,0,0,1-.74-.33.62.62,0,0,1,.33-.77l61.46-24.53a.55.55,0,0,1,.73.34A.59.59,0,0,1,1661.41,221.43Z" fill="red"/></g><g opacity="0.37"><path d="M1934,334l-31.18,2.92a.81.81,0,0,0-.7.88.78.78,0,0,0,.84.73l31-2.91Z" fill="red"/></g><g opacity="0.35"><path d="M1934,319.26l-31.44,17.81a.74.74,0,0,0-.27,1,.68.68,0,0,0,.93.29h0L1934,320.89Z" fill="red"/></g><g opacity="0.43"><path d="M1934,351.51l-30.7-14.72a1,1,0,0,0-1.28.49,1,1,0,0,0,.47,1.33L1934,353.72Z" fill="red"/></g><g opacity="0.22"><path d="M956.36,789.41l-.09,0-83.9,20.3a.35.35,0,0,1-.42-.27.36.36,0,0,1,.26-.43l83.91-20.3a.35.35,0,0,1,.41.27A.37.37,0,0,1,956.36,789.41Z" fill="red"/></g><g opacity="0.25"><path d="M925.65,828.42a.37.37,0,0,1-.31,0l-53.18-18.66a.42.42,0,0,1-.25-.53.39.39,0,0,1,.5-.25l53.18,18.66a.42.42,0,0,1,.25.52A.39.39,0,0,1,925.65,828.42Z" fill="red"/></g><g opacity="0.23"><path d="M1006.1,806.62l-.07,0L925.55,828.4a.36.36,0,0,1-.17-.69L1005.85,806a.34.34,0,0,1,.42.26A.37.37,0,0,1,1006.1,806.62Z" fill="red"/></g><g opacity="0.25"><path d="M925.64,828.4a.36.36,0,0,1-.41,0,.41.41,0,0,1-.06-.56l30.73-39a.37.37,0,0,1,.54-.05.4.4,0,0,1,0,.55l-30.73,39A.29.29,0,0,1,925.64,828.4Z" fill="red"/></g><g opacity="0.23"><path d="M957.17,832.81a.34.34,0,0,1-.22,0l-31.53-4.42a.38.38,0,0,1-.31-.43.36.36,0,0,1,.41-.32l31.53,4.42a.38.38,0,0,1,.31.43A.4.4,0,0,1,957.17,832.81Z" fill="red"/></g><g opacity="0.24"><path d="M1042.06,820.9l-.12,0-84.89,11.91a.38.38,0,0,1-.1-.75l84.89-11.9a.36.36,0,0,1,.41.32A.38.38,0,0,1,1042.06,820.9Z" fill="red"/></g><g opacity="0.23"><path d="M957.16,832.79a.33.33,0,0,1-.43-.09.37.37,0,0,1,0-.5l33-28a.33.33,0,0,1,.49.05.36.36,0,0,1,0,.5l-33,28Z" fill="red"/></g><g opacity="0.26"><path d="M990.19,804.8a.37.37,0,0,1-.31,0,.38.38,0,0,1-.22-.5l16.45-46.74a.38.38,0,0,1,.49-.24.4.4,0,0,1,.23.51l-16.46,46.74A.37.37,0,0,1,990.19,804.8Z" fill="red"/></g><g opacity="0.32"><path d="M1058.3,732.83h0l-51.6,25.33a.48.48,0,0,1-.64-.24.5.5,0,0,1,.21-.66h0l51.59-25.33a.48.48,0,0,1,.65.24A.51.51,0,0,1,1058.3,732.83Z" fill="red"/></g><g opacity="0.32"><path d="M1058.28,732.79a.43.43,0,0,1-.37,0,.47.47,0,0,1-.26-.6l13.17-36.64a.43.43,0,0,1,.57-.27.46.46,0,0,1,.27.59l-13.17,36.64A.44.44,0,0,1,1058.28,732.79Z" fill="red"/></g><g opacity="0.36"><path d="M1117.09,748.65a.61.61,0,0,1-.4.05l-58.76-15.76a.57.57,0,0,1-.39-.7.54.54,0,0,1,.67-.41L1117,747.59a.58.58,0,0,1,.12,1.06Z" fill="red"/></g><g opacity="0.31"><path d="M1168.89,693.32a.41.41,0,0,1-.19,0l-97.45,2.8a.43.43,0,0,1,0-.86l97.46-2.8a.43.43,0,0,1,.43.42A.44.44,0,0,1,1168.89,693.32Z" fill="red"/></g><g opacity="0.32"><path d="M1168.21,673.81a.34.34,0,0,1-.2,0L1085.66,668a.4.4,0,0,1-.35-.42.39.39,0,0,1,.41-.37l82.34,5.83a.4.4,0,0,1,.15.74Z" fill="red"/></g><g opacity="0.35"><path d="M1085.91,668.06a.44.44,0,0,1-.57-.11.49.49,0,0,1,.05-.68l62.9-55.69a.46.46,0,0,1,.66,0,.51.51,0,0,1,0,.68L1086,668A.16.16,0,0,1,1085.91,668.06Z" fill="red"/></g><g opacity="0.5"><path d="M1193.72,594.39l-.09,0-44.74,18.3a.79.79,0,0,1-1.05-.48.82.82,0,0,1,.46-1.09L1193,592.87a.79.79,0,0,1,1,.47A.85.85,0,0,1,1193.72,594.39Z" fill="red"/></g><g opacity="0.38"><path d="M1148.84,612.42a.51.51,0,0,1-.7-.22.55.55,0,0,1,.2-.73l45.07-25.64h0a.51.51,0,0,1,.7.22.53.53,0,0,1-.21.72l-45.06,25.65Z" fill="red"/></g><g opacity="0.44"><path d="M1252.19,559.06l0,0-58.22,27.86a.67.67,0,0,1-.9-.34.75.75,0,0,1,.33-.93l58.23-27.86a.66.66,0,0,1,.89.34A.71.71,0,0,1,1252.19,559.06Z" fill="red"/></g><g opacity="0.33"><path d="M1236.54,599.1a.45.45,0,0,1-.32,0l-42.68-12.41a.45.45,0,0,1-.3-.55.42.42,0,0,1,.53-.31l42.68,12.41a.45.45,0,0,1,.09.82Z" fill="red"/></g><g opacity="0.35"><path d="M1193.55,594.06a.37.37,0,0,1-.23.05.45.45,0,0,1-.43-.48l.32-7.35a.45.45,0,1,1,.89,0l-.31,7.35A.48.48,0,0,1,1193.55,594.06Z" fill="red"/></g><g opacity="0.34"><path d="M1293,628a.42.42,0,0,1-.42,0l-56.45-28.82a.49.49,0,0,1-.21-.65.46.46,0,0,1,.62-.22L1293,627.1a.48.48,0,0,1,.21.64A.43.43,0,0,1,1293,628Z" fill="red"/></g><g opacity="0.33"><path d="M1236.55,599.12a.47.47,0,0,1-.35,0,.47.47,0,0,1-.29-.59l40.89-130a.45.45,0,0,1,.57-.3.46.46,0,0,1,.28.58l-40.89,130.06A.48.48,0,0,1,1236.55,599.12Z" fill="red"/></g><g opacity="0.53"><path d="M1324,456.84a1,1,0,0,1-1.26-.23l-10.41-12a1.1,1.1,0,0,1,.07-1.52,1,1,0,0,1,1.47.08l10.41,12a1.1,1.1,0,0,1-.07,1.52Z" fill="red"/></g><g opacity="0.32"><path d="M1340,261.32a.49.49,0,0,1-.65-.17.52.52,0,0,1,.13-.72l112.14-78a.47.47,0,0,1,.7.14.53.53,0,0,1-.14.72l-112.14,78Z" fill="red"/></g><g opacity="0.34"><path d="M1340,261.35a.52.52,0,0,1-.67-.15.57.57,0,0,1,.09-.78l44.77-36.88a.53.53,0,0,1,.76.09.57.57,0,0,1-.09.78l-44.78,36.88Z" fill="red"/></g><g opacity="0.39"><path d="M1436.07,228.84a.69.69,0,0,1-.86-.18.74.74,0,0,1,.09-1l55.55-47.82a.66.66,0,0,1,1,.09.74.74,0,0,1-.09,1l-55.55,47.82A.94.94,0,0,1,1436.07,228.84Z" fill="red"/></g><g opacity="0.46"><path d="M1436.18,229.06a.91.91,0,0,1-1.09-.17,1,1,0,0,1,0-1.37l56.13-58.11a.91.91,0,0,1,1.32,0,1,1,0,0,1,0,1.37l-56.14,58.11A.92.92,0,0,1,1436.18,229.06Z" fill="red"/></g><g opacity="0.39"><path d="M1492.21,170.74a.67.67,0,0,1-.89-.21.74.74,0,0,1,.14-1l89.19-69.35a.73.73,0,0,1,1,.15.75.75,0,0,1-.15,1l-89.19,69.34A.33.33,0,0,1,1492.21,170.74Z" fill="red"/></g><g opacity="0.34"><path d="M1491.56,180.9a.6.6,0,0,1-.3.07.58.58,0,0,1-.53-.63l.58-10.28a.6.6,0,0,1,.61-.56.58.58,0,0,1,.53.63l-.58,10.28A.61.61,0,0,1,1491.56,180.9Z" fill="red"/></g><g opacity="0.37"><path d="M1783.89,231.82a.74.74,0,0,1-.39.08l-122.41-10.26a.73.73,0,0,1,.11-1.46l122.42,10.26a.72.72,0,0,1,.64.79A.73.73,0,0,1,1783.89,231.82Z" fill="red"/></g><g opacity="0.49"><path d="M1661.65,221.91a1,1,0,0,1-1.22-.15,1.15,1.15,0,0,1-.11-1.59L1689.09,186a1.07,1.07,0,0,1,1.54-.11,1.15,1.15,0,0,1,.1,1.59L1662,221.65A1.1,1.1,0,0,1,1661.65,221.91Z" fill="red"/></g><g opacity="0.42"><path d="M1653.48,249.07a.85.85,0,0,1-.65.06.88.88,0,0,1-.56-1.09l8.06-27.39a.85.85,0,0,1,1.06-.58.88.88,0,0,1,.56,1.1l-8.06,27.38A.9.9,0,0,1,1653.48,249.07Z" fill="red"/></g><g opacity="0.34"><path d="M1783.85,231.74a.74.74,0,0,1-.21.07l-130.48,17.12a.63.63,0,0,1-.7-.56.65.65,0,0,1,.54-.72l130.48-17.12a.61.61,0,0,1,.69.56A.64.64,0,0,1,1783.85,231.74Z" fill="red"/></g><g opacity="0.39"><path d="M1934,271.25l-40.64-10.68a.77.77,0,0,0-1,.59.82.82,0,0,0,.57,1L1934,273Z" fill="red"/></g><g opacity="0.37"><path d="M1934,263.39l-40.79-2.77a.73.73,0,0,0-.77.7.76.76,0,0,0,.68.8L1934,264.9Z" fill="red"/></g><g opacity="0.27"><path d="M1009.32,770.06l-.06,0-52.92,19.44a.44.44,0,0,1-.57-.28.47.47,0,0,1,.28-.6L1009,769.21a.44.44,0,0,1,.57.28A.47.47,0,0,1,1009.32,770.06Z" fill="red"/></g><g opacity="0.27"><path d="M1006.16,806.73a.47.47,0,0,1-.37,0l-49.74-17.21a.49.49,0,0,1-.3-.61.46.46,0,0,1,.59-.31l49.75,17.21a.49.49,0,0,1,.29.61A.48.48,0,0,1,1006.16,806.73Z" fill="red"/></g><g opacity="0.26"><path d="M1077.73,803.35a.48.48,0,0,1-.17,0l-71.6,3.33a.42.42,0,0,1-.43-.41.41.41,0,0,1,.39-.45l71.6-3.33a.42.42,0,0,1,.43.41A.43.43,0,0,1,1077.73,803.35Z" fill="red"/></g><g opacity="0.25"><path d="M1006.12,806.65a.39.39,0,0,1-.56-.39l3.17-36.65a.38.38,0,0,1,.42-.35.39.39,0,0,1,.34.42l-3.17,36.65A.4.4,0,0,1,1006.12,806.65Z" fill="red"/></g><g opacity="0.23"><path d="M1077.7,803.29h0L1042,820.89a.34.34,0,0,1-.46-.17.38.38,0,0,1,.16-.48l35.65-17.6a.35.35,0,0,1,.46.17A.38.38,0,0,1,1077.7,803.29Z" fill="red"/></g><g opacity="0.31"><path d="M1136.92,807.32a.54.54,0,0,1-.29,0L1097.85,802a.51.51,0,0,1-.42-.57.49.49,0,0,1,.55-.42l38.78,5.38a.5.5,0,0,1,.42.56A.53.53,0,0,1,1136.92,807.32Z" fill="red"/></g><g opacity="0.32"><path d="M1098.16,802a.52.52,0,0,1-.61-.08.56.56,0,0,1,0-.78L1115.44,781a.51.51,0,0,1,.75,0,.56.56,0,0,1,0,.78l-17.91,20.13A.53.53,0,0,1,1098.16,802Z" fill="red"/></g><g opacity="0.31"><path d="M1116.06,781.81a.54.54,0,0,1-.25.06.49.49,0,0,1-.46-.52l1-33.22a.49.49,0,0,1,.5-.49.5.5,0,0,1,.47.52l-1,33.22A.5.5,0,0,1,1116.06,781.81Z" fill="red"/></g><g opacity="0.27"><path d="M1214.39,725.55l-.08,0-97.4,22.93a.36.36,0,0,1-.43-.29.38.38,0,0,1,.27-.45l97.39-22.92a.37.37,0,0,1,.44.28A.38.38,0,0,1,1214.39,725.55Z" fill="red"/></g><g opacity="0.39"><path d="M1169,693.5a.58.58,0,0,1-.57,0,.64.64,0,0,1-.24-.85l30.28-57.28a.59.59,0,0,1,.82-.25.63.63,0,0,1,.24.85l-30.28,57.28A.63.63,0,0,1,1169,693.5Z" fill="red"/></g><g opacity="0.38"><path d="M1169,693.48a.56.56,0,0,1-.26.07.59.59,0,0,1-.6-.59l-.66-19.48a.6.6,0,0,1,.56-.63.6.6,0,0,1,.61.59l.66,19.48A.62.62,0,0,1,1169,693.48Z" fill="red"/></g><g opacity="0.3"><path d="M1274.42,663.17a.33.33,0,0,1-.14,0l-106.21,10.64a.38.38,0,0,1-.41-.35.39.39,0,0,1,.34-.43l106.21-10.64a.4.4,0,0,1,.21.74Z" fill="red"/></g><g opacity="0.36"><path d="M1193.56,594.09a.47.47,0,0,1-.64-.19.52.52,0,0,1,.17-.69l58.55-35.2h0a.49.49,0,0,1,.65.19.52.52,0,0,1-.18.69l-58.54,35.2Z" fill="red"/></g><g opacity="0.4"><path d="M1321,545.22l-.16.06L1252,559a.59.59,0,0,1-.22-1.16l68.81-13.75a.56.56,0,0,1,.67.46A.61.61,0,0,1,1321,545.22Z" fill="red"/></g><g opacity="0.33"><path d="M1252.08,558.84a.44.44,0,0,1-.32,0,.46.46,0,0,1-.3-.56l25.35-89.8a.44.44,0,0,1,.54-.3.45.45,0,0,1,.29.56l-25.35,89.79A.42.42,0,0,1,1252.08,558.84Z" fill="red"/></g><g opacity="0.34"><path d="M1339.26,438.77h0l-61.81,30.31a.46.46,0,0,1-.62-.23.49.49,0,0,1,.2-.64h0l61.81-30.3a.46.46,0,0,1,.62.23A.48.48,0,0,1,1339.26,438.77Z" fill="red"/></g><g opacity="0.32"><path d="M1520.68,172.77l-.06,0-135.89,51.66a.48.48,0,0,1-.62-.3.52.52,0,0,1,.29-.65l135.89-51.65a.49.49,0,0,1,.62.3A.52.52,0,0,1,1520.68,172.77Z" fill="red"/></g><g opacity="0.32"><path d="M1452.7,199l-.06,0-67.91,25.45a.48.48,0,0,1-.62-.3.52.52,0,0,1,.29-.65l67.91-25.44a.48.48,0,0,1,.62.3A.51.51,0,0,1,1452.7,199Z" fill="red"/></g><g opacity="0.43"><path d="M1384.92,224.67a.75.75,0,0,1-1-.29.81.81,0,0,1,.27-1.08l67.37-41.09a.74.74,0,0,1,1,.28.81.81,0,0,1-.27,1.08L1385,224.66Z" fill="red"/></g><g opacity="0.4"><path d="M1520.77,172.94a.83.83,0,0,1-.22.08L1452,183.58a.68.68,0,0,1-.76-.59.71.71,0,0,1,.56-.8l68.52-10.56a.69.69,0,0,1,.77.59A.72.72,0,0,1,1520.77,172.94Z" fill="red"/></g><g opacity="0.37"><path d="M1491.59,181a.55.55,0,0,1-.25.07L1452,183.53a.63.63,0,0,1-.66-.6.64.64,0,0,1,.59-.69l39.36-2.51a.64.64,0,0,1,.66.61A.66.66,0,0,1,1491.59,181Z" fill="red"/></g><g opacity="0.32"><path d="M1623,159.53a.52.52,0,0,1-.16.06l-131.42,21.3a.51.51,0,0,1-.57-.43.53.53,0,0,1,.42-.6l131.41-21.3a.51.51,0,0,1,.58.43A.53.53,0,0,1,1623,159.53Z" fill="red"/></g><g opacity="0.36"><path d="M1491.58,180.93a.58.58,0,0,1-.74-.15.64.64,0,0,1,.06-.88l89.79-79.63a.6.6,0,0,1,.85.07.64.64,0,0,1-.07.89l-89.78,79.62A.28.28,0,0,1,1491.58,180.93Z" fill="red"/></g><g opacity="0.42"><path d="M1660.14,130.53a.81.81,0,0,1-.65.05l-78.68-29a.85.85,0,0,1-.5-1.07.8.8,0,0,1,1-.51L1660,129a.86.86,0,0,1,.49,1.08A.84.84,0,0,1,1660.14,130.53Z" fill="red"/></g><g opacity="0.33"><path d="M1791.16,168.45a.49.49,0,0,1-.17.06l-101,18.76a.57.57,0,0,1-.66-.48.58.58,0,0,1,.46-.68l101-18.76a.56.56,0,0,1,.66.47A.6.6,0,0,1,1791.16,168.45Z" fill="red"/></g><g opacity="0.35"><path d="M1783.85,231.74a.59.59,0,0,1-.55,0l-93.65-44.47a.66.66,0,0,1-.3-.86.62.62,0,0,1,.82-.32l93.65,44.48a.66.66,0,0,1,0,1.16Z" fill="red"/></g><g opacity="0.22"><path d="M1074.75,749.68l-.07,0L1009.21,770a.34.34,0,0,1-.43-.24.35.35,0,0,1,.23-.44L1074.49,749a.35.35,0,0,1,.43.24A.38.38,0,0,1,1074.75,749.68Z" fill="red"/></g><g opacity="0.23"><path d="M1148.65,810.11a.33.33,0,0,1-.19,0l-71-6.83a.36.36,0,0,1,.06-.71l71,6.83a.35.35,0,0,1,.31.39A.35.35,0,0,1,1148.65,810.11Z" fill="red"/></g><g opacity="0.25"><path d="M1215.14,792.28l-.08,0-66.47,17.88a.4.4,0,0,1-.49-.29.42.42,0,0,1,.29-.5l66.47-17.89a.4.4,0,0,1,.48.3A.42.42,0,0,1,1215.14,792.28Z" fill="red"/></g><g opacity="0.28"><path d="M1187,795l0,0-38.31,15.24a.45.45,0,0,1-.58-.27.44.44,0,0,1,.26-.6l38.31-15.24a.45.45,0,0,1,.58.27A.48.48,0,0,1,1187,795Z" fill="red"/></g><g opacity="0.22"><path d="M1148.64,810.1a.34.34,0,0,1-.38-.05.36.36,0,0,1,0-.49l23.09-25.92a.33.33,0,0,1,.47,0,.35.35,0,0,1,0,.48L1148.73,810Z" fill="red"/></g><g opacity="0.28"><path d="M1148.71,810.22a.48.48,0,0,1-.33,0l-11.79-2.93a.48.48,0,0,1-.35-.58.47.47,0,0,1,.57-.36l11.79,2.92a.49.49,0,0,1,.34.59A.46.46,0,0,1,1148.71,810.22Z" fill="red"/></g><g opacity="0.26"><path d="M1215.14,792.28l-.11,0-78.26,15a.4.4,0,0,1-.46-.33.41.41,0,0,1,.32-.48l78.25-15a.39.39,0,0,1,.47.33A.43.43,0,0,1,1215.14,792.28Z" fill="red"/></g><g opacity="0.29"><path d="M1226.31,780.46a.43.43,0,0,1-.58-.16.47.47,0,0,1,.13-.64l64.28-44.26a.43.43,0,0,1,.63.13.49.49,0,0,1-.13.65l-64.29,44.25Z" fill="red"/></g><g opacity="0.3"><path d="M1294.21,758.3a.2.2,0,0,1-.08,0l-67.89,22.17a.46.46,0,0,1-.58-.32.48.48,0,0,1,.3-.6l67.89-22.18a.47.47,0,0,1,.59.32A.48.48,0,0,1,1294.21,758.3Z" fill="red"/></g><g opacity="0.25"><path d="M1215.12,792.23a.34.34,0,0,1-.4-.06.37.37,0,0,1,0-.51l11.15-11.86a.32.32,0,0,1,.48,0,.37.37,0,0,1,0,.51l-11.15,11.86A.27.27,0,0,1,1215.12,792.23Z" fill="red"/></g><g opacity="0.27"><path d="M1226.29,780.41l-.1,0a.4.4,0,0,1-.47-.31l-11.88-54.84a.41.41,0,0,1,.3-.49.4.4,0,0,1,.47.31L1226.49,780A.42.42,0,0,1,1226.29,780.41Z" fill="red"/></g><g opacity="0.28"><path d="M1290.58,736.15a.39.39,0,0,1-.24.05l-76.17-10.58a.41.41,0,0,1-.34-.46.4.4,0,0,1,.45-.35l76.17,10.57a.42.42,0,0,1,.34.46A.41.41,0,0,1,1290.58,736.15Z" fill="red"/></g><g opacity="0.28"><path d="M1274.42,663.17a.35.35,0,0,1-.3,0L1198.85,636a.41.41,0,0,1-.24-.5.37.37,0,0,1,.49-.24l75.27,27.16a.39.39,0,0,1,.23.5A.37.37,0,0,1,1274.42,663.17Z" fill="red"/></g><g opacity="0.32"><path d="M1426.1,569.79a.54.54,0,0,1-.21.05l-101.72-5.7a.41.41,0,0,1-.38-.43.4.4,0,0,1,.42-.39L1425.93,569a.42.42,0,0,1,.17.78Z" fill="red"/></g><g opacity="0.39"><path d="M1324.44,564.22a.38.38,0,0,1-.15,0,.53.53,0,0,1-.62-.44l-3.51-19a.56.56,0,0,1,.43-.65.53.53,0,0,1,.62.44l3.5,19A.56.56,0,0,1,1324.44,564.22Z" fill="red"/></g><g opacity="0.35"><path d="M1496.33,522.74a.44.44,0,0,1-.32,0l-75.71-18.55a.48.48,0,0,1-.35-.58.45.45,0,0,1,.56-.36l75.71,18.55a.48.48,0,0,1,.35.58A.45.45,0,0,1,1496.33,522.74Z" fill="red"/></g><g opacity="0.32"><path d="M1532,382.82a.34.34,0,0,1-.26.05l-110-16.83a.45.45,0,0,1,.12-.89l110,16.84a.45.45,0,0,1,.36.51A.43.43,0,0,1,1532,382.82Z" fill="red"/></g><g opacity="0.35"><path d="M1422,366a.51.51,0,0,1-.27.06.5.5,0,0,1-.44-.55L1431.72,243a.49.49,0,0,1,.52-.46.5.5,0,0,1,.44.55l-10.39,122.53A.48.48,0,0,1,1422,366Z" fill="red"/></g><g opacity="0.37"><path d="M1432.46,243.59a.57.57,0,0,1-.51,0,.61.61,0,0,1-.27-.79L1452,198.27a.56.56,0,0,1,.76-.28.61.61,0,0,1,.27.79l-20.28,44.54A.55.55,0,0,1,1432.46,243.59Z" fill="red"/></g><g opacity="0.33"><path d="M1539.3,242.14a.43.43,0,0,1-.22.06l-106.88,1.36a.5.5,0,0,1,0-1l106.87-1.36a.49.49,0,0,1,.49.49A.48.48,0,0,1,1539.3,242.14Z" fill="red"/></g><g opacity="0.33"><path d="M1568.28,191.65a.66.66,0,0,1-.2.06l-115.58,7.34a.52.52,0,0,1-.53-.49.53.53,0,0,1,.47-.55L1568,190.67a.51.51,0,0,1,.53.49A.52.52,0,0,1,1568.28,191.65Z" fill="red"/></g><g opacity="0.36"><path d="M1520.71,172.83l-.07,0-68,26.21a.56.56,0,0,1-.72-.34.57.57,0,0,1,.33-.74l68-26.2a.55.55,0,0,1,.71.33A.58.58,0,0,1,1520.71,172.83Z" fill="red"/></g><g opacity="0.32"><path d="M1654.29,166.45a.37.37,0,0,1-.21.06l-133.61,6.33a.52.52,0,0,1,0-1L1654,165.47a.51.51,0,0,1,.52.5A.52.52,0,0,1,1654.29,166.45Z" fill="red"/></g><g opacity="0.32"><path d="M1722.9,164.78a.5.5,0,0,1-.27.07l-99.94-5.24a.54.54,0,0,1,0-1.07l100,5.23a.54.54,0,0,1,.49.57A.52.52,0,0,1,1722.9,164.78Z" fill="red"/></g><g opacity="0.39"><path d="M1623,159.71a.68.68,0,0,1-.87-.2.75.75,0,0,1,.13-1l37.06-29.29a.66.66,0,0,1,1,.14.72.72,0,0,1-.13,1l-37,29.29Z" fill="red"/></g><g opacity="0.22"><path d="M1140.6,735.4l-.09,0-65.85,14.28a.35.35,0,0,1-.41-.28.37.37,0,0,1,.26-.43l65.86-14.27a.33.33,0,0,1,.4.27A.35.35,0,0,1,1140.6,735.4Z" fill="red"/></g><g opacity="0.22"><path d="M1171.74,784.17a.32.32,0,0,1-.44-.13.36.36,0,0,1,.12-.47l61.3-35.67h0a.33.33,0,0,1,.44.14.35.35,0,0,1-.13.46l-61.29,35.68Z" fill="red"/></g><g opacity="0.35"><path d="M1187.14,795.22a.69.69,0,0,1-.74,0l-15.22-10.68a.79.79,0,0,1-.2-1,.72.72,0,0,1,1-.2l15.22,10.68a.77.77,0,0,1,.19,1.05A.75.75,0,0,1,1187.14,795.22Z" fill="red"/></g><g opacity="0.26"><path d="M1352.4,749.79l-.11,0-58.24,8.42a.36.36,0,0,1-.41-.32.38.38,0,0,1,.3-.43l58.24-8.42a.38.38,0,0,1,.22.71Z" fill="red"/></g><g opacity="0.38"><path d="M1294.32,758.51a.86.86,0,0,1-.21.07.69.69,0,0,1-.8-.59l-3.6-22.08a.72.72,0,0,1,.57-.83.7.7,0,0,1,.79.59l3.61,22.09A.73.73,0,0,1,1294.32,758.51Z" fill="red"/></g><g opacity="0.3"><path d="M1290.6,736.2a.44.44,0,0,1-.47,0,.49.49,0,0,1-.1-.66l35.46-50a.44.44,0,0,1,.63-.1.48.48,0,0,1,.09.66l-35.46,50A.47.47,0,0,1,1290.6,736.2Z" fill="red"/></g><g opacity="0.3"><path d="M1405.85,679.35a.38.38,0,0,1-.16,0l-79.81,6.81a.41.41,0,0,1-.44-.39.43.43,0,0,1,.38-.47l79.81-6.81a.42.42,0,0,1,.44.4A.41.41,0,0,1,1405.85,679.35Z" fill="red"/></g><g opacity="0.28"><path d="M1396.37,659.58l0,0L1326,686.15a.38.38,0,0,1-.49-.23.4.4,0,0,1,.23-.51l70.34-26.55a.39.39,0,0,1,.49.24A.41.41,0,0,1,1396.37,659.58Z" fill="red"/></g><g opacity="0.28"><path d="M1496.54,608.41h0l-100.18,51.15a.35.35,0,0,1-.48-.17.38.38,0,0,1,.15-.5h0l100.18-51.16a.37.37,0,0,1,.49.17A.39.39,0,0,1,1496.54,608.41Z" fill="red"/></g><g opacity="0.35"><path d="M1471.56,627.64l0,0-75.14,32.06a.5.5,0,0,1-.65-.29.53.53,0,0,1,.27-.68l75.13-32a.5.5,0,0,1,.66.28A.54.54,0,0,1,1471.56,627.64Z" fill="red"/></g><g opacity="0.5"><path d="M1426.29,570.17a.78.78,0,0,1-.82,0,.86.86,0,0,1-.24-1.17l17.7-28.21a.79.79,0,0,1,1.12-.25.86.86,0,0,1,.24,1.17l-17.7,28.21A.83.83,0,0,1,1426.29,570.17Z" fill="red"/></g><g opacity="0.37"><path d="M1496.35,522.77l-.07,0-52.5,18.9a.5.5,0,0,1-.64-.32.51.51,0,0,1,.31-.66l52.5-18.9a.5.5,0,0,1,.64.32A.54.54,0,0,1,1496.35,522.77Z" fill="red"/></g><g opacity="0.36"><path d="M1532.07,382.89a.5.5,0,0,1-.56-.06.54.54,0,0,1-.07-.73l79.85-101.34a.48.48,0,0,1,.7-.07.53.53,0,0,1,.07.73l-79.84,101.34A.61.61,0,0,1,1532.07,382.89Z" fill="red"/></g><g opacity="0.37"><path d="M1629.36,400.68a.53.53,0,0,1-.33.05L1531.74,383a.53.53,0,0,1-.42-.62.52.52,0,0,1,.6-.44l97.29,17.77a.55.55,0,0,1,.42.63A.54.54,0,0,1,1629.36,400.68Z" fill="red"/></g><g opacity="0.33"><path d="M1532,382.84a.37.37,0,0,1-.23.05.46.46,0,0,1-.43-.49l7.24-140.72a.45.45,0,1,1,.9,0l-7.24,140.72A.46.46,0,0,1,1532,382.84Z" fill="red"/></g><g opacity="0.35"><path d="M1539.31,242.18a.5.5,0,0,1-.5,0,.53.53,0,0,1-.18-.73l29-50.51a.51.51,0,0,1,.71-.19.53.53,0,0,1,.18.73l-29,50.51A.53.53,0,0,1,1539.31,242.18Z" fill="red"/></g><g opacity="0.4"><path d="M1612,281.66a.6.6,0,0,1-.58,0l-72.61-39.39a.66.66,0,0,1-.26-.87.61.61,0,0,1,.84-.27l72.6,39.39a.66.66,0,0,1,.27.87A.75.75,0,0,1,1612,281.66Z" fill="red"/></g><g opacity="0.37"><path d="M1721.92,184.53a.55.55,0,0,1-.42.05l-67.59-18a.61.61,0,0,1-.42-.74.59.59,0,0,1,.72-.44l67.59,18a.61.61,0,0,1,.42.74A.59.59,0,0,1,1721.92,184.53Z" fill="red"/></g><g opacity="0.44"><path d="M1723,165a.67.67,0,0,1-.34.09l-68.6,1.69a.81.81,0,0,1,0-1.61l68.6-1.69a.79.79,0,0,1,.8.79A.81.81,0,0,1,1723,165Z" fill="red"/></g><g opacity="0.32"><path d="M1721.88,184.43a.46.46,0,0,1-.26.06.49.49,0,0,1-.45-.53l1-19.68a.48.48,0,0,1,.51-.47.49.49,0,0,1,.45.53l-1,19.68A.5.5,0,0,1,1721.88,184.43Z" fill="red"/></g><g opacity="0.45"><path d="M1932.94,157.67a.81.81,0,0,1-.46.11l-57-3.68a.9.9,0,0,1-.82-1,.87.87,0,0,1,.93-.85l57,3.67a.91.91,0,0,1,.82,1A.89.89,0,0,1,1932.94,157.67Z" fill="red"/></g><g opacity="0.37"><path d="M1934,178l-58.21-25.44a.62.62,0,0,0-.83.35.67.67,0,0,0,.34.87l58.7,25.66Z" fill="red"/></g><g opacity="0.31"><path d="M1233.15,748.72a.57.57,0,0,1-.71-.15.61.61,0,0,1,.07-.83l38.54-33.61a.54.54,0,0,1,.8.07.61.61,0,0,1-.07.83l-38.53,33.61Z" fill="red"/></g><g opacity="0.22"><path d="M1233,748.49a.29.29,0,0,1-.16,0,.34.34,0,0,1-.32-.35l1.16-38.33a.33.33,0,1,1,.66,0l-1.16,38.33A.35.35,0,0,1,1233,748.49Z" fill="red"/></g><g opacity="0.21"><path d="M1278.15,774.7a.31.31,0,0,1-.31,0l-45.12-26.2a.34.34,0,0,1-.13-.46.32.32,0,0,1,.45-.13l45.12,26.2a.34.34,0,0,1,.13.46A.32.32,0,0,1,1278.15,774.7Z" fill="red"/></g><g opacity="0.22"><path d="M1278.16,774.71a.32.32,0,0,1-.38,0,.36.36,0,0,1,0-.51l54.51-66.54a.34.34,0,0,1,.49,0,.37.37,0,0,1,0,.51l-54.52,66.54A.39.39,0,0,1,1278.16,774.71Z" fill="red"/></g><g opacity="0.25"><path d="M1319.85,759.91l-.06,0-41.66,14.85a.4.4,0,0,1-.51-.26.4.4,0,0,1,.25-.52l41.67-14.85a.39.39,0,0,1,.5.25A.41.41,0,0,1,1319.85,759.91Z" fill="red"/></g><g opacity="0.3"><path d="M1319.91,760a.5.5,0,0,1-.61-.09.57.57,0,0,1,0-.76l47-49.91a.51.51,0,0,1,.74,0,.57.57,0,0,1,0,.76l-47,49.91Z" fill="red"/></g><g opacity="0.27"><path d="M1352.44,749.85l-.08,0L1319.79,760a.43.43,0,0,1-.54-.3.44.44,0,0,1,.29-.55L1352.11,749a.43.43,0,0,1,.54.3A.45.45,0,0,1,1352.44,749.85Z" fill="red"/></g><g opacity="0.28"><path d="M1352.44,749.85a.43.43,0,0,1-.41,0,.45.45,0,0,1-.17-.61l38.08-71.93a.43.43,0,0,1,.59-.18.46.46,0,0,1,.17.61l-38.09,71.93A.42.42,0,0,1,1352.44,749.85Z" fill="red"/></g><g opacity="0.27"><path d="M1352.43,749.84a.44.44,0,0,1-.34,0,.44.44,0,0,1-.24-.56l14.46-39.82a.41.41,0,0,1,.53-.25.43.43,0,0,1,.24.55l-14.46,39.83A.39.39,0,0,1,1352.43,749.84Z" fill="red"/></g><g opacity="0.26"><path d="M1352.41,749.8a.35.35,0,0,1-.39,0,.41.41,0,0,1-.1-.55l40.39-60.05a.37.37,0,0,1,.53-.1.41.41,0,0,1,.1.55l-40.39,60A.53.53,0,0,1,1352.41,749.8Z" fill="red"/></g><g opacity="0.42"><path d="M1393,690.15a.8.8,0,0,1-.78,0,.86.86,0,0,1-.3-1.15l23.67-43.3a.8.8,0,0,1,1.11-.31.85.85,0,0,1,.31,1.14l-23.68,43.3A.87.87,0,0,1,1393,690.15Z" fill="red"/></g><g opacity="0.3"><path d="M1392.84,689.83a.44.44,0,0,1-.58-.13.5.5,0,0,1,.08-.68l13-10.43a.45.45,0,0,1,.65.09.5.5,0,0,1-.08.68l-13,10.43Z" fill="red"/></g><g opacity="0.29"><path d="M1405.85,679.35a.39.39,0,0,1-.35,0,.45.45,0,0,1-.22-.57l41.43-99.51a.42.42,0,0,1,.55-.23.45.45,0,0,1,.22.57L1406,679.14A.36.36,0,0,1,1405.85,679.35Z" fill="red"/></g><g opacity="0.3"><path d="M1405.86,679.37a.44.44,0,0,1-.34,0,.47.47,0,0,1-.27-.57L1415.89,646a.42.42,0,0,1,.55-.28.45.45,0,0,1,.27.56l-10.64,32.87A.44.44,0,0,1,1405.86,679.37Z" fill="red"/></g><g opacity="0.3"><path d="M1471.51,627.55a.38.38,0,0,1-.49-.11.42.42,0,0,1,0-.58l88.49-75.09a.38.38,0,0,1,.56.06.42.42,0,0,1-.06.58l-88.48,75.09Z" fill="red"/></g><g opacity="0.29"><path d="M1471.5,627.53a.35.35,0,0,1-.33,0,.4.4,0,0,1-.19-.52l34.71-79.88a.38.38,0,0,1,.51-.2.41.41,0,0,1,.19.52l-34.72,79.88A.35.35,0,0,1,1471.5,627.53Z" fill="red"/></g><g opacity="0.49"><path d="M1471.74,628a.88.88,0,0,1-1.14-.28,1,1,0,0,1,.19-1.3l25-19.1a.87.87,0,0,1,1.25.2,1,1,0,0,1-.19,1.3l-25,19.1Z" fill="red"/></g><g opacity="0.38"><path d="M1496.63,608.59a.54.54,0,0,1-.68-.14.59.59,0,0,1,.06-.81l63.44-56a.53.53,0,0,1,.78.06.59.59,0,0,1-.06.81l-63.44,56Z" fill="red"/></g><g opacity="0.32"><path d="M1677,526.5l0,0-103.69,37.23a.4.4,0,0,1-.51-.26.41.41,0,0,1,.25-.52l103.69-37.23a.39.39,0,0,1,.5.26A.42.42,0,0,1,1677,526.5Z" fill="red"/></g><g opacity="0.5"><path d="M1573.47,564.09a.79.79,0,0,1-1-.2.84.84,0,0,1,.1-1.16l26.62-23.24a.76.76,0,0,1,1.12.1.84.84,0,0,1-.1,1.16L1573.61,564A.71.71,0,0,1,1573.47,564.09Z" fill="red"/></g><g opacity="0.33"><path d="M1573.29,563.74a.4.4,0,0,1-.45,0l-13.29-11.27a.44.44,0,0,1-.06-.6.42.42,0,0,1,.59-.06L1573.36,563a.44.44,0,0,1,.06.6A.45.45,0,0,1,1573.29,563.74Z" fill="red"/></g><g opacity="0.34"><path d="M1628.56,541.83l0,0-55.26,21.93a.43.43,0,0,1-.55-.26.46.46,0,0,1,.24-.58L1628.21,541a.41.41,0,0,1,.55.25A.46.46,0,0,1,1628.56,541.83Z" fill="red"/></g><g opacity="0.45"><path d="M1677.1,526.75a.43.43,0,0,1-.12,0l-48.42,15.3a.66.66,0,0,1-.84-.46.69.69,0,0,1,.44-.87l48.43-15.3a.66.66,0,0,1,.84.46A.7.7,0,0,1,1677.1,526.75Z" fill="red"/></g><g opacity="0.37"><path d="M1629.36,400.68a.3.3,0,0,1-.16.05.51.51,0,0,1-.59-.45l-17.45-119.11a.54.54,0,0,1,.44-.61.52.52,0,0,1,.59.45l17.44,119.11A.55.55,0,0,1,1629.36,400.68Z" fill="red"/></g><g opacity="0.36"><path d="M1611.92,281.56a.49.49,0,0,1-.62-.1.55.55,0,0,1,0-.76l73.45-72.33a.51.51,0,0,1,.74,0,.56.56,0,0,1,0,.76L1612,281.48A.28.28,0,0,1,1611.92,281.56Z" fill="red"/></g><g opacity="0.36"><path d="M1685.38,209.25a.52.52,0,0,1-.7-.18.57.57,0,0,1,.16-.77l36.52-24.78a.51.51,0,0,1,.74.17.56.56,0,0,1-.16.76l-36.52,24.78Z" fill="red"/></g><g opacity="0.32"><path d="M1852.74,159.05l-.14,0-130.86,25.38a.49.49,0,0,1-.57-.4.5.5,0,0,1,.39-.58l130.86-25.39a.49.49,0,0,1,.57.4A.52.52,0,0,1,1852.74,159.05Z" fill="red"/></g><g opacity="0.5"><path d="M1909.37,170.19a.94.94,0,0,1-1.07-.11,1,1,0,0,1-.16-1.43l16.35-21.25a.94.94,0,0,1,1.38-.16,1,1,0,0,1,.15,1.43l-16.34,21.25A.8.8,0,0,1,1909.37,170.19Z" fill="red"/></g><g opacity="0.4"><path d="M1932.86,157.5h0l-23.62,12.43a.69.69,0,0,1-.93-.32.74.74,0,0,1,.29-1h0l23.62-12.43a.69.69,0,0,1,.93.32A.74.74,0,0,1,1932.86,157.5Z" fill="red"/></g><g opacity="0.23"><path d="M1271.59,714.93a.34.34,0,0,1-.22,0L1234,710.25a.39.39,0,0,1,.1-.78l37.37,4.72a.39.39,0,0,1,.33.44A.4.4,0,0,1,1271.59,714.93Z" fill="red"/></g><g opacity="0.24"><path d="M1332.7,708.22l-.14,0-61.1,6.72a.4.4,0,0,1-.44-.36.42.42,0,0,1,.35-.46l61.11-6.73a.41.41,0,0,1,.43.37A.42.42,0,0,1,1332.7,708.22Z" fill="red"/></g><g opacity="0.35"><path d="M1367,710.23a.62.62,0,0,1-.7-.06.69.69,0,0,1-.13-.95l23.63-32.11a.64.64,0,0,1,.92-.13.69.69,0,0,1,.12.95L1367.22,710A.56.56,0,0,1,1367,710.23Z" fill="red"/></g><g opacity="0.3"><path d="M1416.51,646.52a.41.41,0,0,1-.4,0,.48.48,0,0,1-.22-.62l30.8-66.65a.43.43,0,0,1,.6-.22.47.47,0,0,1,.21.62l-30.8,66.65A.43.43,0,0,1,1416.51,646.52Z" fill="red"/></g><g opacity="0.32"><path d="M1506.25,547.71h0l-59,32.16a.43.43,0,0,1-.6-.2.46.46,0,0,1,.19-.62h0l58.94-32.15a.45.45,0,0,1,.61.19A.48.48,0,0,1,1506.25,547.71Z" fill="red"/></g><g opacity="0.4"><path d="M1600,540.64l-.11.05-39.91,12a.56.56,0,0,1-.7-.4.59.59,0,0,1,.39-.74l39.9-12a.57.57,0,0,1,.71.4A.6.6,0,0,1,1600,540.64Z" fill="red"/></g><g opacity="0.35"><path d="M1677,526.56a.46.46,0,0,1-.55-.08.5.5,0,0,1,0-.69l62.77-65.57a.45.45,0,0,1,.66,0,.51.51,0,0,1,0,.69l-62.77,65.57A.44.44,0,0,1,1677,526.56Z" fill="red"/></g><g opacity="0.36"><path d="M1739.79,461a.51.51,0,0,1-.73-.56l21.66-119.88a.5.5,0,0,1,.58-.42.53.53,0,0,1,.4.61l-21.65,119.88A.51.51,0,0,1,1739.79,461Z" fill="red"/></g><g opacity="0.33"><path d="M1852.74,159.05l-.13,0-41.95,9a.49.49,0,0,1-.57-.39.52.52,0,0,1,.38-.6l42-9a.49.49,0,0,1,.57.39A.51.51,0,0,1,1852.74,159.05Z" fill="red"/></g><g opacity="0.38"><path d="M1925.55,148.6a.52.52,0,0,1-.21.07l-72.74,10.57a.62.62,0,0,1-.7-.55.63.63,0,0,1,.53-.72l72.74-10.58a.63.63,0,0,1,.7.55A.65.65,0,0,1,1925.55,148.6Z" fill="red"/></g><path d="M676.27,1077.06a3.73,3.73,0,0,1,5.14,1.63,4,4,0,0,1-1.58,5.34,3.75,3.75,0,0,1-5.14-1.64A4,4,0,0,1,676.27,1077.06Z" fill="red" opacity="0.87"/><path d="M665.4,1057.13a3.87,3.87,0,0,1,5.32,1.7,4.16,4.16,0,0,1-1.63,5.52,3.86,3.86,0,0,1-5.32-1.7A4.16,4.16,0,0,1,665.4,1057.13Z" fill="red" opacity="0.94"/><path d="M1198.77,1010.63a5.47,5.47,0,0,1,7.53,2.4,5.89,5.89,0,0,1-2.31,7.81,5.48,5.48,0,0,1-7.53-2.4A5.89,5.89,0,0,1,1198.77,1010.63Z" fill="red"/><path d="M1392,955.43a6.14,6.14,0,0,1,8.44,2.69,6.6,6.6,0,0,1-2.59,8.76,6.15,6.15,0,0,1-8.45-2.69A6.61,6.61,0,0,1,1392,955.43Z" fill="red"/><path d="M1407.65,895.36a6.65,6.65,0,0,1,9.17,2.92,7.16,7.16,0,0,1-2.82,9.52,6.66,6.66,0,0,1-9.17-2.93A7.15,7.15,0,0,1,1407.65,895.36Z" fill="red"/><path d="M1561.4,900a6.86,6.86,0,0,1,9.45,3,7.38,7.38,0,0,1-2.9,9.8,6.87,6.87,0,0,1-9.46-3A7.39,7.39,0,0,1,1561.4,900Z" fill="red"/><path d="M621.59,1060.57a3.33,3.33,0,0,1,4.59,1.46,3.58,3.58,0,0,1-1.41,4.76,3.34,3.34,0,0,1-4.59-1.46A3.6,3.6,0,0,1,621.59,1060.57Z" fill="red" opacity="0.69"/><path d="M668.55,1046.16a3.47,3.47,0,0,1,4.78,1.52,3.74,3.74,0,0,1-1.47,5,3.48,3.48,0,0,1-4.77-1.52A3.72,3.72,0,0,1,668.55,1046.16Z" fill="red" opacity="0.77"/><path d="M678.42,1028.78a3.61,3.61,0,0,1,5,1.58,3.88,3.88,0,0,1-1.52,5.14,3.61,3.61,0,0,1-5-1.58A3.87,3.87,0,0,1,678.42,1028.78Z" fill="red" opacity="0.81"/><path d="M680.6,1014a3.61,3.61,0,0,1,5,1.58,3.87,3.87,0,0,1-1.52,5.14,3.61,3.61,0,0,1-5-1.58A3.88,3.88,0,0,1,680.6,1014Z" fill="red" opacity="0.83"/><path d="M695,924.9a3.8,3.8,0,0,1,5.23,1.66,4.09,4.09,0,0,1-1.61,5.43,3.8,3.8,0,0,1-5.23-1.67A4.08,4.08,0,0,1,695,924.9Z" fill="red" opacity="0.91"/><path d="M685.4,915.21a3.86,3.86,0,0,1,5.32,1.7,4.16,4.16,0,0,1-1.63,5.52,3.89,3.89,0,0,1-5.33-1.7A4.17,4.17,0,0,1,685.4,915.21Z" fill="red" opacity="0.96"/><path d="M1016,1073a4.53,4.53,0,0,1,6.24,2,4.88,4.88,0,0,1-1.92,6.47,4.53,4.53,0,0,1-6.24-2A4.87,4.87,0,0,1,1016,1073Z" fill="red"/><path d="M1066.18,1010.83a4.66,4.66,0,0,1,6.42,2,5,5,0,0,1-2,6.67,4.66,4.66,0,0,1-6.42-2A5,5,0,0,1,1066.18,1010.83Z" fill="red"/><path d="M1179.57,974.09a5.07,5.07,0,0,1,7,2.22,5.45,5.45,0,0,1-2.14,7.24,5.07,5.07,0,0,1-7-2.23A5.45,5.45,0,0,1,1179.57,974.09Z" fill="red"/><path d="M1207.88,898.52a5.27,5.27,0,0,1,7.25,2.31,5.66,5.66,0,0,1-2.23,7.52,5.27,5.27,0,0,1-7.25-2.31A5.67,5.67,0,0,1,1207.88,898.52Z" fill="red"/><path d="M1258.41,874.1a5.47,5.47,0,0,1,7.52,2.4,5.87,5.87,0,0,1-2.31,7.8,5.47,5.47,0,0,1-7.53-2.39A5.89,5.89,0,0,1,1258.41,874.1Z" fill="red"/><path d="M1369.62,969.81a5.6,5.6,0,0,1,7.71,2.46,6,6,0,0,1-2.37,8,5.6,5.6,0,0,1-7.71-2.46A6,6,0,0,1,1369.62,969.81Z" fill="red"/><path d="M1432.34,942.19a5.88,5.88,0,0,1,8.08,2.57,6.32,6.32,0,0,1-2.48,8.38,5.87,5.87,0,0,1-8.08-2.58A6.31,6.31,0,0,1,1432.34,942.19Z" fill="red"/><path d="M1423.5,813.89a6.19,6.19,0,0,1,8.53,2.72,6.67,6.67,0,0,1-2.62,8.85,6.21,6.21,0,0,1-8.54-2.72A6.66,6.66,0,0,1,1423.5,813.89Z" fill="red"/><path d="M1534.6,686.52a6.61,6.61,0,0,1,9.09,2.9,7.1,7.1,0,0,1-2.79,9.42,6.61,6.61,0,0,1-9.09-2.9A7.1,7.1,0,0,1,1534.6,686.52Z" fill="red"/><path d="M1659.15,809.09a6.93,6.93,0,0,1,9.55,3,7.47,7.47,0,0,1-2.93,9.9,6.94,6.94,0,0,1-9.55-3A7.45,7.45,0,0,1,1659.15,809.09Z" fill="red"/><path d="M1901.47,917.77a7.07,7.07,0,0,1,9.73,3.1,7.61,7.61,0,0,1-3,10.09,7.07,7.07,0,0,1-9.73-3.1A7.61,7.61,0,0,1,1901.47,917.77Z" fill="red"/><path d="M644.6,1005.45a3.27,3.27,0,0,1,4.5,1.43,3.53,3.53,0,0,1-1.38,4.67,3.27,3.27,0,0,1-4.5-1.44A3.51,3.51,0,0,1,644.6,1005.45Z" fill="red" opacity="0.69"/><path d="M685.46,988.26a3.39,3.39,0,0,1,4.68,1.49,3.66,3.66,0,0,1-1.44,4.85,3.4,3.4,0,0,1-4.68-1.49A3.65,3.65,0,0,1,685.46,988.26Z" fill="red" opacity="0.73"/><path d="M689.72,988.94a3.4,3.4,0,0,1,4.68,1.49,3.64,3.64,0,0,1-1.43,4.85,3.41,3.41,0,0,1-4.69-1.49A3.66,3.66,0,0,1,689.72,988.94Z" fill="red" opacity="0.75"/><path d="M714.5,918.18a3.55,3.55,0,0,1,4.87,1.55,3.81,3.81,0,0,1-1.5,5,3.54,3.54,0,0,1-4.86-1.55A3.81,3.81,0,0,1,714.5,918.18Z" fill="red" opacity="0.81"/><path d="M716.33,842.51a3.67,3.67,0,0,1,5,1.6,4,4,0,0,1-1.55,5.24,3.67,3.67,0,0,1-5.05-1.61A3.94,3.94,0,0,1,716.33,842.51Z" fill="red" opacity="0.87"/><path d="M710.56,806.39a3.8,3.8,0,0,1,5.23,1.67,4.09,4.09,0,0,1-1.61,5.43,3.81,3.81,0,0,1-5.23-1.67A4.09,4.09,0,0,1,710.56,806.39Z" fill="red" opacity="0.91"/><path d="M739.73,768.44a3.93,3.93,0,0,1,5.41,1.73,4.24,4.24,0,0,1-1.66,5.62,3.94,3.94,0,0,1-5.42-1.73A4.24,4.24,0,0,1,739.73,768.44Z" fill="red" opacity="0.97"/><path d="M998.16,1049.73a4.06,4.06,0,0,1,5.59,1.78,4.36,4.36,0,0,1-1.72,5.81,4.06,4.06,0,0,1-5.59-1.79A4.35,4.35,0,0,1,998.16,1049.73Z" fill="red"/><path d="M1009.43,1005.92a4.2,4.2,0,0,1,5.78,1.84,4.53,4.53,0,0,1-1.78,6,4.2,4.2,0,0,1-5.78-1.84A4.52,4.52,0,0,1,1009.43,1005.92Z" fill="red"/><path d="M1050.35,992a4.34,4.34,0,0,1,6,1.9,4.67,4.67,0,0,1-1.83,6.19,4.34,4.34,0,0,1-6-1.9A4.67,4.67,0,0,1,1050.35,992Z" fill="red"/><path d="M1063,945.89a4.53,4.53,0,0,1,6.24,2,4.88,4.88,0,0,1-1.92,6.47,4.53,4.53,0,0,1-6.24-2A4.88,4.88,0,0,1,1063,945.89Z" fill="red"/><path d="M1145,912.6a4.66,4.66,0,0,1,6.42,2,5,5,0,0,1-2,6.66,4.65,4.65,0,0,1-6.42-2A5,5,0,0,1,1145,912.6Z" fill="red"/><path d="M1249.09,982.5a4.8,4.8,0,0,1,6.61,2.1,5.16,5.16,0,0,1-2,6.86,4.81,4.81,0,0,1-6.61-2.11A5.17,5.17,0,0,1,1249.09,982.5Z" fill="red"/><path d="M1201.14,899.92a5,5,0,0,1,6.88,2.19,5.38,5.38,0,0,1-2.11,7.14,5,5,0,0,1-6.89-2.19A5.38,5.38,0,0,1,1201.14,899.92Z" fill="red"/><path d="M1257.69,790.58a5.33,5.33,0,0,1,7.34,2.34,5.75,5.75,0,0,1-2.26,7.62,5.35,5.35,0,0,1-7.34-2.34A5.75,5.75,0,0,1,1257.69,790.58Z" fill="red"/><path d="M1296.5,765.19a5.47,5.47,0,0,1,7.53,2.39,5.9,5.9,0,0,1-2.32,7.81,5.47,5.47,0,0,1-7.52-2.4A5.87,5.87,0,0,1,1296.5,765.19Z" fill="red"/><ellipse cx="1359.14" cy="683.42" rx="5.84" ry="6.06" fill="red"/><path d="M1415.4,653.38a6,6,0,0,1,8.26,2.63,6.45,6.45,0,0,1-2.54,8.57,6,6,0,0,1-8.26-2.64A6.45,6.45,0,0,1,1415.4,653.38Z" fill="red"/><path d="M1545.74,621a6.4,6.4,0,0,1,8.81,2.81,6.87,6.87,0,0,1-2.7,9.13,6.4,6.4,0,0,1-8.81-2.8A6.88,6.88,0,0,1,1545.74,621Z" fill="red"/><path d="M1660.17,589.86a6.6,6.6,0,0,1,9.09,2.89,7.12,7.12,0,0,1-2.8,9.43,6.6,6.6,0,0,1-9.08-2.9A7.1,7.1,0,0,1,1660.17,589.86Z" fill="red"/><path d="M1779.6,691.88a7,7,0,0,1,9.55,3,7.46,7.46,0,0,1-2.93,9.9,6.93,6.93,0,0,1-9.55-3A7.47,7.47,0,0,1,1779.6,691.88Z" fill="red"/><path d="M715.12,925.25a3.34,3.34,0,0,1,4.59,1.47,3.6,3.6,0,0,1-1.41,4.76,3.34,3.34,0,0,1-4.59-1.47A3.58,3.58,0,0,1,715.12,925.25Z" fill="red" opacity="0.69"/><path d="M716.68,945.6a3.31,3.31,0,0,1,4.58,1.46,3.58,3.58,0,0,1-1.41,4.76,3.33,3.33,0,0,1-4.58-1.47A3.57,3.57,0,0,1,716.68,945.6Z" fill="red" opacity="0.72"/><path d="M765,884.21a3.48,3.48,0,0,1,4.78,1.53,3.74,3.74,0,0,1-1.47,5,3.47,3.47,0,0,1-4.77-1.53A3.73,3.73,0,0,1,765,884.21Z" fill="red" opacity="0.76"/><path d="M751,850.73a3.53,3.53,0,0,1,4.86,1.55,3.8,3.8,0,0,1-1.49,5,3.53,3.53,0,0,1-4.87-1.55A3.79,3.79,0,0,1,751,850.73Z" fill="red" opacity="0.81"/><path d="M736.87,776.39A3.73,3.73,0,0,1,742,778a4,4,0,0,1-1.58,5.33,3.74,3.74,0,0,1-5.14-1.64A4,4,0,0,1,736.87,776.39Z" fill="red" opacity="0.88"/><path d="M752.56,690.55a3.86,3.86,0,0,1,5.32,1.69,4.15,4.15,0,0,1-1.63,5.52,3.87,3.87,0,0,1-5.33-1.69A4.17,4.17,0,0,1,752.56,690.55Z" fill="red" opacity="0.94"/><path d="M779.85,680.49a3.93,3.93,0,0,1,5.41,1.73,4.23,4.23,0,0,1-1.66,5.61,3.94,3.94,0,0,1-5.42-1.72A4.24,4.24,0,0,1,779.85,680.49Z" fill="red" opacity="0.97"/><path d="M852.39,781.27A4,4,0,0,1,857.9,783a4.31,4.31,0,0,1-1.69,5.71A4,4,0,0,1,850.7,787,4.31,4.31,0,0,1,852.39,781.27Z" fill="red"/><path d="M922.3,766.2a4.06,4.06,0,0,1,5.59,1.79,4.36,4.36,0,0,1-1.72,5.8,4,4,0,0,1-5.59-1.78A4.36,4.36,0,0,1,922.3,766.2Z" fill="red"/><path d="M956.49,728.76a4.27,4.27,0,0,1,5.87,1.87,4.59,4.59,0,0,1-1.8,6.1,4.28,4.28,0,0,1-5.88-1.88A4.6,4.6,0,0,1,956.49,728.76Z" fill="red"/><path d="M1048.07,865.15a4.32,4.32,0,0,1,6,1.9,4.65,4.65,0,0,1-1.83,6.18,4.32,4.32,0,0,1-6-1.9A4.65,4.65,0,0,1,1048.07,865.15Z" fill="red"/><path d="M1107.09,858.85a4.39,4.39,0,0,1,6.05,1.93,4.73,4.73,0,0,1-1.86,6.28,4.39,4.39,0,0,1-6-1.93A4.73,4.73,0,0,1,1107.09,858.85Z" fill="red"/><path d="M1178.43,883a4.53,4.53,0,0,1,6.24,2,4.86,4.86,0,0,1-1.92,6.47,4.53,4.53,0,0,1-6.24-2A4.88,4.88,0,0,1,1178.43,883Z" fill="red"/><path d="M1233.63,846.2a4.66,4.66,0,0,1,6.42,2,5,5,0,0,1-2,6.66,4.67,4.67,0,0,1-6.43-2A5,5,0,0,1,1233.63,846.2Z" fill="red"/><ellipse cx="1256.06" cy="891.01" rx="4.89" ry="5.07" fill="red"/><path d="M1257.86,621a5.14,5.14,0,0,1,7.07,2.26,5.53,5.53,0,0,1-2.17,7.33,5.14,5.14,0,0,1-7.07-2.26A5.53,5.53,0,0,1,1257.86,621Z" fill="red"/><path d="M1309.45,680.61a5.34,5.34,0,0,1,7.35,2.34,5.74,5.74,0,0,1-2.26,7.61,5.33,5.33,0,0,1-7.34-2.34A5.72,5.72,0,0,1,1309.45,680.61Z" fill="red"/><path d="M1365.28,612.87a5.53,5.53,0,0,1,7.62,2.43,6,6,0,0,1-2.34,7.9,5.54,5.54,0,0,1-7.62-2.43A6,6,0,0,1,1365.28,612.87Z" fill="red"/><path d="M1373.06,496.07a5.8,5.8,0,0,1,8,2.54,6.23,6.23,0,0,1-2.46,8.28,5.79,5.79,0,0,1-8-2.54A6.24,6.24,0,0,1,1373.06,496.07Z" fill="red"/><path d="M1498.84,464.63a6.14,6.14,0,0,1,8.44,2.69,6.59,6.59,0,0,1-2.59,8.76,6.13,6.13,0,0,1-8.44-2.69A6.6,6.6,0,0,1,1498.84,464.63Z" fill="red"/><path d="M1624.76,514.09a6.4,6.4,0,0,1,8.81,2.8,6.89,6.89,0,0,1-2.71,9.14,6.4,6.4,0,0,1-8.81-2.81A6.88,6.88,0,0,1,1624.76,514.09Z" fill="red"/><path d="M1748.82,482a6.54,6.54,0,0,1,9,2.87,7,7,0,0,1-2.77,9.33,6.54,6.54,0,0,1-9-2.87A7,7,0,0,1,1748.82,482Z" fill="red"/><path d="M1898,588.09a6.87,6.87,0,0,1,9.46,3,7.39,7.39,0,0,1-2.91,9.8,6.86,6.86,0,0,1-9.45-3A7.38,7.38,0,0,1,1898,588.09Z" fill="red"/><path d="M770.64,870.59a3.26,3.26,0,0,1,4.49,1.44,3.51,3.51,0,0,1-1.38,4.66,3.28,3.28,0,0,1-4.5-1.43A3.52,3.52,0,0,1,770.64,870.59Z" fill="red" opacity="0.68"/><path d="M785.57,886.45a3.34,3.34,0,0,1,4.59,1.46,3.58,3.58,0,0,1-1.41,4.76,3.34,3.34,0,0,1-4.59-1.46A3.6,3.6,0,0,1,785.57,886.45Z" fill="red" opacity="0.72"/><path d="M831,847.07a3.46,3.46,0,0,1,4.77,1.52,3.73,3.73,0,0,1-1.46,4.95,3.48,3.48,0,0,1-4.77-1.52A3.72,3.72,0,0,1,831,847.07Z" fill="red" opacity="0.75"/><path d="M833.11,787.89a3.6,3.6,0,0,1,4.95,1.58,3.87,3.87,0,0,1-1.52,5.14,3.61,3.61,0,0,1-5-1.58A3.87,3.87,0,0,1,833.11,787.89Z" fill="red" opacity="0.81"/><path d="M796.48,740a3.67,3.67,0,0,1,5,1.61,4,4,0,0,1-1.55,5.24,3.67,3.67,0,0,1-5.05-1.61A4,4,0,0,1,796.48,740Z" fill="red" opacity="0.86"/><path d="M810.22,671.37a3.8,3.8,0,0,1,5.23,1.66,4.1,4.1,0,0,1-1.6,5.43,3.81,3.81,0,0,1-5.24-1.67A4.08,4.08,0,0,1,810.22,671.37Z" fill="red" opacity="0.92"/><path d="M865.67,649.82a3.87,3.87,0,0,1,5.33,1.69,4.17,4.17,0,0,1-1.64,5.52,3.86,3.86,0,0,1-5.32-1.69A4.15,4.15,0,0,1,865.67,649.82Z" fill="red" opacity="0.96"/><path d="M925.35,664.35a3.93,3.93,0,0,1,5.41,1.73,4.24,4.24,0,0,1-1.66,5.62,3.93,3.93,0,0,1-5.41-1.73A4.23,4.23,0,0,1,925.35,664.35Z" fill="red"/><path d="M1006.94,687.65a4.07,4.07,0,0,1,5.6,1.78,4.38,4.38,0,0,1-1.72,5.81,4.07,4.07,0,0,1-5.6-1.79A4.37,4.37,0,0,1,1006.94,687.65Z" fill="red"/><path d="M967.13,668.09a4.2,4.2,0,0,1,5.79,1.84,4.53,4.53,0,0,1-1.78,6,4.2,4.2,0,0,1-5.78-1.85A4.51,4.51,0,0,1,967.13,668.09Z" fill="red"/><path d="M1057.43,648.42a4.34,4.34,0,0,1,6,1.9,4.66,4.66,0,0,1-1.84,6.19,4.33,4.33,0,0,1-6-1.9A4.67,4.67,0,0,1,1057.43,648.42Z" fill="red"/><path d="M1157.74,774.51a4.4,4.4,0,0,1,6,1.93,4.73,4.73,0,0,1-1.86,6.28,4.41,4.41,0,0,1-6.06-1.93A4.74,4.74,0,0,1,1157.74,774.51Z" fill="red"/><path d="M1205.75,778.25a4.53,4.53,0,0,1,6.24,2,4.88,4.88,0,0,1-1.92,6.47,4.53,4.53,0,0,1-6.24-2A4.86,4.86,0,0,1,1205.75,778.25Z" fill="red"/><path d="M1314.33,758.73a4.68,4.68,0,0,1,6.43,2,5,5,0,0,1-2,6.66,4.66,4.66,0,0,1-6.42-2.05A5,5,0,0,1,1314.33,758.73Z" fill="red"/><ellipse cx="1342.38" cy="730.01" rx="4.96" ry="5.14" fill="red"/><path d="M1317.92,504.69a5.21,5.21,0,0,1,7.16,2.29,5.58,5.58,0,0,1-2.2,7.42,5.19,5.19,0,0,1-7.15-2.28A5.6,5.6,0,0,1,1317.92,504.69Z" fill="red"/><path d="M1395.89,491.73a5.34,5.34,0,0,1,7.35,2.34,5.74,5.74,0,0,1-2.26,7.61,5.33,5.33,0,0,1-7.34-2.34A5.72,5.72,0,0,1,1395.89,491.73Z" fill="red"/><path d="M1409.07,459.46a5.54,5.54,0,0,1,7.62,2.43,6,6,0,0,1-2.34,7.9,5.53,5.53,0,0,1-7.62-2.43A6,6,0,0,1,1409.07,459.46Z" fill="red"/><path d="M1441,307a5.94,5.94,0,0,1,8.17,2.6,6.39,6.39,0,0,1-2.51,8.48,5.94,5.94,0,0,1-8.17-2.61A6.39,6.39,0,0,1,1441,307Z" fill="red"/><path d="M1557.79,278a6.14,6.14,0,0,1,8.44,2.69,6.59,6.59,0,0,1-2.59,8.76,6.14,6.14,0,0,1-8.45-2.69A6.61,6.61,0,0,1,1557.79,278Z" fill="red"/><path d="M1721.09,346.07a6.27,6.27,0,0,1,8.63,2.75,6.75,6.75,0,0,1-2.65,8.95,6.28,6.28,0,0,1-8.63-2.75A6.75,6.75,0,0,1,1721.09,346.07Z" fill="red"/><path d="M1825.24,426.29a6.48,6.48,0,0,1,8.9,2.84,7,7,0,0,1-2.73,9.24,6.49,6.49,0,0,1-8.91-2.84A7,7,0,0,1,1825.24,426.29Z" fill="red"/><path d="M812.73,843.8a3.26,3.26,0,0,1,4.49,1.43,3.51,3.51,0,0,1-1.38,4.66,3.27,3.27,0,0,1-4.5-1.43A3.51,3.51,0,0,1,812.73,843.8Z" fill="red" opacity="0.68"/><path d="M845.55,843.53a3.33,3.33,0,0,1,4.59,1.46,3.58,3.58,0,0,1-1.41,4.76,3.34,3.34,0,0,1-4.59-1.46A3.58,3.58,0,0,1,845.55,843.53Z" fill="red" opacity="0.7"/><path d="M900.81,827a3.4,3.4,0,0,1,4.68,1.49,3.66,3.66,0,0,1-1.43,4.86,3.41,3.41,0,0,1-4.69-1.5A3.66,3.66,0,0,1,900.81,827Z" fill="red" opacity="0.75"/><path d="M908.43,789.29a3.53,3.53,0,0,1,4.86,1.55,3.8,3.8,0,0,1-1.49,5,3.54,3.54,0,0,1-4.87-1.55A3.79,3.79,0,0,1,908.43,789.29Z" fill="red" opacity="0.79"/><path d="M885.7,747.67a3.6,3.6,0,0,1,5,1.58,3.88,3.88,0,0,1-1.53,5.14,3.61,3.61,0,0,1-5-1.58A3.87,3.87,0,0,1,885.7,747.67Z" fill="red" opacity="0.83"/><path d="M954.4,697a3.73,3.73,0,0,1,5.14,1.64A4,4,0,0,1,958,704a3.74,3.74,0,0,1-5.14-1.64A4,4,0,0,1,954.4,697Z" fill="red" opacity="0.88"/><path d="M956.38,662.52a3.87,3.87,0,0,1,5.32,1.7,4.15,4.15,0,0,1-1.64,5.52,3.86,3.86,0,0,1-5.32-1.7A4.15,4.15,0,0,1,956.38,662.52Z" fill="red" opacity="0.95"/><path d="M1008.32,669.44a4,4,0,0,1,5.5,1.75,4.29,4.29,0,0,1-1.69,5.71,4,4,0,0,1-5.51-1.75A4.31,4.31,0,0,1,1008.32,669.44Z" fill="red"/><path d="M1077.93,677.72a4.07,4.07,0,0,1,5.6,1.78,4.38,4.38,0,0,1-1.72,5.81,4.07,4.07,0,0,1-5.6-1.79A4.37,4.37,0,0,1,1077.93,677.72Z" fill="red"/><path d="M1107.7,640.64a4.13,4.13,0,0,1,5.69,1.81,4.44,4.44,0,0,1-1.75,5.9,4.13,4.13,0,0,1-5.69-1.81A4.45,4.45,0,0,1,1107.7,640.64Z" fill="red"/><path d="M1146.23,656.35a4.28,4.28,0,0,1,5.88,1.88,4.6,4.6,0,0,1-1.81,6.09,4.27,4.27,0,0,1-5.87-1.87A4.6,4.6,0,0,1,1146.23,656.35Z" fill="red"/><path d="M1241.47,666.81a4.4,4.4,0,0,1,6.06,1.93,4.73,4.73,0,0,1-1.86,6.28,4.4,4.4,0,0,1-6.06-1.93A4.74,4.74,0,0,1,1241.47,666.81Z" fill="red"/><path d="M1290.48,621.22a4.62,4.62,0,0,1,6.34,2,5,5,0,0,1-2,6.57,4.6,4.6,0,0,1-6.33-2A5,5,0,0,1,1290.48,621.22Z" fill="red"/><path d="M1328.2,576a4.67,4.67,0,0,1,6.43,2,5,5,0,0,1-2,6.67,4.68,4.68,0,0,1-6.43-2A5,5,0,0,1,1328.2,576Z" fill="red"/><path d="M1393.15,518.1a4.94,4.94,0,0,1,6.8,2.16,5.3,5.3,0,0,1-2.09,7,4.93,4.93,0,0,1-6.79-2.16A5.3,5.3,0,0,1,1393.15,518.1Z" fill="red"/><path d="M1367,483.77a5.07,5.07,0,0,1,7,2.23,5.45,5.45,0,0,1-2.15,7.23,5.07,5.07,0,0,1-7-2.22A5.46,5.46,0,0,1,1367,483.77Z" fill="red"/><path d="M1419.06,404.72a5.34,5.34,0,0,1,7.34,2.34,5.75,5.75,0,0,1-2.26,7.62,5.33,5.33,0,0,1-7.34-2.34A5.75,5.75,0,0,1,1419.06,404.72Z" fill="red"/><path d="M1497.75,209.1a5.75,5.75,0,0,1,7.9,2.52,6.17,6.17,0,0,1-2.43,8.19,5.74,5.74,0,0,1-7.89-2.52A6.17,6.17,0,0,1,1497.75,209.1Z" fill="red"/><path d="M1596.92,240a5.8,5.8,0,0,1,8,2.55,6.24,6.24,0,0,1-2.45,8.28,5.8,5.8,0,0,1-8-2.55A6.24,6.24,0,0,1,1596.92,240Z" fill="red"/><path d="M1677.9,268.6a6.06,6.06,0,0,1,8.35,2.66,6.52,6.52,0,0,1-2.56,8.66,6.06,6.06,0,0,1-8.35-2.66A6.53,6.53,0,0,1,1677.9,268.6Z" fill="red"/><path d="M1899.93,331.85a6.26,6.26,0,0,1,8.62,2.75,6.74,6.74,0,0,1-2.65,8.95,6.28,6.28,0,0,1-8.63-2.75A6.75,6.75,0,0,1,1899.93,331.85Z" fill="red"/><path d="M870.73,806.34a3.28,3.28,0,0,1,4.5,1.43,3.53,3.53,0,0,1-1.38,4.67,3.27,3.27,0,0,1-4.5-1.44A3.51,3.51,0,0,1,870.73,806.34Z" fill="red" opacity="0.67"/><path d="M923.91,825a3.26,3.26,0,0,1,4.5,1.43A3.51,3.51,0,0,1,927,831.1a3.26,3.26,0,0,1-4.49-1.43A3.51,3.51,0,0,1,923.91,825Z" fill="red" opacity="0.69"/><path d="M955.41,829.37a3.33,3.33,0,0,1,4.59,1.46,3.58,3.58,0,0,1-1.41,4.76,3.34,3.34,0,0,1-4.59-1.46A3.59,3.59,0,0,1,955.41,829.37Z" fill="red" opacity="0.72"/><path d="M988.36,801.22a3.46,3.46,0,0,1,4.77,1.52,3.72,3.72,0,0,1-1.46,5,3.48,3.48,0,0,1-4.78-1.52A3.73,3.73,0,0,1,988.36,801.22Z" fill="red" opacity="0.77"/><path d="M1004.75,754.35a3.61,3.61,0,0,1,5,1.58,3.87,3.87,0,0,1-1.52,5.14,3.6,3.6,0,0,1-5-1.58A3.88,3.88,0,0,1,1004.75,754.35Z" fill="red" opacity="0.82"/><path d="M1056.32,729a3.67,3.67,0,0,1,5,1.61,3.94,3.94,0,0,1-1.55,5.23,3.66,3.66,0,0,1-5-1.6A4,4,0,0,1,1056.32,729Z" fill="red" opacity="0.85"/><path d="M1069.42,692.19a3.82,3.82,0,0,1,5.24,1.67,4.09,4.09,0,0,1-1.61,5.43,3.8,3.8,0,0,1-5.23-1.67A4.1,4.1,0,0,1,1069.42,692.19Z" fill="red" opacity="0.9"/><ellipse cx="1085.69" cy="667.64" rx="4.01" ry="4.15" fill="red" opacity="0.98"/><path d="M1146.65,608.15a4.07,4.07,0,0,1,5.6,1.78,4.38,4.38,0,0,1-1.72,5.81,4.07,4.07,0,0,1-5.6-1.78A4.38,4.38,0,0,1,1146.65,608.15Z" fill="red"/><path d="M1191.69,582.44a4.15,4.15,0,0,1,5.69,1.82,4.46,4.46,0,0,1-1.75,5.9,4.13,4.13,0,0,1-5.69-1.81A4.45,4.45,0,0,1,1191.69,582.44Z" fill="red"/><path d="M1234.3,594.72a4.28,4.28,0,0,1,5.88,1.88,4.6,4.6,0,0,1-1.81,6.09,4.27,4.27,0,0,1-5.87-1.87A4.59,4.59,0,0,1,1234.3,594.72Z" fill="red"/><path d="M1290.69,623.42a4.4,4.4,0,0,1,6,1.93,4.74,4.74,0,0,1-1.86,6.29,4.41,4.41,0,0,1-6.06-1.93A4.75,4.75,0,0,1,1290.69,623.42Z" fill="red"/><path d="M1310.85,439.57a4.68,4.68,0,0,1,6.43,2.05,5,5,0,0,1-2,6.66,4.66,4.66,0,0,1-6.42-2A5,5,0,0,1,1310.85,439.57Z" fill="red"/><path d="M1321.24,451.47a4.73,4.73,0,0,1,6.51,2.08,5.09,5.09,0,0,1-2,6.76,4.74,4.74,0,0,1-6.52-2.08A5.1,5.1,0,0,1,1321.24,451.47Z" fill="red"/><path d="M1337.41,256.19a5,5,0,0,1,6.88,2.19,5.37,5.37,0,0,1-2.12,7.14,5,5,0,0,1-6.88-2.19A5.38,5.38,0,0,1,1337.41,256.19Z" fill="red"/><path d="M1433.23,223.29a5.27,5.27,0,0,1,7.26,2.31,5.67,5.67,0,0,1-2.23,7.52,5.27,5.27,0,0,1-7.25-2.31A5.66,5.66,0,0,1,1433.23,223.29Z" fill="red"/><path d="M1489.31,165.06a5.39,5.39,0,0,1,7.43,2.36,5.81,5.81,0,0,1-2.28,7.71,5.4,5.4,0,0,1-7.44-2.36A5.81,5.81,0,0,1,1489.31,165.06Z" fill="red"/><path d="M1658.47,215.68a5.6,5.6,0,0,1,7.71,2.46,6,6,0,0,1-2.37,8,5.6,5.6,0,0,1-7.71-2.46A6,6,0,0,1,1658.47,215.68Z" fill="red"/><path d="M1650.35,242.94a5.74,5.74,0,0,1,7.89,2.52,6.16,6.16,0,0,1-2.43,8.18,5.73,5.73,0,0,1-7.89-2.51A6.17,6.17,0,0,1,1650.35,242.94Z" fill="red"/><path d="M1890.32,255.77a6,6,0,0,1,8.26,2.63,6.46,6.46,0,0,1-2.53,8.57,6,6,0,0,1-8.26-2.64A6.45,6.45,0,0,1,1890.32,255.77Z" fill="red"/><path d="M954.64,786a3.26,3.26,0,0,1,4.49,1.44,3.5,3.5,0,0,1-1.38,4.66,3.28,3.28,0,0,1-4.5-1.43A3.52,3.52,0,0,1,954.64,786Z" fill="red" opacity="0.67"/><path d="M1004.38,803.25a3.28,3.28,0,0,1,4.5,1.43,3.53,3.53,0,0,1-1.38,4.67,3.27,3.27,0,0,1-4.5-1.44A3.51,3.51,0,0,1,1004.38,803.25Z" fill="red" opacity="0.68"/><path d="M1040.3,817.46a3.33,3.33,0,0,1,4.59,1.46,3.58,3.58,0,0,1-1.41,4.76,3.34,3.34,0,0,1-4.59-1.46A3.58,3.58,0,0,1,1040.3,817.46Z" fill="red" opacity="0.71"/><path d="M1096.26,798.26a3.46,3.46,0,0,1,4.77,1.52,3.73,3.73,0,0,1-1.46,5,3.49,3.49,0,0,1-4.78-1.52A3.73,3.73,0,0,1,1096.26,798.26Z" fill="red" opacity="0.76"/><path d="M1114.14,778.07a3.54,3.54,0,0,1,4.87,1.55,3.79,3.79,0,0,1-1.5,5,3.53,3.53,0,0,1-4.86-1.55A3.8,3.8,0,0,1,1114.14,778.07Z" fill="red" opacity="0.79"/><path d="M1115.12,744.78a3.59,3.59,0,0,1,5,1.58,3.87,3.87,0,0,1-1.52,5.14,3.61,3.61,0,0,1-5-1.58A3.88,3.88,0,0,1,1115.12,744.78Z" fill="red" opacity="0.83"/><path d="M1166.91,689.46a3.73,3.73,0,0,1,5.14,1.64,4,4,0,0,1-1.58,5.33,3.74,3.74,0,0,1-5.14-1.64A4,4,0,0,1,1166.91,689.46Z" fill="red" opacity="0.9"/><path d="M1166.19,669.85a3.87,3.87,0,0,1,5.33,1.7,4.17,4.17,0,0,1-1.64,5.52,3.87,3.87,0,0,1-5.32-1.7A4.16,4.16,0,0,1,1166.19,669.85Z" fill="red" opacity="0.94"/><path d="M1191.43,589.92a4,4,0,0,1,5.51,1.75,4.31,4.31,0,0,1-1.69,5.71,4,4,0,0,1-5.51-1.75A4.29,4.29,0,0,1,1191.43,589.92Z" fill="red"/><path d="M1249.91,554.59a4.13,4.13,0,0,1,5.69,1.81,4.45,4.45,0,0,1-1.75,5.9,4.13,4.13,0,0,1-5.69-1.81A4.44,4.44,0,0,1,1249.91,554.59Z" fill="red"/><path d="M1275.16,464.61a4.33,4.33,0,0,1,6,1.9,4.65,4.65,0,0,1-1.84,6.18,4.32,4.32,0,0,1-6-1.9A4.66,4.66,0,0,1,1275.16,464.61Z" fill="red"/><path d="M1336.91,434.18a4.46,4.46,0,0,1,6.15,1.95,4.81,4.81,0,0,1-1.89,6.38,4.46,4.46,0,0,1-6.15-2A4.79,4.79,0,0,1,1336.91,434.18Z" fill="red"/><path d="M1382.25,219.43a4.87,4.87,0,0,1,6.7,2.14,5.24,5.24,0,0,1-2.06,7,4.87,4.87,0,0,1-6.7-2.14A5.24,5.24,0,0,1,1382.25,219.43Z" fill="red"/><path d="M1449.55,178.22a5,5,0,0,1,6.88,2.19,5.38,5.38,0,0,1-2.11,7.14,5,5,0,0,1-6.89-2.19A5.39,5.39,0,0,1,1449.55,178.22Z" fill="red"/><path d="M1488.82,175.52a5.21,5.21,0,0,1,7.16,2.29,5.59,5.59,0,0,1-2.2,7.42,5.2,5.2,0,0,1-7.16-2.28A5.6,5.6,0,0,1,1488.82,175.52Z" fill="red"/><path d="M1578.5,95.71a5.41,5.41,0,0,1,7.44,2.37,5.81,5.81,0,0,1-2.29,7.71,5.4,5.4,0,0,1-7.43-2.37A5.82,5.82,0,0,1,1578.5,95.71Z" fill="red"/><path d="M1687.27,181.53a5.53,5.53,0,0,1,7.62,2.42,6,6,0,0,1-2.34,7.9,5.54,5.54,0,0,1-7.62-2.42A6,6,0,0,1,1687.27,181.53Z" fill="red"/><path d="M1780.86,225.88a5.67,5.67,0,0,1,7.8,2.49,6.1,6.1,0,0,1-2.4,8.09,5.67,5.67,0,0,1-7.8-2.49A6.1,6.1,0,0,1,1780.86,225.88Z" fill="red"/><path d="M1007.59,766.66a3.2,3.2,0,0,1,4.4,1.41,3.45,3.45,0,0,1-1.35,4.57,3.21,3.21,0,0,1-4.41-1.41A3.45,3.45,0,0,1,1007.59,766.66Z" fill="red" opacity="0.66"/><path d="M1076,799.92a3.28,3.28,0,0,1,4.5,1.43,3.53,3.53,0,0,1-1.38,4.67,3.27,3.27,0,0,1-4.5-1.44A3.51,3.51,0,0,1,1076,799.92Z" fill="red" opacity="0.68"/><path d="M1146.9,806.68a3.34,3.34,0,0,1,4.59,1.47,3.6,3.6,0,0,1-1.41,4.76,3.34,3.34,0,0,1-4.59-1.47A3.59,3.59,0,0,1,1146.9,806.68Z" fill="red" opacity="0.7"/><path d="M1135.08,803.7a3.4,3.4,0,0,1,4.68,1.49,3.67,3.67,0,0,1-1.44,4.86,3.4,3.4,0,0,1-4.68-1.5A3.65,3.65,0,0,1,1135.08,803.7Z" fill="red" opacity="0.73"/><path d="M1224.45,776.81a3.47,3.47,0,0,1,4.77,1.52,3.72,3.72,0,0,1-1.46,4.95,3.46,3.46,0,0,1-4.77-1.52A3.72,3.72,0,0,1,1224.45,776.81Z" fill="red" opacity="0.77"/><path d="M1212.51,721.85a3.6,3.6,0,0,1,5,1.58,3.87,3.87,0,0,1-1.52,5.14,3.58,3.58,0,0,1-5-1.58A3.87,3.87,0,0,1,1212.51,721.85Z" fill="red" opacity="0.83"/><path d="M1197.19,632.17a3.74,3.74,0,0,1,5.14,1.64,4,4,0,0,1-1.58,5.33,3.73,3.73,0,0,1-5.14-1.64A4,4,0,0,1,1197.19,632.17Z" fill="red" opacity="0.9"/><path d="M1272.43,659.28a3.79,3.79,0,0,1,5.23,1.66,4.09,4.09,0,0,1-1.61,5.43,3.8,3.8,0,0,1-5.23-1.67A4.08,4.08,0,0,1,1272.43,659.28Z" fill="red" opacity="0.93"/><path d="M1322.28,560a4,4,0,0,1,5.51,1.75,4.3,4.3,0,0,1-1.69,5.71,4,4,0,0,1-5.51-1.75A4.31,4.31,0,0,1,1322.28,560Z" fill="red"/><path d="M1318.75,540.9a4.07,4.07,0,0,1,5.6,1.78,4.38,4.38,0,0,1-1.72,5.81,4.07,4.07,0,0,1-5.6-1.78A4.38,4.38,0,0,1,1318.75,540.9Z" fill="red"/><path d="M1418.4,499.84a4.2,4.2,0,0,1,5.78,1.84,4.53,4.53,0,0,1-1.77,6,4.22,4.22,0,0,1-5.79-1.85A4.51,4.51,0,0,1,1418.4,499.84Z" fill="red"/><path d="M1419.71,361.49a4.4,4.4,0,0,1,6.06,1.93,4.73,4.73,0,0,1-1.86,6.28,4.4,4.4,0,0,1-6.06-1.93A4.74,4.74,0,0,1,1419.71,361.49Z" fill="red"/><path d="M1430,238.77a4.61,4.61,0,0,1,6.34,2,5,5,0,0,1-1.95,6.57,4.61,4.61,0,0,1-6.33-2A5,5,0,0,1,1430,238.77Z" fill="red"/><path d="M1450.22,194.11a4.73,4.73,0,0,1,6.51,2.08,5.1,5.1,0,0,1-2,6.76,4.74,4.74,0,0,1-6.52-2.08A5.1,5.1,0,0,1,1450.22,194.11Z" fill="red"/><path d="M1518.1,167.72a4.93,4.93,0,0,1,6.79,2.16,5.31,5.31,0,0,1-2.09,7.05,4.93,4.93,0,0,1-6.79-2.17A5.31,5.31,0,0,1,1518.1,167.72Z" fill="red"/><path d="M1620.26,154.28a5.14,5.14,0,0,1,7.07,2.26,5.53,5.53,0,0,1-2.17,7.33,5.14,5.14,0,0,1-7.07-2.26A5.53,5.53,0,0,1,1620.26,154.28Z" fill="red"/><path d="M1657.25,124.87a5.27,5.27,0,0,1,7.25,2.31,5.67,5.67,0,0,1-2.22,7.52,5.27,5.27,0,0,1-7.25-2.31A5.67,5.67,0,0,1,1657.25,124.87Z" fill="red"/><path d="M1788.32,162.89a5.39,5.39,0,0,1,7.43,2.37,5.82,5.82,0,0,1-2.28,7.71,5.42,5.42,0,0,1-7.44-2.37A5.81,5.81,0,0,1,1788.32,162.89Z" fill="red"/><path d="M1073.06,746.38a3.19,3.19,0,0,1,4.4,1.4,3.44,3.44,0,0,1-1.35,4.57,3.19,3.19,0,0,1-4.4-1.4A3.44,3.44,0,0,1,1073.06,746.38Z" fill="red" opacity="0.64"/><path d="M1170,780.82a3.27,3.27,0,0,1,4.5,1.44,3.51,3.51,0,0,1-1.39,4.66,3.26,3.26,0,0,1-4.49-1.43A3.52,3.52,0,0,1,1170,780.82Z" fill="red" opacity="0.67"/><path d="M1185.24,791.51a3.27,3.27,0,0,1,4.5,1.43,3.51,3.51,0,0,1-1.38,4.66,3.27,3.27,0,0,1-4.5-1.43A3.51,3.51,0,0,1,1185.24,791.51Z" fill="red" opacity="0.68"/><path d="M1213.33,788.74a3.41,3.41,0,0,1,4.69,1.49,3.67,3.67,0,0,1-1.44,4.86,3.4,3.4,0,0,1-4.68-1.5A3.65,3.65,0,0,1,1213.33,788.74Z" fill="red" opacity="0.72"/><path d="M1292.34,754.64a3.46,3.46,0,0,1,4.77,1.52,3.72,3.72,0,0,1-1.46,5,3.47,3.47,0,0,1-4.78-1.52A3.74,3.74,0,0,1,1292.34,754.64Z" fill="red" opacity="0.77"/><path d="M1288.71,732.49a3.54,3.54,0,0,1,4.86,1.55,3.81,3.81,0,0,1-1.49,5.05,3.55,3.55,0,0,1-4.87-1.55A3.81,3.81,0,0,1,1288.71,732.49Z" fill="red" opacity="0.8"/><path d="M1324.1,682.36a3.67,3.67,0,0,1,5.05,1.61,4,4,0,0,1-1.55,5.23,3.67,3.67,0,0,1-5-1.61A3.94,3.94,0,0,1,1324.1,682.36Z" fill="red" opacity="0.84"/><path d="M1394.41,655.75a3.73,3.73,0,0,1,5.14,1.64,4,4,0,0,1-1.58,5.33,3.74,3.74,0,0,1-5.14-1.64A4,4,0,0,1,1394.41,655.75Z" fill="red" opacity="0.89"/><path d="M1424,565.75a3.94,3.94,0,0,1,5.42,1.73,4.24,4.24,0,0,1-1.66,5.62,3.94,3.94,0,0,1-5.42-1.73A4.25,4.25,0,0,1,1424,565.75Z" fill="red" opacity="0.99"/><path d="M1441.7,537.47a4,4,0,0,1,5.51,1.76,4.3,4.3,0,0,1-1.69,5.71,4,4,0,0,1-5.51-1.75A4.32,4.32,0,0,1,1441.7,537.47Z" fill="red"/><path d="M1494.15,518.45a4.15,4.15,0,0,1,5.69,1.82,4.46,4.46,0,0,1-1.75,5.9,4.13,4.13,0,0,1-5.69-1.81A4.45,4.45,0,0,1,1494.15,518.45Z" fill="red"/><path d="M1529.77,378.39a4.32,4.32,0,0,1,6,1.9,4.66,4.66,0,0,1-1.83,6.18,4.33,4.33,0,0,1-6-1.9A4.65,4.65,0,0,1,1529.77,378.39Z" fill="red"/><path d="M1536.91,237.47a4.53,4.53,0,0,1,6.24,2,4.87,4.87,0,0,1-1.92,6.47,4.53,4.53,0,0,1-6.24-2A4.88,4.88,0,0,1,1536.91,237.47Z" fill="red"/><path d="M1565.79,186.77a4.74,4.74,0,0,1,6.52,2.08,5.1,5.1,0,0,1-2,6.76,4.73,4.73,0,0,1-6.51-2.08A5.1,5.1,0,0,1,1565.79,186.77Z" fill="red"/><path d="M1651.71,161.39a4.93,4.93,0,0,1,6.79,2.16,5.32,5.32,0,0,1-2.09,7,4.94,4.94,0,0,1-6.79-2.17A5.3,5.3,0,0,1,1651.71,161.39Z" fill="red"/><path d="M1720.27,159.64a5,5,0,0,1,6.89,2.2A5.38,5.38,0,0,1,1725,169a5,5,0,0,1-6.88-2.2A5.38,5.38,0,0,1,1720.27,159.64Z" fill="red"/><path d="M1873.08,148.34a5.2,5.2,0,0,1,7.16,2.28A5.58,5.58,0,0,1,1878,158a5.19,5.19,0,0,1-7.15-2.28A5.59,5.59,0,0,1,1873.08,148.34Z" fill="red"/><path d="M1138.94,732.16a3.15,3.15,0,0,1,4.32,1.38,3.37,3.37,0,0,1-1.33,4.47,3.13,3.13,0,0,1-4.31-1.37A3.38,3.38,0,0,1,1138.94,732.16Z" fill="red" opacity="0.63"/><path d="M1231.35,745.21a3.2,3.2,0,0,1,4.41,1.4,3.45,3.45,0,0,1-1.35,4.57,3.21,3.21,0,0,1-4.41-1.41A3.44,3.44,0,0,1,1231.35,745.21Z" fill="red" opacity="0.65"/><path d="M1276.44,771.35a3.27,3.27,0,0,1,4.5,1.43,3.51,3.51,0,0,1-1.38,4.66,3.26,3.26,0,0,1-4.5-1.43A3.51,3.51,0,0,1,1276.44,771.35Z" fill="red" opacity="0.68"/><path d="M1318.08,756.43a3.33,3.33,0,0,1,4.58,1.47,3.58,3.58,0,0,1-1.41,4.76,3.33,3.33,0,0,1-4.58-1.47A3.59,3.59,0,0,1,1318.08,756.43Z" fill="red" opacity="0.71"/><path d="M1350.61,746.28a3.4,3.4,0,0,1,4.68,1.49,3.66,3.66,0,0,1-1.43,4.86,3.4,3.4,0,0,1-4.68-1.49A3.66,3.66,0,0,1,1350.61,746.28Z" fill="red" opacity="0.74"/><path d="M1390.94,686.11a3.53,3.53,0,0,1,4.87,1.55,3.79,3.79,0,0,1-1.5,5,3.53,3.53,0,0,1-4.86-1.55A3.79,3.79,0,0,1,1390.94,686.11Z" fill="red" opacity="0.79"/><path d="M1403.94,675.61a3.61,3.61,0,0,1,5,1.58,3.87,3.87,0,0,1-1.52,5.14,3.61,3.61,0,0,1-5-1.58A3.87,3.87,0,0,1,1403.94,675.61Z" fill="red" opacity="0.83"/><path d="M1469.51,623.64a3.8,3.8,0,0,1,5.23,1.66,4.08,4.08,0,0,1-1.6,5.43,3.8,3.8,0,0,1-5.23-1.67A4.07,4.07,0,0,1,1469.51,623.64Z" fill="red" opacity="0.9"/><path d="M1494.56,604.53a3.8,3.8,0,0,1,5.23,1.67,4.09,4.09,0,0,1-1.61,5.43A3.81,3.81,0,0,1,1493,610,4.09,4.09,0,0,1,1494.56,604.53Z" fill="red" opacity="0.93"/><path d="M1571.19,559.62a4,4,0,0,1,5.51,1.76,4.3,4.3,0,0,1-1.69,5.71,4,4,0,0,1-5.51-1.75A4.31,4.31,0,0,1,1571.19,559.62Z" fill="red"/><path d="M1626.39,537.58a4.13,4.13,0,0,1,5.69,1.81,4.44,4.44,0,0,1-1.75,5.9,4.13,4.13,0,0,1-5.69-1.81A4.45,4.45,0,0,1,1626.39,537.58Z" fill="red"/><path d="M1627.05,396.16a4.34,4.34,0,0,1,6,1.9,4.67,4.67,0,0,1-1.83,6.19,4.34,4.34,0,0,1-6-1.9A4.67,4.67,0,0,1,1627.05,396.16Z" fill="red"/><path d="M1609.54,276.92a4.47,4.47,0,0,1,6.15,2,4.81,4.81,0,0,1-1.89,6.38,4.46,4.46,0,0,1-6.14-2A4.8,4.8,0,0,1,1609.54,276.92Z" fill="red"/><path d="M1682.94,204.47a4.6,4.6,0,0,1,6.33,2,4.94,4.94,0,0,1-1.94,6.56,4.6,4.6,0,0,1-6.34-2A5,5,0,0,1,1682.94,204.47Z" fill="red"/><path d="M1719.36,179.51a4.8,4.8,0,0,1,6.61,2.11,5.17,5.17,0,0,1-2,6.85,4.8,4.8,0,0,1-6.61-2.11A5.17,5.17,0,0,1,1719.36,179.51Z" fill="red"/><path d="M1906.53,164.62a5,5,0,0,1,6.88,2.19,5.38,5.38,0,0,1-2.11,7.14,5,5,0,0,1-6.88-2.19A5.37,5.37,0,0,1,1906.53,164.62Z" fill="red"/><path d="M1232.55,706.94a3.13,3.13,0,0,1,4.31,1.37,3.36,3.36,0,0,1-1.32,4.47,3.13,3.13,0,0,1-4.32-1.37A3.37,3.37,0,0,1,1232.55,706.94Z" fill="red" opacity="0.63"/><path d="M1269.89,711.6a3.19,3.19,0,0,1,4.4,1.4,3.44,3.44,0,0,1-1.35,4.57,3.21,3.21,0,0,1-4.41-1.41A3.44,3.44,0,0,1,1269.89,711.6Z" fill="red" opacity="0.65"/><path d="M1331,704.81a3.27,3.27,0,0,1,4.5,1.43,3.51,3.51,0,0,1-1.38,4.66,3.27,3.27,0,0,1-4.5-1.43A3.51,3.51,0,0,1,1331,704.81Z" fill="red" opacity="0.67"/><path d="M1365.07,706.46a3.4,3.4,0,0,1,4.68,1.49,3.64,3.64,0,0,1-1.43,4.85,3.39,3.39,0,0,1-4.68-1.49A3.65,3.65,0,0,1,1365.07,706.46Z" fill="red" opacity="0.72"/><path d="M1388.7,674.35a3.4,3.4,0,0,1,4.68,1.49,3.66,3.66,0,0,1-1.44,4.85,3.39,3.39,0,0,1-4.68-1.49A3.66,3.66,0,0,1,1388.7,674.35Z" fill="red" opacity="0.75"/><path d="M1414.61,642.81a3.55,3.55,0,0,1,4.87,1.55,3.81,3.81,0,0,1-1.5,5,3.54,3.54,0,0,1-4.86-1.55A3.81,3.81,0,0,1,1414.61,642.81Z" fill="red" opacity="0.8"/><path d="M1445.35,576a3.66,3.66,0,0,1,5,1.61,3.94,3.94,0,0,1-1.55,5.24,3.66,3.66,0,0,1-5-1.61A3.94,3.94,0,0,1,1445.35,576Z" fill="red" opacity="0.85"/><path d="M1504.26,543.82a3.74,3.74,0,0,1,5.14,1.63,4,4,0,0,1-1.58,5.33,3.73,3.73,0,0,1-5.14-1.63A4,4,0,0,1,1504.26,543.82Z" fill="red" opacity="0.89"/><path d="M1558,548.48a3.87,3.87,0,0,1,5.32,1.7,4.16,4.16,0,0,1-1.63,5.52,3.87,3.87,0,0,1-5.33-1.7A4.17,4.17,0,0,1,1558,548.48Z" fill="red" opacity="0.95"/><path d="M1597.85,536.45a3.93,3.93,0,0,1,5.41,1.72,4.23,4.23,0,0,1-1.66,5.62,3.94,3.94,0,0,1-5.42-1.72A4.24,4.24,0,0,1,1597.85,536.45Z" fill="red" opacity="0.99"/><ellipse cx="1676.79" cy="526.13" rx="4.14" ry="4.3" fill="red"/><path d="M1737.55,456.64a4.2,4.2,0,0,1,5.79,1.84,4.53,4.53,0,0,1-1.78,6,4.2,4.2,0,0,1-5.78-1.85A4.51,4.51,0,0,1,1737.55,456.64Z" fill="red"/><path d="M1759.14,336.63a4.34,4.34,0,0,1,6,1.9,4.67,4.67,0,0,1-1.83,6.19,4.34,4.34,0,0,1-6-1.9A4.67,4.67,0,0,1,1759.14,336.63Z" fill="red"/><path d="M1808.37,163.34a4.61,4.61,0,0,1,6.34,2,5,5,0,0,1-2,6.57,4.6,4.6,0,0,1-6.33-2A5,5,0,0,1,1808.37,163.34Z" fill="red"/><path d="M1850.23,154.13a4.79,4.79,0,0,1,6.6,2.1,5.15,5.15,0,0,1-2,6.85,4.79,4.79,0,0,1-6.6-2.1A5.15,5.15,0,0,1,1850.23,154.13Z" fill="red"/></g></svg>